<?xml version="1.0" encoding="UTF-8"?>
<!-- Generator: visioncortex VTracer 0.6.12 -->
<svg version="1.1" xmlns="http://www.w3.org/2000/svg" width="341" height="475">
<path d="M0 0 C0.39407 0.00249 0.78814 0.00497 1.19415 0.00754 C7.56403 0.06956 13.30379 0.51487 19.125 3.3125 C19.59599 3.53825 20.06698 3.76399 20.55225 3.99658 C36.95347 12.15773 54.10354 32.15804 50.52881 52.1001 C49.5007 55.18692 46.86421 57.10889 44.47656 59.16797 C31.44214 70.53368 24.07551 88.84524 17.125 104.3125 C16.96173 104.67557 16.79846 105.03865 16.63025 105.41272 C-2.57276 148.30486 -9.07213 195.73848 -10.875 242.3125 C-0.975 242.6425 8.925 242.9725 19.125 243.3125 C19.08891 240.89164 19.05281 238.47078 19.01562 235.97656 C18.97001 226.87685 19.72844 217.94036 20.73942 208.90425 C20.87769 207.66338 21.01293 206.42221 21.14749 205.18094 C22.60381 191.79032 24.35294 178.50275 27.125 165.3125 C27.21503 164.87863 27.30507 164.44476 27.39783 163.99774 C31.66505 143.50321 37.94615 124.02582 47.5639 105.40082 C48.12198 104.31836 48.67385 103.23291 49.2251 102.14697 C50.08728 100.457 50.97111 98.78038 51.87576 97.11276 C52.20355 96.50526 52.52639 95.89505 52.84372 95.28201 C54.7075 91.71063 56.62028 88.53361 61.125 89.3125 C62.63957 90.26119 63.5764 91.50759 64.625 92.9375 C65.17477 93.63984 65.72691 94.34033 66.28125 95.03906 C66.42651 95.22376 66.42651 95.22376 67.16162 96.15845 C68.99691 98.35697 71.07607 100.31548 73.125 102.3125 C74.97853 104.13852 76.82526 105.97144 78.67188 107.80444 C79.21947 108.34703 79.76796 108.88871 80.31738 109.42944 C87.34086 116.34568 93.6893 123.79433 99.75 131.5625 C100.0457 131.94145 100.3414 132.32041 100.64606 132.71085 C119.32994 156.77554 133.6515 183.06384 140.75 212.8125 C140.86118 213.27366 140.97236 213.73482 141.08691 214.20996 C141.47019 215.90437 141.80192 217.60591 142.125 219.3125 C142.20725 219.72734 142.2895 220.14217 142.37424 220.56958 C144.24869 230.24072 144.48672 239.75584 144.44286 249.56692 C144.43743 250.8293 144.43505 252.09167 144.43298 253.35406 C144.4002 266.19952 143.86457 278.71934 141.125 291.3125 C141.08634 291.49409 141.08634 291.49409 140.89069 292.41302 C139.8175 297.43575 138.54742 302.37652 137.125 307.3125 C136.97982 307.8357 136.83464 308.3589 136.68506 308.89795 C134.23268 317.6128 130.27818 325.49579 126.08594 333.47607 C125.24842 335.07063 124.43428 336.67605 123.625 338.28516 C118.00528 349.25482 110.47493 359.28157 102.125 368.3125 C102.62725 368.38243 103.1295 368.45236 103.64697 368.52441 C133.65414 372.75509 161.79672 381.15578 171.125 413.3125 C171.23683 413.69616 171.34865 414.07981 171.46387 414.4751 C174.87385 426.66819 174.28705 439.71228 174.25537 452.25269 C174.24958 454.57052 174.25303 456.88823 174.25894 459.20606 C174.26254 461.00325 174.26142 462.80041 174.25882 464.5976 C174.25815 465.45364 174.25896 466.30968 174.2613 467.16572 C174.26382 468.34972 174.25999 469.53354 174.25439 470.71753 C174.25541 470.89332 174.25541 470.89332 174.26053 471.78293 C174.23928 474.19822 174.23928 474.19822 173.125 475.3125 C172.109 475.43764 172.109 475.43764 170.82827 475.43785 C170.34035 475.44035 169.85244 475.44286 169.34973 475.44544 C169.07925 475.44427 169.07925 475.44427 167.71046 475.43834 C167.13724 475.43979 166.56403 475.44125 165.97345 475.44275 C164.37045 475.44578 162.76754 475.4443 161.16454 475.44097 C159.42514 475.43844 157.68575 475.44169 155.94635 475.44421 C152.89389 475.44783 149.84145 475.44771 146.78899 475.44516 C142.25 475.44139 137.71103 475.44331 133.17204 475.44637 C125.06709 475.45165 116.96214 475.45118 108.85719 475.44829 C101.76458 475.44578 94.67197 475.44512 87.57936 475.44632 C87.34448 475.44635 87.34448 475.44635 86.15585 475.44655 C84.24914 475.44686 82.34243 475.44718 80.43572 475.44751 C62.53504 475.45057 44.63438 475.44779 26.73371 475.44241 C10.81645 475.43766 -5.10081 475.43809 -21.01807 475.44287 C-38.88518 475.44822 -56.75229 475.45035 -74.61941 475.44726 C-76.52273 475.44694 -78.42604 475.44663 -80.32936 475.44632 C-80.79804 475.44624 -81.26671 475.44616 -81.74959 475.44608 C-88.8392 475.44494 -95.92881 475.44627 -103.01842 475.4488 C-111.07647 475.45165 -119.13452 475.45095 -127.19257 475.44551 C-131.70704 475.44257 -136.22149 475.4424 -140.73596 475.44616 C-143.74642 475.44839 -146.75686 475.44703 -149.76732 475.44266 C-151.48593 475.44026 -153.2045 475.43949 -154.92311 475.44306 C-156.76893 475.44607 -158.61464 475.44302 -160.46046 475.43834 C-161.00142 475.44068 -161.54238 475.44302 -162.09973 475.44544 C-162.58765 475.44293 -163.07557 475.44043 -163.57827 475.43785 C-164.00091 475.43778 -164.42355 475.43771 -164.859 475.43764 C-166.44665 475.24209 -166.83665 474.65803 -167.00871 473.10767 C-167.01252 472.59905 -167.01634 472.09043 -167.02026 471.56641 C-167.02654 470.98558 -167.03281 470.40475 -167.03928 469.80632 C-167.04049 469.16898 -167.04171 468.53165 -167.04297 467.875 C-167.04708 467.20474 -167.05141 466.53447 -167.05594 465.86421 C-167.0678 463.68028 -167.06635 461.49645 -167.0625 459.3125 C-167.06209 458.94128 -167.06167 458.57006 -167.06124 458.18759 C-166.98707 405.37416 -166.98707 405.37416 -153.875 392.3125 C-153.215 392.3125 -152.555 392.3125 -151.875 392.3125 C-151.74996 392.02826 -151.74996 392.02826 -151.11719 390.58984 C-149.67054 387.40974 -146.81914 385.76526 -144 383.875 C-143.70956 383.6783 -143.41912 383.48159 -143.11987 383.27893 C-129.30923 373.98961 -112.31429 369.96452 -95.875 368.3125 C-96.01281 368.14758 -96.01281 368.14758 -96.71021 367.31299 C-108.53936 353.02826 -118.28767 337.69923 -124.875 320.3125 C-124.99297 320.00159 -125.11094 319.69069 -125.23248 319.37036 C-130.55595 305.23229 -134.10765 290.31334 -135.875 275.3125 C-135.93285 274.82991 -135.99069 274.34731 -136.05029 273.8501 C-137.94088 257.12655 -137.56936 239.91526 -134.875 223.3125 C-134.77316 222.68328 -134.67133 222.05405 -134.56641 221.40576 C-129.73393 192.71665 -118.23136 166.24741 -101.875 142.3125 C-101.67242 142.01517 -101.46983 141.71784 -101.26111 141.4115 C-96.50226 134.43811 -91.6157 127.7373 -85.875 121.52734 C-83.56449 119.01316 -81.44842 116.34986 -79.3125 113.6875 C-76.49697 110.19608 -73.61757 106.90169 -70.38501 103.79321 C-68.66741 102.13455 -67.0894 100.42367 -65.55859 98.59155 C-62.07512 94.42758 -58.23829 90.73337 -54.25 87.0625 C-53.97219 86.80611 -53.69437 86.54971 -53.40814 86.28555 C-52.5947 85.53677 -51.77846 84.79119 -50.96094 84.04688 C-50.70094 83.80849 -50.44094 83.57011 -50.17307 83.32451 C-48.5015 81.81273 -46.7558 80.50721 -44.91406 79.20312 C-42.51192 77.30509 -42.55021 75.97953 -43.875 73.3125 C-44.17792 72.54772 -44.47862 71.78205 -44.77734 71.01562 C-45.1219 70.19771 -45.46697 69.38001 -45.8125 68.5625 C-48.99224 60.74252 -50.49428 53.75927 -49.875 45.3125 C-49.85977 45.09924 -49.85977 45.09924 -49.78271 44.02002 C-49.23605 37.83925 -47.29996 32.51204 -44.5625 27 C-44.27883 26.4254 -43.99515 25.8508 -43.70288 25.25879 C-40.87829 19.84349 -37.26642 14.89799 -32.25 11.3125 C-31.91936 11.07177 -31.58871 10.83104 -31.24805 10.58301 C-28.39527 8.56729 -25.41552 6.77881 -22.375 5.0625 C-21.9488 4.81629 -21.52261 4.57008 -21.0835 4.31641 C-14.40334 0.68954 -7.46902 -0.07587 0 0 Z " fill="#5B5856" transform="translate(166.875,-0.3125)"/>
<path d="M0 0 C0.39407 0.00249 0.78814 0.00497 1.19415 0.00754 C7.56403 0.06956 13.30379 0.51487 19.125 3.3125 C19.59599 3.53825 20.06698 3.76399 20.55225 3.99658 C36.95347 12.15773 54.10354 32.15804 50.52881 52.1001 C49.5007 55.18692 46.86421 57.10889 44.47656 59.16797 C31.44214 70.53368 24.07551 88.84524 17.125 104.3125 C16.96173 104.67557 16.79846 105.03865 16.63025 105.41272 C-2.57276 148.30486 -9.07213 195.73848 -10.875 242.3125 C-0.975 242.6425 8.925 242.9725 19.125 243.3125 C19.08891 240.89164 19.05281 238.47078 19.01562 235.97656 C18.97001 226.87685 19.72844 217.94036 20.73942 208.90425 C20.87769 207.66338 21.01293 206.42221 21.14749 205.18094 C22.60381 191.79032 24.35294 178.50275 27.125 165.3125 C27.21503 164.87863 27.30507 164.44476 27.39783 163.99774 C31.66505 143.50321 37.94615 124.02582 47.5639 105.40082 C48.12198 104.31836 48.67385 103.23291 49.2251 102.14697 C50.08728 100.457 50.97111 98.78038 51.87576 97.11276 C52.20355 96.50526 52.52639 95.89505 52.84372 95.28201 C54.7075 91.71063 56.62028 88.53361 61.125 89.3125 C62.63957 90.26119 63.5764 91.50759 64.625 92.9375 C65.17477 93.63984 65.72691 94.34033 66.28125 95.03906 C66.42651 95.22376 66.42651 95.22376 67.16162 96.15845 C68.99691 98.35697 71.07607 100.31548 73.125 102.3125 C74.97853 104.13852 76.82526 105.97144 78.67188 107.80444 C79.21947 108.34703 79.76796 108.88871 80.31738 109.42944 C87.34086 116.34568 93.6893 123.79433 99.75 131.5625 C100.0457 131.94145 100.3414 132.32041 100.64606 132.71085 C119.32994 156.77554 133.6515 183.06384 140.75 212.8125 C140.86118 213.27366 140.97236 213.73482 141.08691 214.20996 C141.47019 215.90437 141.80192 217.60591 142.125 219.3125 C142.20725 219.72734 142.2895 220.14217 142.37424 220.56958 C144.24869 230.24072 144.48672 239.75584 144.44286 249.56692 C144.43743 250.8293 144.43505 252.09167 144.43298 253.35406 C144.4002 266.19952 143.86457 278.71934 141.125 291.3125 C141.08634 291.49409 141.08634 291.49409 140.89069 292.41302 C139.8175 297.43575 138.54742 302.37652 137.125 307.3125 C136.97982 307.8357 136.83464 308.3589 136.68506 308.89795 C134.23268 317.6128 130.27818 325.49579 126.08594 333.47607 C125.24842 335.07063 124.43428 336.67605 123.625 338.28516 C118.00528 349.25482 110.47493 359.28157 102.125 368.3125 C102.62725 368.38243 103.1295 368.45236 103.64697 368.52441 C133.65414 372.75509 161.79672 381.15578 171.125 413.3125 C171.23683 413.69616 171.34865 414.07981 171.46387 414.4751 C174.87385 426.66819 174.28705 439.71228 174.25537 452.25269 C174.24958 454.57052 174.25303 456.88823 174.25894 459.20606 C174.26254 461.00325 174.26142 462.80041 174.25882 464.5976 C174.25815 465.45364 174.25896 466.30968 174.2613 467.16572 C174.26382 468.34972 174.25999 469.53354 174.25439 470.71753 C174.25541 470.89332 174.25541 470.89332 174.26053 471.78293 C174.23928 474.19822 174.23928 474.19822 173.125 475.3125 C172.109 475.43764 172.109 475.43764 170.82827 475.43785 C170.34035 475.44035 169.85244 475.44286 169.34973 475.44544 C169.07925 475.44427 169.07925 475.44427 167.71046 475.43834 C167.13724 475.43979 166.56403 475.44125 165.97345 475.44275 C164.37045 475.44578 162.76754 475.4443 161.16454 475.44097 C159.42514 475.43844 157.68575 475.44169 155.94635 475.44421 C152.89389 475.44783 149.84145 475.44771 146.78899 475.44516 C142.25 475.44139 137.71103 475.44331 133.17204 475.44637 C125.06709 475.45165 116.96214 475.45118 108.85719 475.44829 C101.76458 475.44578 94.67197 475.44512 87.57936 475.44632 C87.34448 475.44635 87.34448 475.44635 86.15585 475.44655 C84.24914 475.44686 82.34243 475.44718 80.43572 475.44751 C62.53504 475.45057 44.63438 475.44779 26.73371 475.44241 C10.81645 475.43766 -5.10081 475.43809 -21.01807 475.44287 C-38.88518 475.44822 -56.75229 475.45035 -74.61941 475.44726 C-76.52273 475.44694 -78.42604 475.44663 -80.32936 475.44632 C-80.79804 475.44624 -81.26671 475.44616 -81.74959 475.44608 C-88.8392 475.44494 -95.92881 475.44627 -103.01842 475.4488 C-111.07647 475.45165 -119.13452 475.45095 -127.19257 475.44551 C-131.70704 475.44257 -136.22149 475.4424 -140.73596 475.44616 C-143.74642 475.44839 -146.75686 475.44703 -149.76732 475.44266 C-151.48593 475.44026 -153.2045 475.43949 -154.92311 475.44306 C-156.76893 475.44607 -158.61464 475.44302 -160.46046 475.43834 C-161.00142 475.44068 -161.54238 475.44302 -162.09973 475.44544 C-162.58765 475.44293 -163.07557 475.44043 -163.57827 475.43785 C-164.00091 475.43778 -164.42355 475.43771 -164.859 475.43764 C-166.44665 475.24209 -166.83665 474.65803 -167.00871 473.10767 C-167.01252 472.59905 -167.01634 472.09043 -167.02026 471.56641 C-167.02654 470.98558 -167.03281 470.40475 -167.03928 469.80632 C-167.04049 469.16898 -167.04171 468.53165 -167.04297 467.875 C-167.04708 467.20474 -167.05141 466.53447 -167.05594 465.86421 C-167.0678 463.68028 -167.06635 461.49645 -167.0625 459.3125 C-167.06209 458.94128 -167.06167 458.57006 -167.06124 458.18759 C-166.98707 405.37416 -166.98707 405.37416 -153.875 392.3125 C-153.215 392.3125 -152.555 392.3125 -151.875 392.3125 C-151.74996 392.02826 -151.74996 392.02826 -151.11719 390.58984 C-149.67054 387.40974 -146.81914 385.76526 -144 383.875 C-143.70956 383.6783 -143.41912 383.48159 -143.11987 383.27893 C-129.30923 373.98961 -112.31429 369.96452 -95.875 368.3125 C-96.01281 368.14758 -96.01281 368.14758 -96.71021 367.31299 C-108.53936 353.02826 -118.28767 337.69923 -124.875 320.3125 C-124.99297 320.00159 -125.11094 319.69069 -125.23248 319.37036 C-130.55595 305.23229 -134.10765 290.31334 -135.875 275.3125 C-135.93285 274.82991 -135.99069 274.34731 -136.05029 273.8501 C-137.94088 257.12655 -137.56936 239.91526 -134.875 223.3125 C-134.77316 222.68328 -134.67133 222.05405 -134.56641 221.40576 C-129.73393 192.71665 -118.23136 166.24741 -101.875 142.3125 C-101.67242 142.01517 -101.46983 141.71784 -101.26111 141.4115 C-96.50226 134.43811 -91.6157 127.7373 -85.875 121.52734 C-83.56449 119.01316 -81.44842 116.34986 -79.3125 113.6875 C-76.49697 110.19608 -73.61757 106.90169 -70.38501 103.79321 C-68.66741 102.13455 -67.0894 100.42367 -65.55859 98.59155 C-62.07512 94.42758 -58.23829 90.73337 -54.25 87.0625 C-53.97219 86.80611 -53.69437 86.54971 -53.40814 86.28555 C-52.5947 85.53677 -51.77846 84.79119 -50.96094 84.04688 C-50.70094 83.80849 -50.44094 83.57011 -50.17307 83.32451 C-48.5015 81.81273 -46.7558 80.50721 -44.91406 79.20312 C-42.51192 77.30509 -42.55021 75.97953 -43.875 73.3125 C-44.17792 72.54772 -44.47862 71.78205 -44.77734 71.01562 C-45.1219 70.19771 -45.46697 69.38001 -45.8125 68.5625 C-48.99224 60.74252 -50.49428 53.75927 -49.875 45.3125 C-49.85977 45.09924 -49.85977 45.09924 -49.78271 44.02002 C-49.23605 37.83925 -47.29996 32.51204 -44.5625 27 C-44.27883 26.4254 -43.99515 25.8508 -43.70288 25.25879 C-40.87829 19.84349 -37.26642 14.89799 -32.25 11.3125 C-31.91936 11.07177 -31.58871 10.83104 -31.24805 10.58301 C-28.39527 8.56729 -25.41552 6.77881 -22.375 5.0625 C-21.9488 4.81629 -21.52261 4.57008 -21.0835 4.31641 C-14.40334 0.68954 -7.46902 -0.07587 0 0 Z M-17.875 19.3125 C-18.25527 19.58514 -18.63555 19.85777 -19.02734 20.13867 C-28.5008 27.16791 -35.47863 38.01742 -35.4375 50 C-35.43835 50.34367 -35.43919 50.68733 -35.44006 51.04141 C-35.39534 59.65064 -31.24162 72.09876 -23.0625 76.375 C-21.46612 77.6353 -21.60602 78.51868 -22.24023 80.39038 C-23.0627 81.58517 -23.64634 81.68363 -25.03125 82.06641 C-28.86261 83.47702 -31.51272 86.45153 -34.375 89.25 C-35.2141 90.06505 -36.0552 90.87762 -36.90173 91.68495 C-37.4239 92.18339 -37.94202 92.68614 -38.45471 93.19432 C-39.96157 94.63821 -41.48331 95.70115 -43.29956 96.73438 C-45.98682 98.29708 -48.06084 100.20855 -50.23828 102.41016 C-50.63396 102.80392 -51.02963 103.19768 -51.4373 103.60338 C-52.2708 104.43552 -53.10181 105.27017 -53.93042 106.10718 C-55.16705 107.35437 -56.41379 108.5907 -57.66211 109.82617 C-62.85539 115.01055 -67.54798 120.43313 -72.03549 126.23569 C-73.16374 127.68286 -74.32904 129.09498 -75.5 130.50781 C-90.9859 149.46718 -104.58183 170.59352 -113.99219 193.23828 C-114.13351 193.57571 -114.27483 193.91314 -114.42044 194.26079 C-121.53881 211.92159 -124.81504 229.96353 -124.57877 248.94405 C-124.56218 250.40274 -124.55469 251.86127 -124.54892 253.32004 C-124.48435 265.54964 -123.88324 277.41599 -121.1875 289.375 C-121.12665 289.64531 -121.12665 289.64531 -120.8187 291.01321 C-118.99816 298.78881 -116.1209 306.03282 -112.875 313.3125 C-112.70926 313.68813 -112.54353 314.06376 -112.37277 314.45078 C-104.95595 331.2373 -96.06095 345.92956 -84.05249 359.88281 C-83.16178 360.9643 -82.35898 362.03486 -81.55884 363.17969 C-78.57105 367.29378 -76.22435 369.24851 -70.97079 368.9454 C-70.58067 368.92402 -70.19054 368.90264 -69.7886 368.88061 C-69.38399 368.85813 -68.97937 368.83566 -68.5625 368.8125 C-67.76517 368.77417 -66.96779 368.73674 -66.17038 368.70016 C-65.75858 368.68101 -65.34678 368.66185 -64.92251 368.64211 C-64.01823 368.60017 -63.11395 368.55827 -62.20967 368.51641 C-59.89719 368.40886 -57.58491 368.29886 -55.27296 368.18036 C-36.50481 367.22253 -17.75776 367.15658 1.02887 367.18393 C3.92584 367.18771 6.82276 367.18633 9.71973 367.18213 C51.69604 367.1228 51.69604 367.1228 71.60343 368.82629 C81.33175 369.62333 85.94703 367.54498 91.09326 358.95068 C92.16032 357.25642 93.33757 355.69601 94.59766 354.14453 C122.06918 320.23144 131.04127 280.33975 130.15173 237.677 C130.12822 236.4767 130.1115 235.27663 130.09863 234.07617 C129.98874 226.68676 128.70165 219.90759 126.75 212.8125 C126.64499 212.43005 126.53998 212.0476 126.43179 211.65356 C125.26939 207.49489 123.92614 203.73146 121.88208 199.91162 C120.97138 197.98803 120.35365 196.03656 119.72266 194.00781 C118.17324 189.12041 115.97988 184.69725 113.5625 180.1875 C113.45476 179.98407 113.45476 179.98407 112.90952 178.95459 C108.99583 171.58411 104.58496 164.65599 99.83015 157.8065 C97.95592 155.09626 96.22898 152.30392 94.5 149.5 C83.14963 131.3125 83.14963 131.3125 78.125 131.3125 C77.90418 130.35872 77.68736 129.40381 77.49213 128.44446 C76.80428 126.32362 75.19321 124.95402 73.63281 123.42188 C73.28621 123.0724 72.9396 122.72292 72.58249 122.36285 C71.85148 121.62981 71.11671 120.90051 70.37842 120.1748 C69.24985 119.06236 68.13825 117.93474 67.02734 116.80469 C66.31346 116.09279 65.59865 115.38181 64.88281 114.67188 C64.55145 114.33444 64.22009 113.99701 63.87869 113.64935 C60.80982 110.67206 60.80982 110.67206 58.125 111.3125 C57.46484 112.02759 57.46484 112.02759 57.0625 113.03516 C56.90709 113.40528 56.75167 113.7754 56.59155 114.15674 C56.43759 114.55876 56.28363 114.96079 56.125 115.375 C55.95621 115.78476 55.78743 116.19452 55.61353 116.6167 C55.27005 117.45189 54.93157 118.28916 54.59814 119.12842 C53.9517 120.7462 53.25755 122.33999 52.5625 123.9375 C52.32402 124.49953 52.08555 125.06156 51.83984 125.64062 C51.36166 126.75901 50.87459 127.87363 50.37891 128.98438 C48.7985 132.55462 47.45755 136.12438 46.30273 139.85303 C45.57106 142.16038 44.67141 144.32466 43.66577 146.52759 C42.12725 150.02988 41.29884 153.50915 40.62891 157.27734 C40.44296 158.26434 40.257 159.25133 40.07037 160.2382 C39.87892 161.25592 39.69092 162.27424 39.50323 163.29266 C39.14117 165.24355 38.75299 167.18861 38.35889 169.1333 C35.36735 183.89751 32.73327 198.57235 31.75 213.625 C31.71253 214.16585 31.67505 214.7067 31.63644 215.26395 C30.73424 228.9177 31.125 242.65438 31.125 256.3125 C12.645 256.3125 -5.835 256.3125 -24.875 256.3125 C-24.58625 248.61937 -24.2975 240.92625 -24 233 C-23.91379 230.61483 -23.82759 228.22966 -23.73877 225.77222 C-23.07726 208.37624 -21.69812 191.31703 -18.5 174.1875 C-18.3904 173.5911 -18.2808 172.99469 -18.16788 172.38022 C-17.4271 168.35298 -16.66211 164.33093 -15.875 160.3125 C-15.79034 159.87895 -15.70569 159.4454 -15.61847 158.99872 C-11.74535 139.3255 -5.79809 118.00153 3.625 100.25 C5.64624 96.36298 7.51175 92.50057 9 88.375 C13.54798 76.27376 21.93725 65.49632 29.42578 55.08984 C31.11611 52.73528 32.79995 50.37725 34.44141 47.98828 C34.75408 47.53493 35.06676 47.08159 35.38892 46.6145 C40.23243 38.04719 28.46952 26.38784 22.4668 21.31445 C18.43407 18.30312 13.75656 16.22917 9.125 14.3125 C8.63773 14.10496 8.15047 13.89742 7.64844 13.68359 C-1.99611 11.33428 -10.02512 13.65708 -17.875 19.3125 Z " fill="#201E1C" transform="translate(166.875,-0.3125)"/>
<path d="M0 0 C2.58507 0.00259 5.17013 0.00017 7.7552 -0.00139 C12.09519 -0.00319 16.43517 -0.00085 20.77516 0.00395 C25.73294 0.00938 30.69068 0.00764 35.64845 0.00213 C39.96328 -0.00247 44.2781 -0.00302 48.59293 -0.00043 C51.14421 0.0011 53.69548 0.00142 56.24677 -0.00197 C66.39159 -0.01356 76.51394 0.08603 86.64821 0.57988 C87.06174 0.59928 87.47527 0.61867 87.90133 0.63866 C93.65133 0.91578 99.21011 1.58495 104.86989 2.66606 C107.92869 3.2217 110.98896 3.45841 114.08864 3.66167 C114.35861 3.67954 114.35861 3.67954 115.72487 3.76998 C117.91499 3.90988 120.10544 4.04146 122.29664 4.16338 C129.42019 4.57077 136.03896 5.4996 142.92164 7.41167 C146.1402 8.30018 149.40303 8.88768 152.7007 9.39789 C155.65114 9.91857 155.65114 9.91857 155.65114 12.13433 C157.26832 12.66948 157.26832 12.66948 158.34327 12.91851 C169.67495 15.58478 181.8308 28.51456 183.71364 40.07183 C183.79597 40.57488 183.87831 41.07794 183.96315 41.59624 C184.73466 46.83639 185.02197 52.09798 185.27614 57.38433 C185.29669 57.79738 185.31724 58.21043 185.33842 58.636 C185.74598 67.14209 185.65114 75.60749 185.65114 84.13433 C82.36114 84.13433 -20.92886 84.13433 -127.34886 84.13433 C-127.34886 49.09023 -127.34886 49.09023 -125.03636 39.32183 C-124.90738 38.77268 -124.77839 38.22354 -124.6455 37.65776 C-123.58359 33.45774 -122.19861 30.43504 -119.34886 27.13433 C-119.07824 26.7696 -118.80762 26.40488 -118.5288 26.0291 C-115.96149 22.62027 -113.08728 20.09756 -109.66136 17.57183 C-109.13245 17.17979 -108.60353 16.78775 -108.05858 16.38384 C-104.04667 13.48537 -100.13534 11.30069 -95.51772 9.57273 C-94.78799 9.29903 -94.05919 9.02281 -93.33185 8.7428 C-87.05165 6.34593 -80.98282 5.40139 -74.31371 4.78276 C-73.26623 4.67817 -72.21883 4.57273 -71.17151 4.46651 C-68.98616 4.24696 -66.8003 4.03406 -64.61376 3.82671 C-61.86259 3.56577 -59.1127 3.29355 -56.36308 3.01678 C-53.68035 2.74726 -50.99705 2.48355 -48.31371 2.22026 C-47.8274 2.17211 -47.3411 2.12395 -46.84006 2.07434 C-43.34534 1.73096 -39.84881 1.41954 -36.34886 1.13433 C-36.06378 1.11093 -36.06378 1.11093 -34.62109 0.99255 C-23.07927 0.07888 -11.57263 -0.0153 0 0 Z " fill="#5C5856" transform="translate(140.3488645553589,376.865674495697)"/>
<path d="M0 0 C9.67898 11.56057 17.8526 26.32475 21.68945 40.91357 C22.18095 42.63303 22.83977 44.27725 23.5 45.9375 C27.1795 55.52064 28.75534 64.75335 29 75 C29.01096 75.45776 29.02191 75.91552 29.0332 76.38715 C29.98894 119.25671 20.95511 159.11838 -6.59766 192.9375 C-8.24128 194.96522 -9.65545 197.01134 -10.99609 199.25 C-16.21864 207.54068 -21.60191 208.19148 -30.72412 207.41089 C-51.33437 205.75961 -71.98668 205.84144 -92.64674 205.87143 C-95.5425 205.8752 -98.43822 205.87385 -101.33398 205.86963 C-118.38238 205.84538 -135.40048 205.8691 -152.43294 206.71344 C-160.95304 207.13352 -169.47198 207.10044 -178 207 C-178 206.67 -178 206.34 -178 206 C-115.24925 202.71888 -115.24925 202.71888 -86 203 C-86 202.34 -86 201.68 -86 201 C-84.96191 200.26978 -84.96191 200.26978 -83.51562 199.59766 C-82.99227 199.34693 -82.46891 199.09621 -81.92969 198.83789 C-81.37539 198.58201 -80.82109 198.32613 -80.25 198.0625 C-76.87238 196.48278 -73.75083 194.95687 -70.82715 192.6272 C-69.78161 191.8344 -68.73593 191.36757 -67.5 190.9375 C-61 188.50252 -61 188.50252 -61 186 C-59.4686 185.34369 -57.92398 184.98029 -56.3125 184.5625 C-55 184 -55 184 -55 182 C-53.33196 179.61443 -51.3183 177.97819 -48.5625 177.0625 C-46.42068 176.32857 -45.21241 175.36924 -43.65625 173.73438 C-41.98018 172.00375 -40.28857 170.31194 -38.52734 168.66797 C-22.5384 153.48555 -10.38935 134.32742 -2 114 C-1.75766 113.41315 -1.51531 112.82631 -1.26562 112.22168 C5.11874 96.23416 6.26457 79.56511 6.3125 62.5 C6.31434 62.18691 6.31434 62.18691 6.32364 60.60251 C6.34734 52.88414 5.76297 45.53018 4.46558 37.92432 C3.76963 33.77014 3.59986 29.62751 3.46826 25.42358 C3.33082 21.38264 3.06671 18.49258 1 15 C-0.44038 10.17608 -0.09959 4.97933 0 0 Z " fill="#454341" transform="translate(268,161)"/>
<path d="M0 0 C2.58507 0.00259 5.17013 0.00017 7.7552 -0.00139 C12.09519 -0.00319 16.43517 -0.00085 20.77516 0.00395 C25.73294 0.00938 30.69068 0.00764 35.64845 0.00213 C39.96328 -0.00247 44.2781 -0.00302 48.59293 -0.00043 C51.14421 0.0011 53.69548 0.00142 56.24677 -0.00197 C66.39159 -0.01356 76.51394 0.08603 86.64821 0.57988 C87.06174 0.59928 87.47527 0.61867 87.90133 0.63866 C93.65133 0.91578 99.21011 1.58495 104.86989 2.66606 C107.92869 3.2217 110.98896 3.45841 114.08864 3.66167 C114.35861 3.67954 114.35861 3.67954 115.72487 3.76998 C117.91499 3.90988 120.10544 4.04146 122.29664 4.16338 C129.42019 4.57077 136.03896 5.4996 142.92164 7.41167 C146.1402 8.30018 149.40303 8.88768 152.7007 9.39789 C155.65114 9.91857 155.65114 9.91857 155.65114 12.13433 C157.26832 12.66948 157.26832 12.66948 158.34376 12.91899 C165.08217 14.50237 178.26467 23.15787 178.75782 30.78423 C178.74022 31.00699 178.74022 31.00699 178.65114 32.13433 C178.01692 31.95257 177.3827 31.77081 176.72926 31.58354 C163.07277 27.84307 148.77076 25.96658 134.65114 25.13433 C134.65114 24.47433 134.65114 23.81433 134.65114 23.13433 C134.35044 23.1395 134.04975 23.14468 133.73995 23.15001 C126.94027 23.24914 120.18536 23.10966 113.39918 22.70342 C112.64818 22.65902 111.89718 22.61468 111.14617 22.57039 C110.76365 22.54781 110.38114 22.52523 109.98703 22.50197 C109.59755 22.479 109.20806 22.45604 108.80678 22.43238 C108.60877 22.42069 108.60877 22.42069 107.60677 22.36153 C81.63654 20.84015 55.68035 20.85973 29.67416 20.93373 C24.73334 20.94712 19.79257 20.94943 14.85173 20.94878 C8.78794 20.94809 2.72417 20.95507 -3.33962 20.96423 C-5.02709 20.96631 -6.71456 20.96706 -8.40204 20.96746 C-20.22235 20.97298 -32.02285 21.12368 -43.8347 21.59282 C-44.3499 21.61289 -44.86509 21.63296 -45.3959 21.65364 C-54.43497 22.01379 -63.40018 22.75274 -72.38194 23.81822 C-73.50808 23.95086 -74.6346 24.07975 -75.76128 24.20772 C-88.01599 25.6027 -100.16365 27.40608 -112.27758 29.74126 C-114.95958 30.25603 -117.65194 30.70512 -120.34886 31.13433 C-119.42421 24.89293 -114.48941 21.13128 -109.66136 17.57183 C-109.13245 17.17979 -108.60353 16.78775 -108.05858 16.38384 C-104.04667 13.48537 -100.13534 11.30069 -95.51772 9.57273 C-94.78799 9.29903 -94.05919 9.02281 -93.33185 8.7428 C-87.05165 6.34593 -80.98282 5.40139 -74.31371 4.78276 C-73.26623 4.67817 -72.21883 4.57273 -71.17151 4.46651 C-68.98616 4.24696 -66.8003 4.03406 -64.61376 3.82671 C-61.86259 3.56577 -59.1127 3.29355 -56.36308 3.01678 C-53.68035 2.74726 -50.99705 2.48355 -48.31371 2.22026 C-47.8274 2.17211 -47.3411 2.12395 -46.84006 2.07434 C-43.34534 1.73096 -39.84881 1.41954 -36.34886 1.13433 C-36.06378 1.11093 -36.06378 1.11093 -34.62109 0.99255 C-23.07927 0.07888 -11.57263 -0.0153 0 0 Z " fill="#837F7B" transform="translate(140.3488645553589,376.865674495697)"/>
<path d="M0 0 C0.60457 0.01805 1.20914 0.03609 1.83203 0.05469 C3.1875 0.125 3.1875 0.125 3.375 1.5625 C3.10436 3.81782 2.25228 3.47676 0.1875 4.125 C-0.90395 5.16458 -1.7768 6.36435 -2.6875 7.5625 C-4.82255 10.24243 -6.48791 11.90489 -9.92969 12.73828 C-10.8125 13.125 -10.8125 13.125 -10.8125 15.125 C-11.625 16.09766 -11.625 16.09766 -12.8125 17.1875 C-25.71612 29.73368 -36.16671 44.99414 -45.8125 60.125 C-46.1338 60.62097 -46.4551 61.11693 -46.78613 61.62793 C-51.47755 68.88661 -55.54136 76.27491 -59.19922 84.09668 C-59.3596 84.43207 -59.51997 84.76747 -59.68521 85.11302 C-60.12201 86.02675 -60.5503 86.94454 -60.97803 87.86255 C-61.8125 89.125 -61.8125 89.125 -63.8125 89.125 C-64.39412 90.4728 -64.81745 91.71341 -65.21484 93.11719 C-66.15819 96.18628 -67.17535 99.1463 -68.50391 102.07031 C-68.80716 102.74552 -69.11021 103.42082 -69.41309 104.09619 C-69.56934 104.44434 -69.7256 104.79249 -69.8866 105.15118 C-73.88271 114.14168 -77.05303 123.39391 -80.0625 132.75 C-80.17098 133.08724 -80.27945 133.42447 -80.39121 133.77193 C-83.34026 142.96253 -86.04964 152.15656 -87.99609 161.61719 C-88.56908 164.30235 -89.35528 166.84766 -90.25 169.4375 C-91.92876 174.3069 -93.19062 179.24018 -94.375 184.25 C-94.48333 184.70122 -94.59166 185.15244 -94.70328 185.61734 C-96.29323 192.27122 -97.52424 198.86898 -98.17993 205.68213 C-98.23786 206.24464 -98.29579 206.80716 -98.35547 207.38672 C-98.37621 207.62886 -98.37621 207.62886 -98.4812 208.85425 C-98.89143 210.42773 -99.59209 211.08371 -100.8125 212.125 C-106.09469 199.83511 -106.21609 187.397 -106.23804 174.22266 C-106.2423 172.25823 -106.2629 170.29514 -106.29956 168.33105 C-106.6499 149.18967 -103.43746 130.93766 -96.00781 113.20312 C-95.92604 113.00659 -95.92604 113.00659 -95.51224 112.01202 C-88.41269 95.28122 -79.24329 79.72345 -68.51697 65.08868 C-67.85603 64.18454 -67.20067 63.27672 -66.54785 62.3667 C-61.27777 55.03585 -55.56827 48.1088 -49.66983 41.28119 C-48.46194 39.88296 -47.26583 38.4766 -46.08594 37.05469 C-42.35433 32.60209 -38.28495 28.46884 -34.20276 24.34003 C-33.53351 23.66269 -32.86575 22.98389 -32.19958 22.30353 C-26.04929 16.03599 -26.04929 16.03599 -22.0415 13.88843 C-19.04527 12.02724 -16.55981 9.26718 -14.04199 6.81079 C-9.84802 2.73806 -6.10772 -0.23952 0 0 Z " fill="#847F7B" transform="translate(148.8125,79.875)"/>
<path d="M0 0 C4.54677 3.60165 8.10485 6.90804 11 12 C11.22559 12.34805 11.45117 12.69609 11.68359 13.05469 C15.34203 19.1605 12.15073 23.97077 8.38583 28.91711 C7.26131 30.39613 6.17019 31.8986 5.0768 33.4007 C4.51996 34.16541 3.96164 34.92904 3.40184 35.69159 C0.87783 39.13577 -1.51037 42.65428 -3.8125 46.25 C-3.99322 46.53199 -4.17394 46.81398 -4.36014 47.10452 C-9.25136 54.7761 -13.88919 62.78548 -17.27344 71.24609 C-17.82638 72.58089 -18.40724 73.8634 -19.03906 75.16016 C-25.31362 88.1515 -29.50017 102.12049 -33.75 115.875 C-33.82133 116.10294 -33.82133 116.10294 -34.18231 117.25647 C-37.99419 129.4879 -40.29416 142.00489 -42.30762 154.6416 C-42.57195 156.30005 -42.84373 157.95719 -43.11755 159.6141 C-43.38745 161.25505 -43.65035 162.89711 -43.91406 164.53906 C-44.00886 165.1113 -44.10366 165.68353 -44.20132 166.2731 C-45.74161 176.06852 -46.15759 185.99481 -46.53516 195.89062 C-46.57834 196.97208 -46.62176 198.05352 -46.66539 199.13495 C-46.7778 201.93605 -46.88715 204.73726 -46.99579 207.53851 C-47.10791 210.41507 -47.22304 213.29152 -47.33789 216.16797 C-47.56148 221.77853 -47.78181 227.38922 -48 233 C-48.64737 232.69093 -49.29313 232.37848 -49.93819 232.06462 C-50.11807 231.97781 -50.11807 231.97781 -51.02842 231.53847 C-52.28694 230.84097 -52.91687 230.08324 -53.66797 228.86328 C-53.92111 228.45384 -54.17425 228.0444 -54.43506 227.62256 C-54.68336 227.19024 -54.93167 226.75792 -55.1875 226.3125 C-55.3181 226.09118 -55.3181 226.09118 -55.979 224.97119 C-58.0126 221.35518 -58.97225 218.18985 -59 214 C-59.66 214 -60.32 214 -61 214 C-69.14787 198.96718 -66.2215 177.45863 -66 161 C-65.34 161 -64.68 161 -64 161 C-64.0174 160.76346 -64.0174 160.76346 -64.10547 159.56641 C-64.3708 154.28821 -63.27967 150.23128 -61.46191 145.32178 C-60.76774 143.33538 -60.19893 141.31579 -59.61353 139.29517 C-57.81423 133.14375 -55.58585 127.43046 -52.79541 121.66895 C-52.05563 120.11673 -51.33962 118.5563 -50.63089 116.98979 C-44.97021 104.48844 -38.40765 92.60796 -31.56494 80.72021 C-24.69397 68.78299 -18.25679 56.78093 -12.51028 44.25781 C-11.44588 41.94319 -10.34542 39.65221 -9.21094 37.37109 C-3.75794 26.30696 -1.63574 15.50035 -1.15771 3.21411 C-0.9929 1.94534 -0.63844 1.09981 0 0 Z " fill="#454341" transform="translate(190,23)"/>
<path d="M0 0 C2.58507 0.00259 5.17013 0.00017 7.7552 -0.00139 C12.09519 -0.00319 16.43517 -0.00085 20.77516 0.00395 C25.73294 0.00938 30.69068 0.00764 35.64845 0.00213 C39.96328 -0.00247 44.2781 -0.00302 48.59293 -0.00043 C51.14421 0.0011 53.69548 0.00142 56.24677 -0.00197 C66.37445 -0.01354 76.48023 0.08432 86.59742 0.57622 C87.00749 0.59537 87.41755 0.61451 87.84004 0.63424 C94.54809 0.95618 101.06877 1.75631 107.65114 3.13433 C107.65114 3.46433 107.65114 3.79433 107.65114 4.13433 C101.02515 4.25553 94.45743 4.09565 87.84513 3.70968 C76.78626 3.07793 65.74899 2.9853 54.67485 3 C52.09693 3.00259 49.51902 3.00017 46.9411 2.99861 C42.63944 2.99682 38.3378 2.99914 34.03615 3.00395 C29.06541 3.00946 24.09471 3.00758 19.12398 3.00213 C14.82295 2.9976 10.52194 2.99694 6.22092 2.99957 C3.66526 3.00112 1.10963 3.00134 -1.44602 2.99803 C-3.83066 2.99515 -6.21525 2.99712 -8.59989 3.00292 C-9.4751 3.00425 -10.35032 3.00386 -11.22554 3.00166 C-12.41528 2.99895 -13.60485 3.00233 -14.79459 3.00734 C-14.96919 3.00623 -14.96919 3.00623 -15.85275 3.00058 C-18.23471 3.02017 -18.23471 3.02017 -19.34886 4.13433 C-20.78443 4.28127 -22.17876 4.36871 -23.6184 4.41558 C-23.83448 4.42464 -23.83448 4.42464 -24.92798 4.47054 C-26.33897 4.52928 -27.75013 4.58183 -29.16136 4.63433 C-31.0977 4.71186 -33.03386 4.79312 -34.96996 4.87651 C-35.44431 4.89677 -35.91867 4.91702 -36.4074 4.93788 C-39.86194 5.09313 -43.28605 5.38676 -46.72386 5.75933 C-53.60119 6.4687 -60.48712 5.75696 -67.34886 5.13433 C-67.34886 4.80433 -67.34886 4.47433 -67.34886 4.13433 C-63.58364 3.75695 -59.81809 3.38295 -56.05217 3.01268 C-54.30146 2.84046 -52.55087 2.66728 -50.80052 2.4915 C-49.09545 2.32031 -47.39009 2.15218 -45.68454 1.98575 C-44.75219 1.89409 -43.82011 1.79965 -42.88805 1.70502 C-40.70967 1.49406 -38.53046 1.30854 -36.34886 1.13433 C-35.82831 1.09203 -35.30776 1.04974 -34.77143 1.00617 C-23.17772 0.09447 -11.62435 -0.01537 0 0 Z " fill="#696662" transform="translate(140.3488645553589,376.865674495697)"/>
<path d="M0 0 C0 2.36281 -0.01824 2.25316 -1.94141 3.26172 C-2.35665 3.48924 -2.77188 3.71676 -3.19971 3.95117 C-3.42457 4.07267 -3.42457 4.07267 -4.5625 4.6875 C-18.46975 12.74087 -25.61868 26.41956 -28 42 C-32.33234 40.51528 -30.71704 31.75973 -30.18878 27.98724 C-27.5949 14.4224 -14.52566 -0.51877 0 0 Z " fill="#9C978D" transform="translate(162,15)"/>
<path d="M0 0 C0.85472 2.96438 1.15543 5.60945 1.125 8.6875 C1.12887 9.09033 1.13273 9.49316 1.13672 9.9082 C1.12679 12.87321 1.12679 12.87321 0 14 C-0.28125 15.01221 -0.28125 15.01221 -0.5 16.25781 C-0.58194 16.71527 -0.66387 17.17272 -0.74829 17.64404 C-0.83135 18.13276 -0.91442 18.62147 -1 19.125 C-1.08758 19.62274 -1.17515 20.12048 -1.26538 20.6333 C-1.82788 23.86992 -2.33592 27.10857 -2.75391 30.36719 C-3 32 -3 32 -3.23166 32.92073 C-4.30915 37.37139 -4.22954 41.90478 -4.31641 46.45703 C-4.33701 47.36912 -4.35801 48.28121 -4.37938 49.19328 C-4.43423 51.57857 -4.4838 53.96394 -4.53223 56.34937 C-4.58272 58.78962 -4.63826 61.22976 -4.69336 63.66992 C-4.80048 68.44652 -4.90203 73.22321 -5 78 C-6.58275 78 -6.20367 77.05659 -6.48291 75.60571 C-7.21337 71.18984 -7.22476 66.77364 -7.27344 62.30859 C-7.27876 61.84384 -7.28408 61.37909 -7.28957 60.90026 C-7.3162 58.42514 -7.33558 55.95007 -7.3501 53.47485 C-7.36323 51.47632 -7.3907 49.47886 -7.43213 47.48071 C-7.76893 30.84419 -5.54105 15.71936 0 0 Z " fill="#6A6863" transform="translate(50,201)"/>
<path d="M0 0 C1.40073 3.6883 0.74361 5.12091 -1.5625 8.1875 C-2.12413 8.97756 -2.68532 9.76793 -3.24609 10.55859 C-3.53726 10.96062 -3.82843 11.36265 -4.12842 11.77686 C-5.76529 14.07397 -7.28167 16.4525 -8.8186 18.81714 C-9.79049 20.28685 -10.74253 21.70767 -11.90894 23.03198 C-15.78913 27.44273 -17.82579 32.82582 -20.14819 38.15698 C-20.71457 39.4495 -21.29567 40.73455 -21.87891 42.01953 C-22.04774 42.41945 -22.21657 42.81936 -22.39052 43.2314 C-23.5748 45.81376 -24.18609 46.3093 -27 46 C-27.6875 47.5 -27.6875 47.5 -28 49 C-29.43694 47.01206 -28.72996 45.94547 -27.69922 43.86719 C-27.54767 43.55854 -27.39612 43.24989 -27.23997 42.93188 C-26.73212 41.90776 -26.21102 40.8912 -25.6875 39.875 C-25.59794 39.69865 -25.59794 39.69865 -25.14471 38.80621 C-18.52511 25.80428 -10.3948 10.3948 0 0 Z " fill="#48473B" transform="translate(77,128)"/>
<path d="M0 0 C2.88577 0 2.23746 1.1692 2.70195 3.76024 C4.13293 12.16211 4.27504 20.34555 4.19562 28.84045 C4.18469 30.31791 4.18515 31.79528 4.18576 33.27277 C4.18548 34.72018 4.17997 36.16754 4.17275 37.61493 C4.16813 38.61738 4.16631 39.61984 4.1646 40.6223 C4.12451 44.50705 3.76911 48.19071 3 52 C2.67 52 2.34 52 2 52 C1.67 37.81 1.34 23.62 1 9 C0.67 9 0.34 9 0 9 C0 6.03 0 3.06 0 0 Z " fill="#38332E" transform="translate(306,222)"/>
<path d="M0 0 C0.47841 3.10969 -0.78984 3.81609 -3.375 5.0625 C-5.55546 6.16603 -7.26795 7.26018 -9 9 C-9.51562 8.97938 -10.03125 8.95875 -10.5625 8.9375 C-12 9 -12 9 -12.375 10.4375 C-13.38477 12.96193 -15.51191 12.69295 -18 13 C-16.76132 8.97976 -14.95393 6.45591 -11.8125 3.6875 C-11.61467 3.5109 -11.61467 3.5109 -10.61353 2.61719 C-7.12904 -0.2841 -4.52672 -1.04799 0 0 Z " fill="#98928C" transform="translate(152,80)"/>
<path d="M0 0 C-0.01047 0.59015 -0.02095 1.1803 -0.03174 1.78833 C-0.06804 3.98553 -0.09094 6.18271 -0.10986 8.38013 C-0.1199 9.32972 -0.13353 10.27928 -0.15088 11.22876 C-0.17524 12.59659 -0.18651 13.96402 -0.19531 15.33203 C-0.20564 15.75402 -0.21596 16.17601 -0.22659 16.61079 C-0.22763 19.36708 0.29212 20.74642 2 23 C2.125 24.6875 2.125 24.6875 2 26 C2.66 26 3.32 26 4 26 C3.95359 26.4473 3.90719 26.89461 3.85938 27.35547 C3.59503 31.78317 4.16904 33.6458 7.16016 36.87109 C8.49544 38.66596 8.40434 40.25548 7 42 C5.6235 42.66337 4.5467 42.80043 3 43 C3.75 41 3.75 41 6 41 C5.54869 38.74347 4.7473 37.70073 3.0625 36.24219 C0.66005 33.88075 -0.06299 31.62057 -0.75 28.375 C-0.87214 27.82667 -0.99428 27.27833 -1.12012 26.71338 C-2.12155 21.61226 -2.26308 16.55927 -2.25 11.375 C-2.24932 10.97996 -2.24863 10.58493 -2.24792 10.17792 C-2.18965 0 -2.18965 0 0 0 Z " fill="#3C382F" transform="translate(121,37)"/>
<path d="M0 0 C2.2694 -0.04086 4.53336 -0.03166 6.80273 0.02539 C5.29484 2.97803 3.90377 3.49193 0.74023 3.65039 C-3.09369 3.92182 -3.09369 3.92182 -4.19727 5.02539 C-5.54374 5.15895 -6.84755 5.23493 -8.19727 5.27148 C-9.00978 5.30441 -9.82228 5.33762 -10.63477 5.37109 C-11.91854 5.4186 -13.20227 5.46304 -14.48633 5.5022 C-15.72379 5.54182 -16.96032 5.59337 -18.19727 5.64648 C-18.38998 5.65069 -18.38998 5.65069 -19.36523 5.67198 C-22.63365 5.82431 -22.63365 5.82431 -23.19727 8.02539 C-23.85727 7.36539 -24.51727 6.70539 -25.19727 6.02539 C-16.77079 2.71069 -9.13223 0.19367 0 0 Z " fill="#6E6A66" transform="translate(66.197265625,381.974609375)"/>
<path d="M0 0 C-0.20681 0.22663 -0.41363 0.45327 -0.62671 0.68677 C-1.56854 1.72435 -2.50302 2.7683 -3.4375 3.8125 C-3.60024 3.99071 -3.60024 3.99071 -4.42383 4.89258 C-6.88714 7.66063 -6.88714 7.66063 -7.55469 9.66797 C-8.16679 11.49889 -8.95147 11.73451 -10.6875 12.5 C-11.45163 12.84602 -12.21568 13.19223 -12.979 13.54004 C-13.76853 13.89572 -14.56363 14.23904 -15.36084 14.57715 C-19.49466 16.45193 -22.20665 18.92485 -25.25 22.25 C-26.10231 23.17841 -26.96135 24.1007 -27.82812 25.01562 C-28.19841 25.42071 -28.56869 25.8258 -28.9502 26.24316 C-30.33386 27.24069 -30.67576 26.95615 -32 26 C-30.24683 24.19688 -28.4868 22.40082 -26.72046 20.6106 C-26.12224 20.0024 -25.52583 19.39241 -24.9314 18.78052 C-21.89774 15.66012 -19.12061 12.87712 -15.26196 10.79419 C-13.66195 9.78725 -12.32326 8.5608 -10.95703 7.26562 C-10.69922 7.02133 -10.44142 6.77704 -10.1758 6.52534 C-9.11219 5.50956 -8.05529 4.48715 -7.00317 3.45947 C-6.22298 2.70078 -5.43449 1.95163 -4.64453 1.20312 C-4.18409 0.75614 -3.72366 0.30916 -3.24927 -0.15137 C-1.72644 -1.18583 -1.41796 -1.08327 0 0 Z " fill="#6F6B67" transform="translate(142,83)"/>
<path d="M0 0 C0.42587 5.18926 -0.06861 9.57603 -3 14 C-3.66 14 -4.32 14 -5 14 C-4.85634 14.91701 -4.70994 15.83359 -4.5625 16.75 C-4.51867 17.02328 -4.51867 17.02328 -4.29688 18.40625 C-4.04872 19.73845 -3.72216 20.9625 -3.3125 22.25 C-2.92807 24.40281 -3.26311 24.77396 -5 26 C-10.51422 20.48578 -4.64422 6.37848 -1.57251 0.7876 C-1 0 -1 0 0 0 Z " fill="#908E88" transform="translate(138,31)"/>
<path d="M0 0 C0.17366 5.88062 -0.16344 11.46222 -1.17188 17.25952 C-1.37884 18.45979 -1.56879 19.66202 -1.75781 20.86523 C-1.88703 21.63819 -2.0172 22.41098 -2.14844 23.18359 C-2.20374 23.53877 -2.25904 23.89394 -2.31601 24.25987 C-2.70971 26.43614 -3.26949 27.60818 -5 29 C-4.06468 0 -4.06468 0 0 0 Z " fill="#37322A" transform="translate(37,210)"/>
<path d="M0 0 C0.56642 1.37945 0.42235 1.75131 -0.15965 3.09439 C-0.31989 3.47463 -0.48014 3.85488 -0.64523 4.24664 C-0.82538 4.65192 -1.00554 5.0572 -1.19115 5.47476 C-1.37013 5.89366 -1.54911 6.31255 -1.73352 6.74414 C-2.30719 8.08209 -2.89155 9.41506 -3.4763 10.7482 C-3.86699 11.65414 -4.25697 12.56039 -4.64622 13.46695 C-5.60227 15.68931 -6.56795 17.90727 -7.5388 20.1232 C-9.5388 17.3732 -9.5388 17.3732 -9.5388 15.1232 C-8.5488 15.1232 -7.5588 15.1232 -6.5388 15.1232 C-6.6458 14.82027 -6.75279 14.51734 -6.86302 14.20523 C-7.83642 10.80358 -7.36084 9.25281 -5.36693 6.38882 C-4.28241 4.73136 -3.68793 3.01008 -3.06615 1.13882 C-2.38606 -0.17097 -1.00108 -1.62907 0 0 Z " fill="#1A1914" transform="translate(186.53880310058594,95.87680053710938)"/>
<path d="M0 0 C1.989 3.0141 2.31006 4.01617 0 7 C-0.77484 9.14784 -1.29549 11.37959 -1.85547 13.5918 C-1.97535 14.02943 -2.09523 14.46707 -2.21875 14.91797 C-2.32123 15.31782 -2.42371 15.71767 -2.5293 16.12964 C-3 17 -3 17 -5 17 C-5.85156 17.65625 -5.85156 17.65625 -6.625 18.5 C-6.88539 18.77844 -7.14578 19.05687 -7.41406 19.34375 C-7.60742 19.56031 -7.80078 19.77687 -8 20 C-5.89139 13.057 -3.10889 6.55173 0 0 Z " fill="#6D6963" transform="translate(59,180)"/>
<path d="M0 0 C-0.14437 0.20625 -0.14437 0.20625 -0.875 1.25 C-1.67526 2.442 -2.32674 3.63899 -2.9375 4.9375 C-4.20486 7.54154 -5.96231 9.73114 -7.78906 11.96484 C-9.77694 14.46475 -10.95104 16.98886 -12 20 C-13.55108 16.11318 -12.42462 14.10671 -10.375 10.625 C-10.10011 10.14257 -9.82521 9.66014 -9.54199 9.16309 C-2.92716 -2.18207 -2.92716 -2.18207 0 0 Z " fill="#454034" transform="translate(134,16)"/>
<path d="M0 0 C0.91594 2.61303 1.39086 4.47981 0 7 C-0.51562 7.12375 -1.03125 7.2475 -1.5625 7.375 C-3.58301 8.25348 -3.0929 8.73533 -2.9375 10.8125 C-2.73218 14.53506 -4.23495 15.77988 -7 18 C-7.6736 18.65966 -8.34228 19.3245 -9 20 C-8.55233 15.17068 -6.23988 11.34088 -3.9375 7.1875 C-3.55604 6.48796 -3.17517 5.78809 -2.79492 5.08789 C-1.87015 3.38807 -0.93738 1.69289 0 0 Z " fill="#3D3A31" transform="translate(217,104)"/>
<path d="M0 0 C0.33 0 0.66 0 1 0 C1.21467 4.93736 1.05975 9.63468 0.125 14.5 C0.08576 14.71648 0.08576 14.71648 -0.11279 15.81201 C-0.19674 16.21436 -0.28069 16.61671 -0.36719 17.03125 C-0.4405 17.38768 -0.51382 17.7441 -0.58936 18.11133 C-1 19 -1 19 -3 20 C-3 16.37 -3 12.74 -3 9 C-2.34 9 -1.68 9 -1 9 C-0.67 6.03 -0.34 3.06 0 0 Z " fill="#3A382C" transform="translate(307,277)"/>
<path d="M0 0 C2.44607 0.70074 2.41519 2.35263 2.63281 4.59766 C2.67437 4.95138 2.71594 5.3051 2.75876 5.66954 C2.88954 6.79974 3.0074 7.93086 3.125 9.0625 C3.21139 9.82887 3.29862 10.59515 3.38672 11.36133 C3.60087 13.23993 3.80345 15.11947 4 17 C3.89687 16.69062 3.79375 16.38125 3.6875 16.0625 C3 15 3 15 1.45581 14.57251 C-0.65246 13.74341 -0.35158 13.00836 -0.29297 10.83984 C-0.2833 10.21143 -0.27363 9.58301 -0.26367 8.93555 C-0.23854 8.27619 -0.2134 7.61684 -0.1875 6.9375 C-0.17246 6.26761 -0.15877 5.59768 -0.14648 4.92773 C-0.11102 3.28436 -0.06161 1.64257 0 0 Z " fill="#423E34" transform="translate(212,34)"/>
<path d="M0 0 C0.9799 3.17423 1.02617 5.70129 0.66016 8.98438 C0.63725 9.2146 0.63725 9.2146 0.52135 10.3797 C0.37486 11.83721 0.21884 13.29352 0.0625 14.75 C-0.03905 15.74343 -0.13996 16.73691 -0.24023 17.73047 C-0.48624 20.15445 -0.7408 22.5774 -1 25 C-1.33 25 -1.66 25 -2 25 C-2.02506 24.70754 -2.05011 24.41509 -2.07593 24.11377 C-2.19226 22.78377 -2.31481 21.45442 -2.4375 20.125 C-2.47682 19.6648 -2.51613 19.20461 -2.55664 18.73047 C-2.57759 18.50811 -2.57759 18.50811 -2.68359 17.38281 C-2.70192 17.17858 -2.70192 17.17858 -2.79468 16.14502 C-3 15 -3 15 -3.57397 13.96533 C-4.14634 12.6684 -3.85631 12.35216 -3.13281 11.17188 C-1.89532 8.92983 -1.37122 6.74736 -0.875 4.25 C-0.78863 3.83879 -0.70227 3.42758 -0.61328 3.00391 C-0.40392 2.00362 -0.20125 1.00195 0 0 Z " fill="#0D0D0B" transform="translate(158,195)"/>
<path d="M0 0 C-1.38203 4.10973 -3.50322 7.473 -6 11 C-6.66 10.67 -7.32 10.34 -8 10 C-4.03545 -0.96082 -4.03545 -0.96082 0 0 Z " fill="#191711" transform="translate(203,67)"/>
<path d="M0 0 C1.01517 3.0455 1.04759 5.88551 0.97607 9.06299 C0.94853 10.95312 1.04294 12.57467 1.625 14.375 C2.10402 16.45074 1.68389 16.81137 0 18 C-1.36816 16.63184 -1.12898 15.85777 -1.13281 13.94531 C-1.1341 13.33043 -1.13539 12.71555 -1.13672 12.08203 C-1.13285 11.43621 -1.12898 10.79039 -1.125 10.125 C-1.12693 9.80596 -1.12693 9.80596 -1.13672 8.19141 C-1.13543 7.57395 -1.13414 6.95648 -1.13281 6.32031 C-1.13168 5.75586 -1.13056 5.19142 -1.12939 4.60986 C-0.99446 2.93113 -0.59692 1.56907 0 0 Z " fill="#787974" transform="translate(133,39)"/>
</svg>
