<?xml version="1.0" encoding="UTF-8"?>
<!-- Generator: visioncortex VTracer 0.6.12 -->
<svg version="1.1" xmlns="http://www.w3.org/2000/svg" width="451" height="480">
<path d="M0 0 C0.61416 -0.00282 1.22833 -0.00564 1.8611 -0.00854 C2.54538 -0.0066 3.22966 -0.00455 3.91394 -0.00241 C4.63167 -0.00377 5.3494 -0.00555 6.06712 -0.00772 C8.01957 -0.01229 9.97196 -0.01051 11.9244 -0.00734 C13.96457 -0.00482 16.00475 -0.00716 18.04492 -0.00873 C21.47148 -0.01055 24.89803 -0.00815 28.32458 -0.00339 C32.29007 0.00206 36.25551 0.00029 40.22099 -0.00521 C43.62143 -0.00975 47.02185 -0.01039 50.42229 -0.00778 C52.45508 -0.00621 54.48785 -0.00602 56.52065 -0.00931 C58.43145 -0.01219 60.34219 -0.01021 62.25299 -0.00442 C62.95565 -0.00309 63.65831 -0.00348 64.36096 -0.00568 C65.31738 -0.0084 66.27381 -0.00439 67.23022 0 C67.76633 0.00038 68.30244 0.00075 68.85479 0.00114 C70.79287 0.19466 71.07656 0.75546 71.27333 2.6519 C71.28887 3.30698 71.30442 3.96206 71.32043 4.63699 C71.32545 4.82043 71.32545 4.82043 71.35084 5.74872 C71.38227 6.93855 71.40701 8.12841 71.43152 9.31839 C71.44992 10.05208 71.46875 10.78577 71.48804 11.51944 C71.55653 14.24266 71.61655 16.96609 71.67761 19.68948 C71.82199 25.77386 71.96636 31.85823 72.11511 38.12698 C78.38511 38.29198 78.38511 38.29198 110.11511 39.12698 C110.11511 63.21698 110.11511 87.30698 110.11511 112.12698 C98.89511 112.45698 87.67511 112.78698 76.11511 113.12698 C76.77511 116.75698 77.43511 120.38698 78.11511 124.12698 C78.25574 128.27542 78.25574 128.27542 78.11511 130.12698 C78.28416 130.0802 78.28416 130.0802 79.13963 129.84346 C111.57039 120.88387 111.57039 120.88387 125.11511 119.12698 C125.76754 119.03635 126.41997 118.94571 127.09216 118.85233 C162.01981 114.2714 197.62443 120.97288 224.11511 145.12698 C224.60222 145.56494 225.08932 146.0029 225.59119 146.45413 C242.15219 161.45487 252.02513 180.48279 257.11511 202.12698 C257.18988 202.42298 257.18988 202.42298 257.56824 203.92093 C267.21242 243.05885 255.63805 277.92403 230.1449 307.90921 C229.17803 309.05258 228.22804 310.20767 227.28308 311.36917 C226.74823 312.01786 226.2131 312.66632 225.67761 313.31448 C225.44284 313.60621 225.20807 313.89795 224.96619 314.19852 C223.34342 316.12698 223.34342 316.12698 221.11511 316.12698 C220.57997 316.89689 220.57997 316.89689 220.16374 317.94016 C219.19399 320.08305 218.01664 321.49481 216.33704 323.11624 C216.06513 323.38683 215.79323 323.65742 215.51309 323.9362 C214.62064 324.82222 213.72141 325.70101 212.82214 326.58011 C212.19107 327.20489 211.56052 327.83021 210.93047 328.45602 C209.27203 330.1012 207.60812 331.74073 205.9425 333.37863 C202.97934 336.2935 200.02351 339.21579 197.07214 342.14261 C196.75825 342.45371 196.44437 342.76481 196.12097 343.08534 C190.32736 348.83582 184.74907 354.69837 179.93933 361.31448 C179.11511 362.12698 179.11511 362.12698 177.11511 362.12698 C176.65085 363.0273 176.19585 363.93323 175.78015 364.85696 C174.22884 367.81948 171.92873 370.38133 169.85046 372.99344 C169.23184 373.77387 168.62256 374.56168 168.01355 375.34964 C167.64923 375.8112 167.28491 376.27277 166.90955 376.74832 C165.9799 378.36164 165.83995 379.29406 166.11511 381.12698 C167.29451 381.74963 168.22436 382.08919 169.49011 382.43948 C174.84897 384.17937 179.41146 387.07872 184.11511 390.12698 C184.61011 390.43249 185.10511 390.738 185.61511 391.05276 C190.21558 394.24586 193.15594 399.48402 196.11511 404.12698 C196.22033 404.28659 196.22033 404.28659 196.75281 405.09427 C205.65893 418.90578 204.79542 437.72778 204.91162 453.41409 C204.93326 455.73233 204.97308 458.05011 205.01334 460.36809 C205.06071 463.1418 205.0982 465.91561 205.13464 468.68948 C205.14232 469.21471 205.15 469.73993 205.15791 470.28107 C205.17755 471.75185 205.19015 473.22251 205.20032 474.69339 C205.20365 474.91201 205.20365 474.91201 205.2205 476.01834 C205.22999 479.01211 205.22999 479.01211 204.11511 480.12698 C203.09601 480.25165 203.09601 480.25165 201.81082 480.25118 C201.56602 480.25231 201.56602 480.25231 200.32716 480.25799 C199.78431 480.25537 199.24146 480.25274 198.68216 480.25003 C198.39456 480.25061 198.39456 480.25061 196.93913 480.25353 C195.33056 480.25573 193.72207 480.25341 192.11352 480.24925 C190.36809 480.24583 188.62268 480.24818 186.87726 480.24983 C183.81425 480.25191 180.75127 480.25025 177.68827 480.24619 C173.13366 480.24017 168.57906 480.23985 164.02444 480.24073 C156.36388 480.24205 148.70333 480.2387 141.04277 480.23271 C133.45463 480.2268 125.86649 480.22295 118.27835 480.22186 C117.80706 480.22179 117.33577 480.22172 116.8502 480.22165 C114.4569 480.22131 112.06359 480.22101 109.67028 480.22073 C92.70552 480.21862 75.74076 480.21188 58.776 480.20242 C42.29195 480.19324 25.8079 480.18616 9.32385 480.18192 C8.81601 480.18178 8.30816 480.18165 7.78492 480.18152 C2.68504 480.1802 -2.41483 480.17892 -7.51471 480.17768 C-17.90433 480.17514 -28.29396 480.17232 -38.68358 480.16933 C-39.16131 480.16919 -39.63904 480.16905 -40.13124 480.16891 C-72.04913 480.15971 -103.96701 480.14386 -135.88489 480.12698 C-136.05117 479.17197 -136.21545 478.2166 -136.3789 477.2611 C-136.47061 476.72912 -136.56231 476.19714 -136.65679 475.64904 C-136.94587 473.72003 -136.97992 471.94764 -136.93835 469.99612 C-136.93516 469.81186 -136.93516 469.81186 -136.91898 468.87936 C-136.89651 467.68045 -136.86574 466.48194 -136.83411 465.28323 C-136.81479 464.42854 -136.79574 463.57385 -136.77693 462.71915 C-136.73615 460.93049 -136.69101 459.14202 -136.64294 457.35355 C-136.59489 455.55024 -136.55317 453.74699 -136.51794 451.94339 C-136.1368 432.47287 -134.88302 414.36181 -123.35754 397.87308 C-123.1243 397.53849 -122.89106 397.20389 -122.65076 396.85916 C-121.88489 396.12698 -121.88489 396.12698 -119.88489 396.12698 C-119.88489 395.46698 -119.88489 394.80698 -119.88489 394.12698 C-118.98621 393.22903 -118.98621 393.22903 -117.72473 392.3223 C-117.26413 391.98786 -116.80354 391.65343 -116.32898 391.30887 C-115.8318 390.9601 -115.33463 390.61132 -114.82239 390.25198 C-114.31941 389.89483 -113.81644 389.53768 -113.29822 389.16971 C-102.54807 381.61513 -102.54807 381.61513 -95.88489 381.12698 C-101.5578 371.72503 -109.27397 363.56072 -116.6593 355.49661 C-117.54282 354.50926 -118.40598 353.51639 -119.25891 352.50345 C-125.06282 345.65378 -131.50472 339.43147 -137.88489 333.12698 C-151.75696 319.41945 -151.75696 319.41945 -157.17749 312.96255 C-158.09657 311.87695 -159.04007 310.81434 -159.98547 309.75166 C-172.33373 295.85007 -182.49418 280.15566 -187.75989 262.18948 C-187.86362 261.83631 -187.96735 261.48314 -188.07422 261.11926 C-190.10594 254.09103 -191.03431 247.21612 -191.12317 239.89261 C-191.12808 239.56156 -191.13298 239.2305 -191.13804 238.88942 C-191.57296 209.17146 -191.57296 209.17146 -186.88489 195.12698 C-186.75149 194.72602 -186.61809 194.32507 -186.48065 193.91196 C-181.7749 179.96082 -175.57971 164.20605 -164.19739 154.3262 C-162.88489 153.12698 -162.88489 153.12698 -162.32239 151.95901 C-161.88489 151.12698 -161.88489 151.12698 -159.88489 151.12698 C-159.88489 150.46698 -159.88489 149.80698 -159.88489 149.12698 C-158.81137 147.98887 -157.76301 147.00561 -156.57239 146.00198 C-156.21411 145.69704 -155.85583 145.3921 -155.48669 145.07791 C-144.20599 135.62418 -131.98903 127.73932 -117.88489 123.31448 C-117.30586 123.13184 -116.72683 122.9492 -116.13025 122.76102 C-114.05996 122.15573 -111.98279 121.62684 -109.88489 121.12698 C-109.36739 121.00204 -108.84989 120.87709 -108.31671 120.74835 C-98.63164 118.46444 -89.47826 117.59473 -79.50989 117.68948 C-78.81574 117.6928 -78.12158 117.69587 -77.42743 117.6987 C-54.24613 117.82574 -31.75315 122.52303 -9.88489 130.12698 C-9.82954 129.75936 -9.77419 129.39173 -9.71716 129.01297 C-9.4618 127.32162 -9.20461 125.63055 -8.94739 123.93948 C-8.90388 123.65041 -8.90388 123.65041 -8.68372 122.18753 C-8.64021 121.90233 -8.64021 121.90233 -8.42004 120.45901 C-8.38077 120.19979 -8.38077 120.19979 -8.18201 118.88797 C-7.79998 116.62373 -7.3454 114.37639 -6.88489 112.12698 C-7.30862 112.13365 -7.73236 112.14031 -8.16893 112.14717 C-12.15663 112.20721 -16.14418 112.25292 -20.13222 112.28242 C-22.18271 112.2981 -24.23281 112.31937 -26.28308 112.3533 C-28.2607 112.38583 -30.23796 112.40382 -32.21582 112.41162 C-32.97144 112.41717 -33.72703 112.42802 -34.4825 112.44417 C-35.53886 112.46587 -36.59372 112.46895 -37.65027 112.46756 C-38.25205 112.47422 -38.85384 112.48088 -39.47386 112.48775 C-42.18783 111.79386 -42.00998 108.69004 -42.01187 106.24283 C-42.01469 105.67929 -42.01751 105.11575 -42.02042 104.53514 C-42.0194 104.22964 -42.0194 104.22964 -42.01428 102.68362 C-42.01516 102.35907 -42.01516 102.35907 -42.01959 100.71663 C-42.02414 98.94185 -42.02239 97.16713 -42.01921 95.39235 C-42.01668 93.53196 -42.01903 91.67158 -42.0206 89.81119 C-42.02242 86.68744 -42.02003 83.56372 -42.01526 80.43997 C-42.00982 76.83235 -42.01158 73.22478 -42.01709 69.61715 C-42.02163 66.51558 -42.02226 63.41402 -42.01965 60.31245 C-42.01809 58.46182 -42.01787 56.61123 -42.02118 54.7606 C-42.02462 52.69715 -42.01985 50.63379 -42.01428 48.57034 C-42.01631 47.95934 -42.01833 47.34834 -42.02042 46.71883 C-42.0176 46.15529 -42.01478 45.59175 -42.01187 45.01114 C-42.01168 44.76743 -42.01168 44.76743 -42.01073 43.53411 C-41.63202 39.29945 -41.63202 39.29945 -39.32201 38.76622 C-38.64239 38.75749 -37.96244 38.76558 -37.28308 38.78641 C-37.09769 38.78619 -37.09769 38.78619 -36.1595 38.78508 C-34.93071 38.78717 -33.70328 38.81053 -32.47473 38.83401 C-31.6242 38.83961 -30.77366 38.84388 -29.92311 38.84688 C-27.68209 38.85834 -25.44166 38.88782 -23.20087 38.92099 C-20.91528 38.95165 -18.6296 38.96538 -16.34387 38.9805 C-11.85729 39.01269 -7.37114 39.06391 -2.88489 39.12698 C-2.89964 38.65314 -2.91439 38.17929 -2.92958 37.69109 C-3.06769 33.23255 -3.20042 28.77389 -3.32785 24.31504 C-3.39354 22.02253 -3.46115 19.7301 -3.53308 17.43777 C-3.60239 15.22689 -3.66673 13.01591 -3.72758 10.80478 C-3.75172 9.95985 -3.77766 9.11497 -3.80542 8.27016 C-3.8439 7.08978 -3.87602 5.90939 -3.90662 4.72879 C-3.91309 4.55292 -3.91309 4.55292 -3.94585 3.66293 C-4.01762 0.38881 -3.11736 0.00219 0 0 Z M-81.88489 232.12698 C-82.0009 232.65163 -82.11692 233.17628 -82.23645 233.71683 C-83.70669 246.59501 -71.96647 258.16949 -63.59167 266.42917 C-62.51152 267.49561 -61.44106 268.57169 -60.36926 269.64651 C-59.32246 270.69536 -58.27412 271.74049 -57.2074 272.76907 C-56.91148 273.05605 -56.61556 273.34303 -56.31067 273.6387 C-56.05713 273.88064 -55.80358 274.12258 -55.54236 274.37186 C-54.88489 275.12698 -54.88489 275.12698 -54.42078 276.22 C-53.88489 277.12698 -53.88489 277.12698 -51.88489 277.12698 C-51.88489 277.78698 -51.88489 278.44698 -51.88489 279.12698 C-51.22489 279.12698 -50.56489 279.12698 -49.88489 279.12698 C-49.88489 279.78698 -49.88489 280.44698 -49.88489 281.12698 C-49.22489 281.12698 -48.56489 281.12698 -47.88489 281.12698 C-47.40848 282.07558 -46.93766 283.02756 -46.5011 283.99515 C-45.39861 286.02016 -43.68411 287.44677 -42.00989 289.00198 C-39.06951 291.80288 -36.82134 294.35866 -34.96692 297.99808 C-32.06636 301.0243 -26.87185 300.13081 -23.07239 299.68948 C-22.5703 299.63728 -22.06821 299.58507 -21.5509 299.53128 C-20.32802 299.40317 -19.1063 299.26832 -17.88489 299.12698 C-17.69771 290.08681 -17.55679 281.04714 -17.47039 272.00544 C-17.4292 267.80677 -17.37309 263.60931 -17.28137 259.41141 C-17.20144 255.75084 -17.14998 252.09115 -17.13218 248.42973 C-17.12178 246.49184 -17.0975 244.55644 -17.03905 242.61935 C-16.59509 227.32049 -16.59509 227.32049 -24.86018 224.49855 C-26.49579 223.90547 -27.93735 223.03831 -29.44739 222.17776 C-44.41126 214.49298 -77.60509 207.40746 -81.88489 232.12698 Z M90.11511 226.12698 C89.77876 226.29815 89.44241 226.46932 89.09586 226.64568 C85.26325 228.90772 85.56865 231.75863 85.66101 235.89334 C85.66214 236.58343 85.6615 237.27352 85.65924 237.96361 C85.6581 239.83156 85.68157 241.69849 85.70954 243.5662 C85.73458 245.52003 85.73689 247.47388 85.74164 249.42784 C85.75406 253.1254 85.78687 256.82248 85.82704 260.51982 C85.87178 264.73014 85.89375 268.94049 85.91382 273.15099 C85.9556 281.80993 86.02593 290.46841 86.11511 299.12698 C88.17418 299.41398 90.23618 299.64961 92.30261 299.87698 C92.59168 299.91759 92.59168 299.91759 94.05457 300.12308 C100.9656 300.82589 104.13741 296.44877 107.99011 291.31448 C110.77829 287.69522 113.66639 284.37697 117.03259 281.28397 C119.11511 279.32786 119.11511 279.32786 119.11511 277.12698 C120.02762 276.69246 120.94201 276.26163 121.86316 275.84573 C124.28608 274.45472 126.17023 272.36601 128.11658 270.38626 C128.87048 269.62154 129.63462 268.86821 130.40027 268.11526 C130.88398 267.63023 131.36708 267.14457 131.84949 266.65823 C132.06718 266.43942 132.06718 266.43942 133.16882 265.33206 C134.11511 264.12698 134.11511 264.12698 134.11511 262.12698 C134.77511 262.12698 135.43511 262.12698 136.11511 262.12698 C137.12908 261.05307 137.98939 260.01733 138.86511 258.83792 C139.12389 258.49701 139.38267 258.15611 139.64929 257.80487 C140.1971 257.0792 140.74161 256.35104 141.28308 255.62064 C142.10214 254.51942 142.93569 253.43047 143.77136 252.34183 C150.81444 243.02302 153.54694 231.99063 144.92761 222.43948 C129.08711 207.85081 105.98228 216.19111 90.11511 226.12698 Z " fill="#5B5856" transform="translate(190.8848876953125,-0.126983642578125)"/>
<path d="M0 0 C0.61416 -0.00282 1.22833 -0.00564 1.8611 -0.00854 C2.54538 -0.0066 3.22966 -0.00455 3.91394 -0.00241 C4.63167 -0.00377 5.3494 -0.00555 6.06712 -0.00772 C8.01957 -0.01229 9.97196 -0.01051 11.9244 -0.00734 C13.96457 -0.00482 16.00475 -0.00716 18.04492 -0.00873 C21.47148 -0.01055 24.89803 -0.00815 28.32458 -0.00339 C32.29007 0.00206 36.25551 0.00029 40.22099 -0.00521 C43.62143 -0.00975 47.02185 -0.01039 50.42229 -0.00778 C52.45508 -0.00621 54.48785 -0.00602 56.52065 -0.00931 C58.43145 -0.01219 60.34219 -0.01021 62.25299 -0.00442 C62.95565 -0.00309 63.65831 -0.00348 64.36096 -0.00568 C65.31738 -0.0084 66.27381 -0.00439 67.23022 0 C67.76633 0.00038 68.30244 0.00075 68.85479 0.00114 C70.79287 0.19466 71.07656 0.75546 71.27333 2.6519 C71.28887 3.30698 71.30442 3.96206 71.32043 4.63699 C71.32545 4.82043 71.32545 4.82043 71.35084 5.74872 C71.38227 6.93855 71.40701 8.12841 71.43152 9.31839 C71.44992 10.05208 71.46875 10.78577 71.48804 11.51944 C71.55653 14.24266 71.61655 16.96609 71.67761 19.68948 C71.82199 25.77386 71.96636 31.85823 72.11511 38.12698 C78.38511 38.29198 78.38511 38.29198 110.11511 39.12698 C110.11511 63.21698 110.11511 87.30698 110.11511 112.12698 C98.89511 112.45698 87.67511 112.78698 76.11511 113.12698 C76.77511 116.75698 77.43511 120.38698 78.11511 124.12698 C78.25574 128.27542 78.25574 128.27542 78.11511 130.12698 C78.28416 130.0802 78.28416 130.0802 79.13963 129.84346 C111.57039 120.88387 111.57039 120.88387 125.11511 119.12698 C125.76754 119.03635 126.41997 118.94571 127.09216 118.85233 C162.01981 114.2714 197.62443 120.97288 224.11511 145.12698 C224.60222 145.56494 225.08932 146.0029 225.59119 146.45413 C242.15219 161.45487 252.02513 180.48279 257.11511 202.12698 C257.18988 202.42298 257.18988 202.42298 257.56824 203.92093 C267.21242 243.05885 255.63805 277.92403 230.1449 307.90921 C229.17803 309.05258 228.22804 310.20767 227.28308 311.36917 C226.74823 312.01786 226.2131 312.66632 225.67761 313.31448 C225.44284 313.60621 225.20807 313.89795 224.96619 314.19852 C223.34342 316.12698 223.34342 316.12698 221.11511 316.12698 C220.57997 316.89689 220.57997 316.89689 220.16374 317.94016 C219.19399 320.08305 218.01664 321.49481 216.33704 323.11624 C216.06513 323.38683 215.79323 323.65742 215.51309 323.9362 C214.62064 324.82222 213.72141 325.70101 212.82214 326.58011 C212.19107 327.20489 211.56052 327.83021 210.93047 328.45602 C209.27203 330.1012 207.60812 331.74073 205.9425 333.37863 C202.97934 336.2935 200.02351 339.21579 197.07214 342.14261 C196.75825 342.45371 196.44437 342.76481 196.12097 343.08534 C190.32736 348.83582 184.74907 354.69837 179.93933 361.31448 C179.11511 362.12698 179.11511 362.12698 177.11511 362.12698 C176.65085 363.0273 176.19585 363.93323 175.78015 364.85696 C174.22884 367.81948 171.92873 370.38133 169.85046 372.99344 C169.23184 373.77387 168.62256 374.56168 168.01355 375.34964 C167.64923 375.8112 167.28491 376.27277 166.90955 376.74832 C165.9799 378.36164 165.83995 379.29406 166.11511 381.12698 C167.29451 381.74963 168.22436 382.08919 169.49011 382.43948 C174.84897 384.17937 179.41146 387.07872 184.11511 390.12698 C184.61011 390.43249 185.10511 390.738 185.61511 391.05276 C190.21558 394.24586 193.15594 399.48402 196.11511 404.12698 C196.22033 404.28659 196.22033 404.28659 196.75281 405.09427 C205.65893 418.90578 204.79542 437.72778 204.91162 453.41409 C204.93326 455.73233 204.97308 458.05011 205.01334 460.36809 C205.06071 463.1418 205.0982 465.91561 205.13464 468.68948 C205.14232 469.21471 205.15 469.73993 205.15791 470.28107 C205.17755 471.75185 205.19015 473.22251 205.20032 474.69339 C205.20365 474.91201 205.20365 474.91201 205.2205 476.01834 C205.22999 479.01211 205.22999 479.01211 204.11511 480.12698 C203.09601 480.25165 203.09601 480.25165 201.81082 480.25118 C201.56602 480.25231 201.56602 480.25231 200.32716 480.25799 C199.78431 480.25537 199.24146 480.25274 198.68216 480.25003 C198.39456 480.25061 198.39456 480.25061 196.93913 480.25353 C195.33056 480.25573 193.72207 480.25341 192.11352 480.24925 C190.36809 480.24583 188.62268 480.24818 186.87726 480.24983 C183.81425 480.25191 180.75127 480.25025 177.68827 480.24619 C173.13366 480.24017 168.57906 480.23985 164.02444 480.24073 C156.36388 480.24205 148.70333 480.2387 141.04277 480.23271 C133.45463 480.2268 125.86649 480.22295 118.27835 480.22186 C117.80706 480.22179 117.33577 480.22172 116.8502 480.22165 C114.4569 480.22131 112.06359 480.22101 109.67028 480.22073 C92.70552 480.21862 75.74076 480.21188 58.776 480.20242 C42.29195 480.19324 25.8079 480.18616 9.32385 480.18192 C8.81601 480.18178 8.30816 480.18165 7.78492 480.18152 C2.68504 480.1802 -2.41483 480.17892 -7.51471 480.17768 C-17.90433 480.17514 -28.29396 480.17232 -38.68358 480.16933 C-39.16131 480.16919 -39.63904 480.16905 -40.13124 480.16891 C-72.04913 480.15971 -103.96701 480.14386 -135.88489 480.12698 C-136.05117 479.17197 -136.21545 478.2166 -136.3789 477.2611 C-136.47061 476.72912 -136.56231 476.19714 -136.65679 475.64904 C-136.94587 473.72003 -136.97992 471.94764 -136.93835 469.99612 C-136.93516 469.81186 -136.93516 469.81186 -136.91898 468.87936 C-136.89651 467.68045 -136.86574 466.48194 -136.83411 465.28323 C-136.81479 464.42854 -136.79574 463.57385 -136.77693 462.71915 C-136.73615 460.93049 -136.69101 459.14202 -136.64294 457.35355 C-136.59489 455.55024 -136.55317 453.74699 -136.51794 451.94339 C-136.1368 432.47287 -134.88302 414.36181 -123.35754 397.87308 C-123.1243 397.53849 -122.89106 397.20389 -122.65076 396.85916 C-121.88489 396.12698 -121.88489 396.12698 -119.88489 396.12698 C-119.88489 395.46698 -119.88489 394.80698 -119.88489 394.12698 C-118.98621 393.22903 -118.98621 393.22903 -117.72473 392.3223 C-117.26413 391.98786 -116.80354 391.65343 -116.32898 391.30887 C-115.8318 390.9601 -115.33463 390.61132 -114.82239 390.25198 C-114.31941 389.89483 -113.81644 389.53768 -113.29822 389.16971 C-102.54807 381.61513 -102.54807 381.61513 -95.88489 381.12698 C-101.5578 371.72503 -109.27397 363.56072 -116.6593 355.49661 C-117.54282 354.50926 -118.40598 353.51639 -119.25891 352.50345 C-125.06282 345.65378 -131.50472 339.43147 -137.88489 333.12698 C-151.75696 319.41945 -151.75696 319.41945 -157.17749 312.96255 C-158.09657 311.87695 -159.04007 310.81434 -159.98547 309.75166 C-172.33373 295.85007 -182.49418 280.15566 -187.75989 262.18948 C-187.86362 261.83631 -187.96735 261.48314 -188.07422 261.11926 C-190.10594 254.09103 -191.03431 247.21612 -191.12317 239.89261 C-191.12808 239.56156 -191.13298 239.2305 -191.13804 238.88942 C-191.57296 209.17146 -191.57296 209.17146 -186.88489 195.12698 C-186.75149 194.72602 -186.61809 194.32507 -186.48065 193.91196 C-181.7749 179.96082 -175.57971 164.20605 -164.19739 154.3262 C-162.88489 153.12698 -162.88489 153.12698 -162.32239 151.95901 C-161.88489 151.12698 -161.88489 151.12698 -159.88489 151.12698 C-159.88489 150.46698 -159.88489 149.80698 -159.88489 149.12698 C-158.81137 147.98887 -157.76301 147.00561 -156.57239 146.00198 C-156.21411 145.69704 -155.85583 145.3921 -155.48669 145.07791 C-144.20599 135.62418 -131.98903 127.73932 -117.88489 123.31448 C-117.30586 123.13184 -116.72683 122.9492 -116.13025 122.76102 C-114.05996 122.15573 -111.98279 121.62684 -109.88489 121.12698 C-109.36739 121.00204 -108.84989 120.87709 -108.31671 120.74835 C-98.63164 118.46444 -89.47826 117.59473 -79.50989 117.68948 C-78.81574 117.6928 -78.12158 117.69587 -77.42743 117.6987 C-54.24613 117.82574 -31.75315 122.52303 -9.88489 130.12698 C-9.82954 129.75936 -9.77419 129.39173 -9.71716 129.01297 C-9.4618 127.32162 -9.20461 125.63055 -8.94739 123.93948 C-8.90388 123.65041 -8.90388 123.65041 -8.68372 122.18753 C-8.64021 121.90233 -8.64021 121.90233 -8.42004 120.45901 C-8.38077 120.19979 -8.38077 120.19979 -8.18201 118.88797 C-7.79998 116.62373 -7.3454 114.37639 -6.88489 112.12698 C-7.30862 112.13365 -7.73236 112.14031 -8.16893 112.14717 C-12.15663 112.20721 -16.14418 112.25292 -20.13222 112.28242 C-22.18271 112.2981 -24.23281 112.31937 -26.28308 112.3533 C-28.2607 112.38583 -30.23796 112.40382 -32.21582 112.41162 C-32.97144 112.41717 -33.72703 112.42802 -34.4825 112.44417 C-35.53886 112.46587 -36.59372 112.46895 -37.65027 112.46756 C-38.25205 112.47422 -38.85384 112.48088 -39.47386 112.48775 C-42.18783 111.79386 -42.00998 108.69004 -42.01187 106.24283 C-42.01469 105.67929 -42.01751 105.11575 -42.02042 104.53514 C-42.0194 104.22964 -42.0194 104.22964 -42.01428 102.68362 C-42.01516 102.35907 -42.01516 102.35907 -42.01959 100.71663 C-42.02414 98.94185 -42.02239 97.16713 -42.01921 95.39235 C-42.01668 93.53196 -42.01903 91.67158 -42.0206 89.81119 C-42.02242 86.68744 -42.02003 83.56372 -42.01526 80.43997 C-42.00982 76.83235 -42.01158 73.22478 -42.01709 69.61715 C-42.02163 66.51558 -42.02226 63.41402 -42.01965 60.31245 C-42.01809 58.46182 -42.01787 56.61123 -42.02118 54.7606 C-42.02462 52.69715 -42.01985 50.63379 -42.01428 48.57034 C-42.01631 47.95934 -42.01833 47.34834 -42.02042 46.71883 C-42.0176 46.15529 -42.01478 45.59175 -42.01187 45.01114 C-42.01168 44.76743 -42.01168 44.76743 -42.01073 43.53411 C-41.63202 39.29945 -41.63202 39.29945 -39.32201 38.76622 C-38.64239 38.75749 -37.96244 38.76558 -37.28308 38.78641 C-37.09769 38.78619 -37.09769 38.78619 -36.1595 38.78508 C-34.93071 38.78717 -33.70328 38.81053 -32.47473 38.83401 C-31.6242 38.83961 -30.77366 38.84388 -29.92311 38.84688 C-27.68209 38.85834 -25.44166 38.88782 -23.20087 38.92099 C-20.91528 38.95165 -18.6296 38.96538 -16.34387 38.9805 C-11.85729 39.01269 -7.37114 39.06391 -2.88489 39.12698 C-2.89964 38.65314 -2.91439 38.17929 -2.92958 37.69109 C-3.06769 33.23255 -3.20042 28.77389 -3.32785 24.31504 C-3.39354 22.02253 -3.46115 19.7301 -3.53308 17.43777 C-3.60239 15.22689 -3.66673 13.01591 -3.72758 10.80478 C-3.75172 9.95985 -3.77766 9.11497 -3.80542 8.27016 C-3.8439 7.08978 -3.87602 5.90939 -3.90662 4.72879 C-3.91309 4.55292 -3.91309 4.55292 -3.94585 3.66293 C-4.01762 0.38881 -3.11736 0.00219 0 0 Z M12.11511 15.12698 C12.11511 27.99698 12.11511 40.86698 12.11511 54.12698 C-0.42489 54.12698 -12.96489 54.12698 -25.88489 54.12698 C-25.88489 68.64698 -25.88489 83.16698 -25.88489 98.12698 C-13.67489 98.12698 -1.46489 98.12698 11.11511 98.12698 C8.24011 110.56448 8.24011 110.56448 7.34607 114.42947 C6.13793 119.6578 4.93761 124.88723 3.78278 130.12761 C3.29455 132.33763 2.78676 134.54209 2.26355 136.74417 C2.13464 137.28816 2.00574 137.83214 1.87292 138.39261 C1.61202 139.48947 1.34891 140.5858 1.08386 141.68167 C0.95753 142.21792 0.83121 142.75417 0.70105 143.30667 C0.5881 143.77831 0.47514 144.24994 0.35876 144.73587 C0.09795 146.225 0.07337 147.6182 0.11511 149.12698 C-1.8437 148.37822 -3.80188 147.62783 -5.75989 146.87698 C-6.35197 146.65027 -6.94405 146.42356 -7.55408 146.18997 C-10.62317 145.01098 -13.6835 143.81853 -16.71814 142.55325 C-25.41392 139.01349 -34.26185 136.69077 -43.45374 134.81937 C-45.01668 134.5006 -46.57775 134.17366 -48.13879 133.84573 C-68.23966 129.66571 -87.00364 129.96117 -106.73187 135.78848 C-107.82357 136.10898 -108.91759 136.41916 -110.01331 136.72562 C-125.91312 141.20661 -138.42201 148.35624 -149.88489 160.12698 C-150.29964 160.53674 -150.7144 160.94651 -151.14172 161.36868 C-157.94201 168.10003 -162.59223 175.66849 -166.88489 184.12698 C-167.13754 184.6136 -167.3902 185.10023 -167.65051 185.60159 C-178.16205 206.30347 -180.52729 236.902 -172.43176 258.61087 C-171.88183 260.13545 -171.43635 261.66142 -171.00989 263.22464 C-167.90309 274.25553 -161.49382 283.71629 -154.16028 292.4119 C-152.62654 294.23591 -151.11087 296.07293 -149.60583 297.92068 C-142.45048 306.62561 -134.66197 314.5659 -126.63074 322.46017 C-123.6617 325.3799 -120.70097 328.30805 -117.74426 331.24026 C-117.43204 331.54974 -117.11982 331.85921 -116.79814 332.17807 C-112.53164 336.41322 -108.38557 340.70183 -104.54584 345.33362 C-103.89214 346.11828 -103.22704 346.89131 -102.55627 347.66141 C-97.52842 353.44159 -92.87428 359.29887 -88.74841 365.76663 C-88.17003 366.67186 -87.5794 367.5694 -86.97586 368.45805 C-86.17148 369.68857 -85.45847 370.89498 -84.75227 372.17818 C-80.63857 379.13846 -76.77733 378.98985 -69.25598 377.84964 C-68.21998 377.72469 -67.18351 377.60362 -66.14662 377.48622 C-63.41854 377.16721 -60.69968 376.79787 -57.97968 376.41678 C-55.25568 376.04319 -52.52643 375.71396 -49.797 375.38284 C-46.70327 375.00606 -43.61064 374.62598 -40.5222 374.20781 C-27.52781 372.45572 -14.66289 371.95643 -1.57077 371.92712 C-0.24209 371.9238 1.08658 371.91896 2.41526 371.91365 C8.63189 371.88917 14.84848 371.87988 21.06516 371.87767 C22.55402 371.87698 24.04289 371.87572 25.53175 371.87431 C50.61122 371.85253 75.63625 372.00507 100.67761 373.50198 C101.21836 373.53372 101.7591 373.56546 102.31623 373.59816 C114.33022 374.30695 126.21 375.34813 138.11511 377.12698 C139.26197 377.29696 140.40927 377.46398 141.55701 377.62796 C142.06185 377.7013 142.56669 377.77463 143.08682 377.85019 C150.87361 378.65657 153.11074 374.04252 156.55246 367.80396 C158.50429 364.32151 160.94088 361.23924 163.42761 358.12698 C163.66255 357.83107 163.8975 357.53516 164.13956 357.23029 C172.7575 346.39899 182.45059 336.6737 192.30261 326.97586 C196.24156 323.08682 200.04332 319.15281 203.64363 314.94731 C206.18746 311.99288 208.9327 309.29442 211.74255 306.59604 C217.23166 301.30008 221.93051 295.85744 226.17786 289.49564 C227.06628 288.19829 227.99568 286.9378 228.93361 285.67606 C231.83015 281.74498 234.05806 277.64152 236.17761 273.25198 C236.52595 272.53931 236.8745 271.82675 237.22327 271.11429 C238.05303 269.41404 238.87371 267.7096 239.69202 266.00381 C240.41244 264.5108 241.15253 263.02741 241.89539 261.54544 C246.36901 251.724 247.66818 241.70575 247.55261 231.00198 C247.55024 230.41904 247.54786 229.83609 247.54541 229.23547 C247.49737 221.66334 247.05321 214.33317 245.36511 206.93948 C245.28679 206.58989 245.20847 206.24029 245.12778 205.8801 C244.04482 201.22406 242.28132 197.1373 240.04529 192.93192 C239.15542 191.24955 238.43427 189.52491 237.74011 187.75198 C233.76328 178.40958 227.55031 170.45207 221.25916 162.5762 C220.54363 161.66981 219.84212 160.75198 219.16248 159.81839 C216.39112 156.08608 212.97179 153.44659 209.24011 150.75198 C208.91253 150.51365 208.58495 150.27531 208.24744 150.02975 C196.14741 141.27827 181.73862 134.20094 166.77551 132.40652 C165.1856 132.13885 163.93333 131.69947 162.45105 131.08401 C157.47782 129.31725 151.94688 129.78007 146.74011 129.81448 C146.44905 129.81556 146.44905 129.81556 144.97607 129.82101 C135.75094 129.8758 127.18494 130.49948 118.22839 132.83865 C116.98942 133.15954 115.74785 133.46887 114.50574 133.77737 C104.17791 136.35594 94.07869 139.07915 84.39001 143.55228 C82.18267 144.54731 79.9298 145.42688 77.67761 146.31448 C76.90803 146.62034 76.1385 146.92633 75.36902 147.23245 C75.00695 147.37602 74.64489 147.51959 74.27185 147.66751 C72.218 148.48333 70.16666 149.3054 68.11511 150.12698 C68.06613 149.52112 68.01714 148.91526 67.96667 148.29105 C67.1071 138.34768 64.85521 128.98225 62.27698 119.36578 C60.81684 113.91908 59.46463 108.49473 58.47449 102.93948 C58.11511 101.12698 58.11511 101.12698 57.11511 98.12698 C69.65511 98.12698 82.19511 98.12698 95.11511 98.12698 C95.11511 83.27698 95.11511 68.42698 95.11511 53.12698 C82.24511 53.12698 69.37511 53.12698 56.11511 53.12698 C56.11511 40.58698 56.11511 28.04698 56.11511 15.12698 C41.59511 15.12698 27.07511 15.12698 12.11511 15.12698 Z " fill="#211F1D" transform="translate(190.8848876953125,-0.126983642578125)"/>
<path d="M0 0 C1.62985 -0.00072 3.25969 -0.00289 4.88954 -0.0055 C10.63188 -0.01467 16.37421 -0.01884 22.11656 -0.01805 C26.79791 -0.01751 31.47918 -0.02458 36.1605 -0.03855 C86.54481 -0.18544 86.54481 -0.18544 105.87146 2.03529 C106.99986 2.16386 108.12879 2.28518 109.25828 2.4038 C113.46536 2.84774 117.65522 3.37511 121.84215 3.97976 C122.43364 4.06374 123.02514 4.14772 123.63456 4.23424 C156.93846 9.0097 156.93846 9.0097 168.02965 18.16726 C168.43602 18.48066 168.8424 18.79406 169.26109 19.11696 C189.50563 34.73305 185.02965 59.9691 185.02965 84.16726 C81.73965 84.16726 -21.55035 84.16726 -127.97035 84.16726 C-126.72346 43.01979 -126.72346 43.01979 -122.72035 33.91726 C-122.50057 33.41476 -122.28078 32.91227 -122.05434 32.39455 C-111.64414 9.68638 -83.7679 5.92469 -61.78823 3.36233 C-60.34358 3.19373 -58.89966 3.02031 -57.45619 2.84182 C-49.27809 1.83073 -41.11033 1.0277 -32.87856 0.62136 C-32.45643 0.6002 -32.03429 0.57904 -31.59937 0.55724 C-21.06913 0.04193 -10.54077 0.00265 0 0 Z " fill="#5C5857" transform="translate(195.97035455703735,381.8327429294586)"/>
<path d="M0 0 C1.62985 -0.00072 3.25969 -0.00289 4.88954 -0.0055 C10.63188 -0.01467 16.37421 -0.01884 22.11656 -0.01805 C26.79791 -0.01751 31.47918 -0.02458 36.1605 -0.03855 C86.54481 -0.18544 86.54481 -0.18544 105.87146 2.03529 C106.99986 2.16386 108.12879 2.28518 109.25828 2.4038 C113.46536 2.84774 117.65522 3.37511 121.84215 3.97976 C122.43364 4.06374 123.02514 4.14772 123.63456 4.23424 C157.15149 9.04025 157.15149 9.04025 168.02965 18.16726 C168.45197 18.51256 168.8743 18.85787 169.30943 19.21364 C179.46511 27.59484 179.46511 27.59484 179.02965 32.16726 C176.4694 31.68151 173.92784 31.15644 171.40074 30.51882 C164.92742 28.89561 158.43846 27.66006 151.84215 26.66726 C151.41296 26.60245 150.98377 26.53764 150.54158 26.47087 C141.01719 25.05008 131.48147 24.2625 121.87712 23.62887 C120.18415 23.51476 118.49194 23.39098 116.79964 23.2673 C87.11184 21.10793 57.41446 20.97851 27.66506 20.98215 C24.02361 20.98184 20.38225 20.97367 16.74083 20.96145 C-8.63252 20.87818 -33.85987 21.25601 -59.17594 23.041 C-60.96405 23.16681 -62.75236 23.28916 -64.54077 23.41057 C-65.65704 23.48683 -66.7733 23.56319 -67.88954 23.63967 C-68.3815 23.67332 -68.87346 23.70697 -69.38033 23.74163 C-80.75235 24.53423 -91.98494 26.06617 -103.24208 27.84646 C-103.79528 27.93337 -104.34847 28.02028 -104.91843 28.10982 C-105.95048 28.27298 -106.98209 28.43899 -108.01312 28.60848 C-110.70495 29.03621 -113.24457 29.24988 -115.97035 29.16726 C-115.97035 29.82726 -115.97035 30.48726 -115.97035 31.16726 C-117.29035 31.16726 -118.61035 31.16726 -119.97035 31.16726 C-119.22621 24.71802 -113.09868 20.06048 -108.09535 16.60476 C-107.8209 16.41405 -107.54644 16.22334 -107.26366 16.02685 C-93.98773 6.92242 -77.38843 5.18098 -61.78823 3.36233 C-60.34358 3.19373 -58.89966 3.02031 -57.45619 2.84182 C-49.27809 1.83073 -41.11033 1.0277 -32.87856 0.62136 C-32.45643 0.6002 -32.03429 0.57904 -31.59937 0.55724 C-21.06913 0.04193 -10.54077 0.00265 0 0 Z " fill="#827E7A" transform="translate(195.97035455703735,381.8327429294586)"/>
<path d="M0 0 C3.73865 3.48341 6.70929 7.13625 9.5625 11.375 C9.95919 11.95811 10.35592 12.5412 10.75269 13.12427 C17.00602 22.35654 21.098 31.54285 24.1875 42.25 C24.35443 42.82823 24.52137 43.40645 24.69336 44.0022 C26.27095 49.65603 27.15204 55.12866 27.23828 61 C27.24798 61.55334 27.25769 62.10668 27.26768 62.67679 C27.29245 64.45127 27.30519 66.22537 27.3125 68 C27.31381 68.30236 27.31381 68.30236 27.32043 69.83246 C27.3248 79.2191 26.69702 87.278 23 96 C22.67317 96.82552 22.34634 97.65104 22.01953 98.47656 C21.25865 100.32636 20.42252 102.1253 19.53418 103.91699 C18.96783 105.06523 18.42495 106.22296 17.88281 107.38281 C14.777 113.92647 11.10726 120.03759 7 126 C6.83218 126.24404 6.83218 126.24404 5.98291 127.479 C0.17189 135.77547 -6.58904 142.86895 -13.84717 149.9126 C-17.18553 153.15644 -20.43059 156.4097 -23.45703 159.94922 C-27.7443 164.96173 -32.46407 169.52626 -37.16602 174.14551 C-44.2636 181.12977 -50.8767 188.34324 -56.9375 196.25 C-57.36785 196.79919 -57.79835 197.34826 -58.229 197.89722 C-60.37962 200.66868 -62.30208 203.42819 -63.99609 206.50391 C-67.83838 213.38974 -70.3511 216.68787 -78.57935 215.50073 C-79.14559 215.42 -79.71184 215.33927 -80.29524 215.25609 C-81.8409 215.0239 -83.38434 214.78088 -84.92773 214.53418 C-97.55703 212.57984 -110.31432 212.12602 -123.06232 211.47198 C-126.22082 211.30863 -129.37894 211.13836 -132.53711 210.96875 C-138.69107 210.63923 -144.84539 210.31713 -151 210 C-151 209.67 -151 209.34 -151 209 C-150.51585 209.00222 -150.03169 209.00444 -149.53287 209.00673 C-144.97149 209.027 -140.41013 209.04199 -135.84872 209.05181 C-133.50362 209.05703 -131.15856 209.06411 -128.81348 209.07544 C-126.5506 209.0863 -124.28776 209.09228 -122.02485 209.09488 C-121.16126 209.09673 -120.29768 209.10034 -119.4341 209.10573 C-118.22507 209.11298 -117.01618 209.11399 -115.80713 209.11353 C-115.44964 209.11712 -115.09215 209.12072 -114.72383 209.12442 C-112.86001 209.11668 -111.61252 208.92493 -110 208 C-108.27344 207.90234 -108.27344 207.90234 -106.375 207.9375 C-105.74336 207.94652 -105.11172 207.95555 -104.46094 207.96484 C-104.21988 207.97064 -104.21988 207.97064 -103 208 C-103 208.99 -103 209.98 -103 211 C-99.65589 211.44588 -99.13575 211.36944 -97.73093 208.2822 C-96.04679 205.32787 -93.42881 202.92603 -91.09766 200.47266 C-90.47998 199.81666 -89.86231 199.16066 -89.24464 198.50465 C-80.84223 189.62083 -72.11811 181.0476 -63.4375 172.4375 C-60.45978 169.48364 -57.4839 166.52797 -54.51216 163.5681 C-53.34388 162.40619 -52.17259 161.24738 -51.00108 160.08873 C-47.43743 156.54782 -44.04018 153.02168 -40.99696 149.0182 C-40 148 -40 148 -38 148 C-38 147.34 -38 146.68 -38 146 C-37.19531 144.92969 -37.19531 144.92969 -36.125 143.875 C-35.95098 143.6984 -35.95098 143.6984 -35.07031 142.80469 C-34 142 -34 142 -32 142 C-31.55149 141.06849 -31.10632 140.13526 -30.67578 139.19531 C-28.68428 135.67276 -25.08607 133.06188 -22.04468 130.45776 C-18.73158 127.61852 -15.84709 124.81745 -13.13672 121.38672 C-12.03764 120.04591 -10.88194 118.87936 -9.625 117.6875 C-2.34339 110.45154 2.13282 102.46811 6 93 C6.20254 92.50677 6.40509 92.01354 6.61377 91.50537 C7.17557 90.11345 7.71812 88.7161 8.25 87.3125 C8.32553 87.11729 8.32553 87.11729 8.70776 86.12939 C11.7858 77.57061 12.32397 68.96623 12.26074 59.94189 C12.25005 58.1341 12.26068 56.3273 12.27344 54.51953 C12.292 42.61353 10.29664 31.92763 6.59595 20.6333 C6.05488 18.97668 5.53171 17.31508 5.00977 15.65234 C4.6651 14.5804 4.31943 13.50877 3.97266 12.4375 C3.89604 12.19322 3.89604 12.19322 3.50832 10.95703 C2.71851 8.58231 1.92418 6.7795 0.31421 4.84766 C-1.17937 3.03516 -1.16848 2.12452 0 0 Z " fill="#454341" transform="translate(411,162)"/>
<path d="M0 0 C0.20917 -0.00166 0.20917 -0.00166 1.26767 -0.01009 C2.15353 -0.01514 3.03942 -0.01749 3.92529 -0.01733 C5.24871 -0.01949 6.57126 -0.03758 7.89453 -0.05664 C16.57677 -0.11812 23.93445 1.05246 31.33594 5.85547 C31.61291 6.03193 31.88989 6.20839 32.17526 6.3902 C36.84922 9.3813 40.79483 12.36705 43.64844 17.16797 C43.85292 17.49926 44.05739 17.83055 44.26807 18.17188 C51.68614 30.86515 48.73066 45.83898 40.64844 57.16797 C40.26375 57.7202 39.87931 58.27262 39.49512 58.8252 C33.63508 67.16796 26.70658 74.40929 19.39478 81.48755 C15.17096 85.58113 11.23486 89.82524 7.40717 94.29083 C6.36202 95.49908 5.28777 96.67904 4.20703 97.85547 C4.03107 98.04794 4.03107 98.04794 3.14062 99.02197 C2.40146 99.82513 1.65755 100.62393 0.91016 101.41943 C-0.89571 103.37955 -2.45938 105.19224 -3.66016 107.58203 C-7.61856 115.2148 -14.67924 113.96215 -22.26422 113.3828 C-26.39973 113.08277 -30.54061 112.87056 -34.68066 112.64429 C-35.52386 112.59788 -36.36705 112.55143 -37.21024 112.50494 C-39.25732 112.39215 -41.30443 112.27991 -43.35156 112.16797 C-43.58559 100.29405 -43.76171 88.42048 -43.86968 76.54472 C-43.92116 71.02992 -43.99128 65.51656 -44.10596 60.00269 C-44.20591 55.19432 -44.27021 50.387 -44.29245 45.57762 C-44.30544 43.03247 -44.33576 40.4903 -44.40886 37.9461 C-44.96514 17.82464 -44.96514 17.82464 -34.52473 13.65401 C-32.9353 12.99551 -31.64733 12.11583 -30.24219 11.12891 C-22.91411 6.64277 -15.50415 3.78889 -7.35156 1.16797 C-6.88581 0.98694 -6.42005 0.8059 -5.94019 0.61938 C-3.92683 0.04728 -2.08278 0.00589 0 0 Z M-26.35156 25.16797 C-26.68792 25.33914 -27.02427 25.51031 -27.37082 25.68667 C-31.20342 27.94871 -30.89803 30.79961 -30.80566 34.93433 C-30.80453 35.62441 -30.80517 36.31451 -30.80743 37.00459 C-30.80858 38.87255 -30.78511 40.73947 -30.75714 42.60719 C-30.73209 44.56101 -30.72978 46.51486 -30.72504 48.46883 C-30.71262 52.16638 -30.67981 55.86346 -30.63964 59.56081 C-30.59489 63.77113 -30.57293 67.98147 -30.55286 72.19197 C-30.51107 80.85091 -30.44074 89.50939 -30.35156 98.16797 C-28.29249 98.45497 -26.2305 98.69059 -24.16406 98.91797 C-23.87499 98.95857 -23.87499 98.95857 -22.41211 99.16406 C-15.50107 99.86688 -12.32926 95.48975 -8.47656 90.35547 C-5.68839 86.73621 -2.80028 83.41795 0.56592 80.32495 C2.64844 78.36885 2.64844 78.36885 2.64844 76.16797 C3.56095 75.73344 4.47534 75.30262 5.39648 74.88672 C7.81941 73.49571 9.70356 71.407 11.6499 69.42725 C12.40381 68.66252 13.16795 67.90919 13.93359 67.15625 C14.41731 66.67121 14.90041 66.18556 15.38281 65.69922 C15.6005 65.4804 15.6005 65.4804 16.70215 64.37305 C17.64844 63.16797 17.64844 63.16797 17.64844 61.16797 C18.30844 61.16797 18.96844 61.16797 19.64844 61.16797 C20.66241 60.09406 21.52271 59.05831 22.39844 57.87891 C22.65722 57.538 22.916 57.19709 23.18262 56.84586 C23.73042 56.12019 24.27494 55.39203 24.81641 54.66162 C25.63547 53.5604 26.46902 52.47146 27.30469 51.38281 C34.34776 42.064 37.08026 31.03161 28.46094 21.48047 C12.62043 6.8918 -10.48439 15.2321 -26.35156 25.16797 Z " fill="#201E1D" transform="translate(307.3515625,200.83203125)"/>
<path d="M0 0 C20.01944 -0.42092 20.01944 -0.42092 27 2 C27.46116 2.15066 27.92232 2.30132 28.39746 2.45654 C37.22096 5.38365 45.26066 9.48281 53.09575 14.4487 C53.99006 14.99394 54.90114 15.48751 55.82451 15.98153 C61.6263 19.29723 61.99161 22.56177 61.79468 28.92114 C61.7927 29.81842 61.79382 30.71571 61.79778 31.61298 C61.79978 34.03716 61.75877 36.4589 61.70976 38.88252 C61.66586 41.41949 61.66188 43.95653 61.65358 46.49382 C61.63186 51.29306 61.57448 56.09117 61.50413 60.88991 C61.42576 66.3553 61.38737 71.82075 61.35227 77.28656 C61.27919 88.525 61.15615 99.76243 61 111 C56.72743 111.52078 52.45461 111.9757 48.16716 112.35224 C46.17501 112.52917 44.18989 112.72654 42.20532 112.97534 C31.07673 114.35138 24.925 113.81587 18.78371 103.29295 C17.7624 101.60802 16.58841 100.2624 15.24219 98.82812 C14.85192 98.39919 14.46166 97.97025 14.05957 97.52832 C13.66866 97.10647 13.27775 96.68463 12.875 96.25 C12.43253 95.76886 11.99006 95.28771 11.53418 94.79199 C7.24145 90.1558 2.74805 85.72078 -1.73633 81.27136 C-7.98691 75.06541 -13.92022 68.86475 -18.85938 61.54297 C-19.71241 60.38903 -20.4623 59.5107 -21.48047 58.53516 C-31.04668 49.25709 -34.12907 30.5365 -27 19 C-21.00173 10.53185 -11.23461 1.1358 0 2 C0 1.34 0 0.68 0 0 Z M-16 31 C-16.11602 31.52465 -16.23203 32.0493 -16.35156 32.58984 C-17.8218 45.46802 -6.08158 57.0425 2.29321 65.30219 C3.37337 66.36863 4.44383 67.4447 5.51562 68.51953 C6.56243 69.56838 7.61077 70.61351 8.67749 71.64209 C8.97341 71.92907 9.26933 72.21604 9.57422 72.51172 C9.82776 72.75366 10.0813 72.9956 10.34253 73.24487 C11 74 11 74 11.46411 75.09302 C12 76 12 76 14 76 C14 76.66 14 77.32 14 78 C14.66 78 15.32 78 16 78 C16 78.66 16 79.32 16 80 C16.66 80 17.32 80 18 80 C18.47641 80.9486 18.94723 81.90058 19.38379 82.86816 C20.48627 84.89317 22.20078 86.31978 23.875 87.875 C26.81538 90.67589 29.06355 93.23168 30.91797 96.87109 C33.81853 99.89731 39.01304 99.00383 42.8125 98.5625 C43.31459 98.51029 43.81668 98.45809 44.33398 98.4043 C45.55687 98.27619 46.77859 98.14134 48 98 C48.18718 88.95983 48.3281 79.92016 48.4145 70.87846 C48.45569 66.67979 48.5118 62.48232 48.60352 58.28442 C48.68345 54.62386 48.73491 50.96416 48.75271 47.30275 C48.76311 45.36485 48.78739 43.42946 48.84584 41.49236 C49.28979 26.19351 49.28979 26.19351 41.0247 23.37156 C39.38909 22.77848 37.94754 21.91133 36.4375 21.05078 C21.47363 13.366 -11.7202 6.28047 -16 31 Z " fill="#1F1D1B" transform="translate(125,201)"/>
<path d="M0 0 C-0.69534 1.8068 -1.18662 2.2611 -3.08203 2.62256 C-3.29771 2.66608 -3.29771 2.66608 -4.38916 2.88632 C-4.85886 2.97282 -5.32856 3.05932 -5.8125 3.14844 C-6.81642 3.35151 -7.82032 3.55464 -8.82422 3.75781 C-10.39867 4.06561 -11.97373 4.36997 -13.54932 4.67188 C-22.60923 6.42671 -30.75663 8.82301 -38.1875 14.5 C-38.634 14.8333 -39.0805 15.16661 -39.54053 15.51001 C-64.99754 34.84363 -92.70839 64.3418 -93.23828 98.57812 C-93.24798 99.10244 -93.25769 99.62675 -93.26768 100.16695 C-93.29256 101.86138 -93.30521 103.55541 -93.3125 105.25 C-93.31512 105.8287 -93.31774 106.4074 -93.32043 107.00363 C-93.32631 119.15308 -92.13495 131.46831 -86.13184 142.31665 C-84.72725 144.9312 -85.0793 146.30919 -86 149 C-89.43841 145.27142 -91.3302 141.34568 -93 136.625 C-93.12562 136.2732 -93.25125 135.92139 -93.38068 135.55893 C-94.02936 133.73466 -94.66406 131.90626 -95.28613 130.07275 C-95.7225 128.79063 -96.17926 127.52661 -96.65918 126.25928 C-109.46474 92.43345 -96.7918 51.18813 -72.31836 26.33984 C-71.50524 25.51347 -70.69792 24.68128 -69.90039 23.83984 C-59.91988 13.37671 -46.2825 8.00536 -32.6875 4 C-32.44076 3.92604 -32.44076 3.92604 -31.19211 3.55173 C-20.91197 0.51612 -10.67906 -0.24271 0 0 Z " fill="#827C78" transform="translate(115,132)"/>
<path d="M0 0 C14.52 0 29.04 0 44 0 C42.85122 4.59513 42.85122 4.59513 39.3064 4.4541 C38.9197 4.45458 38.533 4.45507 38.13459 4.45556 C36.87916 4.45257 35.6261 4.4221 34.37109 4.39062 C33.59771 4.38475 32.82431 4.38066 32.0509 4.37842 C29.17953 4.35742 26.30849 4.30158 23.4375 4.25 C17.02312 4.1675 10.60875 4.085 4 4 C4 17.2 4 30.4 4 44 C-8.21 44 -20.42 44 -33 44 C-33 56.54 -33 69.08 -33 82 C-34.65 82 -36.3 82 -38 82 C-38 67.81 -38 53.62 -38 39 C-25.46 39 -12.92 39 0 39 C0 26.13 0 13.26 0 0 Z " fill="#908A83" transform="translate(203,15)"/>
<path d="M0 0 C0.43657 -0.00674 0.87315 -0.01348 1.32295 -0.02043 C1.56469 -0.01649 1.56469 -0.01649 2.78807 0.00345 C3.04443 0.00172 3.04443 0.00172 4.3418 -0.00704 C6.08024 -0.01505 7.81786 -0.00146 9.55626 0.01183 C10.80694 0.01053 12.05762 0.0079 13.3083 0.00406 C16.03793 -0.00127 18.7673 0.0028 21.49691 0.01498 C25.5557 0.03304 29.61437 0.03399 33.67319 0.03135 C40.49985 0.02741 47.32642 0.03746 54.15305 0.05541 C60.91503 0.07314 67.67698 0.0847 74.43898 0.08796 C74.64898 0.08807 74.64898 0.08807 75.71169 0.08859 C77.84452 0.0896 79.97734 0.09051 82.11017 0.09137 C97.22812 0.09768 112.34603 0.1179 127.46396 0.14628 C142.15341 0.17382 156.84285 0.19507 171.53232 0.2078 C171.75861 0.208 171.75861 0.208 172.90374 0.209 C177.44849 0.21295 181.99324 0.21678 186.53799 0.22051 C195.79668 0.22812 205.05536 0.23659 214.31404 0.24557 C214.52691 0.24577 214.52691 0.24577 215.60412 0.24681 C244.04709 0.27443 272.49003 0.32203 300.93296 0.3726 C300.93296 0.7026 300.93296 1.0326 300.93296 1.3726 C308.52296 1.7026 316.11296 2.0326 323.93296 2.3726 C323.93296 2.7026 323.93296 3.0326 323.93296 3.3726 C216.02296 3.3726 108.11296 3.3726 -3.06704 3.3726 C-1.94204 -0.0024 -1.94204 -0.0024 0 0 Z " fill="#0A0B06" transform="translate(61.067043364048004,476.6274045109749)"/>
<path d="M0 0 C5.34943 0.4258 9.26137 1.78711 14 4.3125 C14.61448 4.63178 15.22931 4.95038 15.84448 5.26831 C17.57055 6.16487 19.28578 7.08097 21 8 C21.43006 8.22688 21.86013 8.45375 22.30322 8.6875 C27.92298 11.65994 27.92298 11.65994 29 14 C30.5625 14.625 30.5625 14.625 32 15 C32.66 13.68 33.32 12.36 34 11 C37 12.75 37 12.75 37 15 C38.09375 15.41406 38.09375 15.41406 39.5 15.625 C39.96406 15.69977 40.42813 15.77453 40.90625 15.85156 C41.08672 15.87605 41.08672 15.87605 42 16 C42.33516 12.64837 42.21742 11.60871 39 10 C39.33 9.34 39.66 8.68 40 8 C44.4847 11.80039 48.84882 15.71237 53.0625 19.8125 C53.26549 20.00485 53.26549 20.00485 54.29272 20.97827 C54.66148 21.34251 55.03023 21.70675 55.41016 22.08203 C55.74153 22.40406 56.0729 22.72608 56.41431 23.05786 C57.22859 24.36771 56.8277 24.78459 56 26 C55.01 25.34 54.02 24.68 53 24 C52.67 24.66 52.34 25.32 52 26 C50.82521 24.88323 49.66173 23.75533 48.5 22.625 C48.16613 22.30789 47.83227 21.99078 47.48828 21.66406 C47.17246 21.35469 46.85664 21.04531 46.53125 20.72656 C46.23799 20.44377 45.94473 20.16099 45.64258 19.86963 C45 19 45 19 45 17 C42.25018 17.59779 41.59779 18.25018 41 21 C41.32484 21.11988 41.64969 21.23977 41.98438 21.36328 C43.34436 22.21589 43.18943 22.62787 43.25 24.1875 C43.71568 27.17993 45.46832 28.77026 47.65332 30.68042 C50.02583 32.803 51.43253 35.25194 53 38 C53.44898 38.71875 53.90198 39.43501 54.35938 40.14844 C58.64374 46.96112 61.98197 54.12245 65.27954 61.44556 C65.86008 62.6981 66.4762 63.90258 67.13672 65.11328 C68.29531 67.40372 68.67209 69.79378 69.0625 72.3125 C69.14484 72.83248 69.22718 73.35245 69.31201 73.88818 C70.25552 80.21997 70.69207 86.5658 70.95386 92.95844 C71.00125 94.02832 71.05923 95.09725 71.11914 96.1665 C71.70602 107.06041 70.52107 116.07645 66.62207 126.29492 C65.82692 128.4744 65.21905 130.69694 64.63818 132.94238 C63.67366 134.54081 62.73908 134.19277 61 134 C61.24328 132.79001 61.49426 131.58239 61.75 130.375 C61.83363 129.96878 61.91726 129.56257 62.00342 129.14404 C62.52065 126.76123 63.15123 124.5126 64.02344 122.23438 C69.46113 107.37488 68.71767 89.08867 65.25 73.8125 C65.21089 73.63761 65.21089 73.63761 65.01294 72.75256 C63.92986 68.09687 62.16605 64.01003 59.93018 59.80493 C59.04031 58.12256 58.31916 56.39793 57.625 54.625 C54.44859 47.16296 49.84582 40.59636 44.9375 34.1875 C44.73003 33.915 44.52256 33.64251 44.30881 33.36176 C33.45808 19.17469 17.90958 8.72375 0.77734 3.58984 C-0.47737 2.63778 -0.04913 1.4795 0 0 Z " fill="#181616" transform="translate(370,133)"/>
<path d="M0 0 C2.25187 2.25187 2.25187 2.25187 2.23047 4.53125 C2.22854 5.01207 2.2266 5.49289 2.22461 5.98828 C2.21236 6.48715 2.20012 6.98602 2.1875 7.5 C2.18718 7.74943 2.18718 7.74943 2.18555 9.01172 C2.15759 11.32896 2.11891 12.94365 1 15 C0.90364 15.81106 0.82097 16.62383 0.75 17.4375 C0.3311 19.7448 -0.19738 20.29917 -2.3125 21.25 C-5.13112 22.67135 -5.79425 24.3786 -6.875 27.1875 C-8.76181 31.93082 -11.36517 35.13596 -14.86621 38.80127 C-16.15217 40.16089 -17.40923 41.54536 -18.66406 42.93359 C-21.46373 46.02387 -24.30406 49.07431 -27.16302 52.10974 C-28.02187 53.02326 -28.87745 53.93976 -29.73291 54.85645 C-31.17314 56.39599 -32.62819 57.92019 -34.09418 59.43521 C-34.65143 60.01491 -35.20432 60.59883 -35.7525 61.1871 C-40.72515 66.50932 -40.72515 66.50932 -44.86646 65.93335 C-46.49023 66.02882 -46.8183 66.76099 -47.79688 68.01562 C-50.57954 71.19021 -54.4481 70.17559 -58.25 69.75 C-59.00243 69.68163 -59.75504 69.6152 -60.50781 69.55078 C-62.34116 69.38964 -64.17066 69.20213 -66 69 C-66 68.67 -66 68.34 -66 68 C-65.60208 67.99589 -65.20417 67.99178 -64.79419 67.98755 C-62.96552 67.95435 -61.14007 67.8837 -59.3125 67.8125 C-58.68666 67.8067 -58.06082 67.8009 -57.41602 67.79492 C-52.25113 67.55155 -50.21648 65.89511 -47 62 C-46.28228 61.21062 -45.55321 60.43288 -44.82295 59.65511 C-43.53584 58.28184 -42.26958 56.88946 -41 55.5 C-37.41553 51.57708 -33.79082 47.7265 -30 44 C-28.18115 42.20437 -26.36503 40.40599 -24.55078 38.60571 C-24.01063 38.07066 -23.46959 37.5365 -22.92773 37.00317 C-22.13175 36.2193 -21.33903 35.43226 -20.54688 34.64453 C-20.0812 34.18409 -19.61553 33.72366 -19.13574 33.24927 C-18 32 -18 32 -17.46582 30.83472 C-17 30 -17 30 -15 30 C-14.53345 29.10163 -14.07656 28.19732 -13.66064 27.27441 C-12.26885 24.58958 -10.27875 22.26392 -8.4375 19.875 C-7.62158 18.81148 -6.80843 17.74596 -5.99609 16.67969 C-5.63701 16.21289 -5.27792 15.74608 -4.90796 15.26514 C-4 14 -4 14 -3.50024 12.83252 C-3 12 -3 12 -1 12 C-0.67 8.04 -0.34 4.08 0 0 Z " fill="#282723" transform="translate(342,232)"/>
<path d="M0 0 C1.67704 0.03087 3.35141 0.04161 5.02855 0.04011 C6.66018 0.04079 8.29157 0.05845 9.9231 0.07568 C10.21948 0.0768 10.21948 0.0768 11.71935 0.08243 C15.24469 0.16254 18.47866 0.54289 21.552 2.41162 C21.552 2.74162 21.552 3.07162 21.552 3.41162 C21.19823 3.41049 20.84447 3.40937 20.47998 3.4082 C6.72183 3.50795 -6.23833 6.79751 -19.448 10.41162 C-19.64938 10.46651 -19.64938 10.46651 -20.66852 10.74426 C-37.55653 15.38753 -50.88305 23.01827 -62.78687 35.85547 C-63.21902 36.31357 -63.65118 36.77167 -64.09644 37.24365 C-64.47719 37.65978 -64.85795 38.0759 -65.25024 38.50464 C-66.74349 39.63538 -67.61838 39.59485 -69.448 39.41162 C-69.448 38.75162 -69.448 38.09162 -69.448 37.41162 C-68.788 37.41162 -68.128 37.41162 -67.448 37.41162 C-67.613 36.91662 -67.613 36.91662 -68.448 34.41162 C-67.47144 34.28141 -66.49487 34.1512 -65.51831 34.021 C-64.05046 33.18529 -63.75889 32.01762 -63.07397 30.53076 C-61.88254 28.40067 -60.07014 26.89144 -58.2605 25.28662 C-57.83124 24.90482 -57.40198 24.52301 -56.95972 24.12964 C-49.05638 17.31218 -36.37265 6.41162 -25.448 6.41162 C-25.448 5.75162 -25.448 5.09162 -25.448 4.41162 C-18.38475 -0.43931 -8.13838 -0.15506 0 0 Z " fill="#1F1C1A" transform="translate(102.447998046875,126.58837890625)"/>
<path d="M0 0 C1.92746 2.01925 1.23287 2.86489 0.3125 5.375 C0.9725 5.375 1.6325 5.375 2.3125 5.375 C2.3125 4.055 2.3125 2.735 2.3125 1.375 C2.9725 1.375 3.6325 1.375 4.3125 1.375 C3.9825 3.685 3.6525 5.995 3.3125 8.375 C2.6525 8.375 1.9925 8.375 1.3125 8.375 C1.3357 8.85969 1.35891 9.34438 1.38281 9.84375 C1.40162 10.52082 1.41981 11.1979 1.4375 11.875 C1.4607 12.52469 1.48391 13.17437 1.50781 13.84375 C1.44984 15.98022 0.92188 17.83063 0.32812 19.87891 C-1.1946 25.43344 -1.08107 31.09156 -1.0625 36.8125 C-1.06262 37.38371 -1.06274 37.95491 -1.06287 38.54343 C-1.02661 50.61212 0.22089 62.92163 6.18066 73.69165 C7.58525 76.3062 7.2332 77.68419 6.3125 80.375 C2.87311 76.64536 0.98573 72.7202 -0.6875 68 C-0.81312 67.65086 -0.93875 67.30171 -1.06818 66.94199 C-1.84671 64.77167 -2.59893 62.59345 -3.33606 60.40875 C-3.6659 59.43854 -4.00594 58.47181 -4.34668 57.50537 C-9.6048 42.31201 -8.64598 26.80165 -5.8125 11.1875 C-5.72573 10.7057 -5.63896 10.22391 -5.54956 9.72751 C-5.29771 8.36381 -5.03173 7.00395 -4.75781 5.64453 C-4.6806 5.24032 -4.60339 4.83611 -4.52383 4.41965 C-3.94695 1.72387 -3.27329 -1.21233 0 0 Z " fill="#99958C" transform="translate(22.6875,200.625)"/>
<path d="M0 0 C1.94852 -0.00964 3.89596 -0.04072 5.84424 -0.07227 C12.46416 -0.12875 18.76341 0.25362 25.24658 1.56836 C25.84653 1.68508 26.44648 1.8018 27.06461 1.92206 C27.6137 2.04671 28.16279 2.17137 28.72852 2.2998 C29.21194 2.40819 29.69537 2.51657 30.19345 2.62823 C31.82604 3.49352 31.94192 4.49921 32.34814 6.24023 C31.99961 6.17965 31.65108 6.11906 31.29199 6.05664 C13.09962 3.03716 -6.60028 2.26698 -24.53857 6.9519 C-25.77755 7.27279 -27.01912 7.58212 -28.26123 7.89062 C-38.5875 10.46881 -48.68822 13.19171 -58.37695 17.66113 C-60.58914 18.66598 -62.8373 19.57917 -65.08936 20.49023 C-65.47897 20.65346 -65.86859 20.81669 -66.27002 20.98486 C-69.01454 22.10049 -71.73278 22.7485 -74.65186 23.24023 C-75.97357 18.28382 -75.74813 13.3282 -75.65186 8.24023 C-75.52811 8.73523 -75.40436 9.23023 -75.27686 9.74023 C-74.65186 11.24023 -74.65186 11.24023 -72.65186 11.24023 C-72.15484 12.44288 -71.82197 13.48722 -71.52686 14.74023 C-71.44049 15.0741 -71.35412 15.40797 -71.26514 15.75195 C-71.05239 16.57929 -70.85105 17.40954 -70.65186 18.24023 C-70.26514 18.09586 -69.87842 17.95148 -69.47998 17.80273 C-64.70772 16.10173 -64.70772 16.10173 -62.33936 16.30273 C-60.65186 16.24023 -60.65186 16.24023 -60.26514 14.81836 C-59.42542 12.65755 -58.23879 12.484 -56.15186 11.92773 C-55.33331 11.68444 -54.51568 11.43806 -53.69873 11.18945 C-53.22629 11.04685 -52.75385 10.90425 -52.26709 10.75732 C-50.40298 10.16056 -48.56647 9.49801 -46.72998 8.82227 C-38.16816 5.68105 -29.67319 2.79122 -20.65186 1.24023 C-20.11271 1.14597 -19.57355 1.05171 -19.01807 0.95459 C-12.71131 0.01043 -6.36597 0.01895 0 0 Z " fill="#110F0F" transform="translate(333.65185546875,126.759765625)"/>
<path d="M0 0 C0.33 0 0.66 0 1 0 C1 12.21 1 24.42 1 37 C-11.54 37 -24.08 37 -37 37 C-36.67 40.3 -36.34 43.6 -36 47 C-35.67 47 -35.34 47 -35 47 C-34.97716 47.38535 -34.95433 47.77071 -34.9308 48.16774 C-34.71326 51.83006 -34.4929 55.49219 -34.26951 59.15416 C-34.15481 61.03604 -34.04113 62.91796 -33.92993 64.80005 C-33.82224 66.6222 -33.71167 68.44417 -33.59924 70.26604 C-33.5572 70.95517 -33.51612 71.64436 -33.47612 72.33362 C-33.23737 76.43442 -32.84125 80.4504 -32.16675 84.50389 C-31.92552 86.66826 -32.31473 88.43945 -32.9375 90.5 C-33.97529 94.43291 -34.23631 97.91709 -34 102 C-33.84386 102.01253 -33.84386 102.01253 -33.05371 102.07593 C-31.61884 102.19302 -30.18444 102.31523 -28.75 102.4375 C-28.25887 102.47682 -27.76773 102.51613 -27.26172 102.55664 C-24.40709 102.80404 -21.75779 103.21863 -19 104 C-20.45548 105.45548 -21.49813 105.08323 -23.52734 105.02734 C-24.24414 105.01469 -24.96093 105.00233 -25.67773 104.99023 C-26.80802 104.96543 -27.93805 104.93748 -29.06812 104.90405 C-30.15871 104.87379 -31.24896 104.85606 -32.33984 104.83984 C-32.99332 104.82301 -33.64679 104.80617 -34.32007 104.78882 C-36 105 -36 105 -38 107 C-38 83.57 -38 60.14 -38 36 C-25.46 36 -12.92 36 0 36 C0 24.12 0 12.24 0 0 Z " fill="#393633" transform="translate(189,4)"/>
<path d="M0 0 C-0.66 0 -1.32 0 -2 0 C-1.94844 0.22688 -1.94844 0.22688 -1.6875 1.375 C-2.09859 3.51268 -2.53018 3.34524 -4.5 4 C-7 4.84028 -7 4.84028 -7 6.4375 C-7 8.5247 -7.44154 8.38896 -9.21484 9.30078 C-12.21273 11.01197 -14.30269 13.16869 -16.5625 15.75 C-16.95526 16.19175 -17.34802 16.63349 -17.75269 17.08862 C-20.33117 20.05477 -22.37636 22.99152 -24.16797 26.47656 C-25.02205 28.04037 -25.98588 29.32056 -27.125 30.6875 C-30.62935 34.93394 -31.41434 38.51333 -32 44 C-35.23284 41.47805 -35.49446 39.6178 -35.125 35.625 C-35.08037 35.10551 -35.03573 34.58602 -34.98975 34.05078 C-34.06609 26.8 -29.49836 17.04232 -24 12 C-23.34 12 -22.68 12 -22 12 C-22 11.34 -22 10.68 -22 10 C-21.03784 9.07031 -21.03784 9.07031 -19.69922 8.125 C-19.21646 7.77953 -18.73371 7.43406 -18.23633 7.07812 C-17.72521 6.72234 -17.2141 6.36656 -16.6875 6 C-16.18799 5.64422 -15.68848 5.28844 -15.17383 4.92188 C-13.78881 3.9386 -12.39573 2.96799 -11 2 C-10.69079 1.77852 -10.38157 1.55705 -10.06299 1.32886 C-6.98085 -0.83812 -3.50152 -1.65861 0 0 Z " fill="#26231F" transform="translate(93,384)"/>
<path d="M0 0 C2.09542 -0.02286 4.1863 -0.00464 6.28125 0.04297 C5.58591 1.84977 5.09463 2.30407 3.19922 2.66553 C2.98354 2.70905 2.98354 2.70905 1.89209 2.92929 C1.42239 3.01579 0.95269 3.10229 0.46875 3.19141 C-0.53517 3.39448 -1.53907 3.59761 -2.54297 3.80078 C-4.11742 4.10858 -5.69248 4.41293 -7.26807 4.71484 C-16.07939 6.42153 -24.42015 8.52794 -31.33167 14.55325 C-33.31064 16.1591 -34.2781 16.03683 -36.62769 15.26636 C-38.75368 14.83107 -40.70218 15.63911 -42.71875 16.29297 C-43.14414 16.41543 -43.56953 16.53789 -44.00781 16.66406 C-46.70729 17.5004 -48.69526 18.59593 -50.84863 20.42993 C-52.12991 21.33265 -53.208 21.26958 -54.71875 21.04297 C-54.71875 18.8122 -54.71875 18.8122 -52.96875 17.66797 C-51.40417 16.59974 -50.13778 15.48084 -48.85547 14.08984 C-46.84474 12.06053 -44.88224 10.81897 -42.28125 9.66797 C-41.82806 9.46591 -41.37488 9.26385 -40.90796 9.05566 C-27.84131 3.55348 -14.14701 0.22867 0 0 Z " fill="#8F8982" transform="translate(108.71875,131.95703125)"/>
<path d="M0 0 C0.66 0 1.32 0 2 0 C2 0.66 2 1.32 2 2 C3.98 2 5.96 2 8 2 C8 1.67 8 1.34 8 1 C9.77052 0.9124 11.54047 0.85943 13.3125 0.8125 C13.81201 0.78736 14.31152 0.76223 14.82617 0.73633 C15.06948 0.73149 15.06948 0.73149 16.30078 0.70703 C16.74591 0.69132 17.19104 0.67561 17.64966 0.65942 C19 1 19 1 22 4 C16.39 4 10.78 4 5 4 C5 16.54 5 29.08 5 42 C3.35 42 1.7 42 0 42 C0 28.14 0 14.28 0 0 Z " fill="#7D746B" transform="translate(165,55)"/>
<path d="M0 0 C3.4887 4.41901 3.14027 9.59171 3 15 C2.34 14.67 1.68 14.34 1 14 C0.67 18.62 0.34 23.24 0 28 C2.44895 26.77552 2.29711 26.50599 2.625 23.9375 C2.66238 23.66357 2.66238 23.66357 2.85156 22.27734 C2.90055 21.85582 2.94953 21.4343 3 21 C3.33 21 3.66 21 4 21 C4.07556 24.07409 4.12925 27.1476 4.16479 30.22241 C4.17965 31.26287 4.19994 32.30327 4.22632 33.34351 C4.40561 40.6101 4.17517 48.28373 1 55 C0.67 55 0.34 55 0 55 C-0.66 50.71 -1.32 46.42 -2 42 C-2.33 42.165 -2.33 42.165 -4 43 C-4.02553 39.26466 -4.04294 35.52935 -4.05493 31.79395 C-4.05993 30.52538 -4.06674 29.25682 -4.07544 27.98828 C-4.08768 26.15624 -4.09327 24.32427 -4.09766 22.49219 C-4.10024 22.21238 -4.10024 22.21238 -4.1133 20.79636 C-4.11381 17.10408 -3.71908 13.62103 -3 10 C-2.34 10 -1.68 10 -1 10 C0.35387 6.99849 0.12357 3.2265 0 0 Z M-2 29 C-1 31 -1 31 -1 31 Z " fill="#2A2A27" transform="translate(446,204)"/>
<path d="M0 0 C1.81046 -0.02288 3.62083 -0.03806 5.43139 -0.05093 C5.99425 -0.05849 6.5571 -0.06605 7.13702 -0.07383 C7.65502 -0.0759 8.17303 -0.07797 8.70674 -0.08011 C8.93619 -0.08203 8.93619 -0.08203 10.09738 -0.09176 C11.94567 0.10372 12.17758 0.77436 12.36183 2.55016 C12.3696 2.8777 12.3696 2.8777 12.40893 4.53525 C12.41896 4.90212 12.429 5.26899 12.43933 5.64698 C12.47076 6.8368 12.49551 8.02666 12.52002 9.21664 C12.53842 9.95034 12.55725 10.68402 12.57653 11.41769 C12.64503 14.14091 12.70505 16.86434 12.76611 19.58774 C12.8383 22.62993 12.8383 22.62993 13.20361 38.02524 C19.47361 38.19024 19.47361 38.19024 51.20361 39.02524 C51.20361 46.28524 51.20361 53.54524 51.20361 61.02524 C50.87361 61.02524 50.54361 61.02524 50.20361 61.02524 C50.20361 54.09524 50.20361 47.16524 50.20361 40.02524 C47.47209 40.03684 44.74056 40.04844 41.92627 40.06039 C40.19905 40.0655 38.47184 40.07032 36.74463 40.07407 C34.0012 40.08005 31.2578 40.08714 28.5144 40.10068 C26.3034 40.11152 24.09243 40.11752 21.8814 40.12012 C21.03652 40.12197 20.19165 40.12558 19.34678 40.13097 C18.16629 40.13819 16.98593 40.13923 15.80542 40.13876 C15.45368 40.14236 15.10195 40.14595 14.73956 40.14966 C12.31766 40.13929 12.31766 40.13929 11.20361 39.02524 C11.05885 37.79298 11.05885 37.79298 11.03003 36.22128 C11.01654 35.63365 11.00305 35.04601 10.98915 34.44057 C10.98393 34.12132 10.98393 34.12132 10.95752 32.50571 C10.93301 31.50479 10.90849 30.50388 10.88332 29.50299 C10.82261 27.03198 10.7721 24.56078 10.7268 22.08945 C10.70104 20.70502 10.67018 19.32088 10.63401 17.93669 C10.60035 16.63356 10.57436 15.3302 10.55702 14.02675 C10.40989 8.74804 10.28534 5.17887 4.62878 4.20939 C2.22328 3.89857 -0.17347 3.79919 -2.59644 3.72812 C-3.15312 3.70847 -3.70981 3.68881 -4.28336 3.66856 C-6.1066 3.60516 -7.92998 3.54758 -9.75342 3.49008 C-11.02424 3.44703 -12.29505 3.40361 -13.56585 3.35985 C-16.55824 3.25767 -19.55072 3.15915 -22.54329 3.06245 C-25.95337 2.95205 -29.36328 2.83691 -32.77319 2.7214 C-39.78076 2.48411 -46.7885 2.25271 -53.79639 2.02524 C-53.79639 1.69524 -53.79639 1.36524 -53.79639 1.02524 C-47.24098 0.89333 -40.68555 0.76285 -34.13007 0.63409 C-31.08467 0.57423 -28.03927 0.51391 -24.9939 0.45248 C-22.04371 0.39299 -19.09349 0.3348 -16.14326 0.27742 C-15.02919 0.25554 -13.91512 0.23323 -12.80107 0.21043 C-8.53421 0.12335 -4.26731 0.05995 0 0 Z " fill="#151512" transform="translate(249.79639053344727,-0.025238037109375)"/>
<path d="M0 0 C13.86 0 27.72 0 42 0 C40.88595 5.57026 40.88595 5.57026 38.27367 5.6221 C37.89388 5.60412 37.5141 5.58615 37.1228 5.56763 C36.92278 5.56799 36.92278 5.56799 35.91055 5.56984 C34.58354 5.56635 33.26 5.52743 31.93359 5.48828 C31.01581 5.47896 30.09801 5.47184 29.18019 5.46684 C26.7612 5.44773 24.3437 5.39859 21.92529 5.34332 C19.45886 5.29223 16.9922 5.26935 14.52539 5.24414 C9.68294 5.19047 4.84159 5.10511 0 5 C0 3.35 0 1.7 0 0 Z " fill="#928A80" transform="translate(244,54)"/>
<path d="M0 0 C1.50891 2.03783 0.63561 2.96034 -0.69531 4.90625 C-0.88305 5.18737 -1.07078 5.46848 -1.26421 5.75812 C-1.66808 6.36236 -2.07531 6.96436 -2.4855 7.56433 C-3.55587 9.13041 -4.60325 10.71135 -5.64453 12.29688 C-5.85142 12.61183 -6.05831 12.92678 -6.27147 13.25128 C-8.27245 16.3422 -9.90499 19.58164 -11.32666 22.97852 C-12.60756 25.84477 -14.05241 26.93602 -17 28 C-17.90923 18.06558 -15.75013 10.64297 -8 4 C-7.47686 3.41873 -6.95587 2.83552 -6.4375 2.25 C-4.74538 0.77859 -4.1642 0.81181 -2 1 C-0.8125 0.5 -0.8125 0.5 0 0 Z " fill="#32312C" transform="translate(27,162)"/>
<path d="M0 0 C1.47669 -0.0022 2.95264 -0.02048 4.4292 -0.03931 C5.38362 -0.04224 6.33805 -0.04422 7.29248 -0.04517 C7.50921 -0.04876 7.50921 -0.04876 8.60599 -0.06694 C11.76437 -0.04366 14.58288 0.59485 17.34717 2.1853 C17.34717 2.5153 17.34717 2.8453 17.34717 3.1853 C17.14148 3.19259 17.14148 3.19259 16.10059 3.22949 C8.02725 3.5462 0.41221 4.19762 -7.47021 6.09204 C-13.80634 7.56221 -20.1675 7.9157 -26.65283 8.1853 C-26.1599 4.32927 -25.20118 3.48912 -21.52783 2.4978 C-21.16174 2.38114 -20.79564 2.26448 -20.41846 2.14429 C-13.72791 0.1303 -6.92501 -0.00116 0 0 Z " fill="#100E0E" transform="translate(106.65283203125,126.814697265625)"/>
<path d="M0 0 C2.14626 3.46844 2.60159 7.00068 3.0603 10.9729 C3.18778 12.06492 3.33038 13.15422 3.47461 14.24414 C3.5608 14.9452 3.64612 15.64637 3.73047 16.34766 C3.80677 16.9768 3.88306 17.60594 3.96167 18.25415 C4.0024 20.10913 3.606 21.26399 3 23 C2.90985 24.2384 2.86937 25.48098 2.86719 26.72266 C2.86623 27.0688 2.86527 27.41495 2.86429 27.77159 C2.86361 28.49853 2.86543 29.22547 2.86963 29.95239 C2.875 31.0628 2.86966 32.17281 2.86328 33.2832 C2.86394 33.99219 2.86522 34.70117 2.86719 35.41016 C2.86832 36.0509 2.86944 36.69165 2.87061 37.35181 C2.99295 38.91018 3.22432 39.68387 4 41 C4.27344 42.40234 4.27344 42.40234 4.375 43.9375 C4.42398 44.44152 4.47297 44.94555 4.52344 45.46484 C3.86428 47.39806 3.20873 47.60495 1.46729 48.59595 C1.23762 48.72824 1.23762 48.72824 0.07535 49.39772 C-0.27952 49.59647 -0.63438 49.79522 -1 50 C-1.02328 44.5144 -1.041 39.02881 -1.05181 33.54317 C-1.05701 30.99532 -1.06404 28.4475 -1.07544 25.89966 C-1.08639 23.43576 -1.0923 20.97189 -1.09488 18.50797 C-1.09671 17.57315 -1.10029 16.63834 -1.10573 15.70354 C-1.13556 10.36389 -0.96435 5.26938 0 0 Z " fill="#2C2726" transform="translate(57,427)"/>
<path d="M0 0 C0.61063 -0.00096 1.22126 -0.00191 1.85039 -0.0029 C3.12853 -0.00357 4.40668 -0.00176 5.68481 0.00244 C7.64868 0.00785 9.61232 0.00245 11.57617 -0.00391 C12.82162 -0.00325 14.06706 -0.00197 15.3125 0 C15.90098 -0.00202 16.48946 -0.00405 17.09578 -0.00613 C17.63692 -0.00298 18.17806 0.00017 18.7356 0.00342 C18.97415 0.00382 18.97415 0.00382 20.18135 0.00583 C21.32422 0.13281 21.32422 0.13281 22.32422 1.13281 C23.30811 1.2146 23.30811 1.2146 24.50391 1.16016 C24.72111 1.15403 24.72111 1.15403 25.82031 1.12305 C26.73194 1.08818 27.64342 1.04919 28.55469 1.00586 C31.50305 0.93193 33.05057 1.21301 35.32422 3.13281 C30.15114 4.2523 25.0689 4.31326 19.80469 4.33594 C19.5819 4.33735 19.5819 4.33735 18.45443 4.34451 C16.10609 4.35938 13.75781 4.36869 11.40942 4.37305 C8.9836 4.37858 6.55833 4.40274 4.13269 4.43102 C2.26342 4.44958 0.39428 4.45485 -1.47507 4.45638 C-2.37022 4.45941 -3.26536 4.46746 -4.16041 4.48057 C-5.40531 4.49753 -6.64883 4.49578 -7.8938 4.48926 C-8.26416 4.49847 -8.63452 4.50769 -9.0161 4.51718 C-11.71339 4.4727 -12.21353 3.72389 -12.67578 1.13281 C-8.41737 0.28698 -4.33625 -0.01518 0 0 Z " fill="#3A342C" transform="translate(104.67578125,118.8671875)"/>
<path d="M0 0 C-0.69534 1.8068 -1.18662 2.2611 -3.08203 2.62256 C-3.29771 2.66608 -3.29771 2.66608 -4.38916 2.88632 C-4.85886 2.97282 -5.32856 3.05932 -5.8125 3.14844 C-6.81642 3.35151 -7.82032 3.55464 -8.82422 3.75781 C-10.39867 4.06561 -11.97373 4.36997 -13.54932 4.67188 C-19.38625 5.80244 -24.80921 7.01887 -30.14697 9.71103 C-34.98974 12.13081 -34.98974 12.13081 -36.6875 10.23047 C-37.61977 7.11903 -36.6116 6.12393 -33.83203 4.72266 C-22.92182 0.41906 -11.61358 -0.26395 0 0 Z " fill="#A19E95" transform="translate(115,132)"/>
<path d="M0 0 C11.22 0 22.44 0 34 0 C34.0825 3.56812 34.165 7.13625 34.25 10.8125 C34.28642 11.93374 34.32283 13.05499 34.36035 14.21021 C34.37204 15.10496 34.38223 15.99974 34.39062 16.89453 C34.41109 17.3542 34.43155 17.81387 34.45264 18.28748 C34.45652 21.8742 33.21492 23.41526 30 25 C27.4209 25.31978 25.40381 24.77656 24.1875 22.4375 C24.12563 21.96312 24.06375 21.48875 24 21 C25.65 21 27.3 21 29 21 C28.95359 20.31035 28.90719 19.6207 28.85938 18.91016 C28.82178 17.96098 28.78539 17.01176 28.75 16.0625 C28.73324 15.83788 28.73324 15.83788 28.64844 14.70117 C28.49404 9.10434 30.42068 6.80346 33 1 C22.11 1 11.22 1 0 1 C0 0.67 0 0.34 0 0 Z " fill="#312D26" transform="translate(153,110)"/>
<path d="M0 0 C1.17058 3.59602 1.18615 7.1685 1.1853 10.91797 C1.1875 11.99779 1.20572 13.0766 1.22461 14.15625 C1.25126 17.43337 1.26932 20.24557 -0.49438 23.12207 C-1.43101 24.74839 -1.71174 26.54847 -2.0625 28.375 C-2.10367 28.58278 -2.10367 28.58278 -2.31201 29.63428 C-3.41778 35.68862 -3.67284 41.86385 -4 48 C-4.33 48 -4.66 48 -5 48 C-5.04675 43.83553 -5.08208 39.67117 -5.10362 35.5065 C-5.11397 33.57178 -5.12797 31.63725 -5.15088 29.70264 C-5.17293 27.82875 -5.18463 25.95503 -5.18975 24.08102 C-5.19339 23.37309 -5.2005 22.66516 -5.21146 21.95731 C-5.26987 18.0223 -5.00748 14.33554 -4.11279 10.5 C-4.03508 10.14929 -3.95737 9.79859 -3.87731 9.43726 C-3.24476 7 -3.24476 7 -1 7 C-0.67 4.69 -0.34 2.38 0 0 Z " fill="#2D2B24" transform="translate(6,194)"/>
<path d="M0 0 C0.66 0 1.32 0 2 0 C2.56804 9.12332 3.10192 18.25295 3.17725 27.39578 C3.18404 28.12765 3.19426 28.8595 3.20801 29.59128 C3.22585 30.61317 3.23016 31.63422 3.23047 32.65625 C3.23458 33.23182 3.23869 33.80738 3.24292 34.40039 C2.94094 36.3889 2.30634 37.48144 1 39 C0.34 39 -0.32 39 -1 39 C-0.67 26.13 -0.34 13.26 0 0 Z " fill="#958F82" transform="translate(166,58)"/>
<path d="M0 0 C-0.33 0.66 -0.66 1.32 -1 2 C2.96 2 6.92 2 11 2 C9.875 5.375 9.875 5.375 7.68335 5.52417 C7.20293 5.56398 6.7225 5.6038 6.22752 5.64482 C5.70771 5.67308 5.1879 5.70135 4.65234 5.73047 C4.12105 5.77062 3.58976 5.81076 3.04237 5.85213 C1.3414 5.97752 -0.36015 6.08271 -2.0625 6.1875 C-3.21429 6.26886 -4.36598 6.35152 -5.51758 6.43555 C-8.34416 6.6389 -11.17148 6.82567 -14 7 C-13.20837 5.24426 -12.8657 4.7482 -10.9375 4.375 C-10.29812 4.25125 -9.65875 4.1275 -9 4 C-9.99 3.835 -9.99 3.835 -15 3 C-12.75584 1.3431 -10.76199 0.4758 -8.0625 -0.1875 C-7.72799 -0.28225 -7.39348 -0.37699 -7.04883 -0.47461 C-4.39966 -1.14328 -2.59877 -0.81975 0 0 Z " fill="#2D2925" transform="translate(90,122)"/>
<path d="M0 0 C0.33 0 0.66 0 1 0 C1.33 4.62 1.66 9.24 2 14 C2.33 14 2.66 14 3 14 C3.01982 14.38333 3.03964 14.76667 3.06006 15.16162 C3.15538 16.9001 3.26502 18.63739 3.375 20.375 C3.39047 20.67664 3.39047 20.67664 3.46875 22.20312 C3.50742 22.7832 3.54609 23.36328 3.58594 23.96094 C3.61736 24.49509 3.64878 25.02925 3.68115 25.57959 C4.06458 27.28769 4.72383 27.84765 6 29 C6.19531 30.28906 6.19531 30.28906 6.125 31.625 C6.10695 32.07102 6.08891 32.51703 6.07031 32.97656 C6.04711 33.3143 6.02391 33.65203 6 34 C5.01 34 4.02 34 3 34 C3.33 38.29 3.66 42.58 4 47 C-1.61786 38.5732 -0.25519 26.72308 -0.13733 16.94714 C-0.11649 15.02926 -0.10766 13.11132 -0.09766 11.19336 C-0.07651 7.46209 -0.0426 3.73109 0 0 Z " fill="#191714" transform="translate(0,214)"/>
<path d="M0 0 C0.66 0.99 1.32 1.98 2 3 C1.67387 3.15855 1.34773 3.31711 1.01172 3.48047 C-2.18379 5.18663 -3.64498 6.74336 -5.30859 9.9375 C-6.26333 11.40467 -7.36922 11.53406 -9 12 C-8.97938 12.47438 -8.95875 12.94875 -8.9375 13.4375 C-9.02602 15.65052 -9.97965 15.62488 -11.88281 16.39722 C-13.19938 17.10757 -13.73329 17.89228 -14.625 19.08203 C-17.57446 22.12305 -21.40199 21.18075 -25.25 20.75 C-26.00243 20.68163 -26.75504 20.6152 -27.50781 20.55078 C-29.34116 20.38964 -31.17066 20.20213 -33 20 C-33 19.67 -33 19.34 -33 19 C-32.60208 18.99589 -32.20417 18.99178 -31.79419 18.98755 C-29.96552 18.95435 -28.14007 18.8837 -26.3125 18.8125 C-25.68666 18.8067 -25.06082 18.8009 -24.41602 18.79492 C-19.20064 18.54917 -17.31701 16.82819 -14 13 C-12.92734 11.94476 -11.81706 10.93325 -10.70312 9.92188 C-10.13134 9.39602 -9.55973 8.86997 -8.98828 8.34375 C-8.4089 7.81246 -7.82947 7.28121 -7.25 6.75 C-6.36636 5.93819 -5.483 5.12607 -4.59979 4.31378 C-4.05588 3.81372 -3.51166 3.31399 -2.9671 2.81464 C-1.96125 1.8913 -0.96562 0.96562 0 0 Z " fill="#3C3A30" transform="translate(309,281)"/>
<path d="M0 0 C0.825 0.165 0.825 0.165 5 1 C4.67 1.165 4.67 1.165 3 2 C3.20515 2.92425 3.42482 3.84689 3.70264 4.75195 C4.28749 7.2066 4.10152 9.74091 4.0625 12.25 C4.05799 12.8043 4.05348 13.35859 4.04883 13.92969 C4.03713 15.28657 4.02074 16.64323 4 18 C3.67 18 3.34 18 3 18 C2.34 24.93 1.68 31.86 1 39 C0.67 39 0.34 39 0 39 C0 26.13 0 13.26 0 0 Z " fill="#888178" transform="translate(203,15)"/>
<path d="M0 0 C1.74763 0 1.53595 1.94287 1.83203 3.40234 C1.99021 4.13136 2.14883 4.86028 2.30786 5.58911 C2.34902 5.78109 2.34902 5.78109 2.55728 6.75259 C5.024 18.20486 5.024 18.20486 7.86841 23.3103 C9.26661 25.93218 8.92264 27.3035 8 30 C0.06907 20.79922 -2.02651 11.87573 0 0 Z " fill="#92918D" transform="translate(21,251)"/>
<path d="M0 0 C0.33 0 0.66 0 1 0 C1.07556 3.07409 1.12925 6.1476 1.16479 9.22241 C1.17965 10.26287 1.19994 11.30327 1.22632 12.34351 C1.40561 19.6101 1.17517 27.28373 -2 34 C-3 34 -3 34 -3.5625 32.125 C-4.71369 25.58921 -4.78327 18.13537 -2 12 C-1.67 12 -1.34 12 -1 12 C-0.67 8.04 -0.34 4.08 0 0 Z " fill="#3A392E" transform="translate(449,225)"/>
<path d="M0 0 C-2.26764 1.26185 -4.08521 2.27304 -6.75 2.125 C-7.17797 2.10695 -7.60594 2.08891 -8.04688 2.07031 C-8.20414 2.05871 -8.20414 2.05871 -9 2 C-9 4 -9 4 -6 5 C-8.97 5.99 -11.94 6.98 -15 8 C-15.33 7.34 -15.66 6.68 -16 6 C-17.21509 5.86475 -17.21509 5.86475 -18.72266 6.02344 C-19.26084 6.075 -19.79902 6.12656 -20.35352 6.17969 C-20.6355 6.21191 -20.6355 6.21191 -22.0625 6.375 C-22.63033 6.43172 -23.19816 6.48844 -23.7832 6.54688 C-25.19001 6.68874 -26.59514 6.84015 -28 7 C-27.67 6.87625 -27.34 6.7525 -27 6.625 C-26 6 -26 6 -26 4 C-23.86564 2.94517 -21.48933 2.46616 -19.1875 1.875 C-18.85008 1.78529 -18.51266 1.69558 -18.16501 1.60315 C-12.05797 -0.0039 -6.31562 -0.47269 0 0 Z " fill="#34312A" transform="translate(310,122)"/>
<path d="M0 0 C0.12633 0.31195 0.25266 0.62391 0.38281 0.94531 C1.11299 2.19308 1.54915 2.37138 2.875 2.875 C5.06504 3.86251 6.09101 5.21194 7.38672 7.19531 C8 8 8 8 9 8 C9.66 12.95 10.32 17.9 11 23 C8.71007 20.71007 7.32863 19.1161 5.95703 16.34766 C5.78371 16.00625 5.61038 15.66485 5.43181 15.3131 C5.0701 14.59606 4.71144 13.87749 4.35571 13.15747 C3.81309 12.06369 3.25592 10.97824 2.69727 9.89258 C2.34545 9.19056 1.99451 8.4881 1.64453 7.78516 C1.47895 7.46523 1.31337 7.14531 1.14278 6.81569 C-0.02974 4.39757 -0.15279 2.62146 0 0 Z " fill="#302E2B" transform="translate(6,264)"/>
<path d="M0 0 C0.39937 0.0568 0.79874 0.1136 1.21021 0.17212 C5.52264 0.81979 9.77808 1.72715 14 2.8125 C14.30744 2.88984 14.30744 2.88984 15.86328 3.28125 C16.4034 3.43594 16.94352 3.59062 17.5 3.75 C17.96406 3.88277 18.42812 4.01555 18.90625 4.15234 C20.44517 5.08119 20.59285 6.11451 21 7.8125 C12.03916 7.38169 3.62217 5.12471 -5 2.8125 C-4.12741 -0.51808 -3.20351 -0.54117 0 0 Z " fill="#181616" transform="translate(147,131.1875)"/>
<path d="M0 0 C0.34167 -0.00029 0.68333 -0.00058 1.03535 -0.00089 C2.16104 0.0005 3.28605 0.01605 4.41162 0.03174 C5.19347 0.03547 5.97532 0.03832 6.75717 0.04031 C8.81227 0.04794 10.86708 0.06758 12.92206 0.08972 C15.0201 0.1102 17.11819 0.11932 19.21631 0.12939 C23.33102 0.15083 27.4455 0.18495 31.56006 0.22705 C31.56006 0.55705 31.56006 0.88705 31.56006 1.22705 C20.34006 1.22705 9.12006 1.22705 -2.43994 1.22705 C-1.77994 2.54705 -1.11994 3.86705 -0.43994 5.22705 C-0.21289 6.59912 -0.21289 6.59912 -0.24463 7.80518 C-0.25107 8.24346 -0.25752 8.68174 -0.26416 9.1333 C-0.28092 9.57674 -0.29768 10.02018 -0.31494 10.47705 C-0.32396 10.93596 -0.33299 11.39486 -0.34229 11.86768 C-0.36563 12.98803 -0.39835 14.10725 -0.43994 15.22705 C-3.35788 14.49948 -3.35788 14.49948 -3.73291 13.25439 C-3.63525 12.24528 -3.5376 11.23617 -3.43994 10.22705 C-4.09994 10.22705 -4.75994 10.22705 -5.43994 10.22705 C-5.49403 8.93482 -5.53363 7.64486 -5.56494 6.35205 C-5.5817 5.98725 -5.59846 5.62244 -5.61572 5.24658 C-5.69159 1.07383 -3.98266 -0.02865 0 0 Z " fill="#312D25" transform="translate(267.43994140625,109.77294921875)"/>
<path d="M0 0 C0.23009 0.00011 0.23009 0.00011 1.39447 0.00069 C1.87692 0.01617 2.35937 0.03165 2.85645 0.04761 C3.36129 0.05185 3.86614 0.0561 4.38629 0.06047 C5.98628 0.07716 7.58497 0.11478 9.18457 0.15308 C10.2744 0.16814 11.36424 0.18182 12.4541 0.19409 C15.11469 0.22703 17.77454 0.27712 20.43457 0.34058 C20.43457 1.00058 20.43457 1.66058 20.43457 2.34058 C23.73457 2.34058 27.03457 2.34058 30.43457 2.34058 C30.43457 2.67058 30.43457 3.00058 30.43457 3.34058 C18.22457 3.34058 6.01457 3.34058 -6.56543 3.34058 C-2.06543 -0.03442 -2.06543 -0.03442 0 0 Z " fill="#989389" transform="translate(213.5654296875,15.659423828125)"/>
<path d="M0 0 C0.68014 3.44389 -1.61923 4.92652 -3.9375 7.0625 C-4.67793 7.75945 -5.41629 8.45859 -6.15234 9.16016 C-6.48226 9.46574 -6.81218 9.77133 -7.1521 10.08618 C-8 11 -8 11 -8.49048 12.11499 C-9 13 -9 13 -11 13 C-11.52734 13.76953 -11.52734 13.76953 -11.9375 14.8125 C-12.93262 17.04953 -14.19622 18.3602 -16 20 C-18.07728 14.90122 -15.13006 11.54196 -10.89453 8.75 C-9.85048 7.87464 -9.58629 7.20489 -9.125 5.9375 C-8.05576 3.38105 -5.96583 3.11163 -3.4375 2.49219 C-1.83237 1.94261 -1.09437 1.27326 0 0 Z " fill="#1B1911" transform="translate(379,349)"/>
<path d="M0 0 C0.4125 0.45375 0.825 0.9075 1.25 1.375 C2.51343 4.11243 2.14623 7.03477 2 10 C-3.54664 6.62535 -8.46666 3.22214 -8 -4 C-4.14338 -7.01898 -2.08864 -2.81623 0 0 Z " fill="#2D2926" transform="translate(26,293)"/>
<path d="M0 0 C4.10317 -0.04649 8.20623 -0.08195 12.3096 -0.10362 C14.21528 -0.11403 16.12079 -0.12813 18.02637 -0.15088 C19.86782 -0.17272 21.7091 -0.18459 23.55067 -0.18975 C24.25074 -0.19343 24.95081 -0.20061 25.65081 -0.21146 C29.60646 -0.27031 32.66754 -0.27559 36 2 C36 2.33 36 2.66 36 3 C28.08 2.67 20.16 2.34 12 2 C12 2.33 12 2.66 12 3 C10.37504 3.0291 8.75014 3.04683 7.125 3.0625 C6.6648 3.07088 6.20461 3.07926 5.73047 3.08789 C5.28574 3.09111 4.84102 3.09434 4.38281 3.09766 C4.17858 3.10027 4.17858 3.10027 3.14502 3.11353 C1.84669 2.9848 1.05816 2.76949 0 2 C0 1.34 0 0.68 0 0 Z " fill="#91877F" transform="translate(167,55)"/>
<path d="M0 0 C1.79999 0 1.53216 1.97896 1.80588 3.50449 C2.13792 6.06253 2.12214 8.60001 2.09766 11.17578 C2.09624 11.7458 2.09483 12.31583 2.09337 12.90312 C2.08781 14.7063 2.07527 16.50936 2.0625 18.3125 C2.05748 19.54232 2.05292 20.77213 2.04883 22.00195 C2.03786 25.00135 2.02117 28.00066 2 31 C1.34 31 0.68 31 0 31 C0.0651 29.99089 0.13021 28.98177 0.19531 27.97266 C0 27 0 27 -1.00949 26.59547 C-2.45894 25.72409 -2.18505 25.12807 -2.04346 23.49976 C-2.02336 23.23952 -2.02336 23.23952 -1.92166 21.92259 C-1.86759 21.35904 -1.81352 20.79548 -1.75781 20.21484 C-1.71059 19.63916 -1.66337 19.06348 -1.61472 18.47035 C-1.46111 16.6251 -1.29322 14.78147 -1.125 12.9375 C-1.01859 11.68953 -0.91311 10.44149 -0.80859 9.19336 C-0.54984 6.1279 -0.27934 3.06365 0 0 Z " fill="#A49C8E" transform="translate(205,28)"/>
<path d="M0 0 C0.20267 2.48432 -0.15598 3.55956 -1.75781 5.45312 C-1.94565 5.67887 -1.94565 5.67887 -2.89624 6.82129 C-3.30173 7.29276 -3.70722 7.76424 -4.125 8.25 C-4.53371 8.73437 -4.94243 9.21873 -5.36353 9.71777 C-6.18663 10.69184 -7.01253 11.66356 -7.84131 12.63281 C-8.86861 13.84497 -9.87137 15.07138 -10.86328 16.3125 C-11.38795 16.95839 -11.91268 17.60423 -12.4375 18.25 C-12.55456 18.39969 -12.55456 18.39969 -13.14697 19.15723 C-14.72065 21.05028 -14.72065 21.05028 -16.17188 20.78906 C-17.6518 19.37894 -16.76789 17.64021 -16 16 C-15.28038 15.16111 -14.51865 14.45382 -13.6875 13.72656 C-13 13 -13 13 -12.5 11.3125 C-12 10 -12 10 -10.5625 10.0625 C-8.31759 9.9727 -8.26682 8.93756 -7.52734 6.97266 C-6.87004 5.7603 -6.21693 5.58137 -5 5 C-4.87625 4.52562 -4.7525 4.05125 -4.625 3.5625 C-3.72424 1.3106 -2.17183 0.85863 0 0 Z " fill="#191711" transform="translate(429,295)"/>
<path d="M0 0 C1.32598 4.5516 1.32598 4.5516 -1 7 C-1.66 7 -2.32 7 -3 7 C-3.5625 7.875 -3.5625 7.875 -4 9 C-4.77778 11 -4.77778 11 -7 11 C-7.47169 11.94339 -7.93713 12.89066 -8.36328 13.85547 C-9.31611 15.56821 -10.69966 16.72376 -12.12109 18.05078 C-13.22678 19.24492 -13.53847 20.46158 -14 22 C-14.66 22 -15.32 22 -16 22 C-14.66267 18.05104 -12.7288 14.89705 -10.25 11.5625 C-9.89873 11.08385 -9.54746 10.60521 -9.18555 10.11206 C-6.41632 6.40615 -3.4396 3.08782 0 0 Z " fill="#77726D" transform="translate(43,158)"/>
<path d="M0 0 C1.29232 0.14125 2.58366 0.28781 3.875 0.4375 C4.0574 0.45716 4.0574 0.45716 4.98047 0.55664 C7.78724 0.88835 7.78724 0.88835 8.96118 1.50439 C10.2092 2.09981 11.18844 2.17183 12.56641 2.24609 C12.80907 2.26253 12.80907 2.26253 14.03711 2.3457 C15.0577 2.40712 16.07855 2.46438 17.09961 2.51758 C17.58365 2.55174 18.0677 2.5859 18.56641 2.62109 C18.78784 2.63362 18.78784 2.63362 19.90845 2.69702 C21.34426 3.09556 21.51463 3.6379 22 5 C10.95616 5.16059 0.01784 4.71512 -11 4 C-11 3.67 -11 3.34 -11 3 C-6.38 2.67 -1.76 2.34 3 2 C2.01 1.34 1.02 0.68 0 0 Z " fill="#161515" transform="translate(119,127)"/>
<path d="M0 0 C-0.73289 2.22914 -1.81611 2.39485 -4.01953 2.85156 C-4.6299 2.98047 -5.24027 3.10938 -5.86914 3.24219 C-6.18979 3.30535 -6.18979 3.30535 -7.8125 3.625 C-8.44221 3.75906 -9.07191 3.89312 -9.7207 4.03125 C-12.86411 4.67774 -15.79024 5.17787 -19 5 C-19 4.34 -19 3.68 -19 3 C-20.65 3 -22.3 3 -24 3 C-21.30021 0.74099 -18.81772 0.58271 -15.375 0.375 C-15.11155 0.35603 -15.11155 0.35603 -13.77832 0.26001 C-9.18316 -0.04647 -4.60269 -0.10461 0 0 Z " fill="#929089" transform="translate(115,132)"/>
<path d="M0 0 C0.21984 0.00141 0.21984 0.00141 1.33235 0.00858 C2.72836 0.01972 4.12372 0.04481 5.51953 0.07031 C6.46939 0.08035 7.41926 0.08947 8.36914 0.09766 C10.69035 0.11964 13.01108 0.15412 15.33203 0.19531 C13.82852 3.11306 12.43706 3.69794 9.30469 3.96094 C8.9151 4.00346 8.52552 4.04598 8.12413 4.08978 C7.30192 4.17671 6.47899 4.257 5.65552 4.33105 C4.40041 4.44478 3.14904 4.57993 1.89648 4.71875 C1.09518 4.80075 0.29375 4.88152 -0.50781 4.96094 C-0.87978 5.00044 -1.25175 5.03993 -1.63499 5.08063 C-3.86877 5.27284 -5.65244 5.23502 -7.66797 4.19531 C-7.66797 -0.1989 -3.43558 -0.08404 0 0 Z " fill="#12110E" transform="translate(126.66796875,211.8046875)"/>
<path d="M0 0 C0 2.13652 -3.9309 2.43667 -5.75323 2.81335 C-10.41245 3.51086 -15.24207 3.19531 -19.9375 3.125 C-21.11002 3.11495 -22.28255 3.10583 -23.45508 3.09766 C-26.30357 3.07581 -29.15175 3.0425 -32 3 C-32 2.67 -32 2.34 -32 2 C-21.25316 0.37588 -10.86541 -0.28386 0 0 Z " fill="#696663" transform="translate(170,383)"/>
<path d="M0 0 C0.41955 0.00932 0.8391 0.01863 1.27136 0.02823 C2.66275 0.0627 4.05244 0.11856 5.44312 0.17456 C6.40572 0.20258 7.36836 0.22927 8.33104 0.25468 C10.86826 0.32525 13.40454 0.41394 15.94104 0.50635 C18.528 0.5974 21.11543 0.67141 23.70288 0.74683 C28.78228 0.8974 33.86084 1.06713 38.93921 1.24878 C38.93921 1.57878 38.93921 1.90878 38.93921 2.24878 C24.41921 2.57878 9.89921 2.90878 -5.06079 3.24878 C-3.84245 -0.40625 -3.36991 -0.17029 0 0 Z " fill="#222923" transform="translate(193.060791015625,0.751220703125)"/>
<path d="M0 0 C6.24247 0.96822 12.347 2.25149 18.4375 3.9375 C18.73278 4.01629 18.73278 4.01629 20.22705 4.41504 C23.68552 5.40261 26.32147 6.57319 29 9 C24.42358 8.64703 20.4624 7.94381 16.22607 6.15698 C12.82175 4.78945 9.30989 4.26845 5.68042 3.82251 C2.57607 3.37171 1.36583 2.88866 0 0 Z " fill="#4F4C47" transform="translate(147,135)"/>
<path d="M0 0 C1.1233 3.50606 1.04263 6.60119 0.75 10.25 C0.70553 10.82194 0.66105 11.39388 0.61523 11.98315 C0.18298 16.60063 -0.73122 20.91865 -3 25 C-3.33 25 -3.66 25 -4 25 C-4.86715 16.32853 -2.29045 8.2709 0 0 Z " fill="#423C35" transform="translate(6,194)"/>
<path d="M0 0 C-0.495 0.0825 -0.99 0.165 -1.5 0.25 C-3.81018 1.40509 -3.23509 2.57072 -3 5 C-3.61875 4.9175 -4.2375 4.835 -4.875 4.75 C-6.93447 4.71412 -7.26567 5.16442 -7.9375 7.0625 C-8.69432 8.98832 -8.69432 8.98832 -10.125 9.04297 C-11.4375 8.75 -11.4375 8.75 -12.68359 8.35938 C-14.16829 7.95406 -15.46799 7.9464 -17 8 C-2.71677 -1.83224 -2.71677 -1.83224 0 0 Z " fill="#26241D" transform="translate(63,129)"/>
<path d="M0 0 C3.02208 0.87385 2.3882 3.72389 2.55859 6.40625 C3.1645 8.59393 3.94789 8.35536 6 9 C6.65253 11.06929 7.09189 14.25317 5.09766 15.61719 C4.04358 15.86476 3.0816 15.99034 2 16 C2.17531 15.95875 2.17531 15.95875 3.0625 15.75 C4.70866 14.43307 3.82187 12.65043 3 11 C2.54625 10.71125 2.0925 10.4225 1.625 10.125 C-0.89925 8.37744 -1.77934 5.75297 -3 3 C-2.34 3 -1.68 3 -1 3 C-0.375 1.5 -0.375 1.5 0 0 Z " fill="#342F27" transform="translate(92,367)"/>
<path d="M0 0 C0.34897 0.65862 0.6845 1.32471 1 2 C0.82533 1.9768 0.82533 1.9768 -0.05859 1.85938 C-0.51363 1.82328 -0.96867 1.78719 -1.4375 1.75 C-1.88996 1.70359 -2.34242 1.65719 -2.80859 1.60938 C-4.58841 2.19292 -4.33342 3.21976 -4.65308 4.91309 C-5.28902 6.90551 -6.84835 7.98127 -8.4375 9.25 C-8.7501 9.51812 -9.0627 9.78625 -9.38477 10.0625 C-11.72262 12 -11.72262 12 -14 12 C-13.45385 8.24316 -12.02194 6.72163 -9.125 4.375 C-8.77309 4.07594 -8.42117 3.77687 -8.05859 3.46875 C-1.94526 -1.66736 -1.94526 -1.66736 0 0 Z " fill="#403C34" transform="translate(51,137)"/>
<path d="M0 0 C2 1 2 1 1.77344 1.88281 C0.08058 7.16055 -4.24201 12.57517 -10.11719 12.79688 C-11 13 -11 13 -11 15 C-11.66 14.67 -12.32 14.34 -13 14 C-12.3125 13.3125 -11.625 12.625 -10.9375 11.9375 C-10.48762 11.48633 -10.03773 11.03516 -9.57422 10.57031 C-8.43774 9.4331 -7.29285 8.30493 -6.14453 7.17969 C-5.83073 6.87039 -5.51692 6.5611 -5.1936 6.24243 C-4.57239 5.63021 -3.94922 5.01997 -3.32397 4.41187 C-3.03659 4.12771 -2.74921 3.84355 -2.45312 3.55078 C-2.32502 3.4253 -2.32502 3.4253 -1.67676 2.79028 C-0.92955 1.91774 -0.47262 1.0431 0 0 Z " fill="#3F3B32" transform="translate(323,266)"/>
<path d="M0 0 C1.62335 0 1.22158 1.13698 1.4895 2.60303 C2.0316 5.86946 2.16124 9.04567 2.16797 12.35156 C2.1713 12.93288 2.17463 13.5142 2.17805 14.11313 C2.18308 15.3316 2.18546 16.55008 2.1853 17.76855 C2.1875 19.62718 2.20574 21.48523 2.22461 23.34375 C2.22754 24.53385 2.22953 25.72396 2.23047 26.91406 C2.23765 27.46519 2.24484 28.01631 2.25224 28.58414 C2.23234 31.95449 1.75866 34.11 0 37 C0.00222 36.66618 0.00444 36.33237 0.00673 35.98843 C0.02884 32.51704 0.04393 29.04567 0.05493 25.57422 C0.05996 24.27831 0.06679 22.98241 0.07544 21.68652 C0.08756 19.82486 0.09324 17.96326 0.09766 16.10156 C0.10282 15.52129 0.10798 14.94102 0.1133 14.34317 C0.11337 13.80276 0.11345 13.26235 0.11353 12.70557 C0.11575 12.23036 0.11797 11.75514 0.12025 11.26553 C-0.00652 9.93134 -0.39962 9.17825 -1 8 C-0.91216 6.58883 -0.77627 5.26571 -0.5625 3.875 C-0.51029 3.50246 -0.45809 3.12992 -0.4043 2.74609 C-0.27509 1.82993 -0.13829 0.91484 0 0 Z " fill="#35342F" transform="translate(436,211)"/>
<path d="M0 0 C0.74349 0.00503 1.48698 0.00959 2.23047 0.01367 C4.02872 0.02455 5.82684 0.04172 7.625 0.0625 C7.91689 3.41929 7.91689 3.41929 5.625 4.0625 C4.57178 4.17603 4.57178 4.17603 3.46094 4.16016 C3.06133 4.15693 2.66172 4.15371 2.25 4.15039 C1.8375 4.14201 1.425 4.13363 1 4.125 C0.57977 4.12049 0.15953 4.11598 -0.27344 4.11133 C-1.30735 4.09958 -2.34119 4.08164 -3.375 4.0625 C-3.375 3.0625 -3.375 3.0625 1.625 2.0625 C-3.655 2.0625 -8.935 2.0625 -14.375 2.0625 C-14.375 0.46355 -13.3553 0.84563 -11.89844 0.56641 C-7.92971 -0.09505 -4.00622 -0.04771 0 0 Z " fill="#716F6B" transform="translate(112.375,130.9375)"/>
<path d="M0 0 C2.59706 1.29853 2.0337 1.08916 1.375 3.5625 C-0.43178 9.04783 -4.98096 13.02895 -9 17 C-7.75289 12.55165 -5.93521 8.95491 -3.375 5.125 C-3.05016 4.62742 -2.72531 4.12984 -2.39062 3.61719 C-1.59962 2.40741 -0.80281 1.20196 0 0 Z " fill="#49473A" transform="translate(21,163)"/>
<path d="M0 0 C0.66 0 1.32 0 2 0 C1.67 1.32 1.34 2.64 1 4 C1.99 3.67 2.98 3.34 4 3 C2.43974 7.21269 -0.54098 9.34591 -4 12 C-5.57681 6.41724 -5.57681 6.41724 -3 5 C-1.375 4.875 -1.375 4.875 0 5 C0 3.35 0 1.7 0 0 Z " fill="#22201A" transform="translate(408,313)"/>
<path d="M0 0 C1.61682 1.44973 2.41435 2.69166 3.18359 4.71484 C3.2864 4.97556 3.2864 4.97556 3.80664 6.29492 C4.2254 7.38526 4.64209 8.47641 5.05664 9.56836 C6.82634 14.03947 6.82634 14.03947 8.61719 15.67969 C10.22508 17.21491 10.4461 18.01489 10.6875 20.1875 C10.72037 20.4524 10.72037 20.4524 10.88672 21.79297 C10.9241 22.19129 10.96148 22.58961 11 23 C8.77736 20.94028 7.2973 19.05287 5.95703 16.34766 C5.78371 16.00625 5.61038 15.66485 5.43181 15.3131 C5.0701 14.59606 4.71144 13.87749 4.35571 13.15747 C3.81309 12.06369 3.25592 10.97824 2.69727 9.89258 C2.34545 9.19056 1.99451 8.4881 1.64453 7.78516 C1.47895 7.46523 1.31337 7.14531 1.14278 6.81569 C-0.02974 4.39757 -0.15279 2.62146 0 0 Z " fill="#464139" transform="translate(6,264)"/>
<path d="M0 0 C4.00198 -0.38693 6.79642 0.73873 10.35156 2.48828 C10.79613 2.70122 11.24069 2.91416 11.69873 3.13354 C14.18285 4.41967 15.57945 5.21866 16.03906 8.17578 C11.92214 7.01192 8.06029 5.36379 4.16406 3.61328 C3.6635 3.39132 3.16294 3.16936 2.64722 2.94067 C2.18098 2.72822 1.71474 2.51577 1.23438 2.29688 C0.81172 2.10537 0.38907 1.91386 -0.04639 1.71655 C-1.2 1.03443 -1.58365 0.28969 0 0 Z " fill="#2B2B23" transform="translate(379.9609375,125.82421875)"/>
<path d="M0 0 C0 0.99 0 1.98 0 3 C-0.59168 2.90461 -1.18336 2.80922 -1.79297 2.71094 C-9.14753 1.63982 -9.14753 1.63982 -12.87109 3.58594 C-14.95116 4.34887 -16.95174 3.64498 -19 3 C-18.32088 0.48513 -16.26758 0.29702 -14 -0.1875 C-13.80249 -0.23125 -13.80249 -0.23125 -12.80298 -0.45264 C-8.43613 -1.29583 -4.34012 -0.75926 0 0 Z " fill="#3C3730" transform="translate(287,130)"/>
<path d="M0 0 C3.36404 4.01442 5.93322 7.78032 4 13 C1.14792 9.87102 -1.66571 6.38434 -2 2 C-1.03906 0.82422 -1.03906 0.82422 0 0 Z " fill="#767574" transform="translate(25,268)"/>
<path d="M0 0 C0.45504 0.00902 0.91008 0.01805 1.37891 0.02734 C1.72824 0.03895 2.07758 0.05055 2.4375 0.0625 C2.4375 0.7225 2.4375 1.3825 2.4375 2.0625 C3.3125 2.69531 3.3125 2.69531 4.4375 3.1875 C4.80875 3.35508 5.18 3.52266 5.5625 3.69531 C5.85125 3.81648 6.14 3.93766 6.4375 4.0625 C4.42921 3.94204 2.42119 3.81772 0.41333 3.69019 C-0.59607 3.62682 -1.60565 3.5663 -2.61523 3.50586 C-6.97726 3.22652 -11.24652 2.74831 -15.5625 2.0625 C-15.5625 1.7325 -15.5625 1.4025 -15.5625 1.0625 C-15.20422 1.06774 -14.84594 1.07297 -14.47681 1.07837 C-12.85956 1.09911 -11.24233 1.11215 -9.625 1.125 C-9.06104 1.13338 -8.49707 1.14176 -7.91602 1.15039 C-7.64692 1.152 -7.64692 1.152 -6.28516 1.16016 C-6.03641 1.16277 -6.03641 1.16277 -4.77759 1.17603 C-2.83377 0.99441 -2.20326 -0.05649 0 0 Z " fill="#393835" transform="translate(329.5625,372.9375)"/>
<path d="M0 0 C1.12556 0.14145 2.25044 0.28832 3.375 0.4375 C3.68824 0.47811 3.68824 0.47811 5.27344 0.68359 C8.33648 1.24492 9.44282 1.93774 10.10547 5.00391 C9.88609 7.07577 7.84616 7.68312 6 8 C4.9375 7.25 4.9375 7.25 4 6 C3.01185 5.31589 2.01395 4.64524 1 4 C2.65 3.67 4.3 3.34 6 3 C5.56687 2.86723 5.13375 2.73445 4.6875 2.59766 C4.13063 2.42105 3.57375 2.24445 3 2.0625 C2.72156 1.97549 2.72156 1.97549 1.3125 1.53516 C0 1 0 1 0 0 Z " fill="#302F2B" transform="translate(369,123)"/>
<path d="M0 0 C2.18185 2.62341 2.30846 4.71563 2.25 8.0625 C2.25773 8.50916 2.26547 8.95582 2.27344 9.41602 C2.25831 11.94573 2.22164 13.43956 0 15 C-1.34683 13.01182 -1.14761 10.93114 -1.125 8.625 C-1.12887 8.23828 -1.13273 7.85156 -1.13672 7.45312 C-1.12786 4.81293 -0.72991 2.5373 0 0 Z " fill="#AEAEA4" transform="translate(17,228)"/>
<path d="M0 0 C2.00253 0 2.08695 3.63991 2.5 5.3125 C2.56691 5.58014 2.56691 5.58014 2.90552 6.93457 C4.16981 12.25413 4.68898 17.55176 5 23 C3.53333 21.03097 2.74112 19.78921 2.875 17.3125 C2.88402 17.094 2.88402 17.094 2.92969 15.98828 C2.95289 15.66215 2.97609 15.33602 3 15 C2.34 15 1.68 15 1 15 C0.67 10.05 0.34 5.1 0 0 Z " fill="#4A4945" transform="translate(253,121)"/>
<path d="M0 0 C3.83143 3.26798 4.39646 9.22048 4 14 C2.5625 14.3125 2.5625 14.3125 1 14 C0.52142 12.79629 0.36189 11.6536 0.1875 10.37109 C0.0171 9.12502 -0.26254 8.01316 -0.625 6.8125 C-1.02786 4.86533 -0.96123 4.60206 0 3 C0.0625 1.375 0.0625 1.375 0 0 Z " fill="#181512" transform="translate(389,410)"/>
<path d="M0 0 C0.99 0.66 1.98 1.32 3 2 C1.02 4.64 -0.96 7.28 -3 10 C-3.94804 7.15587 -4.09804 5.8431 -4 3 C-3.52562 3.06187 -3.05125 3.12375 -2.5625 3.1875 C-0.33567 2.92028 -0.42906 2.0595 0 0 Z " fill="#1C1A13" transform="translate(360,368)"/>
<path d="M0 0 C0.99 0 1.98 0 3 0 C3.22373 4.89711 3.33088 9.50837 1 14 C0.67 14 0.34 14 0 14 C0 9.38 0 4.76 0 0 Z " fill="#2B2826" transform="translate(95,229)"/>
<path d="M0 0 C-0.14623 0.12846 -0.14623 0.12846 -0.88623 0.77856 C-2.219 1.95299 -3.54701 3.13267 -4.875 4.3125 C-5.3352 4.71662 -5.79539 5.12074 -6.26953 5.53711 C-10.07704 8.93076 -10.07704 8.93076 -11.21875 10.78125 C-12.30908 12.48216 -13.0923 12.26014 -15 12 C-15 9.77428 -14.98817 9.7395 -13.42578 8.41406 C-13.09014 8.12467 -12.7545 7.83527 -12.40869 7.53711 C-12.04695 7.23611 -11.68521 6.93512 -11.3125 6.625 C-10.94818 6.31627 -10.58386 6.00754 -10.2085 5.68945 C-9.47892 5.07324 -8.74718 4.45958 -8.01318 3.84863 C-7.1392 3.11659 -6.27985 2.37221 -5.42578 1.61719 C-4.99652 1.24852 -4.56727 0.87984 -4.125 0.5 C-3.94066 0.34016 -3.94066 0.34016 -3.00781 -0.46875 C-1.63174 -1.19412 -1.28787 -0.73286 0 0 Z " fill="#151512" transform="translate(46,139)"/>
<path d="M0 0 C0.22385 1.41572 0.42919 2.83036 0.625 4.25 C0.68945 4.64574 0.75391 5.04148 0.82031 5.44922 C1.23293 8.59543 0.63155 10.28491 -1 13 C-2.97134 10.59058 -3.22023 9.02506 -2.6875 5.9375 C-2.63916 5.58623 -2.59082 5.23496 -2.54102 4.87305 C-1.81328 0 -1.81328 0 0 0 Z " fill="#322F27" transform="translate(61,415)"/>
<path d="M0 0 C-0.66 0 -1.32 0 -2 0 C-2 0.99 -2 1.98 -2 3 C-3.10376 3.16934 -4.20803 3.33536 -5.3125 3.5 C-5.92738 3.59281 -6.54227 3.68563 -7.17578 3.78125 C-8.8083 3.97701 -10.35856 4.0404 -12 4 C-8.75801 0.10599 -5.05958 -2.39664 0 0 Z " fill="#322F27" transform="translate(93,384)"/>
<path d="M0 0 C1.18644 1.79614 0.95298 2.50478 0 4.375 C-0.83653 6.24068 -1.1451 7.23021 -0.5 9.1875 C0.10635 11.38551 -0.00546 11.90301 -2 13 C-3.625 12.625 -3.625 12.625 -5 12 C-4.57102 7.34559 -2.40564 3.88259 0 0 Z " fill="#1F1E1A" transform="translate(15,170)"/>
<path d="M0 0 C5.80019 -0.40677 9.81557 0.27818 15 3 C11.3709 4.29611 8.88157 3.71161 5.25 2.625 C4.7434 2.48578 4.2368 2.34656 3.71484 2.20312 C0 1.14174 0 1.14174 0 0 Z " fill="#2F2E26" transform="translate(153,124)"/>
<path d="M0 0 C-0.18047 0.06639 -0.18047 0.06639 -1.09375 0.40234 C-1.55781 0.57895 -2.02187 0.75555 -2.5 0.9375 C-2.96406 1.11152 -3.42812 1.28555 -3.90625 1.46484 C-5 2 -5 2 -5 3 C-8.3 3 -11.6 3 -15 3 C-12.39584 1.26389 -10.92673 0.51628 -8.0625 -0.1875 C-7.72799 -0.28225 -7.39348 -0.37699 -7.04883 -0.47461 C-4.39966 -1.14328 -2.59877 -0.81975 0 0 Z " fill="#474339" transform="translate(90,122)"/>
<path d="M0 0 C0.26039 0.46406 0.52078 0.92813 0.78906 1.40625 C0.98242 1.76719 1.17578 2.12813 1.375 2.5 C-1.9494 4.99752 -1.9494 4.99752 -3.55859 3.8125 C-5.01072 1.92265 -5.625 0.94088 -5.625 -1.5 C-2.99941 -3.37542 -1.44153 -2.62096 0 0 Z " fill="#38342F" transform="translate(23.625,290.5)"/>
<path d="M0 0 C3.33527 4.71819 3.14637 9.35664 3 15 C0.0993 14.40782 0.0993 14.40782 -0.34058 12.60132 C-0.32487 12.02003 -0.30916 11.43875 -0.29297 10.83984 C-0.2833 10.21143 -0.27363 9.58301 -0.26367 8.93555 C-0.23854 8.27619 -0.2134 7.61684 -0.1875 6.9375 C-0.17246 6.26761 -0.15877 5.59768 -0.14648 4.92773 C-0.11102 3.28436 -0.06161 1.64257 0 0 Z " fill="#393630" transform="translate(446,204)"/>
</svg>
