<?xml version="1.0" encoding="UTF-8"?>
<!-- Generator: visioncortex VTracer 0.6.12 -->
<svg version="1.1" xmlns="http://www.w3.org/2000/svg" width="307" height="396">
<path d="M0 0 C0.52755 0.16629 1.0551 0.33258 1.59863 0.50391 C14.87213 4.80366 26.21539 12.09891 36 22 C36.14728 22.14865 36.14728 22.14865 36.89258 22.90088 C38.75269 24.82262 40.41651 26.84578 42 29 C42.27409 29.37286 42.54817 29.74572 42.83057 30.12988 C50.42878 40.72081 54.8734 52.08806 56.875 64.875 C56.93675 65.26542 56.99851 65.65585 57.06213 66.05811 C61.21676 93.19058 51.76314 115.22057 35 136 C35.45246 136.23332 35.90492 136.46664 36.37109 136.70703 C42.69324 140.05772 48.72956 143.88005 54.66724 147.86646 C55.39904 148.3566 56.13105 148.84644 56.86328 149.33594 C57.21961 149.57433 57.57594 149.81272 57.94307 150.05833 C60.01836 151.42407 62.08664 152.57325 64.35547 153.60156 C75.34133 158.89023 71.54906 173.12027 68.83179 183.00586 C66.94631 188.91523 62.00903 203.14174 55.04077 203.11353 C54.4202 203.11345 53.79964 203.11337 53.16026 203.1133 C52.48054 203.10819 51.80082 203.10297 51.12109 203.09766 C50.4275 203.09579 49.7339 203.09437 49.0403 203.09337 C47.2138 203.08955 45.38738 203.07972 43.56091 203.06866 C41.69752 203.05844 39.83412 203.05387 37.9707 203.04883 C34.31377 203.0381 30.65689 203.02103 27 203 C31.90287 227.99031 41.91849 247.82541 59.42578 266.41016 C59.87349 266.8859 60.3212 267.36165 60.78247 267.85181 C62 269 62 269 63.16089 269.53687 C64 270 64 270 64 272 C64.91246 272.47775 65.8309 272.94609 66.76953 273.37012 C69.22427 274.62671 71.32735 276.44093 73.5 278.125 C77.6058 281.26868 81.77215 284.20144 86.125 287 C91.9488 290.79719 97.06941 295.10558 102 300 C102.35546 300.35143 102.71092 300.70286 103.07715 301.06494 C119.60779 317.72752 129.54608 343.60243 129.96484 367.07568 C129.99313 368.62407 130.03704 370.16966 130.08984 371.71729 C130.17689 374.33874 130.23731 376.95983 130.28207 379.58234 C130.3023 380.64932 130.32833 381.7162 130.36026 382.7829 C130.40194 384.28673 130.41726 385.78863 130.42578 387.29297 C130.44322 387.75279 130.46067 388.2126 130.47864 388.68636 C130.47578 389.1085 130.47292 389.53064 130.46997 389.96558 C130.4729 390.15066 130.4729 390.15066 130.48775 391.08733 C129.06914 393.74182 123.41367 393.13879 120.79416 393.12584 C120.27995 393.12729 119.76575 393.12875 119.23596 393.13025 C117.51082 393.1339 115.78576 393.13042 114.06062 393.12698 C112.81219 393.12814 111.56376 393.12972 110.31534 393.13171 C107.59997 393.13502 104.88463 393.13521 102.16926 393.13266 C98.13158 393.12888 94.09391 393.13082 90.05622 393.13387 C82.84574 393.13914 75.63526 393.13868 68.42477 393.13579 C62.11667 393.13328 55.80857 393.13262 49.50046 393.13382 C49.08221 393.13389 48.66395 393.13397 48.23302 393.13405 C46.53526 393.13436 44.8375 393.13468 43.13973 393.13501 C27.21338 393.13807 11.28703 393.13529 -4.63933 393.12991 C-18.79821 393.12516 -32.95708 393.12559 -47.11597 393.13037 C-63.01753 393.13572 -78.91908 393.13785 -94.82064 393.13476 C-96.5144 393.13444 -98.20815 393.13413 -99.90191 393.13382 C-100.31897 393.13374 -100.73603 393.13366 -101.16572 393.13358 C-107.47294 393.13244 -113.78015 393.13377 -120.08736 393.1363 C-127.25419 393.13915 -134.421 393.13845 -141.58783 393.13301 C-145.60241 393.13007 -149.61697 393.1299 -153.63156 393.13366 C-156.62164 393.13615 -159.61169 393.13347 -162.60177 393.12869 C-163.81701 393.12756 -165.03224 393.12815 -166.24747 393.13056 C-167.88892 393.13357 -169.53024 393.13052 -171.17168 393.12584 C-171.65242 393.12818 -172.13316 393.13052 -172.62847 393.13294 C-173.06259 393.13043 -173.4967 393.12793 -173.94397 393.12535 C-174.31977 393.12528 -174.69557 393.12521 -175.08275 393.12514 C-176.563 392.92319 -176.97207 392.32682 -177.09575 390.87973 C-177.0818 390.41201 -177.06784 389.94429 -177.05347 389.4624 C-177.03973 388.92975 -177.02598 388.3971 -177.01183 387.84831 C-176.99117 387.26673 -176.97051 386.68514 -176.94922 386.08594 C-176.93126 385.48409 -176.9133 384.88225 -176.89479 384.26216 C-176.83299 382.29947 -176.76183 380.33724 -176.6875 378.375 C-176.67521 378.04243 -176.66292 377.70987 -176.65025 377.36722 C-176.06002 361.43014 -174.40749 347.04243 -169 332 C-168.80003 331.44151 -168.60007 330.88303 -168.39404 330.30762 C-165.55177 322.55596 -161.74773 315.74017 -157 309 C-156.85659 308.79004 -156.85659 308.79004 -156.13086 307.72754 C-148.7923 297.11727 -138.14985 289.939 -127.47632 282.9856 C-109.59229 271.26807 -94.26283 256.5221 -85 237 C-84.75298 236.48921 -84.50597 235.97842 -84.25146 235.45215 C-80.8075 228.23269 -78.22537 220.93576 -76.0625 213.25 C-75.94873 212.85183 -75.83496 212.45366 -75.71774 212.04343 C-75.39766 210.91144 -75.08909 209.77704 -74.78516 208.64062 C-74.6897 208.30167 -74.59423 207.96271 -74.49588 207.61348 C-74.01004 205.72211 -73.77419 204.58521 -75 203 C-76.2433 202.86043 -76.2433 202.86043 -77.83228 203.01099 C-78.42721 203.05888 -79.02214 203.10677 -79.6351 203.15611 C-79.95892 203.18514 -79.95892 203.18514 -81.59766 203.33203 C-109.44985 205.2999 -109.44985 205.2999 -113.04688 192.21875 C-113.29503 191.15558 -113.52678 190.08984 -113.7561 189.02246 C-114.13848 187.41949 -114.70391 185.89143 -115.26562 184.34375 C-123.17618 161.70918 -123.17618 161.70918 -114.95312 156.61182 C-113.85491 155.90687 -112.84214 155.12598 -111.8125 154.32422 C-106.09042 149.93008 -100.04257 145.99656 -94 142.0625 C-93.62525 141.8174 -93.25049 141.57229 -92.86438 141.31976 C-91.78706 140.61681 -90.70666 139.9189 -89.625 139.22266 C-89.30352 139.01259 -88.98204 138.80253 -88.65082 138.58611 C-86.82073 137.41833 -85.08916 136.59238 -83 136 C-84.0803 133.34835 -85.20636 131.71947 -87.33203 129.79297 C-90.27711 126.89898 -92.14218 123.63526 -94 120 C-94.16953 119.67364 -94.33906 119.34727 -94.51373 119.01102 C-101.96716 104.63194 -106.0655 90.32907 -105 74 C-104.96423 73.41525 -104.92846 72.8305 -104.8916 72.22803 C-103.43453 51.49396 -94.75702 33.70996 -80 19 C-79.68627 18.67838 -79.37255 18.35676 -79.04932 18.02539 C-59.50964 -1.75682 -26.09926 -8.47184 0 0 Z " fill="#5B5856" transform="translate(177,3)"/>
<path d="M0 0 C3.63808 0.57289 5.32667 1.92512 7.82031 4.5625 C7.99268 4.73818 7.99268 4.73818 8.86496 5.6272 C9.95902 6.74455 11.04236 7.87159 12.125 9 C13.21647 10.12659 14.31009 11.25098 15.40646 12.3728 C16.08642 13.06967 16.76325 13.7696 17.43655 14.4729 C17.74382 14.78993 18.05109 15.10696 18.36768 15.43359 C18.63541 15.7126 18.90314 15.9916 19.17899 16.27905 C20 17 20 17 21.10202 17.4729 C22 18 22 18 22 20 C22.93457 20.44998 23.87105 20.89628 24.81465 21.327 C26.16954 22.09626 27.07022 22.96006 28.15308 24.08057 C28.59187 24.5295 29.03067 24.97844 29.48276 25.44098 C29.72461 25.69012 29.96646 25.93927 30.21563 26.19596 C31.68241 27.69953 33.16998 29.18248 34.65356 30.66943 C35.33498 31.35396 36.01632 32.03856 36.69759 32.72324 C39.35878 35.39667 42.02246 38.06763 44.68646 40.73827 C46.69816 42.75518 48.70891 44.77301 50.71753 46.79297 C52.6792 48.76563 54.64342 50.73572 56.6093 52.70418 C57.34881 53.44551 58.08745 54.1877 58.82513 54.93086 C63.70317 59.8437 68.72421 64.51629 74 69 C74.47814 69.40649 74.95627 69.81299 75.4489 70.2318 C80.06545 74.12548 84.84755 77.68509 89.9375 80.9375 C90.3981 81.23205 90.8587 81.5266 91.33325 81.83008 C93.16365 82.97107 94.74796 83.92141 96.81641 84.56641 C98 85 98 85 98 87 C98.83008 87.31519 98.83008 87.31519 100.03125 87.44922 C103.34959 87.98402 106.35789 89.19268 109.47128 90.4115 C127.91274 97.6001 127.91274 97.6001 137.12329 98.67627 C156.732 100.98318 165.90315 122.56852 171.45117 139.37817 C171.79402 140.39131 172.15684 141.39816 172.54883 142.39331 C174.23964 146.83485 174.60428 151.34188 175.00537 156.04028 C175.12453 157.432 175.25471 158.82234 175.38672 160.21289 C175.4694 161.11973 175.55145 162.02663 175.63281 162.93359 C175.67029 163.33799 175.70776 163.74239 175.74637 164.15904 C175.95655 166.66567 176.01665 169.14836 176.00949 171.6642 C176.00812 172.29018 176.00675 172.91616 176.00534 173.56111 C176.00358 174.03595 176.00182 174.51078 176 175 C146.98981 175.02308 117.97962 175.04061 88.96942 175.05107 C85.51501 175.05231 82.06061 175.05361 78.6062 175.05493 C78.26255 175.05506 77.91891 175.05519 77.56485 175.05533 C66.54394 175.05954 55.52304 175.06702 44.50213 175.0763 C32.79338 175.08613 21.08463 175.09203 9.37587 175.09409 C3.01896 175.09532 -3.33794 175.0982 -9.69484 175.10573 C-41.47708 175.14232 -73.22825 174.84125 -105 174 C-105.01116 172.72367 -105.01929 171.44744 -105.02571 170.17108 C-105.02916 169.81245 -105.0326 169.45383 -105.03616 169.08433 C-105.04691 166.22737 -104.70118 163.60359 -104.01172 160.82812 C-103.90908 160.38367 -103.80644 159.93922 -103.70068 159.48129 C-103.37202 158.06854 -103.0307 156.65929 -102.6875 155.25 C-102.45176 154.26232 -102.2165 153.27452 -101.98169 152.28662 C-101.63445 150.82868 -101.28598 149.37109 -100.93303 147.91452 C-100.33379 145.4377 -99.77209 142.96208 -99.28125 140.46094 C-94.78697 118.31319 -80.02838 103.45995 -61.73059 91.49951 C-41.9852 78.57525 -24.94508 62.45665 -13.77197 41.44141 C-13.01048 40.01958 -12.21672 38.6199 -11.41797 37.21875 C-5.15563 25.88335 -2.13853 12.70352 0 0 Z " fill="#5B5856" transform="translate(118,207)"/>
<path d="M0 0 C0.52755 0.16629 1.0551 0.33258 1.59863 0.50391 C14.87213 4.80366 26.21539 12.09891 36 22 C36.14728 22.14865 36.14728 22.14865 36.89258 22.90088 C38.75269 24.82262 40.41651 26.84578 42 29 C42.27409 29.37286 42.54817 29.74572 42.83057 30.12988 C50.42878 40.72081 54.8734 52.08806 56.875 64.875 C56.93675 65.26542 56.99851 65.65585 57.06213 66.05811 C61.21676 93.19058 51.76314 115.22057 35 136 C35.45246 136.23332 35.90492 136.46664 36.37109 136.70703 C42.69324 140.05772 48.72956 143.88005 54.66724 147.86646 C55.39904 148.3566 56.13105 148.84644 56.86328 149.33594 C57.21961 149.57433 57.57594 149.81272 57.94307 150.05833 C60.01836 151.42407 62.08664 152.57325 64.35547 153.60156 C75.34133 158.89023 71.54906 173.12027 68.83179 183.00586 C66.94631 188.91523 62.00903 203.14174 55.04077 203.11353 C54.4202 203.11345 53.79964 203.11337 53.16026 203.1133 C52.48054 203.10819 51.80082 203.10297 51.12109 203.09766 C50.4275 203.09579 49.7339 203.09437 49.0403 203.09337 C47.2138 203.08955 45.38738 203.07972 43.56091 203.06866 C41.69752 203.05844 39.83412 203.05387 37.9707 203.04883 C34.31377 203.0381 30.65689 203.02103 27 203 C31.90287 227.99031 41.91849 247.82541 59.42578 266.41016 C59.87349 266.8859 60.3212 267.36165 60.78247 267.85181 C62 269 62 269 63.16089 269.53687 C64 270 64 270 64 272 C64.91246 272.47775 65.8309 272.94609 66.76953 273.37012 C69.22427 274.62671 71.32735 276.44093 73.5 278.125 C77.6058 281.26868 81.77215 284.20144 86.125 287 C91.9488 290.79719 97.06941 295.10558 102 300 C102.35546 300.35143 102.71092 300.70286 103.07715 301.06494 C119.60779 317.72752 129.54608 343.60243 129.96484 367.07568 C129.99313 368.62407 130.03704 370.16966 130.08984 371.71729 C130.17689 374.33874 130.23731 376.95983 130.28207 379.58234 C130.3023 380.64932 130.32833 381.7162 130.36026 382.7829 C130.40194 384.28673 130.41726 385.78863 130.42578 387.29297 C130.44322 387.75279 130.46067 388.2126 130.47864 388.68636 C130.47578 389.1085 130.47292 389.53064 130.46997 389.96558 C130.4729 390.15066 130.4729 390.15066 130.48775 391.08733 C129.06914 393.74182 123.41367 393.13879 120.79416 393.12584 C120.27995 393.12729 119.76575 393.12875 119.23596 393.13025 C117.51082 393.1339 115.78576 393.13042 114.06062 393.12698 C112.81219 393.12814 111.56376 393.12972 110.31534 393.13171 C107.59997 393.13502 104.88463 393.13521 102.16926 393.13266 C98.13158 393.12888 94.09391 393.13082 90.05622 393.13387 C82.84574 393.13914 75.63526 393.13868 68.42477 393.13579 C62.11667 393.13328 55.80857 393.13262 49.50046 393.13382 C49.08221 393.13389 48.66395 393.13397 48.23302 393.13405 C46.53526 393.13436 44.8375 393.13468 43.13973 393.13501 C27.21338 393.13807 11.28703 393.13529 -4.63933 393.12991 C-18.79821 393.12516 -32.95708 393.12559 -47.11597 393.13037 C-63.01753 393.13572 -78.91908 393.13785 -94.82064 393.13476 C-96.5144 393.13444 -98.20815 393.13413 -99.90191 393.13382 C-100.31897 393.13374 -100.73603 393.13366 -101.16572 393.13358 C-107.47294 393.13244 -113.78015 393.13377 -120.08736 393.1363 C-127.25419 393.13915 -134.421 393.13845 -141.58783 393.13301 C-145.60241 393.13007 -149.61697 393.1299 -153.63156 393.13366 C-156.62164 393.13615 -159.61169 393.13347 -162.60177 393.12869 C-163.81701 393.12756 -165.03224 393.12815 -166.24747 393.13056 C-167.88892 393.13357 -169.53024 393.13052 -171.17168 393.12584 C-171.65242 393.12818 -172.13316 393.13052 -172.62847 393.13294 C-173.06259 393.13043 -173.4967 393.12793 -173.94397 393.12535 C-174.31977 393.12528 -174.69557 393.12521 -175.08275 393.12514 C-176.563 392.92319 -176.97207 392.32682 -177.09575 390.87973 C-177.0818 390.41201 -177.06784 389.94429 -177.05347 389.4624 C-177.03973 388.92975 -177.02598 388.3971 -177.01183 387.84831 C-176.99117 387.26673 -176.97051 386.68514 -176.94922 386.08594 C-176.93126 385.48409 -176.9133 384.88225 -176.89479 384.26216 C-176.83299 382.29947 -176.76183 380.33724 -176.6875 378.375 C-176.67521 378.04243 -176.66292 377.70987 -176.65025 377.36722 C-176.06002 361.43014 -174.40749 347.04243 -169 332 C-168.80003 331.44151 -168.60007 330.88303 -168.39404 330.30762 C-165.55177 322.55596 -161.74773 315.74017 -157 309 C-156.85659 308.79004 -156.85659 308.79004 -156.13086 307.72754 C-148.7923 297.11727 -138.14985 289.939 -127.47632 282.9856 C-109.59229 271.26807 -94.26283 256.5221 -85 237 C-84.75298 236.48921 -84.50597 235.97842 -84.25146 235.45215 C-80.8075 228.23269 -78.22537 220.93576 -76.0625 213.25 C-75.94873 212.85183 -75.83496 212.45366 -75.71774 212.04343 C-75.39766 210.91144 -75.08909 209.77704 -74.78516 208.64062 C-74.6897 208.30167 -74.59423 207.96271 -74.49588 207.61348 C-74.01004 205.72211 -73.77419 204.58521 -75 203 C-76.2433 202.86043 -76.2433 202.86043 -77.83228 203.01099 C-78.42721 203.05888 -79.02214 203.10677 -79.6351 203.15611 C-79.95892 203.18514 -79.95892 203.18514 -81.59766 203.33203 C-109.44985 205.2999 -109.44985 205.2999 -113.04688 192.21875 C-113.29503 191.15558 -113.52678 190.08984 -113.7561 189.02246 C-114.13848 187.41949 -114.70391 185.89143 -115.26562 184.34375 C-123.17618 161.70918 -123.17618 161.70918 -114.95312 156.61182 C-113.85491 155.90687 -112.84214 155.12598 -111.8125 154.32422 C-106.09042 149.93008 -100.04257 145.99656 -94 142.0625 C-93.62525 141.8174 -93.25049 141.57229 -92.86438 141.31976 C-91.78706 140.61681 -90.70666 139.9189 -89.625 139.22266 C-89.30352 139.01259 -88.98204 138.80253 -88.65082 138.58611 C-86.82073 137.41833 -85.08916 136.59238 -83 136 C-84.0803 133.34835 -85.20636 131.71947 -87.33203 129.79297 C-90.27711 126.89898 -92.14218 123.63526 -94 120 C-94.16953 119.67364 -94.33906 119.34727 -94.51373 119.01102 C-101.96716 104.63194 -106.0655 90.32907 -105 74 C-104.96423 73.41525 -104.92846 72.8305 -104.8916 72.22803 C-103.43453 51.49396 -94.75702 33.70996 -80 19 C-79.68627 18.67838 -79.37255 18.35676 -79.04932 18.02539 C-59.50964 -1.75682 -26.09926 -8.47184 0 0 Z M-39 12 C-39.46986 12.14534 -39.93973 12.29068 -40.42383 12.44043 C-47.28729 14.63621 -53.4107 17.59945 -59.4375 21.5 C-59.72451 21.68523 -60.01152 21.87046 -60.30722 22.06131 C-82.33523 36.40913 -99.70593 72.39092 -88.6875 98.96094 C-87.5315 101.43595 -86.18179 103.73093 -84.63721 105.98193 C-84 107 -84 107 -83.43359 108.80078 C-83 110 -83 110 -81 110 C-80.50781 110.88281 -80.50781 110.88281 -80.125 112.125 C-78.0723 117.66574 -74.3809 121.83107 -70.5 126.1875 C-70.12029 126.61571 -69.74058 127.04392 -69.34937 127.48511 C-66.21474 130.93787 -62.86802 133.43066 -59 136 C-74.47689 146.74711 -74.47689 146.74711 -82.04272 151.49951 C-85.51719 153.68376 -88.95452 155.91962 -92.375 158.1875 C-92.86323 158.50872 -93.35146 158.82994 -93.85449 159.16089 C-94.78987 159.78356 -95.71854 160.41647 -96.63965 161.06006 C-97.56079 161.69652 -98.50305 162.30328 -99.46191 162.88135 C-105.97538 167.19086 -102.9449 174.21884 -100.5625 180.375 C-100.3291 181.00876 -100.09668 181.64287 -99.86523 182.27734 C-97.67472 188.15681 -97.67472 188.15681 -93.2146 188.11353 C-93.01946 188.1136 -93.01946 188.1136 -92.03191 188.11397 C-90.73866 188.11327 -89.44556 188.10548 -88.15234 188.09766 C-87.25696 188.09579 -86.36158 188.09437 -85.4662 188.09337 C-83.10706 188.08955 -80.74797 188.07972 -78.38885 188.06866 C-75.98255 188.05844 -73.57624 188.05387 -71.16992 188.04883 C-66.44659 188.0381 -61.7233 188.02102 -57 188 C-57.13907 188.30932 -57.27815 188.61864 -57.42143 188.93733 C-58.66075 191.8319 -59.31136 194.31596 -59.45703 197.44922 C-59.51393 198.29646 -59.57192 199.14362 -59.63086 199.99072 C-59.65946 200.42991 -59.68806 200.8691 -59.71753 201.32159 C-61.009 219.896 -66.47404 235.06299 -76 251 C-76.18756 251.31475 -76.37512 251.62951 -76.56836 251.9538 C-87.07697 269.45827 -102.92981 284.73758 -120.3125 295.32812 C-143.46155 309.50861 -155.26741 327.84058 -160.78711 354.00275 C-161.00289 355.01356 -161.22672 356.02228 -161.45312 357.03076 C-161.89895 359.01776 -162.32693 361.00802 -162.75 363 C-162.81397 363.2933 -162.81397 363.2933 -163.1377 364.77759 C-163.77894 367.96347 -164.07194 370.98061 -164.03223 374.21875 C-164.0299 374.58452 -164.02757 374.95029 -164.02518 375.32715 C-164.01917 376.21812 -164.00993 377.10907 -164 378 C-131.61121 378.85759 -99.24391 379.14193 -66.84458 379.10354 C-60.44918 379.09617 -54.05378 379.09487 -47.65838 379.09374 C-36.26517 379.09159 -24.87197 379.08503 -13.47876 379.07544 C-2.45044 379.06617 8.57788 379.05913 19.6062 379.05493 C19.94963 379.0548 20.29306 379.05467 20.64689 379.05453 C24.09754 379.05321 27.5482 379.05194 30.99885 379.05069 C59.66591 379.04036 88.33295 379.02281 117 379 C116.87603 376.25108 116.74835 373.50236 116.61739 370.75377 C116.57344 369.82093 116.53047 368.88805 116.48854 367.95512 C116.19596 361.46465 115.7445 355.28275 114 349 C113.88318 348.53674 113.76636 348.07349 113.646 347.59619 C110.38741 334.75645 104.85093 322.78687 96.3125 312.625 C96.08457 312.34979 95.85664 312.07457 95.6218 311.79102 C93.07898 308.76005 90.83386 306.48882 86.90698 305.43506 C86 305 86 305 86 303 C84.87012 301.99438 84.87012 301.99438 83.29688 300.94141 C83.01781 300.75159 82.73875 300.56177 82.45123 300.3662 C81.55501 299.75846 80.65286 299.16031 79.75 298.5625 C78.86513 297.96783 77.98157 297.37126 77.09827 296.77426 C76.52493 296.38744 75.95063 296.00203 75.37537 295.61807 C73.45284 294.33003 71.61658 292.96965 69.83301 291.49585 C69 291 69 291 67 291 C67 290.34 67 289.68 67 289 C65.75781 287.92969 65.75781 287.92969 64.125 286.875 C63.59133 286.5218 63.05766 286.16859 62.50781 285.80469 C61 285 61 285 59 285 C59 284.34 59 283.68 59 283 C58.14893 282.12134 58.14893 282.12134 56.94531 281.22266 C56.50042 280.88017 56.05554 280.53768 55.59717 280.18481 C55.11135 279.81445 54.62554 279.44409 54.125 279.0625 C29.80154 259.72271 18.42957 231.1499 13.3125 201.3125 C13.08576 200.01359 12.85855 198.71476 12.63086 197.41602 C12.0818 194.27827 11.53851 191.13957 11 188 C11.49002 188.02221 11.98004 188.04441 12.48491 188.06729 C17.11809 188.2706 21.75036 188.42016 26.387 188.51812 C28.77088 188.57019 31.15115 188.64066 33.53296 188.75439 C53.01386 189.66063 53.01386 189.66063 55.43237 180.55273 C55.52634 180.10994 55.62031 179.66715 55.71713 179.21094 C56.0853 177.63482 56.77999 176.34089 57.56641 174.93359 C60.70938 167.6943 57.82425 164.83212 51.77368 160.72827 C49.4495 159.25355 47.31335 157.94154 44.59766 157.38281 C43 157 43 157 43 155 C41.91821 154.28906 41.91821 154.28906 40.41016 153.625 C36.91728 151.99287 33.70148 150.04527 30.4375 148 C29.33219 147.31225 28.22672 146.62475 27.12109 145.9375 C26.59338 145.60871 26.06567 145.27992 25.52197 144.94116 C24.12163 144.07521 22.7142 143.22329 21.30078 142.37891 C19.42962 141.26097 17.57763 140.12546 15.75 138.9375 C15.24984 138.61652 14.74969 138.29555 14.23438 137.96484 C13.02468 137.01929 12.52937 136.41795 12 135 C12.59813 134.87625 13.19625 134.7525 13.8125 134.625 C16.66374 133.90458 19 133.22289 19 130 C19.99989 129.35722 21.01888 128.99266 22.125 128.5625 C23 128 23 128 23 126 C23.78285 125.49641 23.78285 125.49641 24.83618 125.10474 C27.26549 124.00237 28.27925 122.5733 29.62109 120.32422 C29.84637 119.96266 30.07165 119.60109 30.30376 119.22858 C31.02772 118.05544 31.73395 116.87298 32.4375 115.6875 C32.55886 115.48589 32.55886 115.48589 33.17303 114.46561 C38.87562 104.96122 43.76535 95.27418 44 84 C44.02433 83.3537 44.04866 82.70739 44.07373 82.0415 C44.62322 67.21637 43.49752 51.89048 31.96558 41.02515 C30.61789 39.59431 29.75638 37.98691 28.79102 36.28516 C24.80844 29.81471 18.61027 23.73822 12 20 C11.57348 19.75798 11.14696 19.51596 10.70752 19.2666 C3.7259 15.38873 -3.18612 12.64399 -11 11 C-11.30035 10.93426 -11.30035 10.93426 -12.82031 10.60156 C-21.43574 9.06161 -30.65404 9.35995 -39 12 Z " fill="#201F1D" transform="translate(177,3)"/>
<path d="M0 0 C0.6539 -0.05213 1.30779 -0.10426 1.98151 -0.15797 C4.14777 -0.32485 6.31516 -0.43638 8.48535 -0.53784 C8.85499 -0.55563 9.22464 -0.57341 9.60548 -0.59173 C13.0952 -0.75691 16.58525 -0.89982 20.07766 -0.99321 C24.14078 -1.10331 28.17937 -1.27451 32.23047 -1.61328 C61.76249 -4.03417 61.76249 -4.03417 65.23454 8.91552 C66.6629 14.82439 66.98779 20.92928 67.20394 26.98476 C67.58981 36.64504 70.95871 45.70437 75.43848 54.20044 C75.78971 54.88114 76.14086 55.56189 76.49194 56.24268 C82.99368 68.73644 94.88565 89.68839 108.75073 95.55103 C109.62598 96.07544 109.62598 96.07544 109.62598 98.07544 C110.36035 98.63794 110.36035 98.63794 111.37598 99.07544 C111.73691 99.24044 112.09785 99.40544 112.46973 99.57544 C112.85129 99.74044 113.23285 99.90544 113.62598 100.07544 C114.3793 100.4012 115.12954 100.73421 115.87598 101.07544 C116.21113 101.21981 116.54629 101.36419 116.8916 101.51294 C117.62598 102.07544 117.62598 102.07544 117.62598 104.07544 C118.53261 104.5758 119.44783 105.06429 120.3916 105.49048 C122.7512 106.60867 124.92172 108.05702 127.12598 109.45044 C127.59906 109.74177 128.07215 110.0331 128.55957 110.33325 C131.63292 112.27432 134.17635 114.38893 136.62598 117.07544 C127.37425 116.80999 119.31494 115.21816 110.62598 112.07544 C110.29519 111.95582 109.96441 111.8362 109.6236 111.71295 C105.17416 110.09981 100.73938 108.44818 96.3291 106.73071 C95.24121 106.31215 94.14774 105.90764 93.04785 105.52173 C92.58895 105.35641 92.13004 105.19108 91.65723 105.02075 C91.26084 104.88427 90.86445 104.74779 90.45605 104.60718 C89.62598 104.07544 89.62598 104.07544 89.62598 102.07544 C88.72778 101.78003 88.72778 101.78003 87.47363 101.66138 C84.15062 101.11746 81.81192 99.57895 79.06348 97.70044 C78.54608 97.35102 78.02868 97.00161 77.49561 96.6416 C72.27248 93.00562 67.67407 88.79087 63.08777 84.39056 C61.59782 82.96934 60.08159 81.58541 58.53638 80.22437 C51.13991 73.70022 44.19676 66.76536 37.25104 59.76917 C35.67931 58.18711 34.10467 56.60796 32.53027 55.02856 C30.484 52.97532 28.43849 50.92133 26.39514 48.86518 C25.8752 48.34215 25.35506 47.81932 24.8347 47.29672 C23.62196 46.07874 22.41169 44.85856 21.20718 43.63245 C20.76893 43.18857 20.33068 42.74469 19.87915 42.28735 C19.49842 41.89969 19.11769 41.51202 18.72542 41.11261 C17.35813 39.82277 15.90255 38.76746 14.3252 37.75122 C13.62598 37.07544 13.62598 37.07544 13.62598 35.07544 C12.67205 34.58701 11.71424 34.10462 10.73782 33.66287 C8.84987 32.66539 7.51562 31.17116 6.05957 29.63403 C5.7394 29.30629 5.41924 28.97855 5.08937 28.64088 C4.07571 27.60298 3.06885 26.55887 2.06348 25.51294 C0.73467 24.13082 -0.6007 22.75555 -1.94043 21.38403 C-2.2405 21.06736 -2.54058 20.75069 -2.84975 20.42442 C-4.57699 18.65745 -5.8897 17.64214 -8.37402 17.07544 C-8.70402 18.39544 -9.03402 19.71544 -9.37402 21.07544 C-9.27936 19.03007 -9.17305 16.98565 -9.05664 14.94141 C-9.01873 14.24821 -8.98381 13.55484 -8.95215 12.86133 C-8.90566 11.85526 -8.84783 10.85033 -8.78809 9.84497 C-8.75667 9.24274 -8.72524 8.6405 -8.69287 8.02002 C-7.68898 1.89751 -6.30741 0.32897 0 0 Z " fill="#464341" transform="translate(126.3740234375,189.924560546875)"/>
<path d="M0 0 C0.63068 2.78479 -0.11059 5.06329 -0.79907 7.79614 C-0.93945 8.37597 -1.07984 8.9558 -1.22447 9.55319 C-1.68482 11.43272 -2.15992 13.308 -2.63892 15.18286 C-2.71936 15.5008 -2.71936 15.5008 -3.12646 17.10977 C-9.11095 40.60839 -18.36746 54.59693 -39.0647 67.41333 C-63.84659 82.8135 -84.38986 99.95986 -93.13135 128.78857 C-93.57642 129.87036 -93.57642 129.87036 -94.57642 129.87036 C-95.05979 122.1006 -93.80903 115.12026 -91.97778 107.5813 C-91.61048 106.01559 -91.2914 104.44992 -90.99048 102.87036 C-86.47701 80.46231 -71.84582 65.48786 -53.30701 53.36987 C-39.29878 44.20085 -27.0329 33.75114 -16.63892 20.55786 C-16.522 20.40947 -16.522 20.40947 -15.93033 19.65854 C-13.46362 16.50905 -11.14769 13.38756 -9.31104 9.81445 C-8.33827 8.56431 -7.46448 8.3749 -5.95142 7.99536 C-2.64758 6.99928 -2.93706 4.52676 -2.8147 1.42896 C-2.55256 -0.28567 -1.16774 -2.28849 0 0 Z " fill="#857F7B" transform="translate(109.576416015625,245.129638671875)"/>
<path d="M0 0 C12.80291 10.35129 12.64933 27.02903 12 42 C11.97486 42.60425 11.94973 43.2085 11.92383 43.83105 C11.19217 56.53054 4.4756 67.50347 -2.3125 77.9375 C-2.6375 78.43967 -2.96251 78.94184 -3.29736 79.45923 C-4.99282 81.94698 -5.96377 83.28977 -9 84 C-9.66016 84.97266 -9.66016 84.97266 -10.0625 86.0625 C-10.78648 88 -10.78648 88 -13 88 C-13 88.66 -13 89.32 -13 90 C-14.94837 92.15607 -17.04147 93.44378 -20 93 C-20 93.66 -20 94.32 -20 95 C-20.2676 94.92113 -20.2676 94.92113 -21.62183 94.52197 C-24.40891 93.82892 -27.19071 93.75204 -30.05078 93.64844 C-30.62781 93.62528 -31.20484 93.60213 -31.79936 93.57828 C-33.01712 93.53082 -34.23496 93.48556 -35.45288 93.44238 C-37.29646 93.37558 -39.13933 93.29759 -40.98242 93.21875 C-52.43345 92.77047 -52.43345 92.77047 -58 94 C-58 91.40362 -57.73734 91.685 -55.40234 91.07031 C-54.85103 90.91659 -54.29971 90.76287 -53.73169 90.60449 C-53.43565 90.52538 -53.43565 90.52538 -51.9375 90.125 C-47.29637 88.80813 -43.29876 87.38653 -39.26953 84.73438 C-38 84 -38 84 -36 84 C-36 83.34 -36 82.68 -36 82 C-34.93987 81.43951 -33.92249 81.00385 -32.8125 80.5625 C-28.41212 78.59339 -24.84213 75.6419 -21.1875 72.5625 C-20.90355 72.32766 -20.61961 72.09282 -20.32706 71.85086 C-17.12944 69.19486 -14.47382 66.71677 -12.63403 62.89819 C-12 62 -12 62 -10 62 C-9.54297 61.03906 -9.54297 61.03906 -9.1875 59.625 C-8.13996 56.0969 -6.54718 52.95134 -4.85229 49.69189 C-4.64323 49.28697 -4.43416 48.88204 -4.21875 48.46484 C-4.03248 48.11027 -3.84621 47.7557 -3.6543 47.39038 C-3.43838 46.93156 -3.22246 46.47273 -3 46 C-2.82985 45.68856 -2.6597 45.37712 -2.48439 45.05624 C-0.42763 40.81573 -0.76646 36.38721 -0.83984 31.79688 C-0.84612 30.90961 -0.85136 30.02234 -0.85561 29.13507 C-0.86883 26.81407 -0.89324 24.49335 -0.92096 22.17249 C-0.96431 18.44423 -0.99376 14.71589 -1.017 10.98746 C-1.02723 9.6861 -1.04427 8.38496 -1.062 7.08368 C-1.06882 6.29114 -1.07543 5.4986 -1.08179 4.70605 C-1.08852 4.34348 -1.09526 3.9809 -1.1022 3.60733 C-1.11363 1.11363 -1.11363 1.11363 0 0 Z " fill="#454240" transform="translate(209,45)"/>
<path d="M0 0 C2.64932 1.28381 5.14886 2.66161 7.625 4.25 C10.773 6.23956 13.93717 8.19982 17.125 10.125 C17.33641 10.25294 17.33641 10.25294 18.40625 10.90039 C21.2134 12.58029 24.03212 14.06356 27.03906 15.35938 C28 16 28 16 28 18 C28.88062 18.51636 28.88062 18.51636 30.12109 18.91797 C35.41369 20.85292 44.84408 24.32422 43.96094 31.13672 C43.23581 33.9454 42.2003 36.58561 40.8793 39.16667 C40.24119 40.43778 39.74191 41.70277 39.28499 43.04907 C36.80457 49.79901 33.60737 50.114 26.85938 49.78125 C25.96833 49.76631 25.07723 49.75493 24.1861 49.74695 C21.84981 49.71652 19.51756 49.63808 17.18286 49.54932 C14.79694 49.4672 12.41036 49.43088 10.02344 49.39062 C5.34719 49.30504 0.67393 49.16868 -4 49 C-4 48.67 -4 48.34 -4 48 C-3.65066 48.04641 -3.30133 48.09281 -2.94141 48.14062 C-2.48637 48.17672 -2.03133 48.21281 -1.5625 48.25 C-1.11004 48.29641 -0.65758 48.34281 -0.19141 48.39062 C1.57867 47.81027 1.36046 46.79191 1.67554 45.10156 C2.04604 43.84368 2.52791 43.23377 3.41016 42.27344 C12.62368 31.95839 9.52819 12.30853 1.62622 1.97778 C1.09331 1.31109 0.5481 0.65426 0 0 Z " fill="#454240" transform="translate(192,142)"/>
<path d="M0 0 C-0.71998 1.90571 -1.43795 2.35035 -3.33594 3.00781 C-3.81797 3.1857 -4.3 3.36359 -4.79663 3.54688 C-5.31749 3.73766 -5.83835 3.92844 -6.375 4.125 C-10.9748 5.92248 -14.96007 8.06977 -18.9375 11 C-19.37304 11.31985 -19.80858 11.6397 -20.25732 11.96924 C-38.0946 25.56836 -55.99518 51.16211 -58 74 C-58.02602 74.27562 -58.02602 74.27562 -58.15771 75.67041 C-58.50329 79.44338 -58.78045 83.21769 -59 87 C-65.27387 85.5005 -64.36829 77.00413 -64.3125 71.6875 C-64.30968 71.29838 -64.30686 70.90927 -64.30396 70.50836 C-63.96117 38.63395 -48.47144 15.78587 -19 3 C-18.59298 2.82211 -18.18596 2.64422 -17.7666 2.46094 C-11.82143 -0.05068 -6.40374 -0.36096 0 0 Z " fill="#8D867F" transform="translate(151,14)"/>
<path d="M0 0 C-0.75 2 -0.75 2 -3 2 C-3.5625 3.20703 -3.5625 3.20703 -4 4.8125 C-4.49134 6.58923 -4.91491 7.87957 -5.98413 9.39282 C-7.05774 11.09135 -7.43814 12.35873 -7.81641 14.32031 C-7.9408 14.93777 -8.0652 15.55523 -8.19336 16.19141 C-8.31518 16.82949 -8.43699 17.46758 -8.5625 18.125 C-8.81045 19.39909 -9.06159 20.67257 -9.31641 21.94531 C-9.42412 22.5075 -9.53184 23.0697 -9.64282 23.64893 C-10.27286 26.03213 -11.24673 26.12805 -13.5127 26.18945 C-14.03704 26.20617 -14.56139 26.22289 -15.10162 26.24011 C-15.3865 26.2469 -15.3865 26.2469 -16.82812 26.28125 C-17.12113 26.29045 -17.12113 26.29045 -18.60394 26.33704 C-20.48586 26.39592 -22.36787 26.44861 -24.25 26.5 C-26.11784 26.55158 -27.98557 26.60465 -29.85321 26.66296 C-31.01622 26.69926 -32.17935 26.73177 -33.34259 26.75989 C-36.65881 26.86313 -39.77203 27.22521 -43 28 C-41.49095 23.67862 -38.32295 21.90108 -34.625 19.5625 C-33.97176 19.13955 -33.31911 18.7157 -32.66699 18.29102 C-31.23927 17.36348 -29.80798 16.44179 -28.37402 15.52393 C-25.79531 13.87176 -23.22935 12.20026 -20.66406 10.52734 C-16.78192 7.99663 -12.89656 5.47101 -9.00601 2.95323 C-8.82987 2.83913 -8.82987 2.83913 -7.93848 2.26172 C-7.60731 2.0487 -7.27614 1.83568 -6.93494 1.61621 C-6.32688 1.21545 -5.72664 0.80248 -5.13635 0.37598 C-3.09763 -1.08885 -2.29309 -1.09195 0 0 Z " fill="#847F7B" transform="translate(117,143)"/>
<path d="M0 0 C-0.697 1.82246 -1.19486 2.26201 -3.10938 2.59766 C-3.53477 2.67693 -3.96016 2.75621 -4.39844 2.83789 C-4.62145 2.87495 -4.62145 2.87495 -5.75 3.0625 C-6.18055 3.14049 -6.61109 3.21848 -7.05469 3.29883 C-7.93014 3.45741 -8.80622 3.61256 -9.68286 3.7644 C-10.97988 3.9964 -12.26843 4.25616 -13.55859 4.52344 C-15.80107 4.97749 -18.04053 5.29952 -20.3125 5.5625 C-20.6715 5.60568 -21.03051 5.64887 -21.40039 5.69336 C-22.26672 5.79732 -23.13333 5.89892 -24 6 C-21.83618 3.61255 -19.49752 2.88416 -16.5 1.875 C-16.23558 1.78557 -16.23558 1.78557 -14.89746 1.33301 C-9.86343 -0.2486 -5.22218 -0.41593 0 0 Z " fill="#7E7B76" transform="translate(151,14)"/>
<path d="M0 0 C-2.34857 2.90823 -4.69272 5.76401 -7.375 8.375 C-10.80304 11.71543 -13.88142 15.37315 -17 19 C-17.42343 15.90123 -16.0914 14.41647 -14.25 12.125 C-13.97487 11.77276 -13.69973 11.42053 -13.41626 11.05762 C-12.86593 10.35476 -12.31267 9.65418 -11.75635 8.95605 C-11.11927 8.15076 -10.50075 7.33082 -9.88672 6.50781 C-3.2454 -2.29262 -3.2454 -2.29262 0 0 Z " fill="#746E68" transform="translate(114,29)"/>
</svg>
