<?xml version="1.0" encoding="UTF-8"?>
<!-- Generator: visioncortex VTracer 0.6.12 -->
<svg version="1.1" xmlns="http://www.w3.org/2000/svg" width="341" height="475">
<path d="M0 0 C0.36416 -0.00701 0.72831 -0.01403 1.1035 -0.02126 C2.27616 -0.03869 3.44831 -0.04511 4.62109 -0.04688 C4.82199 -0.04721 4.82199 -0.04721 5.83862 -0.04892 C12.65688 -0.03076 18.66846 0.69105 25.05859 3.20312 C25.45917 3.34283 25.85975 3.48253 26.27246 3.62646 C44.43 10.08005 59.12714 32.45076 56.87891 51.77734 C56.11367 54.97557 53.79922 56.76424 51.43359 58.89062 C46.50501 63.58602 42.6377 68.42636 39.05859 74.20312 C38.76308 74.67605 38.46756 75.14897 38.16309 75.63623 C35.63301 79.74126 33.31151 83.94181 31.05859 88.20312 C30.85343 88.58986 30.64827 88.9766 30.43689 89.37506 C8.95142 130.05837 -1.36363 177.41142 -4.67627 231.11107 C-4.85616 234.89506 -5.39726 238.39412 -5.94141 242.20312 C4.28859 242.53313 14.51859 242.86312 25.05859 243.20312 C24.97609 240.83125 24.89359 238.45937 24.80859 236.01562 C24.31026 193.84777 32.88088 148.22365 51.05859 110.20312 C51.27767 109.74245 51.49675 109.28177 51.72247 108.80713 C53.1276 105.85983 54.56092 102.92862 56.02875 100.01202 C56.50464 99.06076 56.97417 98.10628 57.43707 97.14862 C58.08736 95.80974 58.76226 94.48646 59.44531 93.16406 C59.63473 92.76188 59.82415 92.35969 60.0193 91.94531 C61.73465 88.74069 63.60551 88.72318 67.05859 89.20312 C67.05859 89.86312 67.05859 90.52312 67.05859 91.20312 C67.71859 91.20312 68.37859 91.20312 69.05859 91.20312 C70.17627 92.12769 70.17627 92.12769 71.37891 93.40234 C71.8188 93.86044 72.25869 94.31854 72.71191 94.79053 C73.15632 95.25668 73.60072 95.72284 74.05859 96.20312 C74.86537 97.00445 75.67518 97.80275 76.48828 98.59766 C80.48578 102.54198 84.44921 106.50661 88.18359 110.70312 C88.47863 111.02902 88.77366 111.35491 89.07764 111.69067 C91.05859 113.96195 91.05859 113.96195 91.05859 116.20312 C91.71859 116.20312 92.37859 116.20312 93.05859 116.20312 C93.82011 116.80162 93.82011 116.80162 94.54565 117.6521 C94.81989 117.96877 95.09412 118.28544 95.37666 118.61171 C95.66744 118.96028 95.95822 119.30884 96.25781 119.66797 C96.56523 120.0285 96.87264 120.38903 97.18938 120.76048 C100.51289 124.68516 103.71896 128.70262 106.87109 132.76562 C107.17229 133.15363 107.47349 133.54164 107.78381 133.94141 C117.63663 146.67244 126.04216 159.96146 133.53516 174.20953 C134.01339 175.11731 134.49667 176.02242 134.98047 176.92725 C144.66838 195.28059 150.48147 219.45666 151.05859 240.20312 C151.08449 240.92758 151.11055 241.65202 151.13672 242.37646 C152.51061 283.40153 143.10475 325.36203 116.92969 357.83984 C114.2134 361.22205 111.65104 364.72582 109.05859 368.20312 C109.35546 368.25466 109.65232 368.3062 109.95818 368.3593 C138.48202 373.33579 138.48202 373.33579 148.05859 378.20312 C148.31439 378.33066 148.31439 378.33066 149.60889 378.97607 C168.16477 388.43782 176.4539 404.0434 179.05859 424.20312 C179.14447 424.85491 179.23035 425.5067 179.31883 426.17824 C180.02283 431.80638 180.20661 437.34824 180.19141 443.01562 C180.19208 443.9196 180.19305 444.82357 180.19431 445.72754 C180.19576 447.59979 180.19369 449.47199 180.18896 451.34424 C180.1832 453.74623 180.1866 456.14811 180.19254 458.55009 C180.19614 460.40648 180.19501 462.26284 180.19241 464.11923 C180.19174 465.00597 180.19256 465.89271 180.19489 466.77945 C180.19742 468.00928 180.19358 469.23893 180.18799 470.46875 C180.19001 470.8344 180.19204 471.20004 180.19412 471.57677 C180.17287 474.08885 180.17287 474.08885 179.05859 475.20312 C178.03949 475.3278 178.03949 475.3278 176.75431 475.32732 C176.5095 475.32845 176.5095 475.32845 175.27064 475.33413 C174.72779 475.33151 174.18494 475.32888 173.62564 475.32617 C173.33804 475.32675 173.33804 475.32675 171.88261 475.32967 C170.27404 475.33187 168.66556 475.32955 167.057 475.32539 C165.31158 475.32197 163.56616 475.32433 161.82074 475.32597 C158.75773 475.32805 155.69475 475.32639 152.63175 475.32233 C148.07714 475.31631 143.52254 475.31599 138.96793 475.31687 C131.30736 475.31819 123.64681 475.31484 115.98625 475.30886 C108.39811 475.30294 100.80998 475.29909 93.22183 475.298 C92.75055 475.29793 92.27926 475.29786 91.79369 475.29779 C89.40038 475.29746 87.00707 475.29715 84.61377 475.29687 C67.649 475.29477 50.68424 475.28802 33.71948 475.27856 C17.23543 475.26938 0.75139 475.2623 -15.73267 475.25806 C-16.24051 475.25793 -16.74836 475.25779 -17.2716 475.25766 C-22.37147 475.25634 -27.47135 475.25506 -32.57123 475.25382 C-42.96085 475.25128 -53.35047 475.24846 -63.7401 475.24547 C-64.21783 475.24533 -64.69555 475.24519 -65.18776 475.24505 C-97.10564 475.23585 -129.02353 475.22 -160.94141 475.20312 C-160.96064 471.42462 -160.97487 467.64611 -160.9835 463.86757 C-160.98766 462.11109 -160.99324 460.35466 -161.0027 458.59821 C-161.05459 448.68456 -160.77992 438.84852 -160.12891 428.95312 C-160.08991 428.35808 -160.05091 427.76304 -160.01073 427.14997 C-159.39221 417.92921 -158.43487 407.92223 -153.19141 400.01562 C-152.93102 399.60965 -152.67063 399.20368 -152.40234 398.7854 C-151.60478 397.57362 -150.78025 396.38661 -149.94141 395.20312 C-149.69971 394.85153 -149.45801 394.49994 -149.20898 394.1377 C-139.13854 379.87806 -121.15255 374.37577 -104.94141 370.89062 C-104.53613 370.803 -104.13085 370.71537 -103.71329 370.62509 C-99.08308 369.64062 -94.70311 368.91952 -89.94141 369.20312 C-91.40886 366.40816 -93.05492 364.01243 -95.19873 361.70312 C-124.3194 330.23904 -133.61125 279.65209 -127.94141 216.20312 C-127.87351 215.82132 -127.80561 215.43952 -127.73566 215.04614 C-122.77766 187.613 -110.22534 161.66612 -93.94141 139.20312 C-93.55888 138.67187 -93.17635 138.14062 -92.78223 137.59326 C-84.85633 126.65038 -76.25221 116.35769 -67.04614 106.47879 C-65.42713 104.7377 -63.83492 102.97482 -62.25391 101.19922 C-57.41247 95.7795 -52.41629 90.6258 -47.06641 85.70312 C-46.79532 85.45337 -46.52423 85.20361 -46.24493 84.94629 C-42.91855 81.89286 -39.50959 78.97199 -35.94141 76.20312 C-36.18375 75.84863 -36.42609 75.49414 -36.67578 75.12891 C-49.49019 54.77371 -45.3307 28.76172 -28.22998 12.3418 C-20.66493 5.65681 -10.27725 0.13359 0 0 Z " fill="#040402" transform="translate(160.94140625,-0.203125)"/>
<path d="M0 0 C1.65581 4.18559 2.00886 7.55936 -1.66333 10.63403 C-18.34813 26.50843 -29.44274 52.33697 -36.9458 73.73096 C-37.64081 75.68387 -38.36934 77.62188 -39.10474 79.55981 C-40.55185 83.38798 -41.87635 87.24873 -43.16333 91.13403 C-43.37151 91.75472 -43.5797 92.3754 -43.79419 93.01489 C-45.767 98.94568 -47.60048 104.83094 -48.60083 111.00903 C-49.05947 113.8161 -49.58521 116.57037 -50.31139 119.32243 C-51.60594 124.23785 -52.35938 129.16354 -53.03833 134.19653 C-53.14797 134.98565 -53.25799 135.77471 -53.36841 136.56372 C-53.55165 137.87609 -53.73236 139.18867 -53.90785 140.50211 C-54.28768 143.34101 -54.68917 146.17531 -55.11839 149.0071 C-57.37638 163.96393 -58.47809 178.84535 -59.28833 193.94653 C-59.72146 201.74278 -60.15458 209.53903 -60.60083 217.57153 C-41.79083 217.57153 -22.98083 217.57153 -3.60083 217.57153 C-3.22583 197.57153 -3.22583 197.57153 -3.1228 191.36841 C-2.92462 181.25375 -2.34634 171.38406 -0.86328 161.37274 C-0.52151 159.02714 -0.22341 156.67688 0.07547 154.3255 C3.31394 129.05083 8.34048 103.73537 19.39917 80.57153 C19.50157 80.35594 19.50157 80.35594 20.01978 79.26489 C20.6149 78.05514 21.2447 76.87504 21.89917 75.69653 C22.0765 75.34381 22.25382 74.99109 22.43652 74.62769 C23.69464 72.53983 24.63675 72.3781 26.80151 73.1106 C29.63216 74.49403 31.45889 76.43551 33.46167 78.82153 C33.83816 79.25554 34.21464 79.68956 34.60254 80.13672 C35.42978 81.09308 36.25277 82.05314 37.07202 83.01636 C38.46493 84.65399 39.88114 86.2707 41.29761 87.88794 C44.37615 91.41183 47.40192 94.97833 50.39917 98.57153 C50.61831 98.83345 50.83745 99.09538 51.06323 99.36523 C59.37467 109.3243 66.09815 120.24516 72.69543 131.3866 C73.32911 132.45356 73.96867 133.51665 74.61108 134.57837 C90.31488 160.66473 97.15266 191.38729 95.39917 221.57153 C95.38779 221.7677 95.38779 221.7677 95.3302 222.76044 C94.32471 238.93488 90.45943 256.53293 84.39917 271.57153 C84.27347 271.88655 84.14776 272.20156 84.01825 272.52612 C77.95403 287.67812 70.41236 301.91726 59.33618 314.03027 C57.14409 316.43564 55.23209 318.68575 53.77026 321.63403 C48.52775 331.59616 38.80198 329.06438 29.11903 328.07712 C10.69257 326.27664 -7.92384 326.4006 -26.41734 326.44276 C-28.25846 326.4466 -30.09958 326.44862 -31.9407 326.45023 C-45.81118 326.46451 -59.67562 326.51434 -73.53833 327.00903 C-74.11087 327.02826 -74.6834 327.04748 -75.27328 327.06729 C-80.82961 327.25779 -86.3662 327.53265 -91.90697 327.99553 C-94.23257 328.18588 -96.55982 328.34718 -98.88773 328.50662 C-100.47337 328.62902 -102.04901 328.79758 -103.62988 328.96973 C-110.90592 329.58369 -113.77942 327.58806 -117.84073 321.6553 C-118.77208 320.32736 -119.79944 319.11241 -120.85922 317.88635 C-128.1733 309.41425 -134.24127 300.3773 -139.60083 290.57153 C-139.76347 290.27676 -139.92612 289.98199 -140.09369 289.67828 C-147.57751 276.10313 -151.98454 261.79844 -155.14673 246.71021 C-155.4363 245.32979 -155.74065 243.95448 -156.06274 242.5813 C-161.57858 218.88335 -160.03032 192.87081 -153.60083 169.57153 C-153.49426 169.1802 -153.38769 168.78887 -153.27789 168.38568 C-147.61545 147.82817 -136.96963 127.83739 -124.60083 110.57153 C-124.36042 110.23462 -124.12001 109.89772 -123.87231 109.5506 C-108.56931 88.14936 -90.79344 67.50428 -70.60083 50.57153 C-69.84327 49.93075 -69.08571 49.28996 -68.32829 48.649 C-67.23511 47.72509 -66.13978 46.80377 -65.04367 45.88333 C-64.50273 45.42906 -63.96213 44.97438 -63.42191 44.51926 C-62.66301 43.88092 -61.9015 43.2457 -61.13989 42.6106 C-60.69855 42.24144 -60.25721 41.87229 -59.80249 41.49194 C-58.60083 40.57153 -58.60083 40.57153 -57.44214 40.06909 C-56.60083 39.57153 -56.60083 39.57153 -56.60083 37.57153 C-57.44849 36.63403 -57.44849 36.63403 -58.66333 35.57153 C-71.72669 22.95606 -74.95533 5.91321 -64.53833 -9.55347 C-45.52138 -35.85623 -11.98069 -28.27545 0 0 Z " fill="#F5F5F6" transform="translate(201.600830078125,39.428466796875)"/>
<path d="M0 0 C1.26166 -0.00572 2.5233 -0.01274 3.78495 -0.02008 C9.68508 -0.05363 15.58516 -0.07012 21.48538 -0.07784 C22.89817 -0.07982 24.31094 -0.0824 25.72372 -0.08508 C49.25784 -0.12638 72.68547 0.0195 96.14413 2.10769 C96.3904 2.12954 96.3904 2.12954 97.63666 2.2401 C103.30223 2.74809 108.95803 3.32624 114.60989 3.96841 C116.59625 4.19393 118.58375 4.40658 120.57192 4.61546 C122.12357 4.77952 123.67456 4.94927 125.22542 5.12063 C125.93599 5.19846 126.64675 5.27457 127.35771 5.34868 C132.10646 5.84781 136.40336 6.82967 140.95663 8.23269 C141.75975 8.44068 142.56411 8.64404 143.37069 8.83816 C159.01991 12.83585 170.72778 21.2996 176.95663 36.23269 C177.07393 36.48792 177.07393 36.48792 177.66757 37.77957 C182.66653 50.09586 179.95663 74.03681 179.95663 84.23269 C76.99663 84.23269 -25.96337 84.23269 -132.04337 84.23269 C-132.04337 60.6351 -132.04337 60.6351 -131.4086 53.8738 C-131.2898 52.56851 -131.19785 51.26277 -131.10587 49.95535 C-130.44974 41.96391 -127.92283 34.17069 -123.29337 27.54519 C-123.04007 27.18055 -122.78677 26.8159 -122.52579 26.44021 C-110.32128 9.61122 -89.50628 6.2498 -70.20304 4.51834 C-67.54044 4.27944 -64.879 4.02936 -62.2177 3.77652 C-58.64237 3.43693 -55.06656 3.10269 -51.49057 2.77011 C-50.14384 2.64461 -48.7972 2.51813 -47.45058 2.39143 C-31.63241 0.92355 -15.88367 0.06923 0 0 Z " fill="#F7F6F7" transform="translate(145.0433702468872,376.76730942726135)"/>
<path d="M0 0 C14.59456 17.02028 22.42033 39.63963 28 61 C28.09195 61.34337 28.18389 61.68675 28.27863 62.04053 C35.83613 90.3128 30.83466 125.11369 20 152 C19.8743 152.31501 19.74859 152.63003 19.61908 152.95459 C13.55486 168.10659 6.01319 182.34573 -5.06299 194.45874 C-7.25508 196.86411 -9.16708 199.11422 -10.62891 202.0625 C-16.19313 212.63595 -27.67304 209.3336 -37.83887 208.30225 C-41.97558 207.89014 -46.11273 207.70414 -50.26587 207.55115 C-51.64301 207.49932 -53.01969 207.44018 -54.39648 207.37988 C-73.25026 206.58349 -92.13411 206.37182 -111 206 C-111 205.67 -111 205.34 -111 205 C-110.83571 205.0004 -110.83571 205.0004 -110.0043 205.00241 C-106.53076 205.00488 -103.05939 204.965 -99.58643 204.90234 C-98.29682 204.88437 -97.00702 204.87658 -95.71729 204.87988 C-87.0775 204.89331 -81.06719 203.97779 -74.05835 198.77667 C-72.77695 197.83632 -71.44961 196.99189 -70.10379 196.14777 C-68.61348 195.20926 -67.15101 194.22958 -65.6875 193.25 C-65.37396 193.04035 -65.06041 192.83069 -64.73737 192.61469 C-55.23904 186.24224 -46.29921 179.36773 -37.875 171.625 C-37.59856 171.37188 -37.32211 171.11876 -37.03729 170.85797 C-34.28567 168.32651 -31.65418 165.86149 -29.64502 162.67725 C-29 162 -29 162 -27 162 C-26.53288 161.08739 -26.07417 160.16976 -25.65234 159.23535 C-24.61471 157.27037 -23.18001 155.65647 -21.77661 153.94238 C-9.50751 138.9556 -0.44661 120.5828 4.3125 101.8125 C4.45994 101.23226 4.60737 100.65202 4.75928 100.0542 C5.22821 98.04488 5.63238 96.02977 6 94 C6.04323 93.76187 6.04323 93.76187 6.26202 92.55679 C7.83739 83.57146 8.32018 74.76135 8.26074 65.6687 C8.24937 63.91653 8.25614 62.16497 8.26761 60.41282 C8.34604 46.31873 6.33447 32.78468 3.4375 19 C2.99585 16.87558 2.55729 14.75054 2.12109 12.625 C2.07011 12.37722 2.07011 12.37722 1.8121 11.12329 C1.0625 7.43078 0.44887 3.74248 0 0 Z " fill="#BDBDBC" transform="translate(266,159)"/>
<path d="M0 0 C4.09543 2.0084 6.30174 4.30045 8.625 8.1875 C8.77389 8.43021 8.77389 8.43021 9.52734 9.65845 C17.08089 22.28443 17.08089 22.28443 13.08984 27.09766 C12.70957 27.41605 12.3293 27.73445 11.9375 28.0625 C-4.7473 43.93689 -15.84191 69.76544 -23.34497 91.15942 C-24.03998 93.11234 -24.76851 95.05035 -25.50391 96.98828 C-26.95102 100.81645 -28.27552 104.6772 -29.5625 108.5625 C-29.77068 109.18318 -29.97887 109.80387 -30.19336 110.44336 C-32.16617 116.37415 -33.99965 122.25941 -35 128.4375 C-35.45864 131.24456 -35.98438 133.99884 -36.71056 136.7509 C-38.00511 141.66631 -38.75855 146.592 -39.4375 151.625 C-39.54714 152.41412 -39.65716 153.20318 -39.76758 153.99219 C-39.95075 155.3042 -40.13144 156.61642 -40.30702 157.92947 C-40.68766 160.77286 -41.08931 163.61184 -41.51756 166.44839 C-43.658 180.68033 -44.81581 194.85919 -45.59668 209.22516 C-45.7514 212.03589 -45.91626 214.84603 -46.08008 217.65625 C-46.39622 223.10365 -46.70182 228.55159 -47 234 C-47.50596 233.54825 -48.00459 233.0883 -48.5 232.625 C-48.77844 232.36977 -49.05687 232.11453 -49.34375 231.85156 C-50 231 -50 231 -50 229 C-50.59684 228.78086 -51.19367 228.56172 -51.80859 228.33594 C-55.21335 226.78573 -55.93443 222.91529 -57.0625 219.625 C-57.32136 218.90094 -57.58072 218.17707 -57.84058 217.45337 C-59.9761 211.41916 -61.79739 205.29246 -63 199 C-63.09354 198.53449 -63.18708 198.06897 -63.28345 197.58936 C-64.38568 191.21012 -64.28736 184.70458 -64.3125 178.25 C-64.31512 177.60849 -64.31774 176.96698 -64.32043 176.30603 C-64.324 168.14076 -64.0104 160.23956 -62.25 152.25 C-62.1715 151.88475 -62.093 151.5195 -62.01212 151.14319 C-60.8343 145.84584 -58.80845 141.08423 -56.53351 136.17566 C-55.62725 134.1786 -54.79477 132.15152 -53.95703 130.125 C-49.65156 119.79002 -44.98468 109.8348 -39.61876 100.01152 C-37.85814 96.77299 -36.22723 93.47558 -34.60501 90.16617 C-31.41958 83.67157 -28.01467 77.32214 -24.5 71 C-20.27517 63.39697 -16.25897 55.72774 -12.44566 47.91093 C-11.28842 45.55196 -10.07165 43.22881 -8.83594 40.91016 C-1.63361 27.31982 0.57726 15.30767 0 0 Z " fill="#BEBEBC" transform="translate(188,22)"/>
<path d="M0 0 C0.02349 3.60841 0.0411 7.2168 0.05181 10.82527 C0.05696 12.50204 0.06448 14.17872 0.07544 15.85547 C0.12495 23.63738 0.01009 31.27687 -1 39 C1.33322 39 1.25468 38.98753 2 37 C2 38.32 2 39.64 2 41 C2.66 41 3.32 41 4 41 C4 41.66 4 42.32 4 43 C4.65143 42.92921 5.30286 42.85842 5.97403 42.78548 C13.09844 42.05122 20.13668 41.86009 27.29436 41.87975 C28.49592 41.87931 29.69748 41.87843 30.89904 41.87716 C33.49029 41.8754 36.08151 41.87669 38.67275 41.88079 C42.52571 41.88688 46.37865 41.88713 50.2316 41.88625 C56.71596 41.88494 63.2003 41.88826 69.68465 41.89427 C76.09785 41.9002 82.51105 41.90404 88.92425 41.90512 C89.1242 41.90516 89.1242 41.90516 90.13606 41.90533 C92.16724 41.90567 94.19841 41.90597 96.22959 41.90626 C110.58771 41.90835 124.94583 41.91508 139.30396 41.92456 C153.24601 41.93376 167.18807 41.94083 181.13013 41.94507 C181.56046 41.9452 181.9908 41.94533 182.43417 41.94547 C186.75608 41.94679 191.07799 41.94806 195.39989 41.94931 C204.20282 41.95184 213.00574 41.95466 221.80867 41.95766 C222.01101 41.95773 222.01101 41.95773 223.03496 41.95807 C250.02331 41.96726 277.01166 41.98313 304 42 C304.33 40.02 304.66 38.04 305 36 C306.28571 40.28571 306.28571 40.28571 305 42 C305.66 42 306.32 42 307 42 C307 40.35 307 38.7 307 37 C307.33 37 307.66 37 308 37 C308 39.97 308 42.94 308 46 C205.04 46 102.08 46 -4 46 C-4 22.90664 -4 22.90664 -3.20044 15.31152 C-3.05622 13.94029 -2.92673 12.56815 -2.79883 11.19531 C-2.71172 10.2968 -2.62387 9.39836 -2.53516 8.5 C-2.49657 8.10216 -2.45798 7.70433 -2.41823 7.29443 C-1.64206 0 -1.64206 0 0 0 Z " fill="#DFE7E4" transform="translate(17,415)"/>
<path d="M0 0 C4.09543 2.0084 6.30174 4.30045 8.625 8.1875 C8.77389 8.43021 8.77389 8.43021 9.52734 9.65845 C17.08089 22.28443 17.08089 22.28443 13.08984 27.09766 C12.89971 27.25686 12.89971 27.25686 11.9375 28.0625 C-3.89323 43.12431 -15.13104 67.8675 -22.2373 88.22681 C-22.35108 88.54991 -22.46486 88.87302 -22.58209 89.20592 C-22.88586 90.07452 -23.18245 90.94563 -23.47852 91.81689 C-24 93 -24 93 -25 93 C-25.05451 91.5828 -25.09389 90.16775 -25.125 88.75 C-25.13338 88.55213 -25.13338 88.55213 -25.17578 87.55078 C-25.22078 84.8058 -24.89391 82.13378 -23 80 C-22.34 80 -21.68 80 -21 80 C-20.98018 79.65743 -20.96036 79.31486 -20.93994 78.96191 C-20.84392 77.39058 -20.73457 75.82044 -20.625 74.25 C-20.59406 73.71117 -20.56313 73.17234 -20.53125 72.61719 C-20.28624 69.26878 -19.71507 66.87139 -18 64 C-17.68491 63.38283 -17.37498 62.763 -17.07031 62.14062 C-16.58507 61.16911 -16.09885 60.19815 -15.60986 59.22852 C-14.68853 57.3977 -13.78898 55.5603 -12.92188 53.70312 C-12.83414 53.51863 -12.83414 53.51863 -12.39014 52.58496 C-12.05188 51.87254 -11.71994 51.15708 -11.39502 50.43848 C-10.22489 48 -10.22489 48 -8 48 C-7.72656 47.1875 -7.72656 47.1875 -7.625 46 C-7.29662 43.82901 -6.63207 42.20604 -5.55371 40.29517 C-3.3796 36.4368 -2.56736 33.1785 -2.29517 28.76929 C-2.12274 26.00258 -1.6749 23.54049 -0.9375 20.875 C0.82547 14.17887 0.16442 6.86882 0 0 Z " fill="#BAB9B5" transform="translate(188,22)"/>
<path d="M0 0 C1.50465 2.05693 2.31211 3.69397 2.78125 6.19531 C2.90009 6.82002 3.01892 7.44474 3.14136 8.08838 C3.26167 8.76712 3.38119 9.446 3.5 10.125 C3.56281 10.47359 3.62562 10.82218 3.69034 11.18134 C4.6095 16.2966 5.40791 21.42971 6.05664 26.58636 C6.18057 27.57001 6.3108 28.55286 6.44141 29.53564 C7.78323 41.03083 6.99187 52.54288 5.6875 64 C5.61998 64.6114 5.55245 65.2228 5.48288 65.85272 C4.56415 74.12929 3.45524 82.21448 1.40479 90.29492 C0.9345 92.2759 0.54911 94.26599 0.16797 96.26562 C-1.35982 104.1285 -3.28973 111.51702 -6.5 118.875 C-6.64353 119.20997 -6.78706 119.54495 -6.93494 119.89008 C-8.49621 123.48645 -10.11657 126.4385 -13.05859 129.09229 C-14.61955 130.59738 -15.65614 132.39249 -16.75 134.25 C-16.97043 134.61352 -17.19086 134.97703 -17.41797 135.35156 C-17.95044 136.23129 -18.47599 137.1152 -19 138 C-20.32638 133.77889 -20.32638 133.77889 -18.75 131.4375 C-18.49734 131.04434 -18.24469 130.65117 -17.98438 130.24609 C-17 129 -17 129 -16.24048 128.35596 C-13.69195 126.17936 -13.53803 124.25525 -13.4375 121 C-13.215 115.3963 -13.215 115.3963 -11 113 C-10.34 113 -9.68 113 -9 113 C-8.95102 112.38512 -8.90203 111.77023 -8.85156 111.13672 C-8.77649 110.32027 -8.70094 109.50387 -8.625 108.6875 C-8.59406 108.28338 -8.56313 107.87926 -8.53125 107.46289 C-8.26497 104.73355 -7.58872 103.27999 -6 101 C-5.43831 99.26964 -5.12674 97.48259 -4.78906 95.69727 C-4.20857 93 -4.20857 93 -2 93 C-1.67 87.39 -1.34 81.78 -1 76 C-0.34 76 0.32 76 1 76 C1.49903 74.70841 1.80133 73.59781 2.0625 72.25 C2.13881 71.86333 2.21512 71.47665 2.29375 71.07826 C4.02307 61.77665 4.1866 52.2817 4.1853 42.84595 C4.18749 41.06698 4.20577 39.28863 4.22461 37.50977 C4.32703 16.32703 4.32703 16.32703 1 13 C0.79468 11.69312 0.79468 11.69312 0.68359 10.05859 C0.6417 9.47529 0.5998 8.89199 0.55664 8.29102 C0.51732 7.67936 0.47801 7.0677 0.4375 6.4375 C0.39432 5.82197 0.35113 5.20645 0.30664 4.57227 C0.20033 3.04841 0.0983 1.52439 0 0 Z " fill="#1D1C0C" transform="translate(304,207)"/>
<path d="M0 0 C0.11602 0.51176 0.23203 1.02352 0.35156 1.55078 C1.34517 3.77143 2.59489 2.99463 4.625 2.5 C8.70908 1.7293 14.2355 2.1788 16.69141 6.10547 C16.74232 6.25307 16.74232 6.25307 17 7 C17.07605 6.6932 17.15211 6.38641 17.23047 6.07031 C18.48275 4.32856 20.28367 4.27103 22.3125 3.875 C22.70373 3.78863 23.09496 3.70227 23.49805 3.61328 C30.56799 2.13598 30.56799 2.13598 31.75 4.5 C32 6 32 6 28 8 C31.59953 10.16335 35.12246 10.61325 39.25 11.125 C39.89969 11.21137 40.54937 11.29773 41.21875 11.38672 C42.81178 11.59756 44.40536 11.80179 46 12 C46 12.33 46 12.66 46 13 C45.45924 12.97494 44.91848 12.94989 44.36133 12.92407 C39.1411 12.68271 33.92067 12.44625 28.70007 12.21317 C25.82487 12.0842 22.95003 11.94991 20.07544 11.80798 C-1.93265 10.72949 -23.97194 10.43414 -46 10 C-46 9.67 -46 9.34 -46 9 C-45.67142 9.0008 -45.34284 9.00159 -45.0043 9.00241 C-41.53076 9.00488 -38.05939 8.965 -34.58643 8.90234 C-33.29682 8.88437 -32.00702 8.87658 -30.71729 8.87988 C-21.97892 8.89346 -16.21591 7.87026 -9.1076 2.71222 C-6.6112 1.10697 -2.9939 -0.74848 0 0 Z M15 8 C16 10 16 10 16 10 Z " fill="#B5B7B4" transform="translate(201,355)"/>
<path d="M0 0 C0.88388 2.8751 1.06757 4.95473 0.36328 7.90625 C0.2842 8.26731 0.20512 8.62837 0.12364 9.00037 C-0.13632 10.16957 -0.4106 11.3347 -0.6875 12.5 C-0.78092 12.90283 -0.87433 13.30566 -0.97058 13.7207 C-2.57609 20.63294 -4.37719 27.3947 -7 34 C-7.06339 34.15964 -7.06339 34.15964 -7.38416 34.96753 C-13.92163 51.32964 -22.35197 65.57538 -34.04083 78.75931 C-36.34832 81.3708 -38.52434 84.08127 -40.6875 86.8125 C-41.02668 87.23966 -41.36587 87.66683 -41.71533 88.10693 C-42.47857 89.06998 -43.24027 90.03418 -44 91 C-44.33 89.68 -44.66 88.36 -45 87 C-44.34 87 -43.68 87 -43 87 C-43.03094 86.77312 -43.03094 86.77312 -43.1875 85.625 C-43 84 -43 84 -41.59375 83.1875 C-39.41422 81.56354 -39.03974 79.91837 -38.3125 77.375 C-38.18295 76.95477 -38.0534 76.53453 -37.91992 76.10156 C-37.60361 75.07063 -37.30047 74.03566 -37 73 C-37.66 72.67 -38.32 72.34 -39 72 C-38.71842 71.32901 -38.42438 70.66324 -38.125 70 C-37.96258 69.62875 -37.80016 69.2575 -37.63281 68.875 C-37 68 -37 68 -35 68 C-34.4375 67.125 -34.4375 67.125 -34 66 C-33.22222 64 -33.22222 64 -31 64 C-30.375 63 -30.375 63 -30 62 C-30 63.32 -30 64.64 -30 66 C-29.18134 65.23571 -28.3703 64.46326 -27.5625 63.6875 C-27.11004 63.25824 -26.65758 62.82898 -26.19141 62.38672 C-25 61 -25 61 -24.46484 59.33203 C-24 58 -24 58 -22 58 C-22 57.34 -22 56.68 -22 56 C-21.3412 55.65138 -20.67346 55.3194 -20 55 C-19.40698 53.97458 -19.00063 52.93907 -18.5625 51.83984 C-18 51 -18 51 -16 51 C-16 49.68 -16 48.36 -16 47 C-15.34 47 -14.68 47 -14 47 C-14.165 45.35 -14.165 45.35 -15 37 C-14.34 37 -13.68 37 -13 37 C-13.04125 36.52562 -13.0825 36.05125 -13.125 35.5625 C-13 34 -13 34 -12.02734 33.53638 C-10.65595 32.82037 -10.67082 32.35063 -10.4375 30.85547 C-10.36273 30.42557 -10.28797 29.99566 -10.21094 29.55273 C-10.14133 29.10221 -10.07172 28.65168 -10 28.1875 C-9.52636 25.20091 -8.98218 22.66597 -7.53076 19.99878 C-6.55852 18.16923 -5.82699 16.23589 -5.0625 14.3125 C-4.89138 13.88405 -4.72025 13.4556 -4.54395 13.01416 C-2.85634 8.73229 -1.39771 4.38374 0 0 Z " fill="#B6B6B2" transform="translate(293,277)"/>
<path d="M0 0 C0.33 1.32 0.66 2.64 1 4 C1.21656 3.7525 1.21656 3.7525 2.3125 2.5 C3.83549 0.95525 4.80064 0.68581 7 1 C5.75703 4.47273 4.20507 7.34562 2.125 10.375 C-6.41489 23.35732 -13.54308 37.66363 -18.91406 52.23438 C-19.71906 54.39719 -20.59598 56.17091 -22 58 C-22.05451 56.5828 -22.09389 55.16775 -22.125 53.75 C-22.14176 53.35426 -22.15852 52.95852 -22.17578 52.55078 C-22.22078 49.8058 -21.89391 47.13378 -20 45 C-19.34 45 -18.68 45 -18 45 C-17.98018 44.65743 -17.96036 44.31486 -17.93994 43.96191 C-17.84392 42.39058 -17.73457 40.82044 -17.625 39.25 C-17.60953 38.98059 -17.60953 38.98059 -17.53125 37.61719 C-17.28624 34.26878 -16.71507 31.87139 -15 29 C-14.68491 28.38283 -14.37498 27.763 -14.07031 27.14062 C-13.58507 26.16911 -13.09885 25.19815 -12.60986 24.22852 C-11.68853 22.3977 -10.78898 20.5603 -9.92188 18.70312 C-9.83414 18.51863 -9.83414 18.51863 -9.39014 17.58496 C-9.05188 16.87254 -8.71994 16.15708 -8.39502 15.43848 C-7.22489 13 -7.22489 13 -5 13 C-4.72656 12.1875 -4.72656 12.1875 -4.625 11 C-4.01191 6.98602 -1.88863 3.54009 0 0 Z " fill="#ABA9A2" transform="translate(185,57)"/>
<path d="M0 0 C1.53106 2.15192 2.25507 3.32182 2 6 C1.34 6 0.68 6 0 6 C-0.03738 6.4241 -0.07477 6.8482 -0.11328 7.28516 C-0.57311 11.38755 -1.5074 14.61723 -3.25 18.37891 C-3.88959 19.76136 -4.42503 21.13032 -4.9375 22.5625 C-5.90688 25.00566 -7.2943 27.03626 -8.79688 29.18359 C-9.76052 30.59394 -10.61283 32.04818 -11.45312 33.53516 C-11.70868 33.98222 -11.96424 34.42928 -12.22754 34.88989 C-12.73278 35.77949 -13.2299 36.67376 -13.71777 37.573 C-15.23778 40.22374 -16.39465 41.40234 -19.21484 42.56982 C-20.52374 43.28695 -20.26994 44.08356 -20 45.4375 C-19.73353 48.43089 -21.18893 49.99458 -24 51 C-25.13281 50.57031 -25.13281 50.57031 -26 50 C-25.93813 50.63937 -25.87625 51.27875 -25.8125 51.9375 C-25.79868 53.88621 -25.79868 53.88621 -27.4375 54.8125 C-29 55 -29 55 -30 54 C-30.33 54.66 -30.66 55.32 -31 56 C-30.34 56.33 -29.68 56.66 -29 57 C-29.66 57 -30.32 57 -31 57 C-31.52734 57.76953 -31.52734 57.76953 -31.9375 58.8125 C-34.10288 63.49038 -37.13196 64.6609 -42 66 C-40.60991 62.83755 -39.015 60.77887 -36.5 58.4375 C-33.04006 55.173 -33.04006 55.173 -31.90625 53.28516 C-31 52 -31 52 -29 52 C-28.53288 51.08739 -28.07417 50.16976 -27.65234 49.23535 C-26.61471 47.27037 -25.18001 45.65647 -23.77661 43.94238 C-13.05607 30.84718 -5.9715 15.73318 0 0 Z " fill="#C4C6C4" transform="translate(268,269)"/>
<path d="M0 0 C2.96858 1.2249 4.19991 2.29987 6 5 C7.00781 5.53125 7.00781 5.53125 8.125 6 C10.36392 6.98055 10 7.63628 10 10 C10.83984 10.49609 10.83984 10.49609 11.9375 10.9375 C13.8 11.69678 14.22647 12.12612 14.5 14.125 C15.07037 16.26388 15.07037 16.26388 17.0625 16.25 C17.70188 16.1675 18.34125 16.085 19 16 C18.99098 16.48211 18.98195 16.96422 18.97266 17.46094 C19.21668 22.65964 20.37595 23.81881 25.50391 24.61328 C27 25 27 25 27 27 C27.66 27 28.32 27 29 27 C29 28.32 29 29.64 29 31 C29.99 31 30.98 31 32 31 C32 31.66 32 32.32 32 33 C31.34 33 30.68 33 30 33 C30 33.66 30 34.32 30 35 C31.98 35 33.96 35 36 35 C36 35.33 36 35.66 36 36 C28.00631 37.15804 24.68773 35.96573 20.06348 29.44727 C18.81705 27.75103 17.49229 26.13496 16.14844 24.51562 C11.39666 18.76609 6.76675 12.9829 2.75 6.6875 C2.46254 6.23786 2.17508 5.78822 1.87891 5.32495 C0 2.27113 0 2.27113 0 0 Z " fill="#EAE9EC" transform="translate(64,332)"/>
<path d="M0 0 C12.95815 -0.12352 25.91635 -0.20424 38.875 -0.25 C39.35296 -0.25174 39.83092 -0.25347 40.32337 -0.25526 C65.03832 -0.34268 89.61753 -0.24207 114.25 2 C114.77599 2.04783 115.30197 2.09566 115.84389 2.14494 C121.90284 2.70127 127.95464 3.31129 134 4 C134 4.33 134 4.66 134 5 C122.42698 5.11996 110.87851 5.00539 99.3125 4.5625 C98.76031 4.54285 98.20812 4.5232 97.63919 4.50296 C96.0678 4.44598 94.49682 4.3824 92.92578 4.31641 C92.45586 4.29969 91.98593 4.28297 91.50177 4.26575 C91.06846 4.24581 90.63516 4.22587 90.18872 4.20532 C89.81238 4.18978 89.43604 4.17423 89.04829 4.15822 C88 4 88 4 87.07882 3.50239 C85.86919 2.93908 85.01941 2.84958 83.69061 2.8036 C83.2282 2.78545 82.76579 2.76731 82.28936 2.74861 C82.03714 2.74114 82.03714 2.74114 80.76074 2.70337 C80.22613 2.6841 79.69151 2.66483 79.14069 2.64498 C77.35955 2.58251 75.57827 2.52732 73.79688 2.47266 C72.53766 2.43102 71.27844 2.38927 70.01923 2.34743 C56.41288 1.90839 42.80234 1.67757 29.1908 1.46777 C25.87716 1.41609 22.56359 1.3612 19.25 1.30664 C12.83338 1.20144 6.41671 1.09943 0 1 C0 0.67 0 0.34 0 0 Z " fill="#AFB0AA" transform="translate(128,377)"/>
<path d="M0 0 C0.33 0 0.66 0 1 0 C1.02506 0.4585 1.05011 0.91701 1.07593 1.3894 C1.17187 3.11355 1.27105 4.83744 1.37231 6.56128 C1.41525 7.30307 1.45695 8.04493 1.49731 8.78687 C1.8775 15.74749 1.8775 15.74749 2.53516 18.60547 C3.21193 21.5983 3.06968 24.57307 3 27.625 C2.97437 28.76292 2.95338 29.90096 2.9375 31.03906 C2.9259 31.53616 2.9143 32.03325 2.90234 32.54541 C3.01118 34.16653 3.42842 35.48498 4 37 C4.33 36.835 4.33 36.835 6 36 C6.02506 36.31228 6.05011 36.62455 6.07593 36.94629 C6.19302 38.38116 6.31523 39.81556 6.4375 41.25 C6.47682 41.74113 6.51613 42.23227 6.55664 42.73828 C7.27196 50.992 7.27196 50.992 10.9375 53.125 C16.26873 56.29492 16.26873 56.29492 16.19531 60.03906 C16.18887 60.61914 16.18242 61.19922 16.17578 61.79688 C16.15902 62.40016 16.14227 63.00344 16.125 63.625 C16.11598 64.23602 16.10695 64.84703 16.09766 65.47656 C16.07409 66.98477 16.0412 68.49219 16 70 C15.90203 69.73445 15.80406 69.46891 15.70312 69.19531 C14.81527 67.09814 14.28256 65.94558 12.06641 65.21094 C8.73238 63.78714 8.02631 59.80077 6.9375 56.625 C6.67864 55.90094 6.41928 55.17707 6.15942 54.45337 C2.41715 43.87906 -0.19491 33.24501 -0.09766 21.97266 C-0.09624 21.33888 -0.09483 20.70509 -0.09337 20.05211 C-0.08877 18.39338 -0.07984 16.73475 -0.06866 15.07605 C-0.05831 13.37298 -0.05384 11.66989 -0.04883 9.9668 C-0.03789 6.64449 -0.02121 3.32225 0 0 Z " fill="#C8C6C4" transform="translate(124,185)"/>
<path d="M0 0 C1.32812 4.25 1.32812 4.25 -0.375 6 C-1.5182 7.32343 -2.18116 8.21161 -2.5 9.9375 C-3.11743 13.10026 -4.53191 17 -8 17 C-8.12375 17.45375 -8.2475 17.9075 -8.375 18.375 C-9.09892 20.2572 -9.30598 20.27274 -11.0625 21 C-13.30612 21.98912 -13.18184 22.54515 -13 25 C-14.24854 29.7242 -16.75068 36.38797 -22.25 36.375 C-23.17019 36.27934 -24.08948 36.16389 -25 36 C-23.64481 32.10185 -21.75668 28.8381 -19.4375 25.4375 C-19.08961 24.92228 -18.74173 24.40706 -18.3833 23.87622 C-12.71984 15.5699 -6.72044 7.48472 0 0 Z " fill="#262312" transform="translate(83,121)"/>
<path d="M0 0 C1.31607 0.44968 2.62718 0.90911 3.9375 1.375 C4.31068 1.50133 4.68387 1.62766 5.06836 1.75781 C8.44525 2.97471 8.44525 2.97471 9 5 C9.07605 4.6932 9.15211 4.38641 9.23047 4.07031 C10.48275 2.32856 12.28367 2.27103 14.3125 1.875 C14.70373 1.78863 15.09496 1.70227 15.49805 1.61328 C22.56799 0.13598 22.56799 0.13598 23.75 2.5 C24 4 24 4 20 6 C23.59953 8.16335 27.12246 8.61325 31.25 9.125 C31.89969 9.21137 32.54937 9.29773 33.21875 9.38672 C34.81178 9.59756 36.40536 9.80179 38 10 C38 10.33 38 10.66 38 11 C37.45924 10.97494 36.91848 10.94989 36.36133 10.92407 C21.57592 10.24023 6.78881 9.60565 -8 9 C-8 8.67 -8 8.34 -8 8 C-7.68676 7.96971 -7.68676 7.96971 -6.10156 7.81641 C-5.27602 7.73198 -4.4505 7.64733 -3.625 7.5625 C-3.2125 7.52318 -2.8 7.48387 -2.375 7.44336 C-1.97539 7.40146 -1.57578 7.35957 -1.16406 7.31641 C-0.79749 7.27975 -0.43091 7.24309 -0.05322 7.20532 C1.09976 6.98055 1.97696 6.56813 3 6 C2.69707 5.94465 2.39414 5.8893 2.08203 5.83228 C0.72038 5.58063 -0.63977 5.32168 -2 5.0625 C-2.47695 4.97549 -2.95391 4.88848 -3.44531 4.79883 C-3.89648 4.71182 -4.34766 4.6248 -4.8125 4.53516 C-5.02197 4.49588 -5.02197 4.49588 -6.08203 4.29712 C-7 4 -7 4 -7 3 C-5.845 2.835 -5.845 2.835 0 2 C0 1.34 0 0.68 0 0 Z M7 6 C8 8 8 8 8 8 Z " fill="#ABADA8" transform="translate(209,357)"/>
<path d="M0 0 C4.09543 2.0084 6.30174 4.30045 8.625 8.1875 C8.92277 8.67291 9.22055 9.15833 9.52734 9.65845 C15.835 20.2019 15.835 20.2019 14 26 C12.0176 25.8348 11.09669 25.68059 10.80078 23.59766 C10.81166 22.05608 10.87316 20.53618 11 19 C10.85176 19.09732 10.85176 19.09732 10.10156 19.58984 C8.08118 20.34211 7.27604 18.45004 6 17 C6.66 18.65 7.32 20.3 8 22 C3.351 23.46811 3.351 23.46811 2.45117 22.26807 C1.10635 19.62386 0.67215 17.40089 0.58594 14.45312 C0.56657 14.03706 0.54721 13.62099 0.52725 13.19232 C0.46802 11.87842 0.42131 10.56442 0.375 9.25 C0.33677 8.35283 0.29771 7.45569 0.25781 6.55859 C0.16237 4.37268 0.07814 2.1866 0 0 Z " fill="#B0B0AD" transform="translate(188,22)"/>
<path d="M0 0 C0.88388 2.8751 1.06757 4.95473 0.36328 7.90625 C0.2842 8.26731 0.20512 8.62837 0.12364 9.00037 C-0.13632 10.16957 -0.4106 11.3347 -0.6875 12.5 C-0.78092 12.90283 -0.87433 13.30566 -0.97058 13.7207 C-3.40393 24.19708 -6.85622 33.91465 -11.1875 43.75 C-11.36785 44.16089 -11.5482 44.57178 -11.73401 44.99512 C-12.24833 46.16068 -12.76918 47.32304 -13.29297 48.48438 C-13.45011 48.83997 -13.60725 49.19557 -13.76915 49.56195 C-14.88417 52 -14.88417 52 -16 52 C-16 50.35 -16 48.7 -16 47 C-15.34 47 -14.68 47 -14 47 C-14.33 43.7 -14.66 40.4 -15 37 C-14.34 37 -13.68 37 -13 37 C-13.04125 36.52562 -13.0825 36.05125 -13.125 35.5625 C-13 34 -13 34 -12.02734 33.53638 C-10.65595 32.82037 -10.67082 32.35063 -10.4375 30.85547 C-10.40012 30.64052 -10.40012 30.64052 -10.21094 29.55273 C-10.14133 29.10221 -10.07172 28.65168 -10 28.1875 C-9.52636 25.20091 -8.98218 22.66597 -7.53076 19.99878 C-6.55852 18.16923 -5.82699 16.23589 -5.0625 14.3125 C-4.89138 13.88405 -4.72025 13.4556 -4.54395 13.01416 C-2.85634 8.73229 -1.39771 4.38374 0 0 Z " fill="#AAAAA4" transform="translate(293,277)"/>
<path d="M0 0 C1.24204 0.10207 2.48424 0.20222 3.72656 0.30078 C4.05822 0.32742 4.38989 0.35407 4.7316 0.38152 C9.27406 0.73811 13.82476 0.95661 18.375 1.1875 C19.23438 1.23159 20.09375 1.2757 20.95312 1.31982 C22.96868 1.42292 24.98431 1.52444 27 1.625 C27 2.615 27 3.605 27 4.625 C17.6085 5.87281 8.15549 5.94432 -1.302 6.15723 C-3.52823 6.20817 -5.75434 6.26347 -7.98047 6.31836 C-12.32022 6.42475 -16.66006 6.52644 -21 6.625 C-21 5.305 -21 3.985 -21 2.625 C-20.8261 2.59733 -20.8261 2.59733 -19.94604 2.45728 C-18.35944 2.20328 -16.77348 1.94543 -15.1875 1.6875 C-14.64029 1.60049 -14.09309 1.51348 -13.5293 1.42383 C-9.25457 0.72433 -9.25457 0.72433 -7.48828 0.03516 C-5.00074 -0.65039 -2.54648 -0.2337 0 0 Z " fill="#D8E1DF" transform="translate(128,360.375)"/>
<path d="M0 0 C-0.00444 0.51143 -0.00888 1.02286 -0.01346 1.54979 C-0.05394 6.36163 -0.08395 11.17343 -0.10362 15.9854 C-0.11408 18.45949 -0.12826 20.93345 -0.15088 23.40747 C-0.17256 25.79355 -0.18456 28.17949 -0.18975 30.56566 C-0.19346 31.47754 -0.20069 32.38941 -0.21146 33.30124 C-0.22591 34.57525 -0.22798 35.84872 -0.22705 37.1228 C-0.23424 37.50259 -0.24143 37.88237 -0.24884 38.27367 C-0.23097 40.52439 -0.10685 41.18215 2 42 C2 42.66 2 43.32 2 44 C8.6 44.33 15.2 44.66 22 45 C22 45.33 22 45.66 22 46 C13.42 46 4.84 46 -4 46 C-4.1561 35.22937 -4.06685 24.71774 -3.0625 14 C-3.04072 13.76316 -3.04072 13.76316 -2.93048 12.56464 C-2.80376 11.2092 -2.67115 9.85453 -2.53516 8.5 C-2.49656 8.10286 -2.45796 7.70572 -2.4182 7.29654 C-1.64343 0 -1.64343 0 0 0 Z " fill="#D9DFE1" transform="translate(17,415)"/>
<path d="M0 0 C9.47909 16.69145 6.10074 42.89447 3 61 C2.67 61 2.34 61 2 61 C1.99191 60.59181 1.98383 60.18362 1.97549 59.76306 C1.89693 55.88024 1.80947 51.99775 1.71247 48.11535 C1.66293 46.12026 1.6166 44.12522 1.57812 42.12988 C1.54073 40.19741 1.49424 38.26533 1.44194 36.33321 C1.42367 35.60304 1.40847 34.8728 1.39666 34.1425 C1.32301 29.73874 0.868 25.7501 -0.39754 21.51397 C-1.09842 19.09842 -1.09842 19.09842 0 18 C0.08759 16.63757 0.11575 15.3267 0.09766 13.96484 C0.09624 13.56673 0.09483 13.16862 0.09337 12.75844 C0.08776 11.48472 0.07521 10.21117 0.0625 8.9375 C0.05749 8.07487 0.05292 7.21224 0.04883 6.34961 C0.03779 4.23301 0.02052 2.11653 0 0 Z " fill="#8A8887" transform="translate(292,216)"/>
<path d="M0 0 C0.55768 0.00257 1.11537 0.00514 1.68995 0.00778 C8.60609 0.04199 15.52181 0.10228 22.4375 0.1875 C22.4375 0.5175 22.4375 0.8475 22.4375 1.1875 C16.94321 1.94084 11.47582 2.46814 5.9375 2.75 C5.73584 2.76076 5.73584 2.76076 4.71533 2.81519 C-1.47062 3.13409 -7.65081 3.22222 -13.84375 3.21484 C-14.023 3.21465 -14.023 3.21465 -14.93013 3.21366 C-18.55083 3.20832 -22.17133 3.19276 -25.79189 3.15973 C-26.82867 3.15078 -27.86543 3.1439 -28.90222 3.13771 C-30.18196 3.12947 -31.46168 3.11705 -32.74133 3.09972 C-37.48237 3.07292 -37.48237 3.07292 -39.70996 3.6853 C-41.83987 4.26269 -43.70034 4.31546 -45.89062 4.28516 C-46.28449 4.28374 -46.67836 4.28233 -47.08417 4.28087 C-48.32703 4.27533 -49.5697 4.26279 -50.8125 4.25 C-51.66146 4.24498 -52.51041 4.24042 -53.35938 4.23633 C-55.42715 4.22538 -57.4948 4.20815 -59.5625 4.1875 C-59.5625 3.8575 -59.5625 3.5275 -59.5625 3.1875 C-55.08887 2.63553 -50.60932 2.14365 -46.125 1.6875 C-45.775 1.65187 -45.42499 1.61624 -45.06438 1.57952 C-30.05122 0.07134 -15.07869 -0.06993 0 0 Z " fill="#ECF2F9" transform="translate(137.5625,377.8125)"/>
<path d="M0 0 C-0.45375 0.39187 -0.9075 0.78375 -1.375 1.1875 C-2.67919 2.48225 -3.29958 3.5727 -3.89453 5.30469 C-4.98435 8.15351 -6.5343 10.47448 -8.3125 12.9375 C-8.59545 13.34162 -8.8784 13.74574 -9.16992 14.16211 C-10.81188 16.47396 -12.5435 18.61324 -14.42969 20.73047 C-17.64712 24.54768 -19.66747 28.89679 -21.8125 33.375 C-22.22255 34.21522 -22.63335 35.05506 -23.04492 35.89453 C-24.03869 37.92556 -25.02218 39.96125 -26 42 C-28.47296 39.20251 -27.97969 37.91293 -26.4375 34.86719 C-26.25099 34.47359 -26.06449 34.07999 -25.87233 33.67447 C-25.26271 32.40036 -24.63254 31.13787 -24 29.875 C-23.57763 29.00866 -23.15568 28.14213 -22.73413 27.27539 C-19.91111 21.53438 -16.83508 16.13021 -13 11 C-11.78375 9.22649 -10.67134 7.43977 -9.625 5.5625 C-4.97166 -2.13071 -4.97166 -2.13071 0 0 Z " fill="#1E1D09" transform="translate(210,59)"/>
<path d="M0 0 C1.50465 2.05693 2.31211 3.69397 2.78125 6.19531 C2.90009 6.82002 3.01892 7.44474 3.14136 8.08838 C3.26167 8.76712 3.38119 9.446 3.5 10.125 C3.56281 10.47359 3.62562 10.82218 3.69034 11.18134 C4.6095 16.2966 5.40791 21.42971 6.05664 26.58636 C6.18057 27.57001 6.3108 28.55286 6.44141 29.53564 C7.78329 41.03134 6.99024 52.54233 5.6875 64 C5.62097 64.60542 5.55444 65.21083 5.4859 65.83459 C3.19508 86.59238 3.19508 86.59238 1 92 C0.67 92 0.34 92 0 92 C-0.0269 90.52071 -0.04679 89.04191 -0.0625 87.5625 C-0.07088 87.14162 -0.07926 86.72074 -0.08789 86.28711 C-0.09111 85.88428 -0.09434 85.48145 -0.09766 85.06641 C-0.10289 84.69459 -0.10813 84.32278 -0.11353 83.9397 C0 83 0 83 1 82 C1.23415 81.04314 1.23415 81.04314 1.38892 79.85229 C1.44888 79.40113 1.50884 78.94996 1.57062 78.48512 C1.6311 77.98859 1.69159 77.49205 1.75391 76.98047 C1.81931 76.45851 1.88471 75.93656 1.95209 75.39879 C2.16411 73.66258 2.36527 71.92545 2.5625 70.1875 C2.63037 69.59153 2.69823 68.99556 2.76816 68.38153 C3.81304 58.95861 4.30454 49.60417 4.3125 40.125 C4.31581 39.55857 4.31913 38.99214 4.32254 38.40854 C4.39902 16.39902 4.39902 16.39902 1 13 C0.79468 11.69312 0.79468 11.69312 0.68359 10.05859 C0.6417 9.47529 0.5998 8.89199 0.55664 8.29102 C0.51732 7.67936 0.47801 7.0677 0.4375 6.4375 C0.39432 5.82197 0.35113 5.20645 0.30664 4.57227 C0.20033 3.04841 0.0983 1.52439 0 0 Z " fill="#39341F" transform="translate(304,207)"/>
<path d="M0 0 C0.44134 0.21358 0.88269 0.42716 1.3374 0.64722 C1.54341 0.75183 1.54341 0.75183 2.58594 1.28125 C2.95509 1.46752 3.32425 1.65379 3.70459 1.8457 C4.80029 2.62461 5.22096 3.22063 5.625 4.5 C4.6875 5.625 4.6875 5.625 3.625 6.5 C3.49223 6.3466 3.49223 6.3466 2.82031 5.57031 C1.42589 4.32171 0.28219 3.9174 -1.5 3.375 C-2.03883 3.20742 -2.57766 3.03984 -3.13281 2.86719 C-3.54273 2.74602 -3.95266 2.62484 -4.375 2.5 C-4.045 1.51 -3.715 0.52 -3.375 -0.5 C-3.88885 -0.46971 -4.40271 -0.43941 -4.93213 -0.4082 C-6.8666 -0.29463 -8.8012 -0.18337 -10.73584 -0.07275 C-11.56791 -0.02487 -12.39994 0.02362 -13.23193 0.07275 C-17.95078 0.351 -22.6453 0.58458 -27.375 0.5 C-27.045 1.82 -26.715 3.14 -26.375 4.5 C-28.355 4.5 -30.335 4.5 -32.375 4.5 C-32.375 3.84 -32.375 3.18 -32.375 2.5 C-33.375 1.875 -33.375 1.875 -34.375 1.5 C-32.7951 0.68071 -31.21053 -0.12915 -29.625 -0.9375 C-29.18156 -1.1676 -28.73812 -1.3977 -28.28125 -1.63477 C-18.47954 -6.60769 -9.46748 -4.61249 0 0 Z " fill="#D5D6D4" transform="translate(182.375,17.5)"/>
<path d="M0 0 C2.82266 0.6076 3.38703 1.28848 4.0625 4.0625 C4.78824 7 4.78824 7 7 7 C7.68604 7.77856 7.68604 7.77856 8.28906 8.86328 C8.5082 9.2558 8.72734 9.64832 8.95312 10.05273 C9.17484 10.46846 9.39656 10.88418 9.625 11.3125 C9.85445 11.71662 10.08391 12.12074 10.32031 12.53711 C11.53638 14.76295 12.32073 16.39199 12 19 C12.66 19 13.32 19 14 19 C13.93812 19.63937 13.87625 20.27875 13.8125 20.9375 C13.79859 22.94746 13.79859 22.94746 15.4375 23.375 C17.87879 24.35151 17.49754 26.18107 17.69141 28.625 C18.07634 30.34015 18.4556 30.35394 20 31 C20.125 32.5625 20.125 32.5625 20 34 C20.66 33.835 20.66 33.835 24 33 C24.33 34.65 24.66 36.3 25 38 C17.98788 38.70745 12.87658 29.28586 10.64453 23.81641 C9.52803 21.14154 8.30653 18.54026 6.99219 15.95703 C6.81949 15.61718 6.64679 15.27733 6.46886 14.92719 C5.75869 13.53417 5.04537 12.14281 4.32861 10.75317 C3.79621 9.71875 3.26894 8.68184 2.74219 7.64453 C2.58177 7.33716 2.42135 7.02978 2.25607 6.71309 C1.13831 4.50268 0.53015 2.40224 0 0 Z " fill="#1C170C" transform="translate(45,323)"/>
<path d="M0 0 C2.01918 2.96146 3.11902 4.6612 3.16113 8.28467 C3.1661 8.61016 3.17106 8.93564 3.17618 9.271 C3.19075 10.34475 3.19759 11.41835 3.20312 12.49219 C3.20888 13.24203 3.21464 13.99188 3.2204 14.74173 C3.23089 16.31367 3.23675 17.88555 3.24023 19.45752 C3.24571 21.46396 3.26972 23.46972 3.29821 25.47595 C3.31691 27.02538 3.32204 28.57465 3.32357 30.12418 C3.32658 30.86334 3.33456 31.6025 3.34776 32.34155 C3.41908 36.64369 3.31534 39.90295 0 43 C-1.01592 38.17722 -1.14759 33.47471 -1.13281 28.57422 C-1.13349 27.77806 -1.13446 26.9819 -1.13571 26.18575 C-1.13717 24.53096 -1.13508 22.87622 -1.13037 21.22144 C-1.12463 19.09848 -1.12799 16.97566 -1.13394 14.85271 C-1.13755 13.21506 -1.13641 11.57745 -1.13382 9.9398 C-1.13315 9.15633 -1.13397 8.37286 -1.1363 7.58939 C-1.13882 6.50052 -1.13498 5.41185 -1.12939 4.323 C-1.1286 3.70378 -1.1278 3.08456 -1.12698 2.44658 C-1 1 -1 1 0 0 Z " fill="#B1B3B4" transform="translate(291,238)"/>
<path d="M0 0 C0.54076 0.00451 1.08152 0.00902 1.63867 0.01367 C2.94674 0.02525 4.25455 0.04154 5.5625 0.0625 C5.5625 2.91486 4.71891 2.47796 2.125 3.0625 C-1.35383 3.84963 -1.35383 3.84963 -1.84131 5.08984 C-2.79784 6.65038 -3.86095 6.25669 -5.60547 6.1875 C-6.25193 6.17203 -6.8984 6.15656 -7.56445 6.14062 C-8.5868 6.1037 -9.60894 6.06315 -10.6311 6.02148 C-14.83034 5.865 -18.13718 6.10452 -22.0686 7.6084 C-24.16668 8.30439 -26.12486 8.28423 -28.3125 8.1875 C-28.71469 8.17848 -29.11688 8.16945 -29.53125 8.16016 C-30.50027 8.13708 -31.46898 8.10124 -32.4375 8.0625 C-29.39017 5.19456 -26.1205 4.17467 -22.11157 3.18213 C-21.13469 2.9399 -20.16218 2.68416 -19.18945 2.42578 C-12.78409 0.77739 -6.61361 -0.10788 0 0 Z " fill="#DAD9D7" transform="translate(72.4375,381.9375)"/>
<path d="M0 0 C1.12337 3.45145 0.93352 6.24166 0.47656 9.8125 C0.34153 10.97363 0.20652 12.13476 0.07153 13.2959 C-0.00157 13.90107 -0.07467 14.50625 -0.14999 15.12976 C-1.29615 24.65658 -2.2745 34.16153 -2.6875 43.75 C-2.70601 44.1791 -2.72452 44.60819 -2.74359 45.05029 C-2.84078 47.36653 -2.92642 49.68289 -3 52 C-3.33 52 -3.66 52 -4 52 C-4.02284 51.64779 -4.04567 51.29558 -4.0692 50.93269 C-4.2863 47.59346 -4.50663 44.25446 -4.73049 40.91567 C-4.84543 39.19967 -4.95918 37.4836 -5.07007 35.76733 C-5.19797 33.78865 -5.33129 31.81034 -5.46484 29.83203 C-5.48414 29.52776 -5.48414 29.52776 -5.58177 27.98799 C-5.79576 24.88128 -6.13527 21.95559 -6.93625 18.9413 C-7 18 -7 18 -5.60547 17.10156 C-2.92615 15.2632 -3.42695 12.43569 -3.3125 9.375 C-3.27834 8.76398 -3.24418 8.15297 -3.20898 7.52344 C-3.12654 6.01581 -3.05739 4.50876 -3 3 C-2.34 3 -1.68 3 -1 3 C-0.375 1.5 -0.375 1.5 0 0 Z " fill="#B0AFA9" transform="translate(145,187)"/>
<path d="M0 0 C2.49778 0.65191 3.88028 1.60857 5.6875 3.4375 C6.12449 3.86934 6.56148 4.30117 7.01172 4.74609 C8 6 8 6 8 8 C8.66 8 9.32 8 10 8 C10.49219 9.05859 10.49219 9.05859 10.875 10.4375 C11.58509 12.47688 11.86078 13.2536 14.0625 13.5 C16.61274 13.81878 16.92324 15.43367 17.25 17.78906 C16.74913 20.21514 14.15854 20.49958 12 21 C12.04254 20.54754 12.08508 20.09508 12.12891 19.62891 C11.96615 17.57228 11.48666 17.24756 9.9375 15.9375 C7.32686 13.4844 5.25823 10.79493 3.1875 7.875 C3.03052 7.65904 3.03052 7.65904 2.23608 6.56616 C-0.45247 2.71483 -0.45247 2.71483 0 0 Z " fill="#E8E7E6" transform="translate(133,59)"/>
<path d="M0 0 C-0.35469 6.15207 -0.88163 12.26325 -1.66406 18.375 C-1.72567 18.85756 -1.78727 19.34013 -1.85074 19.83731 C-1.91401 20.33266 -1.97729 20.82802 -2.04248 21.33838 C-4.02467 36.86355 -5.10307 52.38037 -6 68 C-6.33 68 -6.66 68 -7 68 C-7.15583 58.53048 -6.91475 49.08763 -6.5625 39.625 C-6.55268 39.34657 -6.55268 39.34657 -6.50296 37.93756 C-6.2638 31.25029 -5.86604 24.63717 -5 18 C-4.34 18 -3.68 18 -3 18 C-2.97494 17.63238 -2.94989 17.26475 -2.92407 16.88599 C-2.80688 15.19457 -2.68472 13.50356 -2.5625 11.8125 C-2.52318 11.23436 -2.48387 10.65621 -2.44336 10.06055 C-1.70445 0 -1.70445 0 0 0 Z " fill="#403B21" transform="translate(194,176)"/>
<path d="M0 0 C-1.3791 2.99631 -2.97269 5.408 -5.08203 7.93359 C-5.37809 8.29341 -5.67414 8.65322 -5.97917 9.02394 C-6.60348 9.78092 -7.22968 10.53635 -7.85767 11.29028 C-8.80391 12.42718 -9.74319 13.56956 -10.68164 14.71289 C-13.94901 18.67239 -17.25951 22.47449 -21 26 C-21 24.68 -21 23.36 -21 22 C-20.34 22 -19.68 22 -19 22 C-19.03094 21.77312 -19.03094 21.77312 -19.1875 20.625 C-19 19 -19 19 -17.57812 18.14062 C-15.6265 16.73005 -15.21295 15.33623 -14.5625 13.125 C-12.79934 7.88613 -9.99324 5.33392 -5.14844 2.71094 C-4 2 -4 2 -2.97656 0.91406 C-2 0 -2 0 0 0 Z " fill="#ABABA6" transform="translate(269,342)"/>
<path d="M0 0 C1.16715 5.15144 1.04736 10.10054 0.87891 15.33594 C0.85455 16.22416 0.83071 17.11239 0.80736 18.00064 C0.74505 20.31875 0.67584 22.6366 0.6051 24.95447 C0.53393 27.3276 0.46941 29.70091 0.4043 32.07422 C0.27597 36.71634 0.14034 41.35822 0 46 C-0.33 46 -0.66 46 -1 46 C-1.75214 40.78669 -2.14951 35.70714 -2.13281 30.42969 C-2.13349 29.73805 -2.13446 29.04641 -2.13571 28.35477 C-2.13717 26.92122 -2.1351 25.48774 -2.13037 24.0542 C-2.12465 22.23446 -2.12798 20.41487 -2.13394 18.59514 C-2.13759 17.17261 -2.13639 15.75011 -2.13382 14.32758 C-2.13284 13.33621 -2.13583 12.34485 -2.13895 11.35349 C-2.0807 0 -2.0807 0 0 0 Z " fill="#C0CEDB" transform="translate(45,228)"/>
<path d="M0 0 C0.33 0 0.66 0 1 0 C1.02506 0.4585 1.05011 0.91701 1.07593 1.3894 C1.17187 3.11355 1.27105 4.83744 1.37231 6.56128 C1.41525 7.30307 1.45695 8.04493 1.49731 8.78687 C1.8775 15.74749 1.8775 15.74749 2.53516 18.60547 C3.21193 21.5983 3.06968 24.57307 3 27.625 C2.97437 28.76292 2.95338 29.90096 2.9375 31.03906 C2.9259 31.53616 2.9143 32.03325 2.90234 32.54541 C3.01118 34.16653 3.42842 35.48498 4 37 C4.33 36.835 4.33 36.835 6 36 C6 40.95 6 45.9 6 51 C3.7478 47.6217 3.7478 47.6217 3.18359 45.32812 C3.0592 44.82797 2.9348 44.32781 2.80664 43.8125 C2.68482 43.29688 2.56301 42.78125 2.4375 42.25 C2.31182 41.74984 2.18613 41.24969 2.05664 40.73438 C0.53582 34.49183 -0.15305 28.39334 -0.09766 21.97266 C-0.09624 21.33888 -0.09483 20.70509 -0.09337 20.05211 C-0.08877 18.39338 -0.07984 16.73475 -0.06866 15.07605 C-0.05831 13.37298 -0.05384 11.66989 -0.04883 9.9668 C-0.03789 6.64449 -0.02121 3.32225 0 0 Z " fill="#CFCECD" transform="translate(124,185)"/>
<path d="M0 0 C0.33 0 0.66 0 1 0 C1.07002 6.893 1.12275 13.78594 1.15544 20.67921 C1.17112 23.87977 1.1924 27.08009 1.22632 30.28052 C1.25882 33.36686 1.27683 36.45297 1.28463 39.53948 C1.29019 40.71932 1.30105 41.89914 1.31719 43.07889 C1.33885 44.72662 1.34197 46.37339 1.34058 48.02124 C1.35136 48.51323 1.36215 49.00523 1.37326 49.51213 C1.34279 52.81722 1.34279 52.81722 -0.52129 53.81117 C-0.76527 53.84233 -0.76527 53.84233 -2 54 C-1.89128 48.73103 -1.77843 43.46216 -1.66066 38.19339 C-1.60607 35.7455 -1.55277 33.2976 -1.50269 30.84961 C-1.07552 10.05577 -1.07552 10.05577 0 0 Z " fill="#C2C8D2" transform="translate(200,203)"/>
<path d="M0 0 C0.66873 0.11345 1.33507 0.24109 2 0.375 C2.37125 0.44461 2.7425 0.51422 3.125 0.58594 C4 1 4 1 4 3 C4.66 3 5.32 3 6 3 C6 4.32 6 5.64 6 7 C6.99 7 7.98 7 9 7 C9 7.66 9 8.32 9 9 C8.34 9 7.68 9 7 9 C7 9.66 7 10.32 7 11 C8.98 11 10.96 11 13 11 C13 11.33 13 11.66 13 12 C3.82215 13.32959 -0.96667 10.43225 -5 2 C-4.01 2 -3.02 2 -2 2 C-2 2.66 -2 3.32 -2 4 C0 2.25 0 2.25 0 0 Z " fill="#DEDDDB" transform="translate(87,356)"/>
<path d="M0 0 C4.90904 6.31163 6.14116 16.97482 2 24 C-0.40006 23.27803 -0.36005 21.95067 -0.625 19.625 C-0.69977 19.01914 -0.77453 18.41328 -0.85156 17.78906 C-1 16 -1 16 -0.99219 14.47266 C-1.0007 12.86767 -1.21926 11.39165 -1.5 9.8125 C-1.59281 9.2827 -1.68563 8.75289 -1.78125 8.20703 C-1.85344 7.80871 -1.92563 7.41039 -2 7 C-1.34 7 -0.68 7 0 7 C0 4.69 0 2.38 0 0 Z " fill="#B4B2AF" transform="translate(288,203)"/>
<path d="M0 0 C1.42835 1.5964 2.73187 3.27531 4 5 C4.25685 5.34885 4.51369 5.69771 4.77832 6.05713 C9.3314 12.41686 10.89595 17.20196 10 25 C7.40158 25 7.70978 24.76441 7.25391 22.41016 C7.13854 21.87326 7.02316 21.33637 6.9043 20.7832 C6.67733 19.64057 6.45334 18.49734 6.23242 17.35352 C5.22942 12.7264 5.22942 12.7264 2 12 C1.52344 10.54688 1.52344 10.54688 1.375 8.75 C1.31184 8.1248 1.24867 7.49961 1.18359 6.85547 C1.12301 6.24316 1.06242 5.63086 1 5 C0.82702 4.01816 0.64162 3.03834 0.4375 2.0625 C0.35371 1.6616 0.26992 1.2607 0.18359 0.84766 C0.1533 0.70779 0.1533 0.70779 0 0 Z " fill="#BDC0C0" transform="translate(266,159)"/>
<path d="M0 0 C3.90196 3.18669 5.79924 7.11118 7.75 11.625 C7.90574 11.97772 8.06149 12.33044 8.22195 12.69385 C10.76964 18.52847 11.96904 23.60123 11 30 C8.56677 28.1998 8.58602 26.18863 8.375 23.375 C8.33633 22.95477 8.29766 22.53453 8.25781 22.10156 C8.16389 21.0684 8.08087 20.03426 8 19 C7.34 19 6.68 19 6 19 C2.55525 14.15183 1.39644 5.75866 0 0 Z " fill="#36301E" transform="translate(205,20)"/>
<path d="M0 0 C1.32812 4.25 1.32812 4.25 -0.375 6 C-1.5182 7.32343 -2.18116 8.21161 -2.5 9.9375 C-3.11743 13.10026 -4.53191 17 -8 17 C-8.625 18.5 -8.625 18.5 -9 20 C-11.52847 18.21134 -11.02679 16.57962 -10.125 13.9375 C-9.99569 13.54699 -9.86638 13.15649 -9.73315 12.75415 C-7.78482 7.61503 -3.83319 3.81412 0 0 Z " fill="#18160B" transform="translate(83,121)"/>
<path d="M0 0 C0.22752 0.00902 0.22752 0.00902 1.37891 0.05469 C1.72824 0.07789 2.07758 0.10109 2.4375 0.125 C2.4375 0.785 2.4375 1.445 2.4375 2.125 C3.0975 2.125 3.7575 2.125 4.4375 2.125 C5.39508 3.27166 6.22596 4.39439 7.0625 5.625 C9.64691 9.27644 12.53474 12.3785 15.80908 15.42188 C17.68956 17.20699 18.87925 18.49558 19.4375 21.125 C18.7775 21.455 18.1175 21.785 17.4375 22.125 C17.30432 21.8489 17.17115 21.5728 17.03394 21.28833 C14.58363 16.7214 10.92284 13.38833 7.25 9.8125 C6.58873 9.16128 5.92792 8.50959 5.26758 7.85742 C3.66281 6.2745 2.05195 4.69804 0.4375 3.125 C0.30554 3.4016 0.17358 3.67821 0.03763 3.9632 C-0.13834 4.325 -0.31431 4.6868 -0.49561 5.05957 C-0.58221 5.23912 -0.58221 5.23912 -1.02048 6.14777 C-1.71322 7.39674 -2.50497 8.08665 -3.6875 8.875 C-3.8641 8.99617 -3.8641 8.99617 -4.75781 9.60938 C-4.89059 9.69445 -4.89059 9.69445 -5.5625 10.125 C-5.25292 8.83257 -4.93996 7.54112 -4.625 6.25 C-4.53799 5.8852 -4.45098 5.52039 -4.36133 5.14453 C-3.06006 -0.15693 -3.06006 -0.15693 0 0 Z " fill="#272312" transform="translate(225.5625,88.875)"/>
<path d="M0 0 C1.36849 1.94583 0.81244 3.15283 0.07422 5.30859 C-0.14679 5.975 -0.36774 6.64142 -0.58862 7.30786 C-0.70701 7.65572 -0.82539 8.00357 -0.94736 8.36197 C-2.88209 14.06073 -4.55755 19.65187 -5.36646 25.63647 C-5.74605 28.27472 -6.3433 29.89334 -8 32 C-8.11255 25.89727 -7.94447 20.03789 -7 14 C-6.34 14 -5.68 14 -5 14 C-4.93941 13.46891 -4.87883 12.93781 -4.81641 12.39062 C-4.56725 10.2572 -4.29155 8.12802 -4 6 C-3.93941 5.55398 -3.87883 5.10797 -3.81641 4.64844 C-3.31699 1.97809 -2.29505 1.19742 0 0 Z " fill="#B4B1A8" transform="translate(158,127)"/>
<path d="M0 0 C0.94282 3.02303 1.04409 5.02888 0.29297 8.08203 C0.25024 8.27066 0.25024 8.27066 0.03401 9.22527 C-0.23974 10.42314 -0.52606 11.6176 -0.8125 12.8125 C-0.99363 13.60203 -1.17397 14.39175 -1.35352 15.18164 C-2.19132 18.82965 -3.08772 22.46344 -4.07422 26.07422 C-4.2285 26.641 -4.38279 27.20779 -4.54175 27.79175 C-5 29 -5 29 -6 29 C-6.25861 27.27395 -6.47623 25.54493 -6.6875 23.8125 C-6.76033 23.32975 -6.83316 22.84699 -6.9082 22.34961 C-7.30433 18.87766 -6.73738 17.15715 -4.78149 14.30151 C-3.38361 11.97346 -2.94239 9.38064 -2.375 6.75 C-2.13588 5.6816 -1.89384 4.61385 -1.64844 3.54688 C-1.54708 3.0812 -1.44573 2.61553 -1.34131 2.13574 C-1 1 -1 1 0 0 Z " fill="#9C9A95" transform="translate(293,277)"/>
<path d="M0 0 C-0.45375 0.39187 -0.9075 0.78375 -1.375 1.1875 C-2.67637 2.47982 -3.29515 3.56389 -3.88672 5.29297 C-5.00274 8.21264 -6.61853 10.5993 -8.4375 13.125 C-8.73721 13.55426 -9.03691 13.98352 -9.3457 14.42578 C-11.06213 16.8459 -12.83329 18.97244 -15 21 C-14.87762 20.71898 -14.75524 20.43797 -14.62915 20.14844 C-13.71425 18.02833 -12.96241 15.92914 -12.41016 13.6875 C-11.27827 9.20415 -10.04658 5.41841 -7.0625 1.8125 C-6.82177 1.50909 -6.58104 1.20567 -6.33301 0.89307 C-4.13921 -1.52652 -2.79565 -1.04459 0 0 Z " fill="#131307" transform="translate(210,59)"/>
<path d="M0 0 C-0.78666 0.67257 -1.57953 1.33788 -2.375 2 C-2.81586 2.37125 -3.25672 2.7425 -3.71094 3.125 C-5 4 -5 4 -7 4 C-7 4.66 -7 5.32 -7 6 C-7.66 6 -8.32 6 -9 6 C-9.75165 7.32752 -10.37658 8.61448 -11 10 C-11.80882 11.55512 -12.65528 13.08914 -13.5 14.625 C-13.7127 15.01945 -13.92539 15.41391 -14.14453 15.82031 C-14.35465 16.20187 -14.56477 16.58344 -14.78125 16.97656 C-14.96752 17.31768 -15.15379 17.6588 -15.3457 18.01025 C-16.10673 19.16145 -16.99954 20.05401 -18 21 C-18.55386 16.05091 -17.47625 13.36291 -14.4375 9.5 C-14.25755 9.26366 -14.25755 9.26366 -13.34692 8.06763 C-11.14492 5.25098 -8.83935 2.58918 -6.1875 0.1875 C-5.91027 -0.07289 -5.63304 -0.33328 -5.34741 -0.60156 C-3.08055 -2.48385 -2.08206 -1.81946 0 0 Z " fill="#181209" transform="translate(25,386)"/>
<path d="M0 0 C0 0.33 0 0.66 0 1 C-3.3 1.33 -6.6 1.66 -10 2 C-10 2.33 -10 2.66 -10 3 C-10.46374 2.99476 -10.92748 2.98953 -11.40527 2.98413 C-13.14227 2.96699 -14.87917 2.9545 -16.61621 2.94507 C-17.36492 2.94007 -18.11363 2.93327 -18.8623 2.92456 C-19.94469 2.91229 -21.02694 2.90673 -22.10938 2.90234 C-22.75874 2.89711 -23.40811 2.89187 -24.07715 2.88647 C-25.54345 2.97305 -26.59362 3.11921 -27.97266 3.5 C-30.11427 4.08403 -32.11858 4.12822 -34.32812 4.09766 C-34.72199 4.09624 -35.11586 4.09483 -35.52167 4.09337 C-36.76453 4.08783 -38.0072 4.07529 -39.25 4.0625 C-40.09896 4.05748 -40.94791 4.05292 -41.79688 4.04883 C-43.86465 4.03788 -45.9323 4.02065 -48 4 C-48 3.67 -48 3.34 -48 3 C-43.95719 2.60027 -39.91369 2.20876 -35.86919 1.82655 C-33.98931 1.64866 -32.10974 1.46839 -30.23071 1.28174 C-20.11612 0.27926 -10.16825 -0.21999 0 0 Z " fill="#BABCB9" transform="translate(126,378)"/>
<path d="M0 0 C3.45755 3.77845 5.62922 7.8668 7.77466 12.47559 C8.31752 13.63573 8.87779 14.78636 9.43945 15.9375 C9.79014 16.67918 10.13979 17.42135 10.48828 18.16406 C10.65588 18.50475 10.82349 18.84543 10.99617 19.19644 C12.03633 21.48381 12.07235 22.72671 11 25 C11 24.34 11 23.68 11 23 C10.34 23 9.68 23 9 23 C8.96262 22.50629 8.92523 22.01258 8.88672 21.50391 C8.85385 21.18357 8.85385 21.18357 8.6875 19.5625 C8.62949 18.92441 8.57148 18.28633 8.51172 17.62891 C7.82166 15.43229 7.12828 15.59235 5 15 C1.84768 11.65697 -2.54738 4.50009 0 0 Z " fill="#342E19" transform="translate(287,165)"/>
</svg>
