<?xml version="1.0" encoding="UTF-8"?>
<!-- Generator: visioncortex VTracer 0.6.12 -->
<svg version="1.1" xmlns="http://www.w3.org/2000/svg" width="464" height="475">
<path d="M0 0 C0.63244 -0.00137 1.26487 -0.00275 1.91647 -0.00417 C2.62123 -0.00063 3.32599 0.00301 4.03075 0.00673 C4.7698 0.00701 5.50886 0.00685 6.24791 0.00629 C8.25814 0.006 10.26831 0.01189 12.27853 0.01886 C14.37789 0.0251 16.47726 0.0257 18.57663 0.02689 C22.55382 0.03 26.53099 0.03821 30.50817 0.04824 C35.88131 0.06149 41.25445 0.0669 46.6276 0.07274 C55.0959 0.08215 63.56415 0.10207 72.03246 0.12025 C72.36246 12.66025 72.69246 25.20025 73.03246 38.12025 C74.43431 38.11445 74.43431 38.11445 81.52855 38.0851 C83.30134 38.07999 85.07412 38.07518 86.84691 38.07143 C89.66276 38.06544 92.47859 38.05835 95.29442 38.04482 C97.56378 38.03398 99.8331 38.02798 102.10248 38.02538 C102.96969 38.02352 103.83689 38.01991 104.70408 38.01452 C105.91572 38.0073 107.1272 38.00626 108.33885 38.00673 C108.69994 38.00313 109.06102 37.99954 109.43304 37.99583 C111.9184 38.0062 111.9184 38.0062 113.03246 39.12025 C113.14268 40.15241 113.14268 40.15241 113.12148 41.45105 C113.11588 41.94282 113.11029 42.43459 113.10452 42.94127 C113.09315 43.48301 113.08177 44.02475 113.07005 44.5829 C113.06205 45.1522 113.05405 45.7215 113.04581 46.30804 C113.01779 48.2026 112.98233 50.09693 112.94652 51.99135 C112.92474 53.31117 112.90329 54.631 112.88216 55.95084 C112.83689 58.72768 112.78745 61.50442 112.73558 64.28114 C112.67614 67.46587 112.62316 70.65066 112.57381 73.83556 C112.52591 76.91695 112.4732 79.99823 112.41845 83.0795 C112.39577 84.38023 112.37424 85.68099 112.35395 86.98176 C112.25814 92.98033 112.13885 98.96132 111.57298 104.9369 C111.55403 105.14425 111.55403 105.14425 111.45814 106.19357 C111.05063 109.99959 111.05063 109.99959 108.69736 110.27847 C108.41423 110.28625 108.41423 110.28625 106.98143 110.32558 C106.34084 110.34552 105.70025 110.36547 105.04025 110.38602 C104.33844 110.403 103.63662 110.41988 102.9348 110.43666 C102.21877 110.45723 101.50275 110.47823 100.78674 110.49963 C98.9012 110.55486 97.01554 110.60426 95.12981 110.65248 C92.8678 110.71152 90.60599 110.77775 88.34415 110.84278 C84.90704 110.94079 81.46981 111.02965 78.03246 111.12025 C78.69246 116.40025 79.35246 121.68025 80.03246 127.12025 C88.44954 126.65063 96.09361 124.97995 104.19478 122.73891 C126.66457 116.54011 126.66457 116.54011 138.03246 116.12025 C138.24432 116.11154 138.24432 116.11154 139.31651 116.06746 C161.70626 115.17766 184.43887 117.19942 204.75365 127.47768 C205.71444 127.96046 206.68136 128.4311 207.65111 128.89565 C219.89634 134.78399 229.54782 142.38789 239.03246 152.12025 C239.18376 152.2741 239.18376 152.2741 239.94945 153.05263 C253.63726 167.20023 260.83544 185.81863 265.86839 204.46791 C265.97222 204.84867 266.07605 205.22943 266.18303 205.62173 C267.58099 210.94389 268.20247 216.17454 268.30589 221.67104 C268.31838 222.28281 268.33086 222.89458 268.34372 223.52489 C268.37615 225.49417 268.39614 227.46326 268.40746 229.43275 C268.40961 229.7678 268.41176 230.10285 268.41398 230.44805 C268.47241 241.72596 267.45058 251.66475 263.03246 262.12025 C262.82959 262.6296 262.62672 263.13894 262.41771 263.66371 C261.31212 266.42631 260.09061 269.09892 258.7346 271.74721 C258.23948 272.71542 257.75403 273.6886 257.27562 274.66518 C253.34482 282.68073 248.78967 289.42991 242.86107 296.08974 C242.03246 297.12025 242.03246 297.12025 241.54369 298.25429 C241.03246 299.12025 241.03246 299.12025 239.03246 299.12025 C238.53572 300.07023 238.04598 301.02497 237.60423 302.00172 C236.65298 303.86259 235.26916 305.28028 233.84496 306.79213 C233.69337 306.95577 233.69337 306.95577 232.92625 307.78389 C232.2898 308.4683 231.65101 309.15056 231.00999 309.8307 C230.02813 310.87485 229.05739 311.9286 228.08714 312.98354 C227.46539 313.6495 226.84301 314.31489 226.21996 314.97963 C225.93032 315.29519 225.64068 315.61075 225.34227 315.93587 C223.26213 318.12025 223.26213 318.12025 221.03246 318.12025 C220.51747 318.89006 220.51747 318.89006 220.11693 319.93324 C219.05221 322.28025 217.66689 323.52315 215.68089 325.11244 C210.27061 329.65504 205.29678 334.63252 200.2971 339.61537 C199.21215 340.69596 198.12267 341.77161 197.02855 342.84291 C189.69046 350.03109 183.1514 357.45601 177.06516 365.7343 C175.30273 368.0996 173.46573 370.40826 171.57076 372.66881 C169.918 374.78798 169.83457 375.73563 171.03246 378.12025 C172.16541 378.88297 173.1179 379.41111 174.34886 379.95229 C175.03395 380.27579 175.71901 380.59936 176.40404 380.92299 C176.76226 381.08759 177.12047 381.25218 177.48955 381.42177 C203.01381 393.22063 210.28948 415.35932 210.13011 442.40541 C210.12824 443.35662 210.12682 444.30783 210.12582 445.25903 C210.12206 447.72985 210.11228 450.20061 210.10112 452.6714 C210.09078 455.20578 210.0863 457.74016 210.08128 460.27455 C210.07065 465.22315 210.05364 470.17169 210.03246 475.12025 C176.77402 475.20591 143.51557 475.28541 110.25705 475.33197 C109.76519 475.33266 109.27333 475.33335 108.76656 475.33406 C98.07835 475.34902 87.39013 475.36288 76.70191 475.37558 C71.46077 475.38182 66.21964 475.3883 60.9785 475.39491 C60.45693 475.39557 59.93536 475.39622 59.39799 475.39689 C42.4778 475.41822 25.5577 475.45579 8.63756 475.50174 C-8.74313 475.54886 -26.12377 475.57967 -43.50453 475.58983 C-45.95673 475.59127 -48.40894 475.5929 -50.86115 475.59464 C-51.3438 475.59498 -51.82645 475.59531 -52.32373 475.59566 C-60.10816 475.60158 -67.89245 475.6248 -75.67683 475.65441 C-83.49368 475.68378 -91.31039 475.69511 -99.1273 475.68776 C-103.77749 475.68394 -108.42716 475.69422 -113.07726 475.72424 C-116.17819 475.7429 -119.27878 475.74364 -122.37974 475.72941 C-124.15033 475.72182 -125.91994 475.72237 -127.69043 475.74467 C-129.59208 475.76844 -131.4923 475.75408 -133.39403 475.73549 C-133.95132 475.74863 -134.50861 475.76176 -135.08279 475.7753 C-137.90263 475.71224 -139.18373 475.6435 -139.8078 472.68903 C-139.88769 471.83484 -139.94303 470.97782 -139.96754 470.12025 C-140.01024 469.55411 -140.05294 468.98797 -140.09694 468.40468 C-140.0975 468.14441 -140.0975 468.14441 -140.10036 466.82729 C-140.10253 466.21023 -140.10471 465.59317 -140.10695 464.95741 C-140.10286 464.28252 -140.09803 463.60764 -140.09254 462.93275 C-140.09066 462.57998 -140.08878 462.22721 -140.08684 461.86375 C-140.06913 458.94882 -140.0212 456.03473 -139.96754 453.12025 C-139.95894 452.61833 -139.95034 452.1164 -139.94148 451.59926 C-139.38026 419.91771 -134.39379 387.74956 -99.96754 377.12025 C-100.57671 373.61556 -101.92064 371.53378 -104.15504 368.80775 C-104.46386 368.41967 -104.77267 368.03158 -105.09084 367.63173 C-106.61 365.73656 -108.16514 363.87794 -109.76442 362.04994 C-110.04133 361.73324 -110.31823 361.41653 -110.60353 361.09023 C-111.12661 360.498 -111.6549 359.91033 -112.18898 359.32802 C-113.5982 357.74971 -113.96754 357.32651 -113.96754 355.12025 C-114.62754 355.12025 -115.28754 355.12025 -115.96754 355.12025 C-115.96754 354.46025 -115.96754 353.80025 -115.96754 353.12025 C-116.62754 353.12025 -117.28754 353.12025 -117.96754 353.12025 C-118.70526 352.51978 -118.70526 352.51978 -119.40187 351.66689 C-119.66833 351.34942 -119.93479 351.03195 -120.20932 350.70486 C-120.49434 350.35597 -120.77936 350.00707 -121.07301 349.6476 C-124.59991 345.47569 -128.34856 341.58544 -132.22169 337.73573 C-133.30031 336.66259 -134.37333 335.58405 -135.44606 334.50502 C-136.13649 333.81525 -136.82724 333.12578 -137.51833 332.43666 C-137.83602 332.11694 -138.15372 331.79722 -138.48105 331.4678 C-138.77864 331.17337 -139.07622 330.87893 -139.38283 330.57558 C-139.51217 330.44663 -139.51217 330.44663 -140.16672 329.7941 C-140.96754 329.12025 -140.96754 329.12025 -142.06659 328.6543 C-142.96754 328.12025 -142.96754 328.12025 -142.96754 326.12025 C-143.62754 326.12025 -144.28754 326.12025 -144.96754 326.12025 C-144.96754 325.46025 -144.96754 324.80025 -144.96754 324.12025 C-145.62754 324.12025 -146.28754 324.12025 -146.96754 324.12025 C-146.96754 323.46025 -146.96754 322.80025 -146.96754 322.12025 C-147.62754 322.12025 -148.28754 322.12025 -148.96754 322.12025 C-149.72609 321.48109 -149.72609 321.48109 -150.44801 320.58119 C-150.72146 320.25111 -150.9949 319.92103 -151.27663 319.58095 C-151.42157 319.40181 -151.42157 319.40181 -152.15504 318.49525 C-154.45999 315.73722 -156.78591 313.30275 -159.59254 311.05775 C-162.06318 309.05502 -164.05213 306.95989 -165.90504 304.37025 C-166.11661 304.07627 -166.32818 303.78228 -166.54616 303.47939 C-167.65967 301.84228 -167.96754 301.16216 -167.96754 299.12025 C-168.62754 299.12025 -169.28754 299.12025 -169.96754 299.12025 C-169.96754 298.46025 -169.96754 297.80025 -169.96754 297.12025 C-170.62754 297.12025 -171.28754 297.12025 -171.96754 297.12025 C-171.96754 296.46025 -171.96754 295.80025 -171.96754 295.12025 C-172.62754 295.12025 -173.28754 295.12025 -173.96754 295.12025 C-174.79229 294.13855 -175.43719 293.23072 -176.10426 292.1476 C-176.30453 291.83334 -176.50479 291.51908 -176.71112 291.1953 C-177.36849 290.155 -178.01281 289.10745 -178.65504 288.05775 C-178.76595 287.87827 -178.76595 287.87827 -179.32722 286.96996 C-185.11556 277.56984 -189.96511 267.8453 -193.34254 257.30775 C-193.49836 256.82927 -193.65418 256.35079 -193.81471 255.8578 C-196.49349 246.77974 -196.20824 236.92956 -196.21754 227.55775 C-196.21822 226.9422 -196.21889 226.32664 -196.21959 225.69243 C-196.20195 215.51943 -195.59117 205.96661 -192.96754 196.12025 C-192.80126 195.4891 -192.63497 194.85794 -192.46364 194.20766 C-188.40144 179.42201 -181.38561 166.37613 -170.96754 155.12025 C-170.52959 154.63992 -170.09163 154.15958 -169.6404 153.66469 C-153.79968 136.40077 -133.97236 124.19495 -110.96754 119.12025 C-110.48914 119.01133 -110.01074 118.9024 -109.51784 118.79018 C-104.20914 117.61088 -98.88456 116.94151 -93.46754 116.49525 C-92.98213 116.45505 -92.49672 116.41485 -91.9966 116.37343 C-82.59863 115.71626 -73.42477 116.19075 -64.09254 117.37025 C-63.55663 117.4365 -63.02071 117.50275 -62.46855 117.571 C-47.66605 119.41336 -33.00306 121.71611 -18.85011 126.54555 C-18.24691 126.75067 -17.64371 126.95579 -17.02223 127.16713 C-16.50129 127.35114 -15.98035 127.53516 -15.44362 127.72475 C-12.61102 128.48373 -12.61102 128.48373 -10.96754 128.12025 C-10.37045 126.72628 -10.06818 125.65136 -9.79958 124.18275 C-9.71504 123.78323 -9.6305 123.3837 -9.5434 122.97206 C-9.27545 121.69048 -9.02764 120.40591 -8.78004 119.12025 C-8.60232 118.2528 -8.4233 117.3856 -8.24294 116.51869 C-7.80274 114.38865 -7.38057 112.25572 -6.96754 110.12025 C-7.38906 110.1247 -7.81057 110.12914 -8.24486 110.13371 C-12.21757 110.17379 -16.19021 110.20424 -20.16307 110.22388 C-22.20557 110.23432 -24.2479 110.24847 -26.2903 110.27113 C-28.26142 110.29287 -30.23237 110.30482 -32.2036 110.31001 C-32.95557 110.3137 -33.70753 110.32092 -34.45942 110.33171 C-35.51294 110.34624 -36.5658 110.34823 -37.6194 110.34731 C-38.21897 110.35175 -38.81853 110.35619 -39.43626 110.36076 C-41.5656 110.02632 -42.76302 109.09121 -43.21923 106.92544 C-43.21998 106.47916 -43.22073 106.03289 -43.22151 105.57309 C-43.22433 105.31593 -43.22433 105.31593 -43.2386 104.01457 C-43.23658 103.73379 -43.23658 103.73379 -43.22633 102.31288 C-43.22809 102.016 -43.22809 102.016 -43.23695 100.51358 C-43.24425 98.88507 -43.24253 97.25689 -43.2362 95.62838 C-43.23112 93.918 -43.23583 92.20764 -43.23897 90.49725 C-43.24261 87.61968 -43.23781 84.7422 -43.22829 81.86464 C-43.21745 78.55413 -43.22089 75.24387 -43.23194 71.93337 C-43.24107 69.08142 -43.24227 66.22954 -43.23706 63.37758 C-43.23397 61.6788 -43.23346 59.98015 -43.24014 58.28138 C-43.25108 54.22096 -43.20249 50.17457 -42.96754 46.12025 C-42.94383 45.70046 -42.92012 45.28067 -42.89569 44.84815 C-42.61386 41.36767 -42.1111 38.96754 -38.32422 38.40201 C-36.36184 38.2621 -34.4228 38.34853 -32.45973 38.43666 C-31.61066 38.44972 -30.76154 38.45968 -29.9124 38.46667 C-27.6784 38.49339 -25.4476 38.56211 -23.21486 38.6396 C-20.93625 38.71125 -18.65712 38.74319 -16.3777 38.77846 C-11.90625 38.85351 -7.43716 38.97294 -2.96754 39.12025 C-2.98418 38.8175 -2.98418 38.8175 -3.06834 37.28535 C-3.5956 27.65019 -4.06919 18.0216 -4.09254 8.37025 C-4.09379 8.1877 -4.09379 8.1877 -4.10011 7.26384 C-4.10591 6.24204 -4.10336 5.2202 -4.10036 4.19838 C-4.09923 3.62507 -4.0981 3.05176 -4.09694 2.46107 C-3.83789 -0.22322 -2.30649 -0.00385 0 0 Z M-81.14259 227.89833 C-81.19944 229.78881 -81.19159 231.66684 -81.15504 233.55775 C-81.1544 234.18746 -81.15376 234.81717 -81.15309 235.46596 C-81.13562 237.35468 -81.05296 239.23356 -80.96754 241.12025 C-80.97504 241.39168 -80.97504 241.39168 -81.01295 242.76527 C-80.62131 254.00904 -67.44167 263.97302 -59.89021 271.287 C-57.33435 273.76289 -54.78872 276.24904 -52.2527 278.74525 C-52.11651 278.87884 -52.11651 278.87884 -51.42731 279.55489 C-47.19694 283.71724 -43.35887 288.05082 -39.76614 292.78285 C-39.60179 292.99579 -39.60179 292.99579 -38.77003 294.07338 C-38.49183 294.44624 -38.21363 294.8191 -37.927 295.20326 C-35.75581 297.27836 -33.03591 297.2408 -30.17458 297.21791 C-29.82368 297.2165 -29.47279 297.21508 -29.11127 297.21362 C-28.00077 297.20807 -26.89048 297.19552 -25.78004 297.18275 C-25.02289 297.17773 -24.26572 297.17317 -23.50856 297.16908 C-21.66149 297.15811 -19.81454 297.14088 -17.96754 297.12025 C-17.485 287.74299 -17.09072 278.36589 -16.79921 268.9807 C-16.6618 264.62187 -16.49643 260.26758 -16.2632 255.91273 C-16.05979 252.11337 -15.9109 248.31627 -15.82525 244.51237 C-15.77806 242.49905 -15.70523 240.49468 -15.56679 238.4854 C-14.64833 224.73379 -19.56886 220.50908 -31.96754 216.12025 C-32.94319 215.74743 -33.91823 215.37301 -34.89236 214.99623 C-36.90089 214.23502 -38.87969 213.63165 -40.96754 213.12025 C-41.30012 213.02889 -41.6327 212.93753 -41.97536 212.8434 C-46.05422 211.85024 -50.22113 211.89857 -54.39528 211.88002 C-55.70128 211.87037 -57.00566 211.83931 -58.31129 211.80775 C-69.82273 211.66239 -79.8611 214.88143 -81.14259 227.89833 Z M101.03246 217.12025 C100.42542 217.41791 99.81815 217.7151 99.21068 218.01186 C86.90913 224.06516 86.90913 224.06516 86.90547 228.97354 C86.90265 229.55542 86.89983 230.1373 86.89693 230.73682 C86.89895 231.37326 86.90098 232.0097 86.90306 232.66542 C86.90171 233.34389 86.89992 234.02236 86.89775 234.70082 C86.89319 236.54164 86.89496 238.3824 86.89813 240.22322 C86.90066 242.14861 86.89831 244.074 86.89674 245.99939 C86.89492 249.23166 86.89732 252.46391 86.90208 255.69618 C86.90753 259.43618 86.90576 263.17612 86.90026 266.91612 C86.89572 270.1255 86.89508 273.33485 86.8977 276.54423 C86.89926 278.46188 86.89946 280.37949 86.89616 282.29714 C86.89328 284.09879 86.89526 285.90038 86.90105 287.70203 C86.90301 288.6811 86.90003 289.66016 86.89693 290.63922 C86.89975 291.21828 86.90257 291.79734 86.90547 292.39395 C86.90585 292.89926 86.90623 293.40457 86.90661 293.92519 C87.09759 295.73885 87.65632 296.07254 89.42772 296.29726 C91.01415 296.3521 92.59969 296.39694 94.187 296.41542 C94.8669 296.42683 95.54672 296.44711 96.22606 296.47694 C104.35739 296.83377 108.25388 293.2795 113.17065 287.42976 C115.53857 284.62332 118.06522 282.04294 120.70433 279.49135 C121.53698 278.6833 122.36958 277.87519 123.20213 277.06703 C123.62421 276.65749 124.04629 276.24795 124.48116 275.826 C132.98313 267.53997 140.69999 259.18191 147.03246 249.12025 C147.33732 248.64411 147.64218 248.16796 147.95628 247.67738 C151.78667 241.53411 152.93087 236.29616 152.03246 229.12025 C152.00974 228.9169 152.00974 228.9169 151.89476 227.88783 C150.66855 217.99907 144.14352 212.38691 134.19513 211.70914 C131.7853 211.60888 129.38149 211.598 126.96996 211.62025 C126.46112 211.62202 125.95228 211.62378 125.42802 211.6256 C116.43877 211.69492 109.13808 213.0368 101.03246 217.12025 Z " fill="#EFEFEF" transform="translate(195.96754455566406,-0.1202545166015625)"/>
<path d="M0 0 C0.63244 -0.00137 1.26487 -0.00275 1.91647 -0.00417 C2.62123 -0.00063 3.32599 0.00301 4.03075 0.00673 C4.7698 0.00701 5.50886 0.00685 6.24791 0.00629 C8.25814 0.006 10.26831 0.01189 12.27853 0.01886 C14.37789 0.0251 16.47726 0.0257 18.57663 0.02689 C22.55382 0.03 26.53099 0.03821 30.50817 0.04824 C35.88131 0.06149 41.25445 0.0669 46.6276 0.07274 C55.0959 0.08215 63.56415 0.10207 72.03246 0.12025 C72.36246 12.66025 72.69246 25.20025 73.03246 38.12025 C74.43431 38.11445 74.43431 38.11445 81.52855 38.0851 C83.30134 38.07999 85.07412 38.07518 86.84691 38.07143 C89.66276 38.06544 92.47859 38.05835 95.29442 38.04482 C97.56378 38.03398 99.8331 38.02798 102.10248 38.02538 C102.96969 38.02352 103.83689 38.01991 104.70408 38.01452 C105.91572 38.0073 107.1272 38.00626 108.33885 38.00673 C108.69994 38.00313 109.06102 37.99954 109.43304 37.99583 C111.9184 38.0062 111.9184 38.0062 113.03246 39.12025 C113.14268 40.15241 113.14268 40.15241 113.12148 41.45105 C113.11588 41.94282 113.11029 42.43459 113.10452 42.94127 C113.09315 43.48301 113.08177 44.02475 113.07005 44.5829 C113.06205 45.1522 113.05405 45.7215 113.04581 46.30804 C113.01779 48.2026 112.98233 50.09693 112.94652 51.99135 C112.92474 53.31117 112.90329 54.631 112.88216 55.95084 C112.83689 58.72768 112.78745 61.50442 112.73558 64.28114 C112.67614 67.46587 112.62316 70.65066 112.57381 73.83556 C112.52591 76.91695 112.4732 79.99823 112.41845 83.0795 C112.39577 84.38023 112.37424 85.68099 112.35395 86.98176 C112.25814 92.98033 112.13885 98.96132 111.57298 104.9369 C111.55403 105.14425 111.55403 105.14425 111.45814 106.19357 C111.05063 109.99959 111.05063 109.99959 108.69736 110.27847 C108.41423 110.28625 108.41423 110.28625 106.98143 110.32558 C106.34084 110.34552 105.70025 110.36547 105.04025 110.38602 C104.33844 110.403 103.63662 110.41988 102.9348 110.43666 C102.21877 110.45723 101.50275 110.47823 100.78674 110.49963 C98.9012 110.55486 97.01554 110.60426 95.12981 110.65248 C92.8678 110.71152 90.60599 110.77775 88.34415 110.84278 C84.90704 110.94079 81.46981 111.02965 78.03246 111.12025 C78.69246 116.40025 79.35246 121.68025 80.03246 127.12025 C88.44954 126.65063 96.09361 124.97995 104.19478 122.73891 C126.66457 116.54011 126.66457 116.54011 138.03246 116.12025 C138.24432 116.11154 138.24432 116.11154 139.31651 116.06746 C161.70626 115.17766 184.43887 117.19942 204.75365 127.47768 C205.71444 127.96046 206.68136 128.4311 207.65111 128.89565 C219.89634 134.78399 229.54782 142.38789 239.03246 152.12025 C239.18376 152.2741 239.18376 152.2741 239.94945 153.05263 C253.63726 167.20023 260.83544 185.81863 265.86839 204.46791 C265.97222 204.84867 266.07605 205.22943 266.18303 205.62173 C267.58099 210.94389 268.20247 216.17454 268.30589 221.67104 C268.31838 222.28281 268.33086 222.89458 268.34372 223.52489 C268.37615 225.49417 268.39614 227.46326 268.40746 229.43275 C268.40961 229.7678 268.41176 230.10285 268.41398 230.44805 C268.47241 241.72596 267.45058 251.66475 263.03246 262.12025 C262.82959 262.6296 262.62672 263.13894 262.41771 263.66371 C261.31212 266.42631 260.09061 269.09892 258.7346 271.74721 C258.23948 272.71542 257.75403 273.6886 257.27562 274.66518 C253.34482 282.68073 248.78967 289.42991 242.86107 296.08974 C242.03246 297.12025 242.03246 297.12025 241.54369 298.25429 C241.03246 299.12025 241.03246 299.12025 239.03246 299.12025 C238.53572 300.07023 238.04598 301.02497 237.60423 302.00172 C236.65298 303.86259 235.26916 305.28028 233.84496 306.79213 C233.69337 306.95577 233.69337 306.95577 232.92625 307.78389 C232.2898 308.4683 231.65101 309.15056 231.00999 309.8307 C230.02813 310.87485 229.05739 311.9286 228.08714 312.98354 C227.46539 313.6495 226.84301 314.31489 226.21996 314.97963 C225.93032 315.29519 225.64068 315.61075 225.34227 315.93587 C223.26213 318.12025 223.26213 318.12025 221.03246 318.12025 C220.51747 318.89006 220.51747 318.89006 220.11693 319.93324 C219.05221 322.28025 217.66689 323.52315 215.68089 325.11244 C210.27061 329.65504 205.29678 334.63252 200.2971 339.61537 C199.21215 340.69596 198.12267 341.77161 197.02855 342.84291 C189.69046 350.03109 183.1514 357.45601 177.06516 365.7343 C175.30273 368.0996 173.46573 370.40826 171.57076 372.66881 C169.918 374.78798 169.83457 375.73563 171.03246 378.12025 C172.16541 378.88297 173.1179 379.41111 174.34886 379.95229 C175.03395 380.27579 175.71901 380.59936 176.40404 380.92299 C176.76226 381.08759 177.12047 381.25218 177.48955 381.42177 C203.01381 393.22063 210.28948 415.35932 210.13011 442.40541 C210.12824 443.35662 210.12682 444.30783 210.12582 445.25903 C210.12206 447.72985 210.11228 450.20061 210.10112 452.6714 C210.09078 455.20578 210.0863 457.74016 210.08128 460.27455 C210.07065 465.22315 210.05364 470.17169 210.03246 475.12025 C176.77402 475.20591 143.51557 475.28541 110.25705 475.33197 C109.76519 475.33266 109.27333 475.33335 108.76656 475.33406 C98.07835 475.34902 87.39013 475.36288 76.70191 475.37558 C71.46077 475.38182 66.21964 475.3883 60.9785 475.39491 C60.45693 475.39557 59.93536 475.39622 59.39799 475.39689 C42.4778 475.41822 25.5577 475.45579 8.63756 475.50174 C-8.74313 475.54886 -26.12377 475.57967 -43.50453 475.58983 C-45.95673 475.59127 -48.40894 475.5929 -50.86115 475.59464 C-51.3438 475.59498 -51.82645 475.59531 -52.32373 475.59566 C-60.10816 475.60158 -67.89245 475.6248 -75.67683 475.65441 C-83.49368 475.68378 -91.31039 475.69511 -99.1273 475.68776 C-103.77749 475.68394 -108.42716 475.69422 -113.07726 475.72424 C-116.17819 475.7429 -119.27878 475.74364 -122.37974 475.72941 C-124.15033 475.72182 -125.91994 475.72237 -127.69043 475.74467 C-129.59208 475.76844 -131.4923 475.75408 -133.39403 475.73549 C-133.95132 475.74863 -134.50861 475.76176 -135.08279 475.7753 C-137.90263 475.71224 -139.18373 475.6435 -139.8078 472.68903 C-139.88769 471.83484 -139.94303 470.97782 -139.96754 470.12025 C-140.01024 469.55411 -140.05294 468.98797 -140.09694 468.40468 C-140.0975 468.14441 -140.0975 468.14441 -140.10036 466.82729 C-140.10253 466.21023 -140.10471 465.59317 -140.10695 464.95741 C-140.10286 464.28252 -140.09803 463.60764 -140.09254 462.93275 C-140.09066 462.57998 -140.08878 462.22721 -140.08684 461.86375 C-140.06913 458.94882 -140.0212 456.03473 -139.96754 453.12025 C-139.95894 452.61833 -139.95034 452.1164 -139.94148 451.59926 C-139.38026 419.91771 -134.39379 387.74956 -99.96754 377.12025 C-100.57671 373.61556 -101.92064 371.53378 -104.15504 368.80775 C-104.46386 368.41967 -104.77267 368.03158 -105.09084 367.63173 C-106.61 365.73656 -108.16514 363.87794 -109.76442 362.04994 C-110.04133 361.73324 -110.31823 361.41653 -110.60353 361.09023 C-111.12661 360.498 -111.6549 359.91033 -112.18898 359.32802 C-113.5982 357.74971 -113.96754 357.32651 -113.96754 355.12025 C-114.62754 355.12025 -115.28754 355.12025 -115.96754 355.12025 C-115.96754 354.46025 -115.96754 353.80025 -115.96754 353.12025 C-116.62754 353.12025 -117.28754 353.12025 -117.96754 353.12025 C-118.70526 352.51978 -118.70526 352.51978 -119.40187 351.66689 C-119.66833 351.34942 -119.93479 351.03195 -120.20932 350.70486 C-120.49434 350.35597 -120.77936 350.00707 -121.07301 349.6476 C-124.59991 345.47569 -128.34856 341.58544 -132.22169 337.73573 C-133.30031 336.66259 -134.37333 335.58405 -135.44606 334.50502 C-136.13649 333.81525 -136.82724 333.12578 -137.51833 332.43666 C-137.83602 332.11694 -138.15372 331.79722 -138.48105 331.4678 C-138.77864 331.17337 -139.07622 330.87893 -139.38283 330.57558 C-139.51217 330.44663 -139.51217 330.44663 -140.16672 329.7941 C-140.96754 329.12025 -140.96754 329.12025 -142.06659 328.6543 C-142.96754 328.12025 -142.96754 328.12025 -142.96754 326.12025 C-143.62754 326.12025 -144.28754 326.12025 -144.96754 326.12025 C-144.96754 325.46025 -144.96754 324.80025 -144.96754 324.12025 C-145.62754 324.12025 -146.28754 324.12025 -146.96754 324.12025 C-146.96754 323.46025 -146.96754 322.80025 -146.96754 322.12025 C-147.62754 322.12025 -148.28754 322.12025 -148.96754 322.12025 C-149.72609 321.48109 -149.72609 321.48109 -150.44801 320.58119 C-150.72146 320.25111 -150.9949 319.92103 -151.27663 319.58095 C-151.42157 319.40181 -151.42157 319.40181 -152.15504 318.49525 C-154.45999 315.73722 -156.78591 313.30275 -159.59254 311.05775 C-162.06318 309.05502 -164.05213 306.95989 -165.90504 304.37025 C-166.11661 304.07627 -166.32818 303.78228 -166.54616 303.47939 C-167.65967 301.84228 -167.96754 301.16216 -167.96754 299.12025 C-168.62754 299.12025 -169.28754 299.12025 -169.96754 299.12025 C-169.96754 298.46025 -169.96754 297.80025 -169.96754 297.12025 C-170.62754 297.12025 -171.28754 297.12025 -171.96754 297.12025 C-171.96754 296.46025 -171.96754 295.80025 -171.96754 295.12025 C-172.62754 295.12025 -173.28754 295.12025 -173.96754 295.12025 C-174.79229 294.13855 -175.43719 293.23072 -176.10426 292.1476 C-176.30453 291.83334 -176.50479 291.51908 -176.71112 291.1953 C-177.36849 290.155 -178.01281 289.10745 -178.65504 288.05775 C-178.76595 287.87827 -178.76595 287.87827 -179.32722 286.96996 C-185.11556 277.56984 -189.96511 267.8453 -193.34254 257.30775 C-193.49836 256.82927 -193.65418 256.35079 -193.81471 255.8578 C-196.49349 246.77974 -196.20824 236.92956 -196.21754 227.55775 C-196.21822 226.9422 -196.21889 226.32664 -196.21959 225.69243 C-196.20195 215.51943 -195.59117 205.96661 -192.96754 196.12025 C-192.80126 195.4891 -192.63497 194.85794 -192.46364 194.20766 C-188.40144 179.42201 -181.38561 166.37613 -170.96754 155.12025 C-170.52959 154.63992 -170.09163 154.15958 -169.6404 153.66469 C-153.79968 136.40077 -133.97236 124.19495 -110.96754 119.12025 C-110.48914 119.01133 -110.01074 118.9024 -109.51784 118.79018 C-104.20914 117.61088 -98.88456 116.94151 -93.46754 116.49525 C-92.98213 116.45505 -92.49672 116.41485 -91.9966 116.37343 C-82.59863 115.71626 -73.42477 116.19075 -64.09254 117.37025 C-63.55663 117.4365 -63.02071 117.50275 -62.46855 117.571 C-47.66605 119.41336 -33.00306 121.71611 -18.85011 126.54555 C-18.24691 126.75067 -17.64371 126.95579 -17.02223 127.16713 C-16.50129 127.35114 -15.98035 127.53516 -15.44362 127.72475 C-12.61102 128.48373 -12.61102 128.48373 -10.96754 128.12025 C-10.37045 126.72628 -10.06818 125.65136 -9.79958 124.18275 C-9.71504 123.78323 -9.6305 123.3837 -9.5434 122.97206 C-9.27545 121.69048 -9.02764 120.40591 -8.78004 119.12025 C-8.60232 118.2528 -8.4233 117.3856 -8.24294 116.51869 C-7.80274 114.38865 -7.38057 112.25572 -6.96754 110.12025 C-7.38906 110.1247 -7.81057 110.12914 -8.24486 110.13371 C-12.21757 110.17379 -16.19021 110.20424 -20.16307 110.22388 C-22.20557 110.23432 -24.2479 110.24847 -26.2903 110.27113 C-28.26142 110.29287 -30.23237 110.30482 -32.2036 110.31001 C-32.95557 110.3137 -33.70753 110.32092 -34.45942 110.33171 C-35.51294 110.34624 -36.5658 110.34823 -37.6194 110.34731 C-38.21897 110.35175 -38.81853 110.35619 -39.43626 110.36076 C-41.5656 110.02632 -42.76302 109.09121 -43.21923 106.92544 C-43.21998 106.47916 -43.22073 106.03289 -43.22151 105.57309 C-43.22433 105.31593 -43.22433 105.31593 -43.2386 104.01457 C-43.23658 103.73379 -43.23658 103.73379 -43.22633 102.31288 C-43.22809 102.016 -43.22809 102.016 -43.23695 100.51358 C-43.24425 98.88507 -43.24253 97.25689 -43.2362 95.62838 C-43.23112 93.918 -43.23583 92.20764 -43.23897 90.49725 C-43.24261 87.61968 -43.23781 84.7422 -43.22829 81.86464 C-43.21745 78.55413 -43.22089 75.24387 -43.23194 71.93337 C-43.24107 69.08142 -43.24227 66.22954 -43.23706 63.37758 C-43.23397 61.6788 -43.23346 59.98015 -43.24014 58.28138 C-43.25108 54.22096 -43.20249 50.17457 -42.96754 46.12025 C-42.94383 45.70046 -42.92012 45.28067 -42.89569 44.84815 C-42.61386 41.36767 -42.1111 38.96754 -38.32422 38.40201 C-36.36184 38.2621 -34.4228 38.34853 -32.45973 38.43666 C-31.61066 38.44972 -30.76154 38.45968 -29.9124 38.46667 C-27.6784 38.49339 -25.4476 38.56211 -23.21486 38.6396 C-20.93625 38.71125 -18.65712 38.74319 -16.3777 38.77846 C-11.90625 38.85351 -7.43716 38.97294 -2.96754 39.12025 C-2.98418 38.8175 -2.98418 38.8175 -3.06834 37.28535 C-3.5956 27.65019 -4.06919 18.0216 -4.09254 8.37025 C-4.09379 8.1877 -4.09379 8.1877 -4.10011 7.26384 C-4.10591 6.24204 -4.10336 5.2202 -4.10036 4.19838 C-4.09923 3.62507 -4.0981 3.05176 -4.09694 2.46107 C-3.83789 -0.22322 -2.30649 -0.00385 0 0 Z M13.03246 14.12025 C13.03246 26.66025 13.03246 39.20025 13.03246 52.12025 C-0.16754 52.12025 -13.36754 52.12025 -26.96754 52.12025 C-26.96754 66.64025 -26.96754 81.16025 -26.96754 96.12025 C-13.76754 96.12025 -0.56754 96.12025 13.03246 96.12025 C12.04246 98.76025 11.05246 101.40025 10.03246 104.12025 C8.72166 108.72848 8.72166 108.72848 8.32037 110.33585 C8.23066 110.69335 8.14094 111.05085 8.0485 111.41919 C7.95684 111.78589 7.86518 112.1526 7.77074 112.53041 C7.5734 113.30938 7.37591 114.0883 7.17825 114.86719 C6.76924 116.48403 6.36388 118.10174 5.96092 119.72011 C5.44865 121.7752 4.92456 123.82707 4.39738 125.87838 C3.98754 127.4805 3.58538 129.08449 3.18528 130.68907 C2.99536 131.44592 2.80286 132.20214 2.60752 132.95761 C1.37044 137.75871 0.76933 142.13845 1.03246 147.12025 C-11.57497 143.51459 -11.57497 143.51459 -15.71754 141.12025 C-21.47553 137.878 -28.44589 136.95182 -34.84401 135.58168 C-36.75229 135.17119 -38.65121 134.72694 -40.54958 134.2726 C-55.51422 130.74461 -70.3077 129.89553 -85.61553 129.75825 C-86.76244 129.74545 -87.90901 129.72547 -89.05577 129.70341 C-103.29257 129.44814 -114.87444 132.44799 -127.46754 139.24525 C-127.6911 139.36408 -127.6911 139.36408 -128.82243 139.96544 C-154.64224 153.74268 -172.8585 175.58245 -179.96754 204.12025 C-180.14342 204.73288 -180.3193 205.34551 -180.5005 205.9767 C-182.29573 212.58724 -182.30597 219.19831 -182.28322 226.01234 C-182.28006 227.98508 -182.30358 229.9563 -182.32887 231.92885 C-182.3846 242.72722 -180.45011 251.87333 -175.71754 261.55775 C-175.41216 262.19461 -175.10682 262.83149 -174.80153 263.4684 C-168.55973 276.36098 -160.83545 287.14899 -151.18239 297.67885 C-149.72599 299.27093 -148.30321 300.88364 -146.90895 302.53041 C-146.74975 302.71761 -146.74975 302.71761 -145.94411 303.66493 C-145.34961 304.36756 -144.7595 305.07394 -144.17458 305.78456 C-142.18872 308.12025 -142.18872 308.12025 -139.96754 308.12025 C-139.50717 309.06858 -139.05069 310.01901 -138.61549 310.97914 C-137.38544 313.14541 -135.41111 314.59142 -133.53004 316.18275 C-125.98939 322.77058 -118.84526 329.76458 -112.38429 337.42006 C-110.6035 339.49578 -108.72484 341.22692 -106.59254 342.93275 C-98.71892 349.36002 -88.18133 361.59775 -85.53859 371.77162 C-84.75112 373.63139 -84.25385 373.48549 -82.29958 373.44838 C-81.74359 373.44403 -81.1876 373.43968 -80.61476 373.4352 C-80.0093 373.41377 -79.40385 373.39233 -78.78004 373.37025 C-78.15074 373.35785 -77.52144 373.34544 -76.87306 373.33266 C-68.00689 373.11401 -59.21238 372.42458 -50.41527 371.31035 C-42.16 370.26768 -33.89357 369.62287 -25.59254 369.05775 C-25.00891 369.01764 -24.42528 368.97753 -23.82396 368.9362 C-20.20496 368.68951 -16.58518 368.45964 -12.96434 368.24168 C-11.5977 368.15928 -10.23132 368.07348 -8.86504 367.9854 C4.87247 367.105 18.58157 366.91624 32.34496 366.93275 C32.90327 366.93317 33.46159 366.93358 34.03682 366.93401 C71.6174 366.9687 108.64083 368.81455 145.9287 373.57948 C146.27793 373.62339 146.62717 373.66729 146.98699 373.71253 C148.69353 373.93088 150.39037 374.17424 152.08606 374.46564 C152.71935 374.57112 153.35263 374.67661 154.00511 374.78529 C154.56328 374.88562 155.12144 374.98594 155.69652 375.08931 C157.58899 375.13315 158.0046 374.29024 158.4077 372.51723 C158.46949 372.1181 158.53129 371.71898 158.59496 371.30775 C158.80363 370.46275 159.02283 369.6203 159.25121 368.78041 C159.3698 368.33971 159.48839 367.89901 159.61058 367.44496 C162.23741 359.19659 168.84322 352.71289 174.65477 346.60927 C175.92831 345.25094 177.13936 343.84438 178.35033 342.43033 C182.6991 337.36379 187.36258 332.63786 192.09325 327.92909 C193.46803 326.55968 194.83737 325.18499 196.20628 323.80971 C200.52298 319.49043 204.86117 315.245 209.53342 311.30835 C211.6859 309.48657 213.42983 307.55505 215.11986 305.28822 C216.10784 304.02378 217.17521 302.93028 218.32152 301.80775 C230.40704 289.83897 240.13729 277.78491 246.46996 261.87025 C246.63176 261.46436 246.79357 261.05847 246.96028 260.64027 C248.06665 257.82674 249.07791 254.98864 250.03246 252.12025 C250.17654 251.69393 250.32062 251.2676 250.46907 250.82835 C252.94156 243.33667 253.56111 236.29312 253.46996 228.43275 C253.46658 227.8651 253.46321 227.29745 253.45973 226.7126 C253.29357 207.33504 247.00395 189.1235 236.03246 173.12025 C235.72115 172.66232 235.40984 172.20438 235.0891 171.73256 C223.10944 154.36554 208.37889 141.53821 188.03246 135.12025 C187.55711 134.96863 187.08177 134.817 186.59203 134.66078 C174.95929 131.0342 163.42705 129.77826 151.27928 129.85951 C149.5719 129.87084 147.86514 129.86415 146.15778 129.85265 C132.96955 129.7771 120.13561 131.1256 107.40746 134.74525 C107.18183 134.80767 107.18183 134.80767 106.04005 135.12355 C95.77727 137.97258 85.87702 141.74098 76.0092 145.72597 C74.65515 146.27256 73.29884 146.81347 71.94261 147.35463 C71.30584 147.60972 70.6691 147.86486 70.03246 148.12025 C70.01828 147.60721 70.0041 147.09416 69.98949 146.56557 C69.64806 140.19174 68.09102 134.3548 66.31709 128.26414 C64.58995 122.32495 63.16225 116.42778 62.10912 110.33046 C61.19994 105.2846 59.71271 101.16103 58.03246 96.12025 C64.46746 96.28525 64.46746 96.28525 97.03246 97.12025 C97.03246 82.27025 97.03246 67.42025 97.03246 52.12025 C84.16246 52.12025 71.29246 52.12025 58.03246 52.12025 C58.36246 39.58025 58.69246 27.04025 59.03246 14.12025 C43.85246 14.12025 28.67246 14.12025 13.03246 14.12025 Z " fill="#050605" transform="translate(195.96754455566406,-0.1202545166015625)"/>
<path d="M0 0 C3.58399 -0.0003 7.1679 -0.00842 10.75186 -0.0207 C32.43337 -0.09323 54.07111 0.05366 75.7316 1.08355 C76.16383 1.1036 76.59607 1.12366 77.04141 1.14432 C111.44934 2.74117 159.38841 5.58639 167.70816 47.18511 C167.70816 59.06511 167.70816 70.94511 167.70816 83.18511 C61.77816 83.18511 -44.15184 83.18511 -153.29184 83.18511 C-153.29184 47.06809 -148.43257 13.55529 -108.3328 6.41073 C-103.96785 5.68517 -99.58361 5.08225 -95.18468 4.6027 C-92.50133 4.2914 -92.50133 4.2914 -91.30487 3.68433 C-90.22812 3.15371 -89.44798 3.00786 -88.25839 2.90386 C-87.85874 2.86712 -87.45908 2.83038 -87.04732 2.79253 C-86.82921 2.77481 -86.82921 2.77481 -85.72544 2.68511 C-85.25485 2.64451 -84.78427 2.6039 -84.29943 2.56206 C-83.28657 2.47599 -82.27354 2.39208 -81.26035 2.31011 C-79.81377 2.192 -78.36833 2.06426 -76.9227 1.93511 C-73.38246 1.63159 -69.83858 1.39777 -66.29184 1.18511 C-66.10561 1.17384 -66.10561 1.17384 -65.16314 1.11681 C-43.46733 -0.17212 -21.72456 -0.00268 0 0 Z " fill="#F0F0F0" transform="translate(224.29184156656265,377.8148888349533)"/>
<path d="M0 0 C1.17185 -0.00217 2.34273 -0.02035 3.5144 -0.03931 C8.75364 -0.07882 13.36824 0.65068 18.37183 2.1853 C18.60559 2.25568 18.60559 2.25568 19.78857 2.61182 C38.04221 8.48717 47.58706 23.20572 45.37183 42.1853 C43.07562 54.01987 35.30029 63.49439 27.30933 72.0603 C27.01214 72.37922 26.71495 72.69815 26.40875 73.02673 C23.00758 76.65305 19.51579 79.98103 15.65186 83.10767 C14.00097 84.49752 12.65915 86.01061 11.30933 87.6853 C9.08437 90.34122 6.74925 92.8456 4.28198 95.27515 C4.0064 95.54681 3.73082 95.81848 3.44688 96.09837 C2.30148 97.22486 1.15442 98.34944 -0.00027 99.4664 C-3.19792 102.56223 -5.99528 105.50669 -8.36646 109.30347 C-12.51345 115.80574 -17.31731 115.09521 -24.44452 114.30682 C-26.8209 114.06285 -29.20375 113.89123 -31.58521 113.70483 C-37.27142 113.25102 -42.95026 112.7325 -48.62817 112.1853 C-49.93955 91.18767 -50.85568 70.20892 -50.93323 49.16748 C-50.94064 47.69228 -50.95388 46.21724 -50.96875 44.7421 C-50.99134 42.40049 -50.9977 40.05936 -50.99169 37.71766 C-50.99154 36.86078 -50.99616 36.00389 -51.00622 35.14707 C-51.23191 13.86799 -30.71791 5.948 -12.62817 1.1853 C-12.4417 1.1341 -12.4417 1.1341 -11.49805 0.875 C-7.71406 -0.03107 -3.86846 -0.0008 0 0 Z M-22.62817 19.1853 C-23.23521 19.48296 -23.84248 19.78014 -24.44995 20.0769 C-36.7515 26.13021 -36.7515 26.13021 -36.75516 31.03859 C-36.75798 31.62047 -36.7608 32.20235 -36.7637 32.80186 C-36.76168 33.4383 -36.75965 34.07474 -36.75757 34.73047 C-36.75892 35.40894 -36.7607 36.0874 -36.76288 36.76587 C-36.76744 38.60669 -36.76567 40.44745 -36.7625 42.28827 C-36.75997 44.21366 -36.76232 46.13905 -36.76389 48.06444 C-36.7657 51.29671 -36.76331 54.52896 -36.75854 57.76123 C-36.7531 61.50123 -36.75487 65.24117 -36.76037 68.98117 C-36.7649 72.19054 -36.76555 75.3999 -36.76293 78.60928 C-36.76137 80.52692 -36.76117 82.44454 -36.76447 84.36218 C-36.76735 86.16384 -36.76537 87.96543 -36.75957 89.76708 C-36.75762 90.74614 -36.7606 91.72521 -36.7637 92.70427 C-36.76088 93.28333 -36.75806 93.86239 -36.75516 94.459 C-36.75478 94.96431 -36.7544 95.46962 -36.75401 95.99024 C-36.56304 97.8039 -36.00431 98.13759 -34.23291 98.3623 C-32.64648 98.41714 -31.06094 98.46199 -29.47363 98.48047 C-28.79373 98.49188 -28.11391 98.51215 -27.43457 98.54199 C-19.30324 98.89882 -15.40675 95.34455 -10.48997 89.49481 C-8.12206 86.68837 -5.59541 84.10799 -2.9563 81.5564 C-2.12364 80.74835 -1.29104 79.94024 -0.4585 79.13208 C-0.03642 78.72254 0.38566 78.313 0.82053 77.89105 C9.3225 69.60502 17.03936 61.24696 23.37183 51.1853 C23.67669 50.70916 23.98155 50.23301 24.29565 49.74243 C28.12604 43.59916 29.27024 38.36121 28.37183 31.1853 C28.34911 30.98195 28.34911 30.98195 28.23413 29.95288 C27.00792 20.06412 20.48289 14.45196 10.5345 13.77419 C8.12468 13.67393 5.72086 13.66305 3.30933 13.6853 C2.80049 13.68707 2.29165 13.68883 1.7674 13.69064 C-7.22186 13.75997 -14.52255 15.10185 -22.62817 19.1853 Z " fill="#030303" transform="translate(319.628173828125,197.814697265625)"/>
<path d="M0 0 C1.01596 0.40261 2.03488 0.79696 3.05432 1.19067 C5.13209 1.99947 7.19193 2.84758 9.24866 3.70825 C9.84952 3.95519 10.45039 4.20212 11.06946 4.45654 C12.31525 5.0059 13.47878 5.56036 14.67192 6.20073 C15.91102 6.8607 17.1334 7.45085 18.43394 7.98264 C31.52745 13.39453 30.71549 22.21517 30.38004 34.75145 C30.3232 37.30528 30.33125 39.859 30.3308 42.41335 C30.32064 46.69371 30.26495 50.9715 30.17859 55.25098 C30.07897 60.20148 30.03894 65.1496 30.03308 70.10105 C30.02657 75.37963 29.98196 80.65734 29.9234 85.93557 C29.9088 87.4559 29.90082 88.97614 29.89409 90.49652 C29.88132 92.87853 29.84272 95.25876 29.78372 97.64006 C29.76587 98.51513 29.75654 99.39042 29.75618 100.26567 C29.74355 107.73411 29.74355 107.73411 26.56566 108.40991 C25.24448 108.45338 25.24448 108.45338 23.99866 108.39575 C23.39473 108.46351 22.79081 108.53126 22.16858 108.60107 C21.60719 108.63773 21.04581 108.67439 20.46741 108.71216 C19.82787 108.75446 19.18833 108.79675 18.52942 108.84033 C17.85254 108.88043 17.17562 108.91972 16.49866 108.95825 C16.15128 108.9781 15.80389 108.99795 15.44598 109.0184 C13.30568 109.1381 11.16496 109.24502 9.02368 109.3457 C8.04342 109.39357 7.0635 109.44821 6.08362 109.50317 C4.34694 109.59492 2.61194 109.65669 0.87366 109.70825 C0.36641 109.73798 -0.14083 109.76771 -0.66345 109.79834 C-7.93245 109.91297 -12.5125 104.08742 -17.00793 99.11279 C-18.62601 97.32327 -20.26496 95.55307 -21.90369 93.78247 C-22.23984 93.41862 -22.57599 93.05477 -22.92233 92.6799 C-26.51133 88.8134 -30.2485 85.10218 -34.00134 81.39575 C-38.29408 77.14646 -42.52015 72.90335 -46.39978 68.26685 C-47.6043 66.83117 -48.86836 65.47104 -50.16541 64.11841 C-64.87003 48.65875 -73.81897 29.00117 -60.02673 9.94824 C-45.72773 -8.29169 -19.67232 -7.80273 0 0 Z M-48.17639 25.17383 C-48.23324 27.06431 -48.22539 28.94234 -48.18884 30.83325 C-48.1882 31.46296 -48.18755 32.09267 -48.18689 32.74146 C-48.16942 34.63017 -48.08676 36.50906 -48.00134 38.39575 C-48.00884 38.66718 -48.00884 38.66718 -48.04675 40.04077 C-47.65511 51.28453 -34.47547 61.24852 -26.92401 68.5625 C-24.36814 71.03839 -21.82252 73.52454 -19.2865 76.02075 C-19.15031 76.15434 -19.15031 76.15434 -18.46111 76.83038 C-14.23073 80.99273 -10.39267 85.32632 -6.79994 90.05835 C-6.63558 90.27129 -6.63558 90.27129 -5.80383 91.34888 C-5.52563 91.72174 -5.24743 92.0946 -4.9608 92.47876 C-2.78961 94.55386 -0.06971 94.5163 2.79163 94.49341 C3.14252 94.49199 3.49341 94.49058 3.85493 94.48912 C4.96543 94.48356 6.07572 94.47102 7.18616 94.45825 C7.94332 94.45323 8.70048 94.44867 9.45764 94.44458 C11.30471 94.43361 13.15166 94.41638 14.99866 94.39575 C15.4812 85.01849 15.87548 75.64138 16.16699 66.2562 C16.3044 61.89736 16.46977 57.54308 16.703 53.18823 C16.90641 49.38887 17.0553 45.59177 17.14095 41.78787 C17.18814 39.77454 17.26097 37.77018 17.39941 35.76089 C18.31788 22.00929 13.39734 17.78457 0.99866 13.39575 C0.02301 13.02292 -0.95203 12.6485 -1.92616 12.27173 C-3.93469 11.51052 -5.91349 10.90715 -8.00134 10.39575 C-8.33392 10.30439 -8.6665 10.21303 -9.00916 10.1189 C-13.08802 9.12574 -17.25493 9.17407 -21.42908 9.15552 C-22.73508 9.14587 -24.03946 9.11481 -25.34509 9.08325 C-36.85653 8.93789 -46.8949 12.15693 -48.17639 25.17383 Z " fill="#060605" transform="translate(163.0013427734375,202.604248046875)"/>
<path d="M0 0 C3.31479 2.97859 5.6425 6.26001 7.9375 10.0625 C8.02401 10.2052 8.02401 10.2052 8.46182 10.92734 C16.17697 23.69969 22.94036 39.44355 23.27344 54.57812 C23.27972 54.84014 23.27972 54.84014 23.31154 56.16612 C23.55876 68.9644 22.93072 80.13142 18 92 C17.86705 92.32595 17.73409 92.6519 17.59711 92.98773 C11.89012 106.94411 3.98786 118.42436 -5.95862 129.65834 C-7.76684 131.70903 -9.47713 133.82561 -11.17065 135.97217 C-12.14948 137.18526 -13.19236 138.29152 -14.3125 139.375 C-15.75251 140.77989 -17.18813 142.18575 -18.59375 143.625 C-21.19296 146.27848 -23.80667 148.87751 -26.63719 151.28546 C-31.68757 155.58195 -36.39521 160.20906 -41.0813 164.896 C-42.42707 166.23959 -43.78066 167.57496 -45.13477 168.91016 C-51.20405 174.94079 -56.7103 181.27899 -62 188 C-62.60707 188.76427 -63.21416 189.52851 -63.82129 190.29272 C-66.31079 193.42755 -68.4856 196.62062 -70.3125 200.1875 C-70.4721 200.49647 -70.6317 200.80544 -70.79614 201.12378 C-71.66426 202.92857 -72.17287 204.65278 -72.54761 206.62231 C-72.63355 207.06872 -72.71949 207.51512 -72.80803 207.97505 C-72.8397 208.14417 -72.8397 208.14417 -73 209 C-73.64324 208.91959 -74.28648 208.83919 -74.94922 208.75635 C-75.3786 208.70268 -75.80798 208.649 -76.25037 208.5937 C-76.72462 208.53442 -77.19887 208.47514 -77.6875 208.41406 C-78.17755 208.35281 -78.66759 208.29155 -79.17249 208.22844 C-82.42908 207.82137 -85.68567 207.41429 -88.94226 207.00722 C-89.21476 206.97316 -89.21476 206.97316 -90.59375 206.80078 C-93.63151 206.42106 -96.66927 206.04134 -99.70703 205.66162 C-100.1205 205.60994 -100.53396 205.55825 -100.95996 205.505 C-102.11003 205.36125 -103.26009 205.21749 -104.41016 205.07373 C-105.10677 204.98665 -105.80339 204.89958 -106.5 204.8125 C-106.83789 204.77026 -106.83789 204.77026 -108.52734 204.55908 C-108.82705 204.52162 -108.82705 204.52162 -110.34375 204.33203 C-111.22917 204.22135 -112.11458 204.11068 -113 204 C-112.43797 203.73316 -111.87594 203.46633 -111.29688 203.19141 C-103.0098 199.02966 -96.80814 193.10737 -91 186 C-89.94329 184.72424 -88.8809 183.45349 -87.8125 182.1875 C-87.56911 181.89802 -87.32572 181.60855 -87.07495 181.3103 C-85.68529 179.69117 -84.28056 178.34547 -82.5625 177.0625 C-80.28383 175.35712 -78.52393 173.40443 -76.6875 171.25 C-74.23621 168.38167 -71.72601 165.61091 -69.0625 162.9375 C-68.77528 162.64585 -68.48806 162.3542 -68.19214 162.05371 C-66.32145 160.19461 -64.37117 158.44973 -62.36992 156.73415 C-58.02887 152.99976 -53.94056 149.06375 -49.91682 144.99199 C-48.80754 143.86961 -47.69488 142.75068 -46.58142 141.63245 C-44.21807 139.25782 -41.85871 136.87924 -39.5 134.5 C-36.76056 131.73672 -34.01937 128.97522 -31.27388 126.21794 C-30.19295 125.13066 -29.11514 124.04035 -28.03748 122.94983 C-24.37972 119.26584 -20.65837 115.72006 -16.68192 112.37881 C-14.09701 110.18386 -12.03291 107.77833 -10.00781 105.06641 C-9 104 -9 104 -7 104 C-6.68921 103.09302 -6.68921 103.09302 -6.55859 101.83203 C-6.05196 98.68914 -4.71971 96.37004 -3.0625 93.6875 C-2.7976 93.23311 -2.5327 92.77871 -2.25977 92.31055 C-2.00002 91.88193 -1.74027 91.45332 -1.47266 91.01172 C-1.23813 90.6246 -1.0036 90.23748 -0.76196 89.83862 C0 89 0 89 2 89 C2.39478 88.12964 2.39478 88.12964 2.59766 86.91797 C2.67693 86.48033 2.75621 86.0427 2.83789 85.5918 C2.91201 85.12838 2.98613 84.66496 3.0625 84.1875 C4.18301 77.69596 4.18301 77.69596 5 76 C5.66 76 6.32 76 7 76 C8.64493 67.90224 9.34614 60.05088 9.31567 51.79102 C9.3125 50.00069 9.33614 48.212 9.36133 46.42188 C9.41431 36.74989 7.88336 27.98026 3.9375 19.125 C1.30417 13.02443 0.69961 6.56095 0 0 Z " fill="#A5A5A0" transform="translate(426,166)"/>
<path d="M0 0 C0.33 0 0.66 0 1 0 C2.03081 17.22557 2.03081 17.22557 -4 25 C-4.58382 25.78779 -5.16758 26.57563 -5.75003 27.36443 C-8.21956 30.69856 -10.7566 33.97481 -13.36182 37.20404 C-14.03273 38.04082 -14.69396 38.88478 -15.35547 39.729 C-15.7991 40.28448 -16.2431 40.83967 -16.6875 41.39453 C-17.08324 41.89445 -17.47898 42.39436 -17.88672 42.90942 C-19 44 -19 44 -21 44 C-21.52734 44.83984 -21.52734 44.83984 -21.9375 45.9375 C-22.91465 48.14571 -23.73105 48.24368 -26 49 C-26.47961 49.80888 -26.47961 49.80888 -26.9082 50.8269 C-27.94272 53.02635 -29.25809 54.5647 -30.96875 56.26953 C-31.24973 56.55479 -31.5307 56.84005 -31.82019 57.13396 C-32.40933 57.72879 -33.00104 58.32109 -33.59521 58.91089 C-34.50657 59.81905 -35.40371 60.73986 -36.30078 61.66211 C-36.87679 62.24039 -37.45359 62.8179 -38.03125 63.39453 C-38.16513 63.53302 -38.16513 63.53302 -38.84265 64.23384 C-40.73154 66.07635 -40.73154 66.07635 -42.18555 65.66284 C-42.31993 65.55347 -42.31993 65.55347 -43 65 C-42.78344 64.80406 -42.78344 64.80406 -41.6875 63.8125 C-40.38686 62.52436 -39.52591 61.24687 -38.64844 59.64404 C-37.07541 56.9742 -35.18772 54.99101 -32.9375 52.88281 C-32.13707 52.11116 -31.33721 51.33892 -30.53784 50.56616 C-30.33044 50.36708 -30.33044 50.36708 -29.28085 49.35959 C-21.29702 41.66413 -14.14788 33.85173 -8.05322 24.58252 C-7.08514 23.12793 -6.07531 21.71789 -5.04297 20.30859 C-0.54706 13.908 0.02549 7.71733 0 0 Z " fill="#31322C" transform="translate(349,226)"/>
<path d="M0 0 C3.31492 2.9787 5.642 6.26016 7.9375 10.0625 C8.10886 10.34457 8.28023 10.62665 8.45679 10.91727 C10.82495 14.82851 13.04368 18.80201 15 22.9375 C15.20746 23.36104 15.41492 23.78458 15.62866 24.22095 C17.32756 28.00246 18.7215 33.03477 15 35.875 C14.34531 36.27054 13.68169 36.65307 13 37 C13 35.68 13 34.36 13 33 C12.34 33 11.68 33 11 33 C10.56927 31.80034 10.29998 30.742 10.0625 29.5 C9.39505 26.44507 8.55725 23.54573 7.4375 20.625 C7.31061 20.29178 7.18372 19.95855 7.05298 19.61523 C6.43661 18.02807 5.76276 16.52552 5 15 C5.33 17.64 5.66 20.28 6 23 C4.5003 20.16291 3.35819 17.38471 2.4375 14.3125 C2.30819 13.88405 2.17888 13.4556 2.04565 13.01416 C0.81521 8.72375 0.31107 4.4408 0 0 Z " fill="#B1B0AA" transform="translate(426,166)"/>
</svg>
