<?xml version="1.0" encoding="UTF-8"?>
<!-- Generator: visioncortex VTracer 0.6.12 -->
<svg version="1.1" xmlns="http://www.w3.org/2000/svg" width="392" height="466">
<path d="M0 0 C0.33302 0.29795 0.66604 0.5959 1.00916 0.90288 C6.43923 5.83691 11.60564 11.06321 16.7915 16.25073 C18.35779 17.81712 19.93093 19.37641 21.50575 20.93421 C22.72559 22.14297 23.94089 23.3562 25.15494 24.57078 C25.73385 25.14851 26.31439 25.72464 26.89658 26.29908 C27.70279 27.09554 28.50247 27.89803 29.30078 28.70239 C29.7563 29.15649 30.21183 29.61059 30.68115 30.07845 C31.65234 31.29687 31.65234 31.29687 31.65234 33.29688 C32.31234 33.29688 32.97234 33.29688 33.65234 33.29688 C33.65234 33.95687 33.65234 34.61688 33.65234 35.29688 C34.31234 35.29688 34.97234 35.29688 35.65234 35.29688 C35.90395 35.76762 36.15556 36.23837 36.41479 36.72339 C37.93829 39.22467 40.77563 39.11323 43.45312 39.47266 C44.66019 39.65931 45.86722 39.84616 47.07422 40.0332 C47.70908 40.12674 48.34395 40.22028 48.99805 40.31665 C52.31228 40.80992 55.61787 41.35284 58.92188 41.91016 C59.25309 41.96588 59.5843 42.0216 59.92556 42.07901 C69.04065 43.62538 77.84738 46.06262 86.61951 48.9563 C87.57472 49.27128 88.53191 49.58024 89.48926 49.88867 C108.8805 56.25797 127.53349 67.98904 143.65234 80.29688 C143.85626 80.45124 143.85626 80.45124 144.88818 81.23242 C166.97915 98.05178 184.02214 119.14606 195.73193 144.3291 C196.32339 145.60085 196.92649 146.86542 197.54541 148.12402 C207.35171 168.15182 212.72505 190.27863 215.65234 212.29688 C215.71079 212.72364 215.76925 213.1504 215.82947 213.59009 C219.02698 237.02348 218.98289 261.02936 214.65234 284.29688 C214.5563 284.8187 214.46025 285.34053 214.3613 285.87817 C212.44507 296.17093 210.02929 306.32218 207.48315 316.47461 C207.05532 318.18125 206.63186 319.88888 206.21265 321.59766 C203.67657 331.93342 200.90899 342.12638 197.52202 352.21991 C197.39701 352.59911 197.27201 352.97831 197.14322 353.369 C196.91217 354.06897 196.67642 354.76741 196.43469 355.46377 C195.67596 357.77512 194.50363 361.41992 196.70288 363.09888 C196.94655 363.17086 196.94655 363.17086 198.17969 363.53516 C198.72029 363.71152 199.26089 363.88788 199.81787 364.06958 C200.40262 364.24771 200.98737 364.42584 201.58984 364.60938 C208.00207 366.82322 212.75329 369.62995 217.65234 374.29688 C217.96897 374.59433 218.2856 374.89178 218.61182 375.19824 C233.71506 389.78884 235.42134 411.5289 235.65234 431.29688 C235.65611 431.60013 235.65611 431.60013 235.67517 433.13477 C235.72735 437.57418 235.75971 442.01343 235.77394 446.45313 C235.77621 447.14103 235.77881 447.82894 235.78172 448.51684 C235.79123 450.79123 235.79075 453.06543 235.78516 455.33984 C235.78614 455.63363 235.78614 455.63363 235.79111 457.12036 C235.78802 457.65709 235.78492 458.19383 235.78174 458.74683 C235.78134 458.98203 235.78134 458.98203 235.77933 460.17229 C235.6087 461.68342 235.16886 462.23325 233.63634 462.42202 C233.2137 462.42209 232.79106 462.42215 232.35562 462.42222 C231.8677 462.42473 231.37978 462.42723 230.87707 462.42981 C230.60659 462.42864 230.60659 462.42864 229.2378 462.42272 C228.66459 462.42417 228.09137 462.42562 227.50079 462.42712 C225.8978 462.43016 224.29488 462.42867 222.69189 462.42534 C220.95249 462.42282 219.21309 462.42606 217.47369 462.42859 C214.42123 462.43221 211.36879 462.43208 208.31633 462.42954 C203.77734 462.42577 199.23837 462.42768 194.69938 462.43075 C186.59443 462.43602 178.48949 462.43555 170.38454 462.43267 C163.29193 462.43016 156.19932 462.42949 149.1067 462.43069 C148.87183 462.43073 148.87183 462.43073 147.6832 462.43092 C145.77648 462.43123 143.86977 462.43155 141.96306 462.43188 C124.06239 462.43494 106.16172 462.43216 88.26105 462.42679 C72.34379 462.42204 56.42654 462.42246 40.50928 462.42725 C22.64216 462.4326 4.77505 462.43473 -13.09207 462.43163 C-14.99538 462.43131 -16.8987 462.431 -18.80202 462.43069 C-19.27069 462.43061 -19.73937 462.43053 -20.22224 462.43045 C-27.31185 462.42931 -34.40146 462.43065 -41.49107 462.43317 C-49.54913 462.43602 -57.60717 462.43533 -65.66523 462.42989 C-70.1797 462.42694 -74.69414 462.42678 -79.20861 462.43054 C-82.21907 462.43277 -85.22952 462.4314 -88.23998 462.42703 C-89.95859 462.42464 -91.67716 462.42387 -93.39577 462.42744 C-95.24159 462.43044 -97.0873 462.4274 -98.93311 462.42272 C-99.47407 462.42506 -100.01503 462.4274 -100.57239 462.42981 C-101.06031 462.42731 -101.54823 462.4248 -102.05093 462.42222 C-102.47357 462.42216 -102.89621 462.42209 -103.33166 462.42202 C-105.34771 462.1737 -105.34852 461.28516 -105.4881 459.38609 C-105.50021 458.53992 -105.50663 457.69366 -105.50879 456.84741 C-105.51127 456.61635 -105.51127 456.61635 -105.52383 455.44704 C-105.53852 453.90608 -105.54528 452.36523 -105.55078 450.82422 C-105.55219 450.55885 -105.55219 450.55885 -105.55935 449.21591 C-105.57439 446.38995 -105.58358 443.56404 -105.58789 440.73804 C-105.59223 438.42895 -105.60591 436.12025 -105.62891 433.81128 C-105.92216 403.76342 -101.7283 375.82477 -70.45312 363.12109 C-70.11684 362.9797 -69.78056 362.83831 -69.43408 362.69263 C-68.34766 362.29688 -68.34766 362.29688 -67.0542 362.03198 C-62.50583 360.87858 -62.19243 357.50908 -61.34894 353.42484 C-59.23239 343.39758 -55.06582 334.96252 -49.88147 326.19989 C-49.38406 325.35846 -48.89248 324.51358 -48.40137 323.66846 C-38.82569 307.31491 -24.68298 292.28496 -10.47266 279.79688 C-10.18616 279.54116 -9.89967 279.28544 -9.60449 279.02197 C-8.01089 277.65946 -7.52572 277.29688 -5.34766 277.29688 C-5.34766 276.63687 -5.34766 275.97688 -5.34766 275.29688 C-4.65186 274.52588 -4.65186 274.52588 -3.65234 273.77344 C-3.27304 273.48058 -2.89373 273.18772 -2.50293 272.88599 C-2.08044 272.56783 -1.65795 272.24967 -1.22266 271.92188 C3.26715 268.44219 7.60419 264.8213 11.90234 261.10938 C12.77117 260.35929 13.63999 259.60922 14.50917 258.85954 C15.07187 258.37374 15.63392 257.88719 16.1953 257.39986 C17.52075 256.253 18.85484 255.12598 20.23022 254.03931 C23.92568 251.09038 26.88397 247.88787 29.71484 244.10938 C29.92857 243.8252 30.14229 243.54102 30.36249 243.24823 C31.82764 241.28827 33.24951 239.30189 34.65234 237.29688 C34.96188 236.85682 35.27142 236.41677 35.59033 235.96338 C40.59658 228.54239 40.21258 220.89858 39.65234 212.29688 C39.37044 212.58675 39.08854 212.87663 38.7981 213.17529 C25.28927 226.89228 9.52617 239.80226 -8.34766 247.29688 C-8.54126 247.38171 -8.54126 247.38171 -9.521 247.81104 C-13.92631 249.67652 -18.19625 250.35769 -22.94922 250.55469 C-23.36387 250.57221 -23.77852 250.58972 -24.20573 250.60777 C-26.29979 250.68875 -28.38901 250.73861 -30.48462 250.74341 C-37.5619 250.84097 -43.09588 253.00035 -47.66016 258.67188 C-47.93594 258.99857 -48.21171 259.32527 -48.49585 259.66187 C-51.55612 263.38058 -54.28741 267.35687 -57.06595 271.28696 C-75.53119 297.40141 -105.9133 285.45583 -131.49927 273.69556 C-143.20453 268.01621 -150.61958 260.44695 -155.34766 248.29688 C-155.43862 248.0648 -155.43862 248.0648 -155.89893 246.89038 C-156.43562 244.9845 -156.54545 243.16479 -156.58594 241.19922 C-156.59582 240.80876 -156.60571 240.41831 -156.61589 240.01602 C-156.94237 223.77286 -156.94237 223.77286 -152.34766 216.29688 C-152.07389 215.84329 -151.80013 215.3897 -151.51807 214.92236 C-147.71122 208.7303 -143.37448 202.91959 -138.979 197.13794 C-134.38606 191.07885 -130.04581 184.84321 -125.68365 178.61716 C-123.89294 176.06439 -122.08386 173.52541 -120.26562 170.99219 C-108.10031 154.02349 -98.44605 138.0156 -91.97656 118.07812 C-91.92467 117.91825 -91.92467 117.91825 -91.66207 117.10919 C-91.45036 116.45674 -91.2387 115.80427 -91.02707 115.1518 C-90.48861 113.49166 -89.94977 111.83164 -89.41016 110.17188 C-89.30305 109.84241 -89.19594 109.51295 -89.08558 109.1735 C-85.76607 98.98116 -82.35931 89.25747 -76.34766 80.29688 C-76.03651 79.82991 -75.72536 79.36295 -75.40479 78.88184 C-70.79771 72.175 -65.02294 67.24454 -58.62549 62.29443 C-56.78711 60.85928 -54.99836 59.37097 -53.22266 57.85938 C-52.93963 57.62444 -52.6566 57.38951 -52.36499 57.14746 C-51.25786 56.20596 -50.42554 55.45978 -49.79297 54.13672 C-49.34766 53.29688 -49.34766 53.29688 -47.34766 53.29688 C-46.82031 52.34375 -46.82031 52.34375 -46.41016 51.04688 C-45.83035 49.22301 -45.15373 48.06148 -43.90234 46.65234 C-41.72954 43.84375 -41.299 40.4468 -40.64087 37.04407 C-40.2477 35.02516 -39.81465 33.01484 -39.38281 31.00391 C-39.29706 30.60235 -39.21131 30.2008 -39.12296 29.78708 C-35.53628 13.19917 -35.53628 13.19917 -30.34766 7.29688 C-29.99059 6.86117 -29.63352 6.42547 -29.26562 5.97656 C-22.47803 -1.60556 -8.45037 -7.71509 0 0 Z " fill="#F5F5F5" transform="translate(156.34765625,3.703125)"/>
<path d="M0 0 C0.33302 0.29795 0.66604 0.5959 1.00916 0.90288 C6.43923 5.83691 11.60564 11.06321 16.7915 16.25073 C18.35779 17.81712 19.93093 19.37641 21.50575 20.93421 C22.72559 22.14297 23.94089 23.3562 25.15494 24.57078 C25.73385 25.14851 26.31439 25.72464 26.89658 26.29908 C27.70279 27.09554 28.50247 27.89803 29.30078 28.70239 C29.7563 29.15649 30.21183 29.61059 30.68115 30.07845 C31.65234 31.29687 31.65234 31.29687 31.65234 33.29688 C32.31234 33.29688 32.97234 33.29688 33.65234 33.29688 C33.65234 33.95687 33.65234 34.61688 33.65234 35.29688 C34.31234 35.29688 34.97234 35.29688 35.65234 35.29688 C35.90395 35.76762 36.15556 36.23837 36.41479 36.72339 C37.93829 39.22467 40.77563 39.11323 43.45312 39.47266 C44.66019 39.65931 45.86722 39.84616 47.07422 40.0332 C47.70908 40.12674 48.34395 40.22028 48.99805 40.31665 C52.31228 40.80992 55.61787 41.35284 58.92188 41.91016 C59.25309 41.96588 59.5843 42.0216 59.92556 42.07901 C69.04065 43.62538 77.84738 46.06262 86.61951 48.9563 C87.57472 49.27128 88.53191 49.58024 89.48926 49.88867 C108.8805 56.25797 127.53349 67.98904 143.65234 80.29688 C143.85626 80.45124 143.85626 80.45124 144.88818 81.23242 C166.97915 98.05178 184.02214 119.14606 195.73193 144.3291 C196.32339 145.60085 196.92649 146.86542 197.54541 148.12402 C207.35171 168.15182 212.72505 190.27863 215.65234 212.29688 C215.71079 212.72364 215.76925 213.1504 215.82947 213.59009 C219.02698 237.02348 218.98289 261.02936 214.65234 284.29688 C214.5563 284.8187 214.46025 285.34053 214.3613 285.87817 C212.44507 296.17093 210.02929 306.32218 207.48315 316.47461 C207.05532 318.18125 206.63186 319.88888 206.21265 321.59766 C203.67657 331.93342 200.90899 342.12638 197.52202 352.21991 C197.39701 352.59911 197.27201 352.97831 197.14322 353.369 C196.91217 354.06897 196.67642 354.76741 196.43469 355.46377 C195.67596 357.77512 194.50363 361.41992 196.70288 363.09888 C196.94655 363.17086 196.94655 363.17086 198.17969 363.53516 C198.72029 363.71152 199.26089 363.88788 199.81787 364.06958 C200.40262 364.24771 200.98737 364.42584 201.58984 364.60938 C208.00207 366.82322 212.75329 369.62995 217.65234 374.29688 C217.96897 374.59433 218.2856 374.89178 218.61182 375.19824 C233.71506 389.78884 235.42134 411.5289 235.65234 431.29688 C235.65611 431.60013 235.65611 431.60013 235.67517 433.13477 C235.72735 437.57418 235.75971 442.01343 235.77394 446.45313 C235.77621 447.14103 235.77881 447.82894 235.78172 448.51684 C235.79123 450.79123 235.79075 453.06543 235.78516 455.33984 C235.78614 455.63363 235.78614 455.63363 235.79111 457.12036 C235.78802 457.65709 235.78492 458.19383 235.78174 458.74683 C235.78134 458.98203 235.78134 458.98203 235.77933 460.17229 C235.6087 461.68342 235.16886 462.23325 233.63634 462.42202 C233.2137 462.42209 232.79106 462.42215 232.35562 462.42222 C231.8677 462.42473 231.37978 462.42723 230.87707 462.42981 C230.60659 462.42864 230.60659 462.42864 229.2378 462.42272 C228.66459 462.42417 228.09137 462.42562 227.50079 462.42712 C225.8978 462.43016 224.29488 462.42867 222.69189 462.42534 C220.95249 462.42282 219.21309 462.42606 217.47369 462.42859 C214.42123 462.43221 211.36879 462.43208 208.31633 462.42954 C203.77734 462.42577 199.23837 462.42768 194.69938 462.43075 C186.59443 462.43602 178.48949 462.43555 170.38454 462.43267 C163.29193 462.43016 156.19932 462.42949 149.1067 462.43069 C148.87183 462.43073 148.87183 462.43073 147.6832 462.43092 C145.77648 462.43123 143.86977 462.43155 141.96306 462.43188 C124.06239 462.43494 106.16172 462.43216 88.26105 462.42679 C72.34379 462.42204 56.42654 462.42246 40.50928 462.42725 C22.64216 462.4326 4.77505 462.43473 -13.09207 462.43163 C-14.99538 462.43131 -16.8987 462.431 -18.80202 462.43069 C-19.27069 462.43061 -19.73937 462.43053 -20.22224 462.43045 C-27.31185 462.42931 -34.40146 462.43065 -41.49107 462.43317 C-49.54913 462.43602 -57.60717 462.43533 -65.66523 462.42989 C-70.1797 462.42694 -74.69414 462.42678 -79.20861 462.43054 C-82.21907 462.43277 -85.22952 462.4314 -88.23998 462.42703 C-89.95859 462.42464 -91.67716 462.42387 -93.39577 462.42744 C-95.24159 462.43044 -97.0873 462.4274 -98.93311 462.42272 C-99.47407 462.42506 -100.01503 462.4274 -100.57239 462.42981 C-101.06031 462.42731 -101.54823 462.4248 -102.05093 462.42222 C-102.47357 462.42216 -102.89621 462.42209 -103.33166 462.42202 C-105.34771 462.1737 -105.34852 461.28516 -105.4881 459.38609 C-105.50021 458.53992 -105.50663 457.69366 -105.50879 456.84741 C-105.51127 456.61635 -105.51127 456.61635 -105.52383 455.44704 C-105.53852 453.90608 -105.54528 452.36523 -105.55078 450.82422 C-105.55219 450.55885 -105.55219 450.55885 -105.55935 449.21591 C-105.57439 446.38995 -105.58358 443.56404 -105.58789 440.73804 C-105.59223 438.42895 -105.60591 436.12025 -105.62891 433.81128 C-105.92216 403.76342 -101.7283 375.82477 -70.45312 363.12109 C-70.11684 362.9797 -69.78056 362.83831 -69.43408 362.69263 C-68.34766 362.29688 -68.34766 362.29688 -67.0542 362.03198 C-62.50583 360.87858 -62.19243 357.50908 -61.34894 353.42484 C-59.23239 343.39758 -55.06582 334.96252 -49.88147 326.19989 C-49.38406 325.35846 -48.89248 324.51358 -48.40137 323.66846 C-38.82569 307.31491 -24.68298 292.28496 -10.47266 279.79688 C-10.18616 279.54116 -9.89967 279.28544 -9.60449 279.02197 C-8.01089 277.65946 -7.52572 277.29688 -5.34766 277.29688 C-5.34766 276.63687 -5.34766 275.97688 -5.34766 275.29688 C-4.65186 274.52588 -4.65186 274.52588 -3.65234 273.77344 C-3.27304 273.48058 -2.89373 273.18772 -2.50293 272.88599 C-2.08044 272.56783 -1.65795 272.24967 -1.22266 271.92188 C3.26715 268.44219 7.60419 264.8213 11.90234 261.10938 C12.77117 260.35929 13.63999 259.60922 14.50917 258.85954 C15.07187 258.37374 15.63392 257.88719 16.1953 257.39986 C17.52075 256.253 18.85484 255.12598 20.23022 254.03931 C23.92568 251.09038 26.88397 247.88787 29.71484 244.10938 C29.92857 243.8252 30.14229 243.54102 30.36249 243.24823 C31.82764 241.28827 33.24951 239.30189 34.65234 237.29688 C34.96188 236.85682 35.27142 236.41677 35.59033 235.96338 C40.59658 228.54239 40.21258 220.89858 39.65234 212.29688 C39.37044 212.58675 39.08854 212.87663 38.7981 213.17529 C25.28927 226.89228 9.52617 239.80226 -8.34766 247.29688 C-8.54126 247.38171 -8.54126 247.38171 -9.521 247.81104 C-13.92631 249.67652 -18.19625 250.35769 -22.94922 250.55469 C-23.36387 250.57221 -23.77852 250.58972 -24.20573 250.60777 C-26.29979 250.68875 -28.38901 250.73861 -30.48462 250.74341 C-37.5619 250.84097 -43.09588 253.00035 -47.66016 258.67188 C-47.93594 258.99857 -48.21171 259.32527 -48.49585 259.66187 C-51.55612 263.38058 -54.28741 267.35687 -57.06595 271.28696 C-75.53119 297.40141 -105.9133 285.45583 -131.49927 273.69556 C-143.20453 268.01621 -150.61958 260.44695 -155.34766 248.29688 C-155.43862 248.0648 -155.43862 248.0648 -155.89893 246.89038 C-156.43562 244.9845 -156.54545 243.16479 -156.58594 241.19922 C-156.59582 240.80876 -156.60571 240.41831 -156.61589 240.01602 C-156.94237 223.77286 -156.94237 223.77286 -152.34766 216.29688 C-152.07389 215.84329 -151.80013 215.3897 -151.51807 214.92236 C-147.71122 208.7303 -143.37448 202.91959 -138.979 197.13794 C-134.38606 191.07885 -130.04581 184.84321 -125.68365 178.61716 C-123.89294 176.06439 -122.08386 173.52541 -120.26562 170.99219 C-108.10031 154.02349 -98.44605 138.0156 -91.97656 118.07812 C-91.92467 117.91825 -91.92467 117.91825 -91.66207 117.10919 C-91.45036 116.45674 -91.2387 115.80427 -91.02707 115.1518 C-90.48861 113.49166 -89.94977 111.83164 -89.41016 110.17188 C-89.30305 109.84241 -89.19594 109.51295 -89.08558 109.1735 C-85.76607 98.98116 -82.35931 89.25747 -76.34766 80.29688 C-76.03651 79.82991 -75.72536 79.36295 -75.40479 78.88184 C-70.79771 72.175 -65.02294 67.24454 -58.62549 62.29443 C-56.78711 60.85928 -54.99836 59.37097 -53.22266 57.85938 C-52.93963 57.62444 -52.6566 57.38951 -52.36499 57.14746 C-51.25786 56.20596 -50.42554 55.45978 -49.79297 54.13672 C-49.34766 53.29688 -49.34766 53.29688 -47.34766 53.29688 C-46.82031 52.34375 -46.82031 52.34375 -46.41016 51.04688 C-45.83035 49.22301 -45.15373 48.06148 -43.90234 46.65234 C-41.72954 43.84375 -41.299 40.4468 -40.64087 37.04407 C-40.2477 35.02516 -39.81465 33.01484 -39.38281 31.00391 C-39.29706 30.60235 -39.21131 30.2008 -39.12296 29.78708 C-35.53628 13.19917 -35.53628 13.19917 -30.34766 7.29688 C-29.99059 6.86117 -29.63352 6.42547 -29.26562 5.97656 C-22.47803 -1.60556 -8.45037 -7.71509 0 0 Z M-16.97266 14.79688 C-17.26189 15.01513 -17.55112 15.23338 -17.84912 15.45825 C-23.94729 20.8016 -24.62161 31.77298 -25.99902 39.23071 C-27.752 48.61529 -30.86958 56.28932 -37.53516 63.29688 C-37.91535 63.70784 -38.29554 64.11881 -38.68726 64.54224 C-43.5941 69.7547 -48.95279 74.55581 -54.51172 79.0625 C-67.88856 89.99271 -72.25206 105.83571 -77.46875 121.70312 C-84.24489 142.23473 -93.01361 160.02671 -105.92627 177.37842 C-107.90468 180.03934 -109.82247 182.74293 -111.74243 185.44614 C-112.34549 186.29383 -112.95067 187.13998 -113.55664 187.9856 C-115.82673 191.15408 -118.08074 194.33331 -120.32031 197.52344 C-121.09243 198.62252 -121.86458 199.72157 -122.63675 200.82062 C-123.15027 201.55183 -123.66352 202.28323 -124.17648 203.01483 C-127.11791 207.20709 -130.11 211.34266 -133.23828 215.39746 C-142.2723 227.14921 -146.31094 241.83291 -135.34766 254.29688 C-132.34952 257.15077 -128.94326 259.28021 -125.34766 261.29688 C-124.99945 261.49861 -124.65124 261.70035 -124.29248 261.9082 C-122.04003 263.1966 -119.73475 264.28269 -117.34766 265.29688 C-116.99252 265.45221 -116.63738 265.60754 -116.27148 265.76758 C-109.60812 268.62001 -102.61943 270.33522 -95.59766 272.04688 C-95.14404 272.15974 -94.69042 272.2726 -94.22305 272.38889 C-78.76832 276.20499 -78.76832 276.20499 -73.84766 269.98438 C-73.46658 269.53506 -73.0855 269.08574 -72.69287 268.6228 C-70.1469 265.53873 -68.02403 262.28429 -65.97266 258.85938 C-63.39035 254.56244 -60.41031 250.91799 -56.91016 247.35938 C-56.47977 246.91086 -56.04938 246.46235 -55.60596 246.00024 C-48.69916 239.21765 -41.81071 237.70175 -32.41016 237.23438 C-25.25419 236.85025 -19.01391 236.00825 -12.34766 233.29688 C-11.75283 233.05832 -11.15801 232.81976 -10.54517 232.57397 C0.93725 227.69532 9.70892 220.33715 18.41284 211.52051 C20.10274 209.85224 21.87171 208.28275 23.64819 206.70776 C30.05237 201.02688 35.79178 195.03719 40.82812 188.10938 C41.65234 187.29688 41.65234 187.29688 43.65234 187.29688 C44.55029 188.3916 44.55029 188.3916 45.45703 189.9375 C45.6212 190.21539 45.78536 190.49328 45.9545 190.77959 C46.48964 191.69626 47.01019 192.61995 47.52734 193.54688 C47.61633 193.70543 47.61633 193.70543 48.06665 194.50784 C55.83544 208.45615 59.52533 223.48205 51.65234 238.29688 C51.27409 239.06088 50.89648 239.8252 50.51953 240.58984 C48.13695 245.25616 45.2368 249.35324 41.88745 253.37915 C41.59717 253.73227 41.30689 254.0854 41.00781 254.44922 C40.74637 254.75851 40.48494 255.06781 40.21558 255.38647 C39.65234 256.29688 39.65234 256.29688 39.65234 258.29688 C38.66204 258.65801 37.66003 258.98756 36.65234 259.29688 C35.61719 260.17188 35.61719 260.17188 34.58984 261.29688 C28.93876 267.16726 22.72671 272.48173 16.40234 277.60938 C14.48463 279.17059 12.56832 280.73353 10.65234 282.29688 C10.14784 282.7068 9.64333 283.11672 9.12354 283.53906 C-14.07228 302.45676 -35.14947 324.24677 -46.09375 352.60547 C-46.22178 352.93128 -46.3498 353.2571 -46.4817 353.59279 C-47.21018 355.56013 -47.47686 357.20422 -47.34766 359.29688 C-43.59367 359.03485 -39.84006 358.76778 -36.08667 358.49731 C-34.81136 358.406 -33.53597 358.31582 -32.2605 358.22681 C-30.42083 358.09822 -28.5815 357.96551 -26.74219 357.83203 C-26.45979 357.81274 -26.45979 357.81274 -25.03072 357.7151 C-22.63912 357.53816 -20.31728 357.32884 -17.97388 356.81055 C-14.34047 356.02929 -10.63215 355.82397 -6.93359 355.54297 C-6.51426 355.51066 -6.09493 355.47836 -5.66289 355.44507 C36.40558 352.23226 79.53796 351.1767 137.4492 356.17161 C139.60484 356.39604 141.76121 356.61322 143.91748 356.83154 C150.89126 357.53987 157.86426 358.25414 164.8313 359.02637 C165.21876 359.06913 165.60623 359.11189 166.00543 359.15595 C167.81268 359.35557 169.61963 359.55734 171.42613 359.76366 C173.16708 359.95751 174.90852 360.1313 176.65234 360.29688 C177.07797 360.35024 177.5036 360.4036 177.94212 360.45857 C180.86859 360.70312 181.30359 359.73855 182.03125 357.03516 C182.12832 356.6935 182.22539 356.35185 182.32541 355.99985 C182.64011 354.87382 182.92743 353.74265 183.21484 352.60938 C183.42903 351.82164 183.64462 351.03429 183.86157 350.24731 C185.19564 345.34555 186.35267 340.40575 187.42261 335.43994 C188.14191 332.20726 189.00461 329.0494 189.99219 325.89062 C190.11501 325.49767 190.23782 325.10472 190.36436 324.69986 C190.62097 323.88022 190.87766 323.06061 191.13443 322.24103 C194.42031 311.73182 196.73484 301.11738 198.8493 290.31764 C199.42993 287.36375 200.05724 284.42416 200.72266 281.48828 C207.35963 251.98575 203.97148 220.56054 196.93549 191.47516 C196.53474 189.80749 196.15076 188.13619 195.76562 186.46484 C194.02119 179.02865 191.7177 172.19791 188.19458 165.42114 C187.1067 163.30077 186.19052 161.16971 185.35498 158.93848 C170.75817 120.10812 137.32357 86.75175 80.35547 64.19922 C78.06919 63.44799 75.82943 62.61302 73.58984 61.73438 C65.26544 58.55924 56.63003 56.83176 47.90234 55.17188 C47.44872 55.08552 46.99511 54.99916 46.52774 54.91019 C45.19995 54.65888 43.87163 54.4107 42.54297 54.16406 C42.15463 54.09126 41.7663 54.01845 41.3662 53.94344 C40.98142 53.873 40.59664 53.80256 40.2002 53.72998 C39.80147 53.65329 39.40274 53.5766 38.99193 53.49759 C37.65234 53.29688 37.65234 53.29688 36.02187 53.23068 C30.4099 52.86626 27.72308 50.17675 24.05469 46.32031 C23.45256 45.7095 22.84914 45.09995 22.24452 44.49161 C20.66306 42.89301 19.1008 41.27686 17.54169 39.65649 C16.28153 38.35295 15.00861 37.0623 13.73469 35.77222 C8.06579 30.03037 2.52078 24.25202 -2.68268 18.08181 C-7.41509 12.49574 -10.6381 9.78494 -16.97266 14.79688 Z " fill="#050503" transform="translate(156.34765625,3.703125)"/>
<path d="M0 0 C0.44116 0.02964 0.88233 0.05927 1.33686 0.08981 C11.18137 0.7551 20.95104 1.77765 30.72266 3.14844 C30.93607 3.17794 30.93607 3.17794 32.01608 3.32725 C60.3597 7.29203 85.64801 16.87155 89.625 48.6875 C89.625 59.9075 89.625 71.1275 89.625 82.6875 C-13.335 82.6875 -116.295 82.6875 -222.375 82.6875 C-221.14626 37.2241 -221.14626 37.2241 -213.375 25.6875 C-213.16537 25.37329 -212.95573 25.05908 -212.73975 24.73535 C-209.88475 20.6166 -206.35837 17.7417 -202.1875 15 C-201.77871 14.72656 -201.36991 14.45312 -200.94873 14.17139 C-192.80796 9.12722 -183.36848 7.00055 -174.05322 5.35938 C-172.4014 5.06717 -170.75361 4.75751 -169.10547 4.44531 C-152.51572 1.38159 -135.70616 0.26755 -118.875 -0.4375 C-118.3939 -0.45803 -117.9128 -0.47857 -117.41712 -0.49972 C-78.4098 -2.15357 -38.96741 -2.67012 0 0 Z " fill="#F5F6F6" transform="translate(286.375,369.3125)"/>
<path d="M0 0 C21.3039 6.53388 39.1404 20.79098 54.61523 36.34204 C55.09518 36.81945 55.57516 37.29683 56.05518 37.77417 C73.2058 55.02557 86.71792 78.91094 94.16992 101.99146 C94.89821 104.23997 95.642 106.43937 96.58398 108.60767 C98.20153 112.57879 99.07042 116.80446 100.05273 120.96704 C100.10718 121.19625 100.10718 121.19625 100.38269 122.3562 C101.94619 128.98145 103.29814 135.61887 104.36523 142.34204 C104.42404 142.70421 104.48284 143.06637 104.54343 143.43951 C106.33524 154.62998 106.84935 165.96006 106.86523 177.27954 C106.86657 177.85521 106.86791 178.43088 106.86929 179.02399 C106.86162 194.44303 104.92443 209.55725 101.07617 224.49194 C100.51518 226.74362 100.00225 229.0046 99.49023 231.26782 C97.53202 239.86691 95.45521 248.26219 92.49731 256.57959 C90.1371 263.38902 88.60247 270.39513 87.02008 277.41805 C86.73664 278.65424 86.43889 279.88619 86.1377 281.11816 C85.79465 282.52233 85.53057 283.87688 85.30371 285.31006 C84.52634 289.14289 84.52634 289.14289 82.16431 289.65918 C80.38964 289.59865 78.72512 289.4061 76.97772 289.11157 C75.24101 288.82102 73.4971 288.60208 71.75076 288.3779 C70.75122 288.24937 69.7521 288.11749 68.75339 287.9827 C61.96953 287.08309 55.14842 286.57637 48.32904 286.03018 C45.98674 285.84243 43.64496 285.6487 41.30322 285.4541 C34.08887 284.85607 26.87341 284.2782 19.6543 283.74048 C19.04605 283.69494 18.4378 283.6494 17.81113 283.60248 C15.00187 283.39266 12.19242 283.18682 9.38232 282.98853 C8.39745 282.91635 7.41259 282.84409 6.42773 282.77173 C5.99402 282.74267 5.5603 282.71362 5.11343 282.68369 C2.51112 282.48855 0.13057 282.04243 -2.38477 281.34204 C-1.94541 276.20341 -0.04405 272.13944 2.30273 267.65454 C2.66915 266.94212 3.03511 266.22947 3.40063 265.5166 C4.30087 263.76676 5.21181 262.02275 6.12573 260.28003 C6.81375 258.96165 7.48694 257.63579 8.16211 256.31079 C12.60084 247.74366 18.21229 239.98123 23.90039 232.21313 C24.26278 231.71813 24.62517 231.22313 24.99854 230.71313 C25.67941 229.78723 26.36374 228.86385 27.05225 227.9436 C28.47299 226.02452 29.72749 224.21355 30.71289 222.03345 C31.61523 220.34204 31.61523 220.34204 33.61523 220.34204 C34.3681 219.01327 34.99464 217.73003 35.61523 216.34204 C37.86174 211.97171 40.23114 207.71746 43.17773 203.77954 C45.2983 200.91958 46.9395 197.9529 48.45508 194.73657 C49.32197 192.90454 50.26822 191.13003 51.24414 189.35376 C58.66438 175.61392 61.94392 160.63682 64.61523 145.34204 C64.69775 144.91174 64.78026 144.48144 64.86528 144.0381 C65.55807 140.24734 65.80322 136.56263 65.85352 132.71313 C65.86335 132.09051 65.87319 131.46789 65.88333 130.8264 C65.90857 128.81069 65.92229 126.79538 65.92773 124.77954 C65.92874 124.43457 65.92974 124.0896 65.93077 123.73417 C65.95302 111.24209 64.96962 99.4204 61.61523 87.34204 C61.49644 86.91016 61.37764 86.47829 61.25525 86.03333 C55.23025 64.35086 45.23781 45.9142 29.72119 29.51978 C28.67695 28.40776 27.65899 27.27631 26.64258 26.13892 C21.9482 21.03144 16.63969 17.00676 10.99023 13.02954 C10.62865 12.77465 10.26707 12.51976 9.89453 12.25714 C5.27224 9.01666 0.57154 6.04717 -4.38477 3.34204 C-2.37094 -0.68561 -2.37094 -0.68561 0 0 Z " fill="#BBBBB9" transform="translate(253.384765625,74.657958984375)"/>
<path d="M0 0 C1.84264 6.67091 -0.59722 11.93645 -6 16 C-6.35989 16.27884 -6.71978 16.55768 -7.09058 16.84497 C-12.84028 20.47392 -20.31276 19.44206 -26.84399 19.43579 C-28.57498 19.43938 -30.30444 19.46676 -32.03516 19.49609 C-32.55925 19.48791 -33.08334 19.47973 -33.62331 19.4713 C-37.34954 19.54597 -39.21952 20.5835 -41.92064 23.14272 C-43 24 -43 24 -45 24 C-41.96344 6.04197 -13.54445 -34.96003 0 0 Z " fill="#050504" transform="translate(167,114)"/>
<path d="M0 0 C0.61597 0.84766 0.61597 0.84766 0.94922 2.0625 C1.07555 2.52052 1.20188 2.97854 1.33203 3.45044 C1.44934 3.96179 1.56664 4.47315 1.6875 5 C1.81125 5.53907 1.935 6.07814 2.0625 6.63354 C5.99775 25.69629 0.32531 46.00894 -6 64 C-6.0709 64.20383 -6.0709 64.20383 -6.42969 65.23535 C-7.7328 68.94493 -9.19656 72.50512 -11 76 C-11.00411 75.67951 -11.00822 75.35901 -11.01245 75.02881 C-11.23201 65.0979 -14.6481 41.38559 -25.09692 36.4856 C-26 36 -26 36 -26 34 C-24.99089 34.13021 -23.98177 34.26042 -22.97266 34.39062 C-22 34 -22 34 -21.60645 32.26221 C-21.00893 29.66264 -19.7361 27.6516 -18.32422 25.41406 C-17.7784 24.52812 -17.23334 23.64171 -16.68896 22.75488 C-16.54893 22.52787 -16.54893 22.52787 -15.84027 21.37903 C-14.75301 19.59465 -13.70522 17.78913 -12.66165 15.97894 C-11.64443 14.21466 -10.61488 12.45771 -9.58521 10.70068 C-9.06091 9.80119 -8.54053 8.8994 -8.02368 7.99561 C-7.26165 6.6653 -6.48596 5.34389 -5.70703 4.02344 C-5.47885 3.61733 -5.25067 3.21123 -5.01558 2.79282 C-3.67319 0.5532 -2.85134 -0.78019 0 0 Z " fill="#BDBEBC" transform="translate(224,154)"/>
<path d="M0 0 C1.34657 0.84716 2.70777 1.66567 4.07324 2.48193 C4.9414 3.01291 5.80862 3.5454 6.6748 4.07959 C7.07889 4.32345 7.48297 4.56732 7.89929 4.81857 C10.23094 6.30561 11.12332 7.1936 11.83105 9.9624 C13.45996 10.25537 13.45996 10.25537 15.39355 10.1499 C16.03422 10.12283 16.67488 10.09576 17.33496 10.06787 C17.82867 10.03307 18.32238 9.99826 18.83105 9.9624 C18.83105 11.76462 16.78091 11.47575 15.25504 11.75034 C13.11141 12.06958 10.97366 12.22611 8.81152 12.35693 C7.86159 12.42575 6.91172 12.49544 5.96191 12.56592 C4.49467 12.67255 3.02789 12.77435 1.55933 12.86108 C-8.54235 13.47212 -15.2222 16.22268 -22.23145 23.5249 C-22.48696 23.7843 -22.74248 24.04369 -23.00574 24.31094 C-26.8456 28.21854 -29.91047 32.29012 -32.72778 37.00293 C-41.77643 52.08676 -41.77643 52.08676 -50.16895 49.9624 C-50.16895 49.6324 -50.16895 49.3024 -50.16895 48.9624 C-49.75902 48.98303 -49.3491 49.00365 -48.92676 49.0249 C-44.6537 48.86134 -43.73663 47.85527 -43.06128 43.7373 C-42.33746 39.86308 -40.65382 36.56759 -38.85645 33.0874 C-38.70008 32.78209 -38.54371 32.47677 -38.3826 32.1622 C-37.32135 30.09035 -36.24649 28.02582 -35.16895 25.9624 C-34.32837 24.34101 -33.4946 22.71644 -32.66895 21.0874 C-32.47583 20.7089 -32.28271 20.3304 -32.08374 19.94043 C-30.7806 17.33415 -29.61141 14.68588 -28.48145 12.00146 C-28.3322 11.64968 -28.18295 11.2979 -28.02917 10.93546 C-27.28699 9.18535 -26.55527 7.43233 -25.84277 5.66992 C-20.01348 -8.45187 -12.11183 -7.63611 0 0 Z " fill="#BCBBB7" transform="translate(121.1689453125,228.03759765625)"/>
<path d="M0 0 C0.30804 0.27516 0.61607 0.55032 0.93344 0.83382 C1.89503 1.69982 2.84387 2.57783 3.78906 3.46167 C4.07092 3.72493 4.35279 3.98819 4.64319 4.25943 C6.59447 6.09449 8.50862 7.96591 10.41406 9.84839 C10.70677 10.13702 10.99948 10.42565 11.30106 10.72303 C12.83946 12.24088 14.3748 13.76177 15.90771 15.28516 C17.48764 16.85386 19.07895 18.41051 20.67279 19.96506 C21.9044 21.17063 23.12714 22.3849 24.3476 23.60176 C24.93117 24.18046 25.51812 24.75578 26.10846 25.32758 C26.92701 26.12191 27.73214 26.9278 28.53516 27.73779 C28.99592 28.19269 29.45667 28.64758 29.9314 29.11626 C31.07761 30.91431 30.68378 31.6052 29.78906 33.46167 C29.39638 33.06375 29.0037 32.66583 28.59912 32.25586 C27.11449 30.75287 25.62634 29.25341 24.13721 27.75488 C23.49825 27.11096 22.8602 26.46613 22.22314 25.82031 C18.5886 22.13712 14.9573 18.63975 10.84229 15.49365 C9.78906 14.46167 9.78906 14.46167 9.78906 12.46167 C9.12906 12.46167 8.46906 12.46167 7.78906 12.46167 C7.78906 11.80167 7.78906 11.14167 7.78906 10.46167 C6.79715 10.23022 5.804 10.00247 4.80469 9.80542 C3.13112 9.23898 2.62139 7.94797 1.78906 6.46167 C1.12677 5.79066 0.45926 5.12479 -0.21094 4.46167 C-1.0959 3.42653 -1.97078 2.38794 -2.83594 1.33667 C-3.06539 1.05952 -3.29484 0.78237 -3.53125 0.49683 C-4.09205 -0.18081 -4.65162 -0.85947 -5.21094 -1.53833 C-3.01269 -3.34971 -1.71738 -1.59035 0 0 Z " fill="#161209" transform="translate(157.2109375,4.538330078125)"/>
<path d="M0 0 C4.59748 1.40478 9.13669 2.90533 13.5 4.9375 C13.83773 5.08284 14.17547 5.22818 14.52344 5.37793 C17.29691 6.73315 17.62387 8.11251 18 11 C17.5625 12.25 17.5625 12.25 17 13 C17.99 13.33 18.98 13.66 20 14 C18.01136 15.43201 17.22479 14.73893 15.35547 13.38281 C15.09927 13.20299 15.09927 13.20299 13.80273 12.29297 C12.73732 11.52257 11.6722 10.75175 10.60742 9.98047 C7.78428 7.99969 5.5199 6.56484 2.05322 6.17749 C0.36537 5.89305 -0.67361 5.04715 -2 4 C-1.33333 2.66667 -0.66667 1.33333 0 0 Z " fill="#D1D0C8" transform="translate(251,74)"/>
<path d="M0 0 C1.01451 1.92757 1.11552 3.05474 0.26562 4.99219 C-0.63171 7.1132 -1.48936 9.24332 -2.3179 11.39186 C-2.98839 13.12801 -3.66884 14.8602 -4.34912 16.59253 C-4.69863 17.48641 -5.04565 18.38127 -5.39014 19.2771 C-7.44335 24.60979 -9.51342 29.4208 -13 34 C-14.24041 31.31849 -13.78468 29.5799 -12.77734 26.9375 C-12.63669 26.54928 -12.49604 26.16106 -12.35112 25.76108 C-11.89057 24.50313 -11.41518 23.25153 -10.9375 22 C-10.7786 21.57503 -10.61971 21.15006 -10.45599 20.71222 C-4.3145 4.3145 -4.3145 4.3145 0 0 Z " fill="#352F1A" transform="translate(82,84)"/>
<path d="M0 0 C1.3125 4.6125 1.3125 4.6125 -1 6 C-1.5066 5.96391 -2.0132 5.92781 -2.53516 5.89062 C-4.59425 6.04437 -4.37327 6.56312 -4.6875 8.5 C-6.60576 15.24589 -14.46456 21.75676 -21 24 C-22.19531 23.58984 -22.19531 23.58984 -23 23 C-22.38142 22.32737 -21.75488 21.66206 -21.125 21 C-20.95098 20.81437 -20.95098 20.81437 -20.07031 19.875 C-19 19 -19 19 -17 19 C-16.53545 18.04766 -16.07499 17.09304 -15.63867 16.12744 C-14.45956 14.04597 -12.57449 12.69158 -10.75 11.1875 C-6.73305 7.76135 -3.28597 4.12357 0 0 Z " fill="#383930" transform="translate(192,197)"/>
<path d="M0 0 C13.42432 0.43781 26.6914 1.13294 40 3 C40 3.33 40 3.66 40 4 C35.07959 3.9388 30.15971 3.8617 25.23987 3.76429 C22.95536 3.71955 20.67103 3.6803 18.38623 3.65356 C16.18134 3.62756 13.97714 3.58718 11.77267 3.53681 C10.9315 3.52012 10.09022 3.50862 9.24891 3.50239 C8.07031 3.49276 6.89349 3.46474 5.71533 3.43237 C5.36719 3.43381 5.01906 3.43524 4.66037 3.43672 C1.95709 3.33162 1.20919 2.31977 0 0 Z " fill="#ABABA9" transform="translate(272,369)"/>
<path d="M0 0 C-3.21624 3.28563 -6.44042 6.56318 -9.67516 9.8306 C-11.1768 11.34792 -12.67552 12.86792 -14.16797 14.39429 C-15.60736 15.86618 -17.05387 17.3307 -18.5057 18.79033 C-19.05934 19.34953 -19.61034 19.91138 -20.15864 20.47583 C-20.92499 21.26384 -21.70009 22.04206 -22.47803 22.8186 C-22.91771 23.26495 -23.35739 23.71129 -23.81039 24.17116 C-25.29198 25.20343 -25.60708 25.05223 -27 24 C-21.37108 17.60159 -15.57992 11.41294 -9.37311 5.56918 C-8.7489 4.98095 -8.1271 4.39013 -7.50775 3.79678 C-6.63622 2.9643 -5.7556 2.14288 -4.87109 1.32422 C-4.61006 1.07276 -4.34903 0.8213 -4.08009 0.56223 C-2.40551 -0.95532 -1.91763 -1.16261 0 0 Z " fill="#312D19" transform="translate(153,282)"/>
</svg>
