<?xml version="1.0" encoding="UTF-8"?>
<!-- Generator: visioncortex VTracer 0.6.12 -->
<svg version="1.1" xmlns="http://www.w3.org/2000/svg" width="308" height="395">
<path d="M0 0 C0.23268 0.43635 0.46535 0.8727 0.70508 1.32227 C16.26625 31.2476 12.26385 67.30023 -9.24146 93.02368 C-10.23468 94.30205 -11.11312 95.64642 -12 97 C-4.28415 102.49997 3.607 107.69449 11.57178 112.82495 C13.09086 113.80442 14.60801 114.78683 16.125 115.76953 C16.5864 116.06536 17.04781 116.36118 17.52319 116.66597 C17.95124 116.94354 18.37929 117.2211 18.82031 117.50708 C19.1943 117.748 19.56829 117.98892 19.95361 118.23714 C22.37751 120.00426 23.25285 121.04359 23.30078 124.08984 C23.30562 124.39656 23.30562 124.39656 23.33008 125.94873 C23.32718 126.27688 23.32718 126.27688 23.3125 127.9375 C23.30968 128.27558 23.30686 128.61365 23.30396 128.96198 C23.15689 140.72102 18.80363 150.16759 13.74219 160.57031 C13.58185 160.90206 13.42151 161.23382 13.25632 161.57562 C11.7887 164.55211 11.18386 165.12617 7.85718 165.11353 C7.53516 165.11367 7.21315 165.11382 6.88138 165.11397 C5.81538 165.11327 4.74956 165.10549 3.68359 165.09766 C2.94516 165.09579 2.20672 165.09437 1.46828 165.09337 C-0.47659 165.08955 -2.42138 165.07972 -4.36621 165.06866 C-6.35025 165.05844 -8.3343 165.05387 -10.31836 165.04883 C-14.21227 165.0381 -18.10613 165.02103 -22 165 C-18.19564 178.70433 -14.1142 191.63881 -7 204 C-6.71157 204.50918 -6.42314 205.01836 -6.12598 205.54297 C-0.18451 215.88681 7.53951 225.58636 16.86426 233.06348 C17.76515 233.80635 18.64393 234.56198 19.51855 235.33496 C23.44803 238.79537 27.51322 241.8866 31.85425 244.81204 C32.90114 245.51762 33.94403 246.22882 34.98633 246.94116 C37.98288 248.98468 40.9908 251.00681 44.03906 252.97266 C44.46461 253.24852 44.89017 253.52438 45.32861 253.80859 C46.08568 254.29585 46.84686 254.7768 47.61279 255.25 C50 256.78047 50 256.78047 50 259 C50.93424 259.43052 51.86895 259.86005 52.80566 260.28516 C55.32288 261.79178 57.05007 264.2438 58.875 266.5 C59.0941 266.76799 59.3132 267.03599 59.53894 267.3121 C69.65051 279.7198 75.15125 293.4962 78.8125 308.9375 C78.91773 309.37994 79.02296 309.82238 79.13138 310.27823 C81.31161 319.56176 82.18762 328.6598 82.55762 338.1748 C82.62571 339.89291 82.70326 341.61044 82.78125 343.32812 C82.82609 344.42446 82.87038 345.52081 82.91406 346.61719 C82.93796 347.12861 82.96186 347.64004 82.98648 348.16696 C83.00335 348.64151 83.02022 349.11605 83.0376 349.60498 C83.05457 350.02053 83.07154 350.43608 83.08902 350.86423 C82.96494 352.44734 82.73338 353.80386 81.06771 354.24934 C80.68478 354.24903 80.30184 354.24872 79.90731 354.2484 C79.465 354.25289 79.0227 354.25739 78.56699 354.26202 C78.07708 354.25676 77.58717 354.25151 77.08242 354.2461 C76.82268 354.24725 76.82268 354.24725 75.50822 354.25309 C73.74697 354.25843 71.98607 354.24937 70.22484 354.24051 C68.95766 354.24138 67.69048 354.24313 66.42331 354.24569 C63.65768 354.24924 60.89216 354.24653 58.12654 354.23841 C54.01416 354.22637 49.90184 354.22574 45.78945 354.22749 C38.87265 354.23013 31.9559 354.22343 25.03912 354.21146 C18.18783 354.19964 11.33655 354.19193 4.48525 354.18975 C4.05971 354.18962 3.63417 354.18948 3.19573 354.18934 C1.03475 354.18866 -1.12624 354.18806 -3.28722 354.18748 C-18.60482 354.18328 -33.9224 354.1698 -49.23999 354.15088 C-64.12345 354.13252 -79.00691 354.11835 -93.89038 354.10986 C-94.34892 354.1096 -94.80747 354.10934 -95.27991 354.10907 C-99.88467 354.10643 -104.48944 354.10388 -109.0942 354.10139 C-118.47515 354.09632 -127.8561 354.09067 -137.23705 354.08469 C-137.66839 354.08441 -138.09974 354.08414 -138.54416 354.08385 C-167.36278 354.06544 -196.18139 354.03371 -225 354 C-225.00874 351.79134 -225.01394 349.58269 -225.01855 347.37402 C-225.02104 346.75643 -225.02353 346.13884 -225.02609 345.50253 C-225.03512 339.72603 -224.74116 334.00387 -224.25 328.25 C-224.2071 327.74075 -224.1642 327.2315 -224.12 326.70682 C-222.26522 305.33753 -216.72594 286.9707 -204.08057 269.49463 C-203.4102 268.56739 -202.7491 267.63329 -202.10303 266.68896 C-201.84602 266.3211 -201.58901 265.95323 -201.32422 265.57422 C-201.11241 265.26444 -200.9006 264.95466 -200.68237 264.6355 C-200 264 -200 264 -198 264 C-197.74992 263.43797 -197.49984 262.87594 -197.24219 262.29688 C-195.7784 259.07485 -192.89635 257.30074 -190.125 255.25 C-189.53662 254.80542 -188.94849 254.36051 -188.3606 253.91528 C-184.73066 251.1864 -181.00423 248.64925 -177.1875 246.1875 C-165.20555 238.3952 -153.93927 229.19869 -145 218 C-144.68273 217.60281 -144.36546 217.20562 -144.03857 216.79639 C-141.83718 213.9764 -139.88219 211.04046 -138 208 C-137.68853 207.50677 -137.37706 207.01354 -137.05615 206.50537 C-129.89717 194.93209 -126.20005 182.18443 -122.37013 169.20892 C-121.93797 167.79739 -121.47136 166.39888 -121 165 C-121.19672 165.01888 -121.19672 165.01888 -122.19225 165.1144 C-157.33936 168.33779 -157.33936 168.33779 -161.89844 152.59766 C-162.18039 151.45077 -162.44467 150.30078 -162.7074 149.14935 C-163.10304 147.59525 -163.64439 146.11079 -164.19351 144.60539 C-165.78822 140.20906 -166.64703 135.99868 -166.92822 131.33252 C-167.0012 130.23186 -167.11538 129.13993 -167.23047 128.04297 C-167.91793 119.65698 -161.8178 116.60996 -155.35513 112.74832 C-153.57131 111.68189 -151.80164 110.59244 -150.03125 109.50391 C-149.68234 109.28998 -149.33343 109.07605 -148.97395 108.85564 C-145.6149 106.78532 -142.37868 104.55844 -139.18286 102.24463 C-136.54174 100.33839 -133.81469 98.63892 -131 97 C-131.34031 96.64551 -131.68063 96.29102 -132.03125 95.92578 C-147.05045 79.67827 -154.71839 57.03416 -153 35 C-152.95746 34.42572 -152.91492 33.85145 -152.87109 33.25977 C-151.30133 14.32197 -143.73312 -3.42537 -130.15771 -16.85303 C-129.38981 -17.61381 -128.63207 -18.38501 -127.88525 -19.1665 C-120.96431 -26.3964 -112.95315 -30.55155 -103.93369 -34.58005 C-103.02405 -34.98918 -102.11995 -35.41058 -101.21606 -35.83228 C-97.07425 -37.71048 -93.03196 -38.87049 -88.5625 -39.6875 C-88.22162 -39.75004 -87.88075 -39.81258 -87.52954 -39.87701 C-53.55214 -45.97015 -16.53724 -31.21688 0 0 Z " fill="#F6F5F5" transform="translate(225,41)"/>
<path d="M0 0 C2.9978 1.34536 5.07947 2.79745 7.35645 5.14526 C7.51125 5.30072 7.51125 5.30072 8.29463 6.08743 C9.31049 7.10974 10.31916 8.13885 11.32812 9.16797 C12.04259 9.88872 12.75759 10.60895 13.47308 11.32869 C15.35498 13.22386 17.23125 15.12451 19.1059 17.02686 C22.08992 20.05402 25.0805 23.07466 28.07473 26.09173 C29.1073 27.13432 30.13626 28.18036 31.16486 29.22685 C34.69304 32.79954 38.30875 36.19669 42.1152 39.47146 C45.0344 41.99502 47.76114 44.66812 50.44878 47.43475 C51.26861 48.27749 52.09308 49.11545 52.91878 49.95244 C55.26021 52.32663 57.59725 54.70501 59.9231 57.09448 C73.69947 71.23445 87.83996 82.68717 106.61084 89.48584 C108.27158 90.10052 109.88175 90.78122 111.5 91.5 C130.47205 99.75284 130.47205 99.75284 136.62109 98.73047 C143.52069 97.79034 147.57038 103.41232 152 108 C152.30325 108.30357 152.6065 108.60715 152.91895 108.91992 C161.33526 117.40747 166.2915 128.82183 170 140 C170.07992 140.22873 170.07992 140.22873 170.48438 141.38623 C174.13603 152.0933 173.47733 162.5013 174 174 C81.93 174 -10.14 174 -105 174 C-103.74105 148.82103 -99.71433 127.14578 -83 108 C-82.69159 107.63262 -82.38318 107.26523 -82.06543 106.88672 C-77.17511 101.12833 -71.07405 97.21562 -64.79799 93.1447 C-55.64347 87.20491 -47.09944 80.59593 -39.16602 73.09424 C-38.04707 72.04417 -36.90871 71.01973 -35.76562 69.99609 C-28.77219 63.5612 -23.72025 55.79673 -18.57483 47.87823 C-17.79 46.67916 -16.98357 45.49495 -16.17969 44.30859 C-9.33649 33.92418 -5.82032 21.64485 -3.29248 9.58374 C-2.56077 6.12375 -1.8035 3.06912 0 0 Z " fill="#F6F6F6" transform="translate(119,207)"/>
<path d="M0 0 C0.23268 0.43635 0.46535 0.8727 0.70508 1.32227 C16.26625 31.2476 12.26385 67.30023 -9.24146 93.02368 C-10.23468 94.30205 -11.11312 95.64642 -12 97 C-4.28415 102.49997 3.607 107.69449 11.57178 112.82495 C13.09086 113.80442 14.60801 114.78683 16.125 115.76953 C16.5864 116.06536 17.04781 116.36118 17.52319 116.66597 C17.95124 116.94354 18.37929 117.2211 18.82031 117.50708 C19.1943 117.748 19.56829 117.98892 19.95361 118.23714 C22.37751 120.00426 23.25285 121.04359 23.30078 124.08984 C23.30562 124.39656 23.30562 124.39656 23.33008 125.94873 C23.32718 126.27688 23.32718 126.27688 23.3125 127.9375 C23.30968 128.27558 23.30686 128.61365 23.30396 128.96198 C23.15689 140.72102 18.80363 150.16759 13.74219 160.57031 C13.58185 160.90206 13.42151 161.23382 13.25632 161.57562 C11.7887 164.55211 11.18386 165.12617 7.85718 165.11353 C7.53516 165.11367 7.21315 165.11382 6.88138 165.11397 C5.81538 165.11327 4.74956 165.10549 3.68359 165.09766 C2.94516 165.09579 2.20672 165.09437 1.46828 165.09337 C-0.47659 165.08955 -2.42138 165.07972 -4.36621 165.06866 C-6.35025 165.05844 -8.3343 165.05387 -10.31836 165.04883 C-14.21227 165.0381 -18.10613 165.02103 -22 165 C-18.19564 178.70433 -14.1142 191.63881 -7 204 C-6.71157 204.50918 -6.42314 205.01836 -6.12598 205.54297 C-0.18451 215.88681 7.53951 225.58636 16.86426 233.06348 C17.76515 233.80635 18.64393 234.56198 19.51855 235.33496 C23.44803 238.79537 27.51322 241.8866 31.85425 244.81204 C32.90114 245.51762 33.94403 246.22882 34.98633 246.94116 C37.98288 248.98468 40.9908 251.00681 44.03906 252.97266 C44.46461 253.24852 44.89017 253.52438 45.32861 253.80859 C46.08568 254.29585 46.84686 254.7768 47.61279 255.25 C50 256.78047 50 256.78047 50 259 C50.93424 259.43052 51.86895 259.86005 52.80566 260.28516 C55.32288 261.79178 57.05007 264.2438 58.875 266.5 C59.0941 266.76799 59.3132 267.03599 59.53894 267.3121 C69.65051 279.7198 75.15125 293.4962 78.8125 308.9375 C78.91773 309.37994 79.02296 309.82238 79.13138 310.27823 C81.31161 319.56176 82.18762 328.6598 82.55762 338.1748 C82.62571 339.89291 82.70326 341.61044 82.78125 343.32812 C82.82609 344.42446 82.87038 345.52081 82.91406 346.61719 C82.93796 347.12861 82.96186 347.64004 82.98648 348.16696 C83.00335 348.64151 83.02022 349.11605 83.0376 349.60498 C83.05457 350.02053 83.07154 350.43608 83.08902 350.86423 C82.96494 352.44734 82.73338 353.80386 81.06771 354.24934 C80.68478 354.24903 80.30184 354.24872 79.90731 354.2484 C79.465 354.25289 79.0227 354.25739 78.56699 354.26202 C78.07708 354.25676 77.58717 354.25151 77.08242 354.2461 C76.82268 354.24725 76.82268 354.24725 75.50822 354.25309 C73.74697 354.25843 71.98607 354.24937 70.22484 354.24051 C68.95766 354.24138 67.69048 354.24313 66.42331 354.24569 C63.65768 354.24924 60.89216 354.24653 58.12654 354.23841 C54.01416 354.22637 49.90184 354.22574 45.78945 354.22749 C38.87265 354.23013 31.9559 354.22343 25.03912 354.21146 C18.18783 354.19964 11.33655 354.19193 4.48525 354.18975 C4.05971 354.18962 3.63417 354.18948 3.19573 354.18934 C1.03475 354.18866 -1.12624 354.18806 -3.28722 354.18748 C-18.60482 354.18328 -33.9224 354.1698 -49.23999 354.15088 C-64.12345 354.13252 -79.00691 354.11835 -93.89038 354.10986 C-94.34892 354.1096 -94.80747 354.10934 -95.27991 354.10907 C-99.88467 354.10643 -104.48944 354.10388 -109.0942 354.10139 C-118.47515 354.09632 -127.8561 354.09067 -137.23705 354.08469 C-137.66839 354.08441 -138.09974 354.08414 -138.54416 354.08385 C-167.36278 354.06544 -196.18139 354.03371 -225 354 C-225.00874 351.79134 -225.01394 349.58269 -225.01855 347.37402 C-225.02104 346.75643 -225.02353 346.13884 -225.02609 345.50253 C-225.03512 339.72603 -224.74116 334.00387 -224.25 328.25 C-224.2071 327.74075 -224.1642 327.2315 -224.12 326.70682 C-222.26522 305.33753 -216.72594 286.9707 -204.08057 269.49463 C-203.4102 268.56739 -202.7491 267.63329 -202.10303 266.68896 C-201.84602 266.3211 -201.58901 265.95323 -201.32422 265.57422 C-201.11241 265.26444 -200.9006 264.95466 -200.68237 264.6355 C-200 264 -200 264 -198 264 C-197.74992 263.43797 -197.49984 262.87594 -197.24219 262.29688 C-195.7784 259.07485 -192.89635 257.30074 -190.125 255.25 C-189.53662 254.80542 -188.94849 254.36051 -188.3606 253.91528 C-184.73066 251.1864 -181.00423 248.64925 -177.1875 246.1875 C-165.20555 238.3952 -153.93927 229.19869 -145 218 C-144.68273 217.60281 -144.36546 217.20562 -144.03857 216.79639 C-141.83718 213.9764 -139.88219 211.04046 -138 208 C-137.68853 207.50677 -137.37706 207.01354 -137.05615 206.50537 C-129.89717 194.93209 -126.20005 182.18443 -122.37013 169.20892 C-121.93797 167.79739 -121.47136 166.39888 -121 165 C-121.19672 165.01888 -121.19672 165.01888 -122.19225 165.1144 C-157.33936 168.33779 -157.33936 168.33779 -161.89844 152.59766 C-162.18039 151.45077 -162.44467 150.30078 -162.7074 149.14935 C-163.10304 147.59525 -163.64439 146.11079 -164.19351 144.60539 C-165.78822 140.20906 -166.64703 135.99868 -166.92822 131.33252 C-167.0012 130.23186 -167.11538 129.13993 -167.23047 128.04297 C-167.91793 119.65698 -161.8178 116.60996 -155.35513 112.74832 C-153.57131 111.68189 -151.80164 110.59244 -150.03125 109.50391 C-149.68234 109.28998 -149.33343 109.07605 -148.97395 108.85564 C-145.6149 106.78532 -142.37868 104.55844 -139.18286 102.24463 C-136.54174 100.33839 -133.81469 98.63892 -131 97 C-131.34031 96.64551 -131.68063 96.29102 -132.03125 95.92578 C-147.05045 79.67827 -154.71839 57.03416 -153 35 C-152.95746 34.42572 -152.91492 33.85145 -152.87109 33.25977 C-151.30133 14.32197 -143.73312 -3.42537 -130.15771 -16.85303 C-129.38981 -17.61381 -128.63207 -18.38501 -127.88525 -19.1665 C-120.96431 -26.3964 -112.95315 -30.55155 -103.93369 -34.58005 C-103.02405 -34.98918 -102.11995 -35.41058 -101.21606 -35.83228 C-97.07425 -37.71048 -93.03196 -38.87049 -88.5625 -39.6875 C-88.22162 -39.75004 -87.88075 -39.81258 -87.52954 -39.87701 C-53.55214 -45.97015 -16.53724 -31.21688 0 0 Z M-139 33 C-140.69539 54.03335 -130.98823 86.47468 -109.73438 96.12109 C-108 97 -108 97 -108 99 C-109.09775 99.91631 -110.14214 100.6678 -111.33984 101.43359 C-111.6933 101.66727 -112.04675 101.90094 -112.41092 102.14169 C-113.58223 102.91361 -114.75977 103.67542 -115.9375 104.4375 C-116.75422 104.9736 -117.57054 105.51031 -118.38647 106.04761 C-122.83186 108.968 -127.3061 111.84334 -131.78612 114.71022 C-135.24419 116.92453 -138.68497 119.16436 -142.11542 121.4212 C-142.9489 121.96656 -143.78705 122.50476 -144.62549 123.04248 C-153.81106 128.99254 -153.81106 128.99254 -151 136 C-150.60482 137.09826 -150.21178 138.19729 -149.82031 139.29688 C-145.85625 150.15858 -145.85625 150.15858 -141.2146 150.11353 C-141.01946 150.1136 -141.01946 150.1136 -140.03191 150.11397 C-138.73866 150.11327 -137.44556 150.10548 -136.15234 150.09766 C-135.25696 150.09579 -134.36158 150.09437 -133.4662 150.09337 C-131.10706 150.08955 -128.74797 150.07972 -126.38885 150.06866 C-123.98255 150.05844 -121.57624 150.05387 -119.16992 150.04883 C-114.44659 150.0381 -109.7233 150.02102 -105 150 C-111.48831 193.89645 -126.25214 228.72322 -170.1875 258.80859 C-199.77065 278.6258 -209.20811 304.16213 -211 340 C-118.93 340 -26.86 340 68 340 C66.89606 315.71325 63.60459 293.3165 47 275 C46.72817 274.68192 46.45634 274.36385 46.17627 274.03613 C41.02182 268.02818 34.66136 263.87567 28.15117 259.49802 C8.91507 246.55322 -7.34667 231.69628 -19.09302 211.49048 C-20.01414 209.97676 -21.01336 208.54486 -22.03516 207.09766 C-24.11236 204.01399 -25.44933 200.78929 -26.70044 197.31567 C-27.05722 196.32714 -27.42688 195.34424 -27.79883 194.36133 C-31.61899 184.10818 -33.77083 173.55937 -35.6875 162.8125 C-35.91427 161.56177 -36.14148 160.31112 -36.36914 159.06055 C-36.91782 156.04126 -37.46113 153.02105 -38 150 C-37.50554 150.00888 -37.01108 150.01776 -36.50163 150.02692 C-31.83768 150.10807 -27.17388 150.16799 -22.50938 150.20725 C-20.11134 150.22811 -17.71387 150.25639 -15.31616 150.30176 C-13.00136 150.34528 -10.6871 150.36915 -8.37191 150.37951 C-7.48953 150.38689 -6.60718 150.4013 -5.72503 150.42292 C3.16064 150.63196 3.16064 150.63196 5 146 C5.23356 145.48252 5.46712 144.96504 5.70776 144.43188 C5.85963 143.94003 6.0115 143.44817 6.16797 142.94141 C6.25337 142.66587 6.25337 142.66587 6.68555 141.27148 C6.85119 140.70752 7.01684 140.14355 7.1875 139.5625 C7.36475 139.0024 7.54199 138.4423 7.72461 137.86523 C10.65134 128.18103 10.65134 128.18103 5.19531 125.13281 C4.80057 124.89245 4.40582 124.65208 3.99911 124.40443 C2.71694 123.62797 1.42159 122.87708 0.125 122.125 C-1.20007 121.32923 -2.52122 120.52719 -3.84247 119.72508 C-4.71033 119.19911 -5.57951 118.6753 -6.45001 118.1537 C-9.56399 116.28585 -12.55996 114.32103 -15.5 112.1875 C-19.32284 109.43526 -23.24907 106.88467 -27.24805 104.39526 C-29.6498 102.89327 -31.9235 101.34665 -34.10986 99.54199 C-35 99 -35 99 -37 99 C-37 96.5336 -36.95517 96.77273 -34.80469 96.12891 C-31.66894 94.99134 -29.54973 93.18541 -27.125 90.9375 C-26.69155 90.53829 -26.25811 90.13909 -25.81152 89.72778 C-0.72707 66.08694 2.34133 31.05092 -15.87207 2.63965 C-17.73664 -0.06877 -19.80278 -2.55732 -22 -5 C-22.29987 -5.34225 -22.59974 -5.68449 -22.90869 -6.03711 C-28.1551 -11.95215 -34.17551 -16.07494 -41 -20 C-41.17781 -20.1057 -41.17781 -20.1057 -42.07764 -20.64062 C-82.34782 -44.37377 -133.63024 -10.10337 -139 33 Z " fill="#100F0B" transform="translate(225,41)"/>
<path d="M0 0 C0.66 0.33 1.32 0.66 2 1 C3.2244 1.12025 3.2244 1.12025 4.61877 1.11353 C5.14873 1.11345 5.67868 1.11338 6.22469 1.11331 C6.80345 1.10815 7.38221 1.10298 7.97852 1.09766 C8.59007 1.0962 9.20162 1.09474 9.83171 1.09323 C11.16043 1.08942 12.48899 1.08381 13.81767 1.07516 C15.91869 1.06163 18.01968 1.05575 20.12073 1.05103 C24.58051 1.03993 29.04025 1.02039 33.5 1 C38.31469 0.97798 43.12936 0.9574 47.94409 0.94658 C50.03263 0.9416 52.12107 0.93174 54.20957 0.91815 C55.81353 0.90894 57.4175 0.90617 59.02148 0.90234 C59.60025 0.89718 60.17901 0.89201 60.77531 0.88669 C61.30527 0.88662 61.83522 0.88655 62.38123 0.88647 C62.84137 0.88425 63.30151 0.88203 63.7756 0.87975 C66.36133 1.1337 67.20639 1.90505 67.69849 4.41406 C67.80251 4.92028 67.90654 5.4265 68.01372 5.94806 C68.06624 6.22475 68.06624 6.22475 68.33203 7.625 C68.57306 8.81088 68.81411 9.99675 69.05518 11.18262 C69.17862 11.80632 69.30207 12.43003 69.42926 13.07263 C75.66763 44.44629 75.66763 44.44629 81.29248 53.81787 C82.02996 55.05006 82.74481 56.29437 83.45898 57.54018 C87.80237 65.0972 92.27674 72.39433 98 79 C98.38881 79.45439 98.77763 79.90879 99.17822 80.37695 C109.17653 91.9672 120.73697 101.00663 133.20923 109.79858 C133.59299 110.07057 133.97675 110.34255 134.37215 110.62277 C135.10006 111.13808 135.82996 111.65059 136.56206 112.15994 C139 113.88809 139 113.88809 139 115 C132.07488 116.87386 126.96617 115.01265 120.43555 112.5332 C118.77637 111.91694 117.10152 111.37702 115.41309 110.84766 C110.90803 109.42459 106.61153 107.65381 102.34424 105.63184 C101.38251 105.17979 100.41685 104.73605 99.44873 104.29785 C80.1285 95.5267 65.61718 80.7967 50.875 65.875 C48.62562 63.59835 46.37428 61.32369 44.11719 59.05469 C43.84382 58.7798 43.57046 58.50492 43.28881 58.22171 C40.32425 55.24644 37.34159 52.33041 34.125 49.625 C30.1844 46.30387 26.57771 42.65762 22.94531 39.00781 C22.62958 38.69064 22.31385 38.37347 21.98855 38.04669 C19.69715 35.74298 17.41066 33.43441 15.125 31.125 C12.81637 28.79267 10.50605 26.46207 8.19152 24.13559 C7.27324 23.21084 6.35802 22.28314 5.4429 21.35526 C4.88282 20.79154 4.32259 20.22796 3.76221 19.66455 C3.51079 19.40797 3.25938 19.15139 3.00035 18.88704 C1.75614 17.64245 0.64267 16.66207 -1 16 C-1.33 16.66 -1.66 17.32 -2 18 C-1.34 12.06 -0.68 6.12 0 0 Z " fill="#C4C3C1" transform="translate(120,191)"/>
<path d="M0 0 C4.38845 2.95701 6.9536 6.5222 9.5625 11 C9.75732 11.32781 9.95214 11.65563 10.15286 11.99338 C13.48858 17.63132 15.89828 23.31169 17.6062 29.65356 C18 31 18 31 18.52856 32.38354 C20.15609 36.66167 20.35822 40.67619 20.3125 45.1875 C20.31068 45.56161 20.30885 45.93572 20.30698 46.32117 C20.25275 52.95758 19.27967 58.74591 17 65 C16.64416 66.05717 16.28871 67.11446 15.93359 68.17188 C11.12166 82.00211 3.02134 93.75041 -9.125 102.1875 C-9.40078 102.39617 -9.67656 102.60483 -9.96069 102.81982 C-12.48856 104.39498 -14.7789 103.9036 -17.62383 103.45979 C-21.77128 102.82718 -25.89364 102.84998 -30.0813 102.86963 C-31.43257 102.87498 -32.78351 102.86965 -34.13477 102.86328 C-39.82089 102.8594 -45.36501 103.24385 -51 104 C-51 102 -51 102 -49.2146 101.5957 C-48.38148 101.48982 -47.54822 101.3851 -46.71484 101.28125 C-40.15849 100.20561 -35.1016 97.01179 -29.5625 93.5 C-29.31008 93.34249 -29.31008 93.34249 -28.03265 92.54541 C-15.06742 84.43976 -5.03102 75.79872 2 62 C2.21635 61.57842 2.4327 61.15683 2.65561 60.72247 C6.61923 52.78126 7.79694 45.94204 7.5625 37.125 C7.55546 36.55928 7.54842 35.99357 7.54117 35.41071 C7.42401 26.34696 6.41037 18.45274 3 10 C2.68581 9.15475 2.37444 8.30845 2.06641 7.46094 C1.5735 6.11124 1.05961 4.78415 0.51562 3.45312 C0 2 0 2 0 0 Z " fill="#C2C1BE" transform="translate(201,35)"/>
<path d="M0 0 C7.16747 3.21614 13.5168 7.53433 20 11.9375 C21.57064 12.9989 23.1422 14.0589 24.71478 15.11742 C25.72965 15.80156 26.74291 16.4881 27.75446 17.17714 C29.9725 18.68033 32.18745 20.13707 34.52246 21.45288 C34.9 21.66937 35.27753 21.88585 35.6665 22.1089 C36.35087 22.49473 37.04326 22.86683 37.74463 23.22081 C42.78258 26.07296 39.53197 33.52846 38.08203 37.80078 C34.58238 47.33647 34.58238 47.33647 29.28467 47.22705 C29.0992 47.2272 29.0992 47.2272 28.16064 47.22794 C26.93759 47.22655 25.71514 47.211 24.49219 47.19531 C23.64308 47.19158 22.79397 47.18873 21.94485 47.18674 C19.71222 47.17911 17.47985 47.15947 15.24731 47.13733 C12.9683 47.11685 10.68924 47.10773 8.41016 47.09766 C3.93999 47.07622 -0.52998 47.04209 -5 47 C-5 46.67 -5 46.34 -5 46 C-4.66227 46.08121 -4.32453 46.16242 -3.97656 46.24609 C-0.35836 46.7585 -0.35836 46.7585 0.63672 44.65234 C1.0625 42.875 1.0625 42.875 1.34766 41.11719 C1.78167 39.12413 2.8003 37.87835 4.02734 36.26953 C6.59893 32.55315 6.62191 29.14615 6.5 24.8125 C6.49579 24.44238 6.49158 24.07226 6.48724 23.69092 C6.42404 18.9434 6.20716 6.45566 0.93311 4.63086 C-0.69006 3.53346 -0.11816 1.83148 0 0 Z " fill="#C1C0BD" transform="translate(194,144)"/>
<path d="M0 0 C1.62552 3.08848 0.39666 5.09876 -1 8 C-1.22542 8.47164 -1.45085 8.94327 -1.68311 9.4292 C-2.42046 10.93946 -3.17594 12.43931 -3.9375 13.9375 C-4.18951 14.43701 -4.44152 14.93652 -4.70117 15.45117 C-5.20901 16.45776 -5.71861 17.46346 -6.22998 18.46826 C-6.75982 19.52222 -7.27911 20.58153 -7.78955 21.64502 C-8.04591 22.17595 -8.30228 22.70688 -8.56641 23.25391 C-8.79401 23.73287 -9.02161 24.21184 -9.2561 24.70532 C-10 26 -10 26 -11.0249 26.927 C-12.37404 28.41159 -12.644 30.00397 -13.03516 31.91406 C-13.11874 32.28857 -13.20232 32.66307 -13.28844 33.04892 C-13.55345 34.23954 -13.80873 35.43194 -14.0625 36.625 C-14.32076 37.82495 -14.58114 39.02428 -14.84727 40.2225 C-15.01239 40.96708 -15.17279 41.71271 -15.32814 42.45938 C-15.8878 45 -15.8878 45 -17 45 C-16.57939 29.09322 -9.84666 12.37367 0 0 Z " fill="#403929" transform="translate(21,313)"/>
<path d="M0 0 C3.82104 2.26557 6.01893 5.212 8.3125 8.9375 C8.57885 9.35628 8.84521 9.77507 9.11963 10.20654 C10.7402 12.94864 11.91797 15.78981 11 19 C9.98169 19.64038 9.98169 19.64038 9 20 C8.67 19.34 8.34 18.68 8 18 C7.34 18.99 6.68 19.98 6 21 C5.92483 20.70867 5.84966 20.41734 5.77222 20.11719 C4.39038 14.80292 2.99224 9.55385 0.91479 4.46289 C0.25355 2.8202 0 1.8138 0 0 Z " fill="#CBCCCA" transform="translate(201,35)"/>
<path d="M0 0 C0.29906 0.10313 0.29906 0.10313 1.8125 0.625 C0.20997 1.91871 -1.39481 3.2096 -3 4.5 C-3.45182 4.8648 -3.90363 5.22961 -4.36914 5.60547 C-7.16102 7.84713 -9.86351 10.00731 -13.10938 11.55469 C-15.42993 12.68403 -17.40276 14.17496 -19.4375 15.75 C-19.61926 15.88857 -19.61926 15.88857 -20.53906 16.58984 C-21.42417 17.26532 -22.30687 17.9437 -23.1875 18.625 C-23.8475 17.965 -24.5075 17.305 -25.1875 16.625 C-21.40273 12.44743 -17.26721 9.47291 -12.5625 6.4375 C-11.88766 5.996 -11.21318 5.55394 -10.53906 5.11133 C-9.30345 4.30103 -8.06586 3.49396 -6.82568 2.69067 C-5.73315 1.97996 -4.66098 1.23692 -3.61182 0.46362 C-2.06207 -0.44885 -1.65504 -0.5707 0 0 Z " fill="#2A271C" transform="translate(91.1875,141.375)"/>
<path d="M0 0 C0.25 1.5625 0.25 1.5625 0 3 C-0.66 3 -1.32 3 -2 3 C-2.51416 3.76294 -2.51416 3.76294 -2.91406 4.80078 C-3.98144 7.16129 -5.40214 8.55054 -7.375 10.1875 C-7.52066 10.31737 -7.52066 10.31737 -8.25781 10.97461 C-10.41814 12.80804 -12.21556 13.49095 -15 14 C-13.76271 10.17418 -11.56519 4 -7 4 C-6.40234 3.16016 -6.40234 3.16016 -5.9375 2.0625 C-4.58815 -1.04881 -3.09534 -1.65367 0 0 Z " fill="#211F16" transform="translate(34,301)"/>
</svg>
