<?xml version="1.0" encoding="UTF-8"?>
<!-- Generator: visioncortex VTracer 0.6.12 -->
<svg version="1.1" xmlns="http://www.w3.org/2000/svg" width="459" height="463">
<path d="M0 0 C0.24893 0.00088 0.24893 0.00088 1.50864 0.00534 C26.96601 0.20526 48.97113 18.44083 54.37402 43.58984 C57.00531 59.62349 53.95353 79.46495 40.61232 90.37962 C37.66576 93.94924 41.85923 102.35577 43.27734 106.25781 C43.54087 106.9986 43.80377 107.73962 44.0661 108.48083 C44.76701 110.45661 45.47556 112.42955 46.18563 114.40205 C46.92437 116.45828 47.65613 118.51698 48.38794 120.57568 C48.53464 120.98834 48.68133 121.401 48.83248 121.82617 C49.12983 122.66267 49.42715 123.49918 49.72445 124.3357 C50.1727 125.59607 50.62183 126.85612 51.07109 128.11612 C52.98608 133.4919 54.86227 138.87966 56.70312 144.28125 C56.93562 144.9624 57.16813 145.64354 57.40065 146.32468 C58.272 148.87905 59.14193 151.43387 60.00436 153.99127 C60.58649 155.7168 61.17367 157.44054 61.76172 159.16406 C61.8453 159.41477 61.8453 159.41477 62.26825 160.68347 C63.14254 163.23249 64.06183 165.34417 65.6875 167.5 C70.7559 154.57966 75.48066 141.56195 79.94775 128.42139 C80.36614 127.19106 80.7846 125.96075 81.20312 124.73047 C81.30592 124.42812 81.30592 124.42812 81.82614 122.89807 C83.22427 118.80474 84.68201 114.73651 86.17188 110.67578 C86.74512 109.09647 87.3173 107.51677 87.88916 105.93695 C88.25128 104.94672 88.6187 103.95841 88.9917 102.97223 C89.50279 101.62013 89.99528 100.26252 90.48438 98.90234 C90.63791 98.51202 90.79145 98.12171 90.94965 97.71956 C92.53245 93.188 89.61821 90.27304 86.875 86.875 C84.57281 83.90004 82.64486 80.85237 80.9375 77.5 C80.73923 77.1215 80.54095 76.743 80.33667 76.35303 C77.04791 69.64053 76.27727 62.68242 76.3125 55.3125 C76.31271 54.90025 76.31292 54.488 76.31314 54.06326 C76.35258 46.30768 77.64501 39.68747 80.6875 32.5 C80.86942 32.04834 81.05134 31.59669 81.23877 31.13135 C89.30723 11.48294 108.87174 0.09278 129.56836 0.18433 C131.05414 0.18748 132.53791 0.16395 134.02344 0.13867 C142.6543 0.08073 150.61502 1.85533 158.1875 6.125 C158.63907 6.37806 159.09065 6.63112 159.55591 6.89185 C180.93723 19.4509 194.63177 46.65353 186.17139 71.13159 C185.71525 72.27648 185.21519 73.3863 184.6875 74.5 C184.47819 74.94779 184.26888 75.39558 184.05322 75.85693 C176.05708 92.5 176.05708 92.5 170.6875 92.5 C170.6875 93.16 170.6875 93.82 170.6875 94.5 C170.00073 95.26196 170.00073 95.26196 169.04297 95.97266 C168.86927 96.10253 168.86927 96.10253 167.99023 96.75977 C167.80622 96.89222 167.80622 96.89222 166.875 97.5625 C166.51857 97.83127 166.16215 98.10004 165.79492 98.37695 C164.16535 99.57596 162.97033 100.42783 160.98828 100.93359 C158.0822 102.199 158.57671 106.82878 158.7191 109.58759 C158.73458 109.97894 158.75006 110.3703 158.76601 110.77351 C158.81886 112.07424 158.88 113.37444 158.94116 114.6748 C158.98092 115.61132 159.02017 116.54786 159.05894 117.48442 C159.16535 120.01947 159.27893 122.55416 159.39382 125.08884 C159.51279 127.74055 159.62513 130.39253 159.73817 133.04449 C159.95311 138.06302 160.17399 143.08126 160.39701 148.09942 C160.65069 153.81384 160.89772 159.52854 161.14421 165.24327 C161.65126 176.99584 162.16663 188.74803 162.6875 200.5 C164.87712 198.19118 167.06387 195.87968 169.24878 193.56641 C169.99001 192.78228 170.73185 191.99873 171.47437 191.21582 C175.33799 187.14117 179.16122 183.07437 182.6777 178.69351 C184.21618 176.87513 185.97019 175.37506 187.8125 173.875 C189.14246 172.78639 190.43006 171.67172 191.6875 170.5 C191.84803 170.36082 191.84803 170.36082 192.6604 169.65649 C195.57074 166.65438 194.36569 163.81282 193.20264 160.21841 C185.08741 134.68372 196.24414 109.25867 219.88135 96.87451 C227.0437 93.31227 233.21824 92.31323 241.17017 92.3147 C242.48683 92.31252 243.80263 92.29435 245.11914 92.27539 C266.91927 92.12318 284.08384 105.85821 293 125.1875 C293.07984 125.35963 293.07984 125.35963 293.48389 126.23071 C295.80458 131.64524 295.87401 137.40861 295.8728 143.20361 C295.87498 144.36659 295.8932 145.5286 295.91211 146.69141 C295.97069 154.20434 294.47074 160.71596 291 167.4375 C290.73655 167.94837 290.4731 168.45924 290.20166 168.9856 C284.65298 179.41587 273.3108 193.47372 260.51944 194.60313 C256.58535 195.03954 255.66701 196.41569 254.36328 200.00391 C254.17551 200.47016 253.98774 200.93642 253.79428 201.41681 C253.17787 202.9588 252.58946 204.51002 252 206.0625 C251.57281 207.143 251.1435 208.22266 250.71216 209.30151 C249.81307 211.55523 248.92339 213.81234 248.04004 216.07227 C246.10272 221.00813 244.05794 225.8989 242.01083 230.79001 C241.39542 232.26362 240.78459 233.73904 240.17505 235.21509 C238.48103 239.3045 236.7632 243.36973 234.88632 247.37903 C232.46399 252.56383 230.38561 257.83495 228.40745 263.20021 C226.50037 268.37146 224.51612 273.50227 222.43359 278.60547 C222.2977 278.93874 222.16182 279.27202 222.02181 279.61539 C221.19721 281.63622 220.36956 283.6558 219.54065 285.67487 C218.43039 288.37976 217.32273 291.08571 216.21721 293.79255 C215.94548 294.45783 215.67357 295.12304 215.40147 295.78817 C213.56956 300.26933 211.80908 304.77192 210.09766 309.30078 C208.42555 313.71557 206.59165 318.01437 204.60074 322.29385 C202.93859 325.88785 201.4154 329.52745 199.93359 333.19922 C199.70282 333.77101 199.47205 334.3428 199.23428 334.93192 C198.29121 337.27508 197.35199 339.61976 196.41431 341.96509 C193.75155 348.6151 191.06138 355.17502 187.6875 361.5 C188.24478 361.60184 188.80206 361.70367 189.37622 361.80859 C208.80371 365.4397 224.01036 376.01127 231.6875 394.5 C231.84058 394.84966 231.99365 395.19932 232.15137 395.55957 C238.05001 409.27889 236.98581 425.86689 236.88312 440.47351 C236.87211 442.45814 236.87265 444.4427 236.87326 446.42735 C236.87299 448.34636 236.86753 450.26532 236.86025 452.18431 C236.85708 453.09617 236.8551 454.00803 236.85436 454.91989 C236.85221 456.17772 236.84349 457.43533 236.83276 458.69312 C236.83299 458.87979 236.83299 458.87979 236.83414 459.82448 C236.80202 462.38548 236.80202 462.38548 235.6875 463.5 C234.6715 463.62514 234.6715 463.62514 233.39077 463.62535 C232.90285 463.62785 232.41494 463.63036 231.91223 463.63294 C231.64175 463.63177 231.64175 463.63177 230.27296 463.62584 C229.69974 463.62729 229.12653 463.62875 228.53595 463.63025 C226.93295 463.63328 225.33004 463.6318 223.72704 463.62847 C221.98764 463.62594 220.24825 463.62919 218.50885 463.63171 C215.45639 463.63533 212.40395 463.63521 209.35149 463.63266 C204.8125 463.62889 200.27353 463.63081 195.73454 463.63387 C187.62959 463.63915 179.52464 463.63868 171.41969 463.63579 C164.32708 463.63328 157.23447 463.63262 150.14186 463.63382 C149.90698 463.63385 149.90698 463.63385 148.71835 463.63405 C146.81164 463.63436 144.90493 463.63468 142.99822 463.63501 C125.09754 463.63807 107.19688 463.63529 89.29621 463.62991 C73.37895 463.62516 57.46169 463.62559 41.54443 463.63037 C23.67732 463.63572 5.81021 463.63785 -12.05691 463.63476 C-13.96023 463.63444 -15.86354 463.63413 -17.76686 463.63382 C-18.23554 463.63374 -18.70421 463.63366 -19.18709 463.63358 C-26.2767 463.63244 -33.36631 463.63377 -40.45592 463.6363 C-48.51397 463.63915 -56.57202 463.63845 -64.63007 463.63301 C-69.14454 463.63007 -73.65899 463.6299 -78.17346 463.63366 C-81.18392 463.63589 -84.19436 463.63453 -87.20482 463.63016 C-88.92343 463.62776 -90.642 463.62699 -92.36061 463.63056 C-94.20643 463.63357 -96.05214 463.63052 -97.89796 463.62584 C-98.43892 463.62818 -98.97988 463.63052 -99.53723 463.63294 C-100.02515 463.63043 -100.51307 463.62793 -101.01577 463.62535 C-101.43841 463.62528 -101.86105 463.62521 -102.2965 463.62514 C-103.79287 463.44083 -104.26381 462.91145 -104.43948 461.42683 C-104.44028 460.98023 -104.44107 460.53362 -104.44189 460.07349 C-104.44499 459.56316 -104.44809 459.05283 -104.45128 458.52704 C-104.44931 457.96769 -104.44734 457.40833 -104.44531 456.83203 C-104.44677 456.24923 -104.44822 455.66644 -104.44972 455.06598 C-104.45199 453.14809 -104.44565 451.23037 -104.4375 449.3125 C-104.43562 448.65918 -104.43373 448.00585 -104.43179 447.33273 C-104.31309 412.25157 -102.01283 369.76133 -59.3125 361.5 C-57.9747 361.45355 -56.65193 361.47322 -55.3125 361.5 C-55.55895 360.93193 -55.80541 360.36385 -56.05933 359.77856 C-64.47721 340.35459 -64.47721 340.35459 -67.55754 332.11299 C-68.83932 328.69994 -70.19171 325.32517 -71.60547 321.96484 C-72.0484 320.90668 -72.49127 319.84849 -72.93408 318.79028 C-73.16138 318.24796 -73.38868 317.70564 -73.62286 317.14688 C-75.71778 312.14413 -77.79671 307.13468 -79.875 302.125 C-80.00104 301.8213 -80.12708 301.51759 -80.25695 301.20469 C-83.41347 293.59774 -86.5369 285.97885 -89.58594 278.32812 C-89.71956 277.99299 -89.85319 277.65785 -89.99087 277.31256 C-91.1618 274.37505 -92.33157 271.4371 -93.49197 268.49542 C-96.02023 262.08724 -98.60969 255.74324 -101.50954 249.49368 C-103.59083 244.97267 -105.36826 240.34798 -107.13611 235.69742 C-110.12931 227.84018 -113.23216 220.08741 -116.93359 212.53516 C-118.3018 209.7351 -119.53608 206.98058 -120.53906 204.02734 C-122.74692 197.6135 -123.99895 194.62782 -130.78125 193.18359 C-153.34449 188.04992 -164.52046 160.23317 -163.62891 139.70703 C-163.34779 134.63524 -162.45604 130.12605 -160.3125 125.5 C-160.11382 125.0614 -159.91515 124.62279 -159.71045 124.1709 C-150.92151 105.329 -133.25548 92.3106 -112.25708 92.3147 C-111.01283 92.31252 -109.76948 92.29435 -108.52539 92.27539 C-85.03977 92.10478 -63.3839 110.45595 -58.71094 133.51953 C-57.31941 142.46548 -57.37727 151.95124 -60.55859 160.48438 C-60.68097 160.82356 -60.80335 161.16274 -60.92944 161.51221 C-61.3125 162.5 -61.3125 162.5 -61.80688 163.45264 C-63.43859 167.26156 -59.89788 169.62624 -57.375 172.125 C-56.42159 173.09013 -55.4777 174.06319 -54.53516 175.03906 C-54.10985 175.46397 -53.68454 175.88888 -53.24634 176.32666 C-52.3125 177.5 -52.3125 177.5 -52.3125 179.5 C-51.6525 179.5 -50.9925 179.5 -50.3125 179.5 C-50.3125 180.16 -50.3125 180.82 -50.3125 181.5 C-49.6525 181.5 -48.9925 181.5 -48.3125 181.5 C-47.56641 182.12671 -47.56641 182.12671 -46.875 182.99609 C-46.61977 183.3074 -46.36453 183.61871 -46.10156 183.93945 C-45.84117 184.26881 -45.58078 184.59816 -45.3125 184.9375 C-44.79484 185.58458 -44.27409 186.22921 -43.75 186.87109 C-43.63592 187.01511 -43.63592 187.01511 -43.05859 187.7439 C-42.3125 188.5 -42.3125 188.5 -41.22266 188.97681 C-40.3125 189.5 -40.3125 189.5 -40.3125 191.5 C-39.6525 191.5 -38.9925 191.5 -38.3125 191.5 C-38.3125 192.16 -38.3125 192.82 -38.3125 193.5 C-37.6525 193.5 -36.9925 193.5 -36.3125 193.5 C-35.53467 194.14258 -35.53467 194.14258 -34.80469 195.03125 C-34.56605 195.31549 -34.32741 195.59973 -34.08154 195.89258 C-33.78651 196.25803 -33.49147 196.62348 -33.1875 197 C-32.67504 197.62468 -32.16216 198.24901 -31.64893 198.87305 C-31.20345 199.41536 -30.75798 199.95768 -30.3125 200.5 C-29.54407 191.17913 -29.13003 181.88941 -28.9238 172.54083 C-28.5986 157.92765 -27.95107 143.34951 -27.0411 128.76127 C-26.80544 124.98161 -26.59135 121.20188 -26.40881 117.41925 C-26.34458 116.1392 -26.27303 114.8595 -26.19421 113.58026 C-26.08764 111.78279 -26.01397 109.9869 -25.94922 108.1875 C-25.91191 107.66161 -25.8746 107.13573 -25.83617 106.5939 C-25.74138 102.30199 -27.57541 100.89561 -31.1875 98.875 C-31.72512 98.574 -32.26274 98.27301 -32.81665 97.96289 C-33.28063 97.73795 -33.74461 97.51301 -34.22266 97.28125 C-44.00302 92.02595 -49.70792 81.6034 -53.3125 71.5 C-53.50538 70.96327 -53.69825 70.42653 -53.89697 69.87354 C-55.46545 65.02842 -55.71249 60.41975 -55.6875 55.375 C-55.68696 54.95992 -55.68641 54.54484 -55.68585 54.11719 C-55.63953 46.38599 -54.41998 39.63248 -51.3125 32.5 C-51.11415 32.02659 -50.91579 31.55318 -50.71143 31.06543 C-46.17149 20.5842 -38.04012 12.35384 -28.3125 6.5 C-27.87535 6.23349 -27.43819 5.96697 -26.98779 5.69238 C-18.66795 1.08383 -9.35594 -0.08946 0 0 Z " fill="#F5F5F5" transform="translate(163.3125,-0.49999999999999994)"/>
<path d="M0 0 C0.24893 0.00088 0.24893 0.00088 1.50864 0.00534 C26.96601 0.20526 48.97113 18.44083 54.37402 43.58984 C57.00531 59.62349 53.95353 79.46495 40.61232 90.37962 C37.66576 93.94924 41.85923 102.35577 43.27734 106.25781 C43.54087 106.9986 43.80377 107.73962 44.0661 108.48083 C44.76701 110.45661 45.47556 112.42955 46.18563 114.40205 C46.92437 116.45828 47.65613 118.51698 48.38794 120.57568 C48.53464 120.98834 48.68133 121.401 48.83248 121.82617 C49.12983 122.66267 49.42715 123.49918 49.72445 124.3357 C50.1727 125.59607 50.62183 126.85612 51.07109 128.11612 C52.98608 133.4919 54.86227 138.87966 56.70312 144.28125 C56.93562 144.9624 57.16813 145.64354 57.40065 146.32468 C58.272 148.87905 59.14193 151.43387 60.00436 153.99127 C60.58649 155.7168 61.17367 157.44054 61.76172 159.16406 C61.8453 159.41477 61.8453 159.41477 62.26825 160.68347 C63.14254 163.23249 64.06183 165.34417 65.6875 167.5 C70.7559 154.57966 75.48066 141.56195 79.94775 128.42139 C80.36614 127.19106 80.7846 125.96075 81.20312 124.73047 C81.30592 124.42812 81.30592 124.42812 81.82614 122.89807 C83.22427 118.80474 84.68201 114.73651 86.17188 110.67578 C86.74512 109.09647 87.3173 107.51677 87.88916 105.93695 C88.25128 104.94672 88.6187 103.95841 88.9917 102.97223 C89.50279 101.62013 89.99528 100.26252 90.48438 98.90234 C90.63791 98.51202 90.79145 98.12171 90.94965 97.71956 C92.53245 93.188 89.61821 90.27304 86.875 86.875 C84.57281 83.90004 82.64486 80.85237 80.9375 77.5 C80.73923 77.1215 80.54095 76.743 80.33667 76.35303 C77.04791 69.64053 76.27727 62.68242 76.3125 55.3125 C76.31271 54.90025 76.31292 54.488 76.31314 54.06326 C76.35258 46.30768 77.64501 39.68747 80.6875 32.5 C80.86942 32.04834 81.05134 31.59669 81.23877 31.13135 C89.30723 11.48294 108.87174 0.09278 129.56836 0.18433 C131.05414 0.18748 132.53791 0.16395 134.02344 0.13867 C142.6543 0.08073 150.61502 1.85533 158.1875 6.125 C158.63907 6.37806 159.09065 6.63112 159.55591 6.89185 C180.93723 19.4509 194.63177 46.65353 186.17139 71.13159 C185.71525 72.27648 185.21519 73.3863 184.6875 74.5 C184.47819 74.94779 184.26888 75.39558 184.05322 75.85693 C176.05708 92.5 176.05708 92.5 170.6875 92.5 C170.6875 93.16 170.6875 93.82 170.6875 94.5 C170.00073 95.26196 170.00073 95.26196 169.04297 95.97266 C168.86927 96.10253 168.86927 96.10253 167.99023 96.75977 C167.80622 96.89222 167.80622 96.89222 166.875 97.5625 C166.51857 97.83127 166.16215 98.10004 165.79492 98.37695 C164.16535 99.57596 162.97033 100.42783 160.98828 100.93359 C158.0822 102.199 158.57671 106.82878 158.7191 109.58759 C158.73458 109.97894 158.75006 110.3703 158.76601 110.77351 C158.81886 112.07424 158.88 113.37444 158.94116 114.6748 C158.98092 115.61132 159.02017 116.54786 159.05894 117.48442 C159.16535 120.01947 159.27893 122.55416 159.39382 125.08884 C159.51279 127.74055 159.62513 130.39253 159.73817 133.04449 C159.95311 138.06302 160.17399 143.08126 160.39701 148.09942 C160.65069 153.81384 160.89772 159.52854 161.14421 165.24327 C161.65126 176.99584 162.16663 188.74803 162.6875 200.5 C164.87712 198.19118 167.06387 195.87968 169.24878 193.56641 C169.99001 192.78228 170.73185 191.99873 171.47437 191.21582 C175.33799 187.14117 179.16122 183.07437 182.6777 178.69351 C184.21618 176.87513 185.97019 175.37506 187.8125 173.875 C189.14246 172.78639 190.43006 171.67172 191.6875 170.5 C191.84803 170.36082 191.84803 170.36082 192.6604 169.65649 C195.57074 166.65438 194.36569 163.81282 193.20264 160.21841 C185.08741 134.68372 196.24414 109.25867 219.88135 96.87451 C227.0437 93.31227 233.21824 92.31323 241.17017 92.3147 C242.48683 92.31252 243.80263 92.29435 245.11914 92.27539 C266.91927 92.12318 284.08384 105.85821 293 125.1875 C293.07984 125.35963 293.07984 125.35963 293.48389 126.23071 C295.80458 131.64524 295.87401 137.40861 295.8728 143.20361 C295.87498 144.36659 295.8932 145.5286 295.91211 146.69141 C295.97069 154.20434 294.47074 160.71596 291 167.4375 C290.73655 167.94837 290.4731 168.45924 290.20166 168.9856 C284.65298 179.41587 273.3108 193.47372 260.51944 194.60313 C256.58535 195.03954 255.66701 196.41569 254.36328 200.00391 C254.17551 200.47016 253.98774 200.93642 253.79428 201.41681 C253.17787 202.9588 252.58946 204.51002 252 206.0625 C251.57281 207.143 251.1435 208.22266 250.71216 209.30151 C249.81307 211.55523 248.92339 213.81234 248.04004 216.07227 C246.10272 221.00813 244.05794 225.8989 242.01083 230.79001 C241.39542 232.26362 240.78459 233.73904 240.17505 235.21509 C238.48103 239.3045 236.7632 243.36973 234.88632 247.37903 C232.46399 252.56383 230.38561 257.83495 228.40745 263.20021 C226.50037 268.37146 224.51612 273.50227 222.43359 278.60547 C222.2977 278.93874 222.16182 279.27202 222.02181 279.61539 C221.19721 281.63622 220.36956 283.6558 219.54065 285.67487 C218.43039 288.37976 217.32273 291.08571 216.21721 293.79255 C215.94548 294.45783 215.67357 295.12304 215.40147 295.78817 C213.56956 300.26933 211.80908 304.77192 210.09766 309.30078 C208.42555 313.71557 206.59165 318.01437 204.60074 322.29385 C202.93859 325.88785 201.4154 329.52745 199.93359 333.19922 C199.70282 333.77101 199.47205 334.3428 199.23428 334.93192 C198.29121 337.27508 197.35199 339.61976 196.41431 341.96509 C193.75155 348.6151 191.06138 355.17502 187.6875 361.5 C188.24478 361.60184 188.80206 361.70367 189.37622 361.80859 C208.80371 365.4397 224.01036 376.01127 231.6875 394.5 C231.84058 394.84966 231.99365 395.19932 232.15137 395.55957 C238.05001 409.27889 236.98581 425.86689 236.88312 440.47351 C236.87211 442.45814 236.87265 444.4427 236.87326 446.42735 C236.87299 448.34636 236.86753 450.26532 236.86025 452.18431 C236.85708 453.09617 236.8551 454.00803 236.85436 454.91989 C236.85221 456.17772 236.84349 457.43533 236.83276 458.69312 C236.83299 458.87979 236.83299 458.87979 236.83414 459.82448 C236.80202 462.38548 236.80202 462.38548 235.6875 463.5 C234.6715 463.62514 234.6715 463.62514 233.39077 463.62535 C232.90285 463.62785 232.41494 463.63036 231.91223 463.63294 C231.64175 463.63177 231.64175 463.63177 230.27296 463.62584 C229.69974 463.62729 229.12653 463.62875 228.53595 463.63025 C226.93295 463.63328 225.33004 463.6318 223.72704 463.62847 C221.98764 463.62594 220.24825 463.62919 218.50885 463.63171 C215.45639 463.63533 212.40395 463.63521 209.35149 463.63266 C204.8125 463.62889 200.27353 463.63081 195.73454 463.63387 C187.62959 463.63915 179.52464 463.63868 171.41969 463.63579 C164.32708 463.63328 157.23447 463.63262 150.14186 463.63382 C149.90698 463.63385 149.90698 463.63385 148.71835 463.63405 C146.81164 463.63436 144.90493 463.63468 142.99822 463.63501 C125.09754 463.63807 107.19688 463.63529 89.29621 463.62991 C73.37895 463.62516 57.46169 463.62559 41.54443 463.63037 C23.67732 463.63572 5.81021 463.63785 -12.05691 463.63476 C-13.96023 463.63444 -15.86354 463.63413 -17.76686 463.63382 C-18.23554 463.63374 -18.70421 463.63366 -19.18709 463.63358 C-26.2767 463.63244 -33.36631 463.63377 -40.45592 463.6363 C-48.51397 463.63915 -56.57202 463.63845 -64.63007 463.63301 C-69.14454 463.63007 -73.65899 463.6299 -78.17346 463.63366 C-81.18392 463.63589 -84.19436 463.63453 -87.20482 463.63016 C-88.92343 463.62776 -90.642 463.62699 -92.36061 463.63056 C-94.20643 463.63357 -96.05214 463.63052 -97.89796 463.62584 C-98.43892 463.62818 -98.97988 463.63052 -99.53723 463.63294 C-100.02515 463.63043 -100.51307 463.62793 -101.01577 463.62535 C-101.43841 463.62528 -101.86105 463.62521 -102.2965 463.62514 C-103.79287 463.44083 -104.26381 462.91145 -104.43948 461.42683 C-104.44028 460.98023 -104.44107 460.53362 -104.44189 460.07349 C-104.44499 459.56316 -104.44809 459.05283 -104.45128 458.52704 C-104.44931 457.96769 -104.44734 457.40833 -104.44531 456.83203 C-104.44677 456.24923 -104.44822 455.66644 -104.44972 455.06598 C-104.45199 453.14809 -104.44565 451.23037 -104.4375 449.3125 C-104.43562 448.65918 -104.43373 448.00585 -104.43179 447.33273 C-104.31309 412.25157 -102.01283 369.76133 -59.3125 361.5 C-57.9747 361.45355 -56.65193 361.47322 -55.3125 361.5 C-55.55895 360.93193 -55.80541 360.36385 -56.05933 359.77856 C-64.47721 340.35459 -64.47721 340.35459 -67.55754 332.11299 C-68.83932 328.69994 -70.19171 325.32517 -71.60547 321.96484 C-72.0484 320.90668 -72.49127 319.84849 -72.93408 318.79028 C-73.16138 318.24796 -73.38868 317.70564 -73.62286 317.14688 C-75.71778 312.14413 -77.79671 307.13468 -79.875 302.125 C-80.00104 301.8213 -80.12708 301.51759 -80.25695 301.20469 C-83.41347 293.59774 -86.5369 285.97885 -89.58594 278.32812 C-89.71956 277.99299 -89.85319 277.65785 -89.99087 277.31256 C-91.1618 274.37505 -92.33157 271.4371 -93.49197 268.49542 C-96.02023 262.08724 -98.60969 255.74324 -101.50954 249.49368 C-103.59083 244.97267 -105.36826 240.34798 -107.13611 235.69742 C-110.12931 227.84018 -113.23216 220.08741 -116.93359 212.53516 C-118.3018 209.7351 -119.53608 206.98058 -120.53906 204.02734 C-122.74692 197.6135 -123.99895 194.62782 -130.78125 193.18359 C-153.34449 188.04992 -164.52046 160.23317 -163.62891 139.70703 C-163.34779 134.63524 -162.45604 130.12605 -160.3125 125.5 C-160.11382 125.0614 -159.91515 124.62279 -159.71045 124.1709 C-150.92151 105.329 -133.25548 92.3106 -112.25708 92.3147 C-111.01283 92.31252 -109.76948 92.29435 -108.52539 92.27539 C-85.03977 92.10478 -63.3839 110.45595 -58.71094 133.51953 C-57.31941 142.46548 -57.37727 151.95124 -60.55859 160.48438 C-60.68097 160.82356 -60.80335 161.16274 -60.92944 161.51221 C-61.3125 162.5 -61.3125 162.5 -61.80688 163.45264 C-63.43859 167.26156 -59.89788 169.62624 -57.375 172.125 C-56.42159 173.09013 -55.4777 174.06319 -54.53516 175.03906 C-54.10985 175.46397 -53.68454 175.88888 -53.24634 176.32666 C-52.3125 177.5 -52.3125 177.5 -52.3125 179.5 C-51.6525 179.5 -50.9925 179.5 -50.3125 179.5 C-50.3125 180.16 -50.3125 180.82 -50.3125 181.5 C-49.6525 181.5 -48.9925 181.5 -48.3125 181.5 C-47.56641 182.12671 -47.56641 182.12671 -46.875 182.99609 C-46.61977 183.3074 -46.36453 183.61871 -46.10156 183.93945 C-45.84117 184.26881 -45.58078 184.59816 -45.3125 184.9375 C-44.79484 185.58458 -44.27409 186.22921 -43.75 186.87109 C-43.63592 187.01511 -43.63592 187.01511 -43.05859 187.7439 C-42.3125 188.5 -42.3125 188.5 -41.22266 188.97681 C-40.3125 189.5 -40.3125 189.5 -40.3125 191.5 C-39.6525 191.5 -38.9925 191.5 -38.3125 191.5 C-38.3125 192.16 -38.3125 192.82 -38.3125 193.5 C-37.6525 193.5 -36.9925 193.5 -36.3125 193.5 C-35.53467 194.14258 -35.53467 194.14258 -34.80469 195.03125 C-34.56605 195.31549 -34.32741 195.59973 -34.08154 195.89258 C-33.78651 196.25803 -33.49147 196.62348 -33.1875 197 C-32.67504 197.62468 -32.16216 198.24901 -31.64893 198.87305 C-31.20345 199.41536 -30.75798 199.95768 -30.3125 200.5 C-29.54407 191.17913 -29.13003 181.88941 -28.9238 172.54083 C-28.5986 157.92765 -27.95107 143.34951 -27.0411 128.76127 C-26.80544 124.98161 -26.59135 121.20188 -26.40881 117.41925 C-26.34458 116.1392 -26.27303 114.8595 -26.19421 113.58026 C-26.08764 111.78279 -26.01397 109.9869 -25.94922 108.1875 C-25.91191 107.66161 -25.8746 107.13573 -25.83617 106.5939 C-25.74138 102.30199 -27.57541 100.89561 -31.1875 98.875 C-31.72512 98.574 -32.26274 98.27301 -32.81665 97.96289 C-33.28063 97.73795 -33.74461 97.51301 -34.22266 97.28125 C-44.00302 92.02595 -49.70792 81.6034 -53.3125 71.5 C-53.50538 70.96327 -53.69825 70.42653 -53.89697 69.87354 C-55.46545 65.02842 -55.71249 60.41975 -55.6875 55.375 C-55.68696 54.95992 -55.68641 54.54484 -55.68585 54.11719 C-55.63953 46.38599 -54.41998 39.63248 -51.3125 32.5 C-51.11415 32.02659 -50.91579 31.55318 -50.71143 31.06543 C-46.17149 20.5842 -38.04012 12.35384 -28.3125 6.5 C-27.87535 6.23349 -27.43819 5.96697 -26.98779 5.69238 C-18.66795 1.08383 -9.35594 -0.08946 0 0 Z M-23.3125 20.5 C-23.54042 20.66871 -23.54042 20.66871 -24.69385 21.52246 C-30.87874 26.26066 -35.26468 31.33776 -38.3125 38.5 C-38.5057 38.93603 -38.6989 39.37205 -38.89795 39.82129 C-41.62044 46.07524 -43.26511 51.6852 -42.3125 58.5 C-42.25208 58.95488 -42.19165 59.40976 -42.12939 59.87842 C-40.16998 72.93969 -31.78604 83.73863 -20.1875 89.875 C-19.8749 90.04314 -19.5623 90.21128 -19.24023 90.38452 C-17.33654 91.30309 -15.80832 91.57855 -13.68799 91.5415 C-13.2419 91.53551 -12.79582 91.52952 -12.33621 91.52335 C-11.99839 91.51564 -11.66056 91.50794 -11.3125 91.5 C-11.34564 91.90182 -11.37879 92.30365 -11.41293 92.71765 C-11.85721 98.14363 -12.27925 103.5712 -12.6875 109 C-12.72157 109.45282 -12.75563 109.90564 -12.79073 110.37219 C-14.24526 129.8248 -15.00158 149.28782 -15.60973 168.78323 C-15.66492 170.551 -15.721 172.31874 -15.77716 174.08647 C-15.84566 176.24492 -15.90989 178.40342 -15.97089 180.56209 C-16.12777 185.7971 -16.40446 191.00194 -16.83325 196.22217 C-17.23829 201.16193 -17.44923 206.03198 -17.41016 210.98828 C-17.40828 211.70957 -17.40686 212.43086 -17.40587 213.15215 C-17.40215 214.9982 -17.39243 216.84417 -17.38116 218.69019 C-17.3707 220.59488 -17.36632 222.49958 -17.36133 224.4043 C-17.35079 228.1029 -17.33386 231.80144 -17.3125 235.5 C-23.48404 230.30041 -29.24067 224.7295 -34.93091 219.01196 C-36.13304 217.80413 -37.33966 216.6009 -38.54752 215.39881 C-43.18085 210.7841 -47.73566 206.14207 -51.99062 201.17348 C-54.45844 198.29643 -57.09381 195.64279 -59.8125 193 C-62.99624 189.87209 -66.1033 186.71142 -69 183.3125 C-71.4376 180.45282 -73.97477 177.7271 -76.625 175.0625 C-76.96298 174.72001 -77.30095 174.37752 -77.64917 174.02466 C-77.96733 173.70844 -78.28548 173.39221 -78.61328 173.06641 C-78.89341 172.7874 -79.17354 172.5084 -79.46216 172.22095 C-80.36091 171.45895 -81.2412 170.98195 -82.3125 170.5 C-80.67182 166.11958 -78.59322 162.01764 -76.43555 157.87305 C-71.49588 148.20312 -71.87066 137.87506 -77.3125 128.5 C-77.58965 127.9818 -77.8668 127.46359 -78.15234 126.92969 C-83.246 118.33855 -91.08238 112.06131 -100.3125 108.5 C-100.77527 108.31744 -101.23805 108.13487 -101.71484 107.94678 C-117.88276 102.01677 -135.833 110.40659 -144.45312 124.82812 C-155.25023 143.54212 -150.11207 162.1683 -134.3125 176.375 C-129.67236 179.89253 -125.25482 182.59845 -119.33765 182.66821 C-112.83761 182.76193 -111.90983 185.15109 -110.64307 191.15674 C-110.07674 193.45801 -109.12828 195.58066 -108.1875 197.75 C-107.9827 198.23614 -107.7779 198.72228 -107.56689 199.22314 C-106.31997 202.17791 -105.04388 205.11941 -103.75929 208.05794 C-102.79444 210.26631 -101.83377 212.47648 -100.875 214.6875 C-100.67966 215.13761 -100.48431 215.58773 -100.28305 216.05148 C-97.33067 222.87765 -94.65742 229.75133 -92.34009 236.81909 C-91.09641 240.56816 -89.61736 244.00548 -87.80214 247.50711 C-86.19144 250.64812 -84.9686 253.87464 -83.79004 257.19733 C-81.46348 263.7319 -78.78284 270.01671 -75.81641 276.28906 C-72.01347 284.34088 -68.62591 292.56938 -65.48804 300.90015 C-62.45791 308.85614 -59.10159 316.6838 -55.8125 324.53516 C-55.7101 324.77967 -55.7101 324.77967 -55.19189 326.01707 C-54.13086 328.54984 -53.06752 331.08161 -52.00098 333.61206 C-49.40969 339.77488 -46.96214 345.96589 -44.67676 352.2478 C-44.30236 353.27411 -43.92474 354.29919 -43.54688 355.32422 C-43.43972 355.61857 -43.43972 355.61857 -42.89746 357.10815 C-41.65582 360.0625 -39.80645 359.66986 -36.94922 359.64844 C-36.50141 359.64629 -36.05359 359.64415 -35.59221 359.64194 C-30.91498 359.56941 -26.34491 358.95151 -21.71521 358.3317 C-0.37494 355.55789 21.19813 355.04718 42.6875 354.5 C42.95453 354.49309 42.95453 354.49309 44.30584 354.4581 C76.64871 353.63072 108.55822 354.89985 140.75952 357.72095 C141.42972 357.77942 142.09992 357.83788 142.77012 357.89633 C145.87685 358.16825 148.98278 358.4461 152.08772 358.73778 C157.33841 359.22214 162.59311 359.63245 167.86523 359.77637 C168.09273 359.78825 168.09273 359.78825 169.24401 359.8484 C173.3755 359.89723 174.77557 357.7249 175.7334 353.87036 C176.36006 351.52652 177.08455 349.23449 177.85333 346.93343 C178.20831 345.87032 178.55801 344.80544 178.90302 343.73906 C180.33875 339.35248 182.01786 335.09597 183.8125 330.84766 C183.9546 330.51118 184.09671 330.17471 184.24312 329.82804 C184.99185 328.05831 185.74399 326.29006 186.49753 324.52237 C188.13242 320.68401 189.74135 316.83476 191.34766 312.98438 C191.51751 312.57744 191.68736 312.17051 191.86235 311.75125 C196.43557 300.78257 200.82471 289.73983 205.22264 278.70002 C216.74896 249.76712 216.74896 249.76712 222 237.125 C222.11255 236.85386 222.11255 236.85386 222.68213 235.48172 C225.15153 229.53867 227.64255 223.60473 230.13762 217.67242 C231.53595 214.34729 232.93125 211.0209 234.32509 207.69388 C235.34203 205.26743 236.36342 202.84292 237.38845 200.41988 C238.02304 198.91721 238.65376 197.41294 239.28351 195.90824 C239.57698 195.20931 239.87205 194.51105 240.16888 193.81353 C241.63187 190.37351 242.96875 187.11121 243.38388 183.36266 C244.04948 181.47153 246.53692 182.32334 248.125 182.5625 C254.60006 183.06447 258.60998 180.17595 263.6875 176.5 C264.25812 176.12348 264.82961 175.74829 265.40234 175.375 C278.36226 166.02461 284.87776 146.58389 278.01562 132.04688 C274.19145 124.52796 270.00156 117.04537 262.6875 112.5 C262.25228 112.22785 261.81706 111.95569 261.36865 111.67529 C244.12573 101.37365 226.23513 105.72237 212.80273 120.1582 C202.62743 132.40064 199.10923 150.03843 209.4375 163.3125 C209.55493 163.44556 209.55493 163.44556 210.14917 164.1189 C212.1628 166.53025 211.81449 168.92094 210.06042 171.37862 C209.25873 172.25828 208.42276 173.07642 207.55469 173.89062 C207.24203 174.1963 206.92937 174.50198 206.60724 174.81693 C205.94187 175.46624 205.27324 176.11222 204.60162 176.75507 C202.85987 178.42275 201.14198 180.11472 199.42188 181.80469 C199.08782 182.13172 198.75376 182.45875 198.40958 182.79568 C196.09978 185.06568 193.89493 187.39286 191.8125 189.875 C189.05708 193.15334 186.07471 196.14441 183.02197 199.146 C180.32529 201.81513 177.81537 204.58919 175.35596 207.47607 C172.68999 210.57178 169.80139 213.41826 166.88721 216.27856 C164.80865 218.33258 162.879 220.39895 161.0625 222.6875 C159.02041 225.2472 156.74074 227.29371 154.18506 229.32104 C152.58247 230.61721 151.30617 231.92576 150.08447 233.59326 C149.82091 233.95105 149.55735 234.30883 149.2858 234.67746 C149.18708 234.81318 149.18708 234.81318 148.6875 235.5 C148.66781 235.1376 148.64811 234.77521 148.62782 234.40183 C148.1445 225.50887 147.66015 216.61597 147.17471 207.72313 C146.93996 203.4223 146.70553 199.12145 146.47192 194.82056 C146.26788 191.06391 146.06317 187.3073 145.85772 183.55073 C145.74936 181.56893 145.64129 179.58711 145.53401 177.60525 C145.41306 175.37147 145.29113 173.13773 145.16821 170.90405 C145.14862 170.54771 145.12903 170.19138 145.10885 169.82424 C144.82577 164.70189 144.49737 159.58407 144.14429 154.46606 C143.78143 149.17926 143.51295 143.90705 143.40625 138.60938 C143.38832 137.85204 143.37003 137.09471 143.35143 136.33739 C143.31331 134.77015 143.27675 133.2029 143.24167 131.63559 C143.15047 127.58106 143.04709 123.52683 142.94141 119.47266 C142.93117 119.07806 142.92093 118.68345 142.91039 118.2769 C142.67617 109.34181 142.27283 100.41916 141.6875 91.5 C142.277 91.3926 142.86651 91.28521 143.47388 91.17456 C148.16811 90.26386 152.01478 89.27639 155.875 86.3125 C156.29153 86.00498 156.70806 85.69746 157.13721 85.38062 C166.08504 78.55767 171.16493 69.62201 172.6875 58.5 C172.73955 58.14857 172.79159 57.79714 172.84521 57.43506 C174.20529 46.89322 168.60819 36.11077 161.6875 28.5 C161.53595 28.32799 161.53595 28.32799 160.76904 27.45752 C156.33379 22.47659 151.94657 18.87262 145.6875 16.5 C145.48093 16.41279 145.48093 16.41279 144.43555 15.97144 C139.82198 14.1887 135.32208 14.05665 130.4375 14.0625 C130.01542 14.06243 129.59335 14.06236 129.15848 14.06229 C114.37757 14.15726 100.95552 23.95656 94.5625 37.4375 C94.48451 37.59187 94.48451 37.59187 94.08984 38.37305 C85.87737 55.17129 91.60317 71.45606 104 84.125 C104.2421 84.37274 104.4842 84.62048 104.73364 84.87573 C106.20229 86.28325 106.55214 86.5 108.6875 86.5 C108.57332 86.84031 108.45914 87.18063 108.34151 87.53125 C106.89185 91.85333 105.44481 96.17629 104 100.5 C103.88507 100.84395 103.77013 101.18789 103.65171 101.54226 C100.37878 111.33954 97.18068 121.15231 94.146 131.02637 C93.15839 134.20058 92.09561 137.34931 91.02588 140.49658 C90.67175 141.54671 90.32526 142.59912 89.98047 143.65234 C86.67095 153.74382 82.89021 163.66693 79.15234 173.60547 C79.03224 173.92488 78.91214 174.24429 78.78839 174.57338 C78.29482 175.88586 77.8012 177.19832 77.30667 178.51044 C75.5853 183.07773 73.89101 187.65304 72.25 192.25 C72.1445 192.54528 72.1445 192.54528 71.6106 194.03955 C69.5517 199.8317 67.5997 205.65798 65.6875 211.5 C63.68172 209.84417 63.08158 208.0415 62.375 205.625 C61.23866 201.98515 59.88463 198.50032 58.375 195 C56.1838 189.88267 54.27523 184.68936 52.4375 179.4375 C52.37218 179.25083 52.37218 179.25083 52.0416 178.30615 C49.75611 171.76165 49.75611 171.76165 49.23535 169.77563 C48.6875 168.5 48.6875 168.5 46.6875 168.5 C46.34033 167.64893 46.34033 167.64893 46.19531 166.44531 C46.13231 166.00091 46.06931 165.5565 46.00439 165.09863 C45.94107 164.61233 45.87774 164.12604 45.8125 163.625 C45.21601 159.76332 44.38627 156.32689 42.8125 152.75 C40.74323 148.00319 39.421 143.12661 38.17041 138.11621 C36.91902 133.15091 35.35616 128.33847 33.6875 123.5 C33.41021 122.69085 33.13295 121.88168 32.85571 121.07251 C31.99471 118.56652 31.12384 116.06404 30.25 113.5625 C30.09754 113.12524 29.94508 112.68797 29.78799 112.23746 C28.08015 107.34656 26.34992 102.47846 24.375 97.6875 C23.8084 96.29328 23.24558 94.89764 22.6875 93.5 C22.54909 93.15663 22.41067 92.81325 22.26807 92.45947 C20.10002 86.92298 20.10002 86.92298 22.25 85.375 C22.63543 85.25125 23.02086 85.1275 23.41797 85 C26.07076 83.95521 27.83693 81.59575 29.6875 79.5 C29.93291 79.22946 30.17831 78.95892 30.43115 78.68018 C40.73217 67.09563 42.66316 52.14991 35.6875 38.5 C35.58566 38.29182 35.58566 38.29182 35.07031 37.23828 C24.4446 15.92127 -3.02762 5.36022 -23.3125 20.5 Z " fill="#060504" transform="translate(163.3125,-0.49999999999999994)"/>
<path d="M0 0 C2.99664 0.00759 5.99315 0.00477 8.98979 -0.0036 C28.14071 -0.05573 47.1062 0.16618 66.18748 2.00689 C68.65133 2.24353 71.11665 2.4483 73.58451 2.638 C73.7671 2.65206 73.7671 2.65206 74.69111 2.72323 C75.4025 2.778 76.11389 2.83277 76.82528 2.88753 C132.06483 7.20636 132.06483 7.20636 149.14848 25.69464 C149.3053 25.86206 149.3053 25.86206 150.09892 26.70929 C163.36396 41.87947 159.83598 66.46228 159.83598 84.25714 C56.54598 84.25714 -46.74402 84.25714 -153.16402 84.25714 C-153.16402 40.40401 -153.16402 40.40401 -144.16402 27.25714 C-143.95439 26.94438 -143.74475 26.63162 -143.52877 26.30938 C-131.92604 9.56179 -108.40397 6.64145 -89.87642 4.4317 C-87.98221 4.20288 -86.09095 3.95639 -84.19918 3.70831 C-56.28391 0.20422 -28.09018 -0.0794 0 0 Z " fill="#F6F6F7" transform="translate(225.16402220726013,364.7428613305092)"/>
<path d="M0 0 C2.32206 2.12966 3.77542 4.10339 5.125 6.9375 C5.29387 7.27201 5.46273 7.60652 5.63672 7.95117 C12.72665 22.43809 4.88096 41.53989 -7.33984 50.91406 C-9.18055 52.2097 -11.08694 53.35198 -13.05273 54.44629 C-14 55 -14 55 -15.32812 56.02344 C-17.85082 57.95987 -19.54317 58.08856 -22.61792 57.65503 C-28.61967 57.28654 -28.61967 57.28654 -29.93237 59.74902 C-30.12329 60.55244 -30.29394 61.36082 -30.44922 62.17188 C-30.67742 63.09879 -30.91286 64.02395 -31.1543 64.94751 C-31.21907 65.19598 -31.21907 65.19598 -31.54688 66.4534 C-32.34648 69.18259 -33.46025 71.77338 -34.57422 74.38672 C-34.69545 74.67308 -34.69545 74.67308 -35.30898 76.12222 C-35.82643 77.33939 -36.34532 78.55581 -36.86673 79.77127 C-38.16898 82.8078 -39.45274 85.85218 -40.73855 88.8957 C-41.19962 89.98676 -41.66125 91.07759 -42.12288 92.16841 C-45.83206 100.94056 -49.45039 109.75003 -53.0625 118.5625 C-53.23248 118.97701 -53.40245 119.39152 -53.57758 119.81859 C-58.60754 132.08527 -63.57566 144.37492 -68.48364 156.69092 C-72.54052 166.8694 -76.63591 177.03201 -80.75 187.1875 C-80.91169 187.58677 -81.07339 187.98603 -81.23998 188.3974 C-87.60009 204.10095 -87.60009 204.10095 -90.58984 211.18359 C-90.775 211.62245 -90.96016 212.0613 -91.15092 212.51346 C-91.97106 214.45143 -92.79935 216.38521 -93.64429 218.3125 C-95.18218 221.84543 -96.46557 225.3063 -97.31885 229.08032 C-98.7529 233.74916 -99.6196 235.70125 -104.77588 235.33569 C-105.01754 235.32683 -105.01754 235.32683 -106.24052 235.28197 C-107.82963 235.21432 -109.41336 235.11097 -111 235 C-111.26328 234.9834 -111.26328 234.9834 -112.59566 234.89937 C-116.03071 234.67858 -119.45946 234.40198 -122.88864 234.10453 C-124.83645 233.93595 -126.78471 233.77332 -128.73318 233.6127 C-131.15998 233.41237 -133.5867 233.2112 -136.01329 233.00841 C-156.48928 231.29803 -176.94771 229.5917 -197.5 229.1875 C-197.69419 229.18366 -197.69419 229.18366 -198.67693 229.16423 C-203.1177 229.07894 -207.55841 229.01969 -212 229 C-212 228.67 -212 228.34 -212 228 C-211.71407 228.00666 -211.42815 228.01332 -211.13356 228.02019 C-208.16524 228.08641 -205.19714 228.13174 -202.22827 228.16479 C-201.11946 228.17991 -200.01071 228.2004 -198.9021 228.22632 C-197.31088 228.2626 -195.72046 228.2797 -194.12891 228.29297 C-193.63097 228.30845 -193.13303 228.32394 -192.62001 228.33989 C-189.40983 228.34147 -188.86485 228.20298 -188 225 C-186.73511 223.98789 -185.29385 223.34572 -183.83594 222.65234 C-182.95933 222.21277 -182.08278 221.77307 -181.2063 221.33325 C-180.7443 221.10594 -180.2823 220.87864 -179.8063 220.64444 C-156.02724 208.89966 -135.23569 192.43807 -118.03516 172.21484 C-117.07297 171.08564 -116.1054 169.96122 -115.13658 168.83771 C-97.77029 148.6792 -83.08958 126.90086 -69.44766 104.0808 C-67.6385 101.05582 -65.80961 98.04396 -63.96094 95.04297 C-63.72107 94.65355 -63.48119 94.26413 -63.23405 93.86292 C-62.99818 93.48002 -62.76231 93.09713 -62.51929 92.70264 C-50.35605 72.95724 -50.35605 72.95724 -45.62183 63.16846 C-39.1733 49.84136 -31.05812 43.2668 -17.625 36.875 C-3.81403 30.20345 -1.47095 19.16842 -1.14185 4.45117 C-0.98548 2.85142 -0.55897 1.50248 0 0 Z " fill="#BDBDBB" transform="translate(436,124)"/>
<path d="M0 0 C4.08347 2.6698 6.27954 5.7038 8.31299 10.06348 C8.75216 11.00462 9.20821 11.93595 9.66797 12.86719 C17.53921 29.01881 11.27997 47.69802 -2.86084 58.20703 C-7.69266 61.57046 -12.1825 63.19131 -18 64 C-17.97494 64.3818 -17.94989 64.76361 -17.92407 65.15698 C-17.36817 73.92661 -16.9854 82.69565 -16.78125 91.48047 C-16.77244 91.85638 -16.76363 92.2323 -16.75456 92.61961 C-16.71815 94.17521 -16.68199 95.73081 -16.64594 97.28642 C-16.61821 98.48262 -16.59039 99.67881 -16.5625 100.875 C-16.55326 101.27208 -16.54402 101.66916 -16.53449 102.07827 C-16.23777 114.70652 -15.64954 127.2705 -14.6604 139.86475 C-14.57412 140.9684 -14.4881 142.07208 -14.40234 143.17578 C-14.36245 143.68853 -14.32255 144.20127 -14.28145 144.72955 C-13.97824 148.82807 -13.89615 152.89149 -14 157 C-14.33 157 -14.66 157 -15 157 C-15.05535 156.49549 -15.1107 155.99099 -15.16772 155.47119 C-15.37448 153.59591 -15.58627 151.72123 -15.79956 149.84668 C-15.8911 149.03596 -15.98128 148.22509 -16.07007 147.41406 C-16.19808 146.24696 -16.33099 145.08051 -16.46484 143.91406 C-16.50343 143.55253 -16.54202 143.191 -16.58177 142.81851 C-16.8894 140.19986 -16.8894 140.19986 -17.50574 139.08606 C-18.16511 137.63719 -18.16151 136.42513 -18.20532 134.83545 C-18.22527 134.19494 -18.24521 133.55442 -18.26576 132.8945 C-18.28274 132.1979 -18.29962 131.50129 -18.31641 130.80469 C-18.33699 130.09009 -18.35799 129.3755 -18.37938 128.66092 C-18.43447 126.78361 -18.48394 124.90619 -18.53223 123.02869 C-18.58254 121.11148 -18.63817 119.19442 -18.69336 117.27734 C-18.80078 113.51836 -18.90226 109.75925 -19 106 C-19.495 106.165 -19.495 106.165 -22 107 C-23.55924 102.80176 -24.47184 98.745 -25.0625 94.3125 C-25.2176 93.18325 -25.37507 92.05433 -25.53516 90.92578 C-25.60098 90.43505 -25.6668 89.94432 -25.73462 89.43872 C-26 88 -26 88 -26.51147 86.49292 C-26.99817 85.0056 -27.18046 83.74431 -27.28125 82.1875 C-27.31863 81.6693 -27.35602 81.15109 -27.39453 80.61719 C-27.46484 79.53906 -27.53516 78.46094 -27.60547 77.38281 C-27.64285 76.86461 -27.68023 76.34641 -27.71875 75.8125 C-27.74904 75.34457 -27.77934 74.87664 -27.81055 74.39453 C-28 73 -28 73 -28.50488 71.52075 C-29.38837 68.80713 -29.22628 66.01912 -29.25 63.1875 C-29.27062 62.58357 -29.29125 61.97965 -29.3125 61.35742 C-29.35151 56.82773 -28.27933 53.86925 -26 50 C-25.62666 49.26808 -25.25767 48.53391 -24.89453 47.79688 C-22.41762 43.04089 -19.48689 38.94522 -16.09204 34.80176 C-7.13198 23.86159 -1.9879 14.08497 0 0 Z " fill="#BCBCBA" transform="translate(323,27)"/>
<path d="M0 0 C3.94676 3.03359 7.07662 5.94116 9.6875 10.25 C9.98149 10.72889 10.27547 11.20777 10.57837 11.70117 C20.28782 28.0254 16.73216 47.23102 2.70264 60.19922 C-0.64725 63 -0.64725 63 -3 63 C1.52292 78.22959 1.52292 78.22959 4.5 84.9375 C6.9834 90.5448 8.6713 96.31515 10.30078 102.2146 C11.26223 105.67081 12.31026 108.81931 14 112 C14.48048 113.31521 14.8456 114.64299 15.1875 116 C15.28225 116.33 15.37699 116.66 15.47461 117 C16.14765 119.6305 15.81301 121.41681 15 124 C14.75766 123.46891 14.51531 122.93781 14.26562 122.39062 C11.24551 115.96051 11.24551 115.96051 9.0625 114.125 C3.88116 109.49228 1.56487 101.0934 -0.91016 94.76562 C-6.93046 79.41244 -6.93046 79.41244 -11.25 72.5625 C-19.60756 59.15957 -16.57092 47.01163 -8.5625 34.5625 C-8.26263 34.09256 -7.96276 33.62261 -7.65381 33.13843 C-7.35555 32.67122 -7.05729 32.20402 -6.75 31.72266 C-6.45609 31.26133 -6.16219 30.80001 -5.85938 30.32471 C-5.31736 29.4892 -4.76405 28.66082 -4.19531 27.84326 C1.62734 19.41317 0.49028 9.79652 0 0 Z " fill="#BCBDBB" transform="translate(187,23)"/>
<path d="M0 0 C14.70036 11.09051 19.43218 27.16836 11 44 C9.76057 46.22528 8.39951 48.34645 6.95312 50.44141 C5.63778 52.59232 5.47165 53.48108 7.3125 55.28906 C7.87012 55.74047 8.43287 56.1856 9 56.625 C9.28617 56.85445 9.57234 57.08391 9.86719 57.32031 C10.57383 57.88562 11.28637 58.44354 12 59 C8.94103 60.73298 7.1473 59.28487 4.94141 56.87109 C3.77056 55.7877 2.49485 55.0663 1.125 54.25 C-11.75595 45.61976 -7.25168 32.31759 -3.22339 19.73779 C-1.15958 13.21487 0 6.86157 0 0 Z " fill="#B8B8B5" transform="translate(75,116)"/>
<path d="M0 0 C2.32206 2.12966 3.77542 4.10339 5.125 6.9375 C5.20943 7.10476 5.20943 7.10476 5.63672 7.95117 C12.72665 22.43809 4.88096 41.53989 -7.33984 50.91406 C-9.17947 52.20867 -11.084 53.35229 -13.04834 54.44629 C-14 55 -14 55 -15.36328 56.02344 C-19.14742 58.85829 -23.49399 58.26506 -28 58 C-28 57.67 -28 57.34 -28 57 C-25.36 57 -22.72 57 -20 57 C-20 56.34 -20 55.68 -20 55 C-20.66 55 -21.32 55 -22 55 C-22 54.34 -22 53.68 -22 53 C-22.66 53 -23.32 53 -24 53 C-23.34 51.35 -22.68 49.7 -22 48 C-20.68 48.33 -19.36 48.66 -18 49 C-18.33 50.32 -18.66 51.64 -19 53 C-14.6437 51.84636 -12.89925 50.04556 -11 46 C-11.99 46 -12.98 46 -14 46 C-13.61589 40.9682 -13.61589 40.9682 -11.0625 40 C-8.70849 39.09069 -8.25051 37.84085 -7.49219 35.51172 C-7.06353 34.19513 -6.57295 32.94954 -6.04297 31.67188 C-2.92784 23.93139 -1.67808 15.93046 -1.29077 7.63306 C-1.2776 7.35265 -1.2776 7.35265 -1.21094 5.93359 C-1.20216 5.68638 -1.20216 5.68638 -1.15771 4.4353 C-0.98348 2.84965 -0.55188 1.49262 0 0 Z " fill="#BBB9B5" transform="translate(436,124)"/>
<path d="M0 0 C2.54232 0 2.46348 0.41651 2.91992 2.74805 C3.07817 5.22206 2.46532 7.40053 1.75 9.75 C1.64688 10.2566 1.54375 10.7632 1.4375 11.28516 C0.19959 15.24435 -1.99129 15.33182 -5.68188 15.20996 C-5.9227 15.20575 -5.9227 15.20575 -7.14136 15.18444 C-13.45333 15.03082 -19.74809 14.50473 -26.0388 13.99035 C-27.80286 13.84706 -29.56732 13.7088 -31.33174 13.56995 C-34.65367 13.30778 -37.97524 13.04127 -41.2967 12.77309 C-45.08621 12.46733 -48.87611 12.16659 -52.66605 11.86621 C-60.44447 11.24961 -68.2224 10.6269 -76 10 C-75.67516 9.86594 -75.35031 9.73188 -75.01562 9.59375 C-73.41381 8.6573 -73.71462 7.7123 -74 6 C-75.01562 5.40625 -75.01562 5.40625 -76 5 C-70.6864 3.54441 -65.4818 2.55401 -60 2 C-60 2.99 -60 3.98 -60 5 C-58.35 4.67 -56.7 4.34 -55 4 C-55 4.99 -55 5.98 -55 7 C-54.77796 6.78561 -54.55592 6.57123 -54.32715 6.35034 C-51.36901 3.78697 -49.06724 3.61713 -45.25 3.8125 C-44.9967 3.81927 -44.9967 3.81927 -43.71484 3.85352 C-42.4761 3.88857 -41.2379 3.94237 -40 4 C-40.33 5.65 -40.66 7.3 -41 9 C-39.68696 9.05384 -38.3761 9.09356 -37.0625 9.125 C-36.87591 9.13338 -36.87591 9.13338 -35.93164 9.17578 C-32.55475 9.23663 -32.55475 9.23663 -32 7 C-32 7.66 -32 8.32 -32 9 C-29.69 9 -27.38 9 -25 9 C-25 8.01 -25 7.02 -25 6 C-23.68 6 -22.36 6 -21 6 C-21 5.34 -21 4.68 -21 4 C-19.51915 4.11368 -18.04146 4.24034 -16.5625 4.375 C-16.14162 4.40594 -15.72074 4.43687 -15.28711 4.46875 C-14.88428 4.50742 -14.48145 4.54609 -14.06641 4.58594 C-13.8805 4.60165 -13.8805 4.60165 -12.9397 4.68115 C-11.6479 5.11947 -11.47038 5.76443 -11 7 C-10.61328 6.83242 -10.22656 6.66484 -9.82812 6.49219 C-6.07105 5.02283 -4.36804 4.66828 -1 7 C-0.67 4.69 -0.34 2.38 0 0 Z " fill="#B5B6B4" transform="translate(337,344)"/>
<path d="M0 0 C3.52183 2.84532 3.11657 5.74293 2.42017 9.82593 C2.35628 10.20564 2.29239 10.58535 2.22656 10.97656 C2.16034 11.31768 2.09411 11.6588 2.02588 12.01025 C2 13 2 13 2.50488 13.99072 C3.12345 15.25165 2.99796 15.81615 2.69531 17.17188 C2.60669 17.58607 2.51807 18.00026 2.42676 18.427 C2.32718 18.86359 2.2276 19.30018 2.125 19.75 C1.93463 20.65489 1.74453 21.55984 1.55469 22.46484 C1.24027 23.91944 0.91294 25.36804 0.57031 26.81641 C-0.13928 30.13073 0.17238 31.86011 1.65234 34.89844 C2.26053 36.82551 1.3104 37.6168 0 39 C0.48211 38.9884 0.96422 38.9768 1.46094 38.96484 C2.09258 38.95582 2.72422 38.9468 3.375 38.9375 C4.00148 38.9259 4.62797 38.9143 5.27344 38.90234 C7 39 7 39 7.98378 39.49794 C9.70582 40.34871 11.59423 40.14315 13.4784 40.13867 C13.70833 40.14009 13.70833 40.14009 14.87191 40.14728 C16.4242 40.15565 17.97641 40.1569 19.52872 40.15822 C20.64827 40.16278 21.76781 40.16778 22.88736 40.17318 C25.97266 40.18679 29.05796 40.19419 32.14328 40.20061 C35.12602 40.20778 38.10873 40.2196 41.09145 40.23133 C47.19414 40.25515 53.29684 40.27435 59.39956 40.29093 C65.44341 40.30736 71.48724 40.32584 77.53108 40.34706 C77.90664 40.34838 78.2822 40.34969 78.66915 40.35105 C80.57638 40.35775 82.48362 40.36449 84.39085 40.37125 C97.90541 40.41903 111.41998 40.46221 124.93457 40.50269 C138.06511 40.54202 151.19565 40.58344 164.32617 40.62769 C164.7308 40.62905 165.13542 40.63041 165.55231 40.63181 C169.61567 40.6455 173.67904 40.65923 177.7424 40.67299 C186.02019 40.70101 194.29798 40.72876 202.57578 40.75633 C202.76608 40.75697 202.76608 40.75697 203.72915 40.76018 C229.15275 40.84485 254.57637 40.92292 280 41 C280 41.33 280 41.66 280 42 C233.305 42.165 233.305 42.165 -3 43 C-3 8.85437 -3 8.85437 0 0 Z " fill="#EFF5F5" transform="translate(75,405)"/>
<path d="M0 0 C0.33 0 0.66 0 1 0 C1 8.58 1 17.16 1 26 C-94.37 26 -189.74 26 -288 26 C-288 25.67 -288 25.34 -288 25 C-193.95 25 -99.9 25 -3 25 C-3.33 22.69 -3.66 20.38 -4 18 C-4.03418 16.6671 -4.05329 15.33227 -4 14 C-3.34 14 -2.68 14 -2 14 C-2 12.02 -2 10.04 -2 8 C-1.67 8 -1.34 8 -1 8 C-0.67 5.36 -0.34 2.72 0 0 Z " fill="#D9EBDC" transform="translate(384,423)"/>
<path d="M0 0 C1.81154 1.50379 2.293 2.22963 1.8125 4.5625 C1.77447 4.77971 1.77447 4.77971 1.58203 5.87891 C0.74867 7.48411 -0.3233 7.50748 -2 8 C-1.92894 8.3781 -1.85788 8.7562 -1.78467 9.14575 C-1.46874 10.86595 -1.17173 12.58889 -0.875 14.3125 C-0.76285 14.9074 -0.6507 15.5023 -0.53516 16.11523 C0.37752 21.56084 0.37752 21.56084 -2 24 C-1.76281 24.03094 -1.76281 24.03094 -0.5625 24.1875 C1.38521 25.20031 1.19972 25.43723 1.4375 27.5 C1.7177 29.63198 1.88039 30.27403 4.0625 30.625 C6 31 6 31 6.25 32.5625 C6.1675 33.03688 6.085 33.51125 6 34 C6.47438 33.91879 6.94875 33.83758 7.4375 33.75391 C9.86253 34.13585 9.67894 35.80317 10 37.9375 C10.48299 41.11533 10.82911 42.04356 14 43 C14.21973 44.61134 13.99846 46.01337 13.8125 47.625 C14 49 14 49 15.46875 49.46875 C18.14675 50.39785 17.46938 52.87749 17.59375 55.40625 C18 57 18 57 19.43359 57.41797 C21.94036 58.34941 21.97081 60.36522 22.5625 62.8125 C23.31481 65.74008 24.1095 68.36829 25.52954 71.04175 C26.31152 72.63452 26.75538 74.28491 27.1875 76 C27.28225 76.33 27.37699 76.66 27.47461 77 C28.14765 79.6305 27.81301 81.41681 27 84 C26.75766 83.46891 26.51531 82.93781 26.26562 82.39062 C23.24551 75.96051 23.24551 75.96051 21.0625 74.125 C15.88116 69.49228 13.56487 61.0934 11.08984 54.76562 C5.06954 39.41244 5.06954 39.41244 0.75 32.5625 C-5.74393 22.14825 -6.04074 10.67916 0 0 Z " fill="#C7C5C1" transform="translate(175,63)"/>
<path d="M0 0 C2.25922 0.91614 2.20835 1.60394 2 4 C2.99 3.67 3.98 3.34 5 3 C4.24536 6.89897 4.24536 6.89897 2.9375 7.4375 C1.38335 8.36999 2.02853 9.4341 2.375 11.0625 C2.48586 11.61035 2.59672 12.1582 2.71094 12.72266 C3 14 3 14 7 14 C7 15.65 7 17.3 7 19 C6.34 19 5.68 19 5 19 C4.67 21.97 4.34 24.94 4 28 C4.66 27.01 5.32 26.02 6 25 C7.24149 36.01989 8.40248 46.89163 8 58 C7.67 57.34 7.34 56.68 7 56 C6.505 56.165 6.505 56.165 4 57 C2.44076 52.80176 1.52816 48.745 0.9375 44.3125 C0.7824 43.18325 0.62493 42.05433 0.46484 40.92578 C0.39902 40.43505 0.3332 39.94432 0.26538 39.43872 C0 38 0 38 -0.51147 36.49292 C-0.99817 35.0056 -1.18046 33.74431 -1.28125 32.1875 C-1.31863 31.6693 -1.35602 31.15109 -1.39453 30.61719 C-1.46484 29.53906 -1.53516 28.46094 -1.60547 27.38281 C-1.64285 26.86461 -1.68023 26.34641 -1.71875 25.8125 C-1.74904 25.34457 -1.77934 24.87664 -1.81055 24.39453 C-2 23 -2 23 -2.50488 21.52075 C-3.38837 18.80713 -3.22628 16.01912 -3.25 13.1875 C-3.27062 12.58357 -3.29125 11.97965 -3.3125 11.35742 C-3.35102 6.88475 -2.32661 3.80837 0 0 Z " fill="#C9CAC9" transform="translate(297,77)"/>
<path d="M0 0 C4.08347 2.6698 6.27954 5.7038 8.31299 10.06348 C8.75216 11.00462 9.20821 11.93595 9.66797 12.86719 C17.62833 29.20167 11.1271 47.67099 -3.01196 58.34106 C-5.95238 60.30207 -7.27408 60.2067 -10 58 C-8.6783 56.6783 -8.2883 57.02126 -6.5 57.25 C-4.14337 57.33103 -4.14337 57.33103 -3.51953 55.89062 C-3.3125 54.5 -3.3125 54.5 -3.23828 53.09375 C-3 52 -3 52 -1 52 C-0.4375 51.125 -0.4375 51.125 0 50 C0.77778 48 0.77778 48 3 48 C3.52734 47.15234 3.52734 47.15234 3.9375 45.9375 C4.47715 44.39992 5.02361 42.95315 5.75781 41.49609 C7.87354 37.23383 8.43612 33.4515 8.70923 28.73193 C8.7224 28.50482 8.7224 28.50482 8.78906 27.35547 C8.79784 27.15256 8.79784 27.15256 8.84229 26.12573 C9.01309 24.90659 9.39299 24.06333 10 23 C9.505 22.87625 9.01 22.7525 8.5 22.625 C7 22 7 22 7 20 C6.54625 20.10312 6.0925 20.20625 5.625 20.3125 C3.1877 19.84379 3.22468 18.34255 2.625 16.09375 C1.68418 14.44731 0.76344 14.80832 -1 15 C-1.02917 13.06253 -1.04686 11.12512 -1.0625 9.1875 C-1.07088 8.64029 -1.07926 8.09309 -1.08789 7.5293 C-1.09111 6.99756 -1.09434 6.46582 -1.09766 5.91797 C-1.10289 5.43094 -1.10813 4.94392 -1.11353 4.44214 C-0.98692 2.83384 -0.56448 1.50593 0 0 Z " fill="#B7B6B4" transform="translate(323,27)"/>
<path d="M0 0 C0.82918 0.0069 1.65836 0.0134 2.48755 0.01953 C11.46123 0.11286 20.42076 0.61773 29.375 1.1875 C29.12346 3.7966 28.40445 4.39197 25.92841 4.66888 C24.82905 4.73428 23.72863 4.78304 22.62793 4.81934 C22.02753 4.85064 21.42714 4.88195 20.80855 4.9142 C19.15241 4.99728 17.49672 5.06699 15.83978 5.1304 C14.08613 5.20014 12.33321 5.28515 10.58014 5.36798 C7.61452 5.50573 4.64857 5.63169 1.68213 5.75049 C-1.32075 5.87085 -4.32286 6.00212 -7.32471 6.146 C-24.1373 6.95099 -40.81622 7.53536 -57.625 6.1875 C-57.625 4.27416 -54.66974 4.43585 -53.0625 4.125 C-52.60722 4.03485 -52.15194 3.94469 -51.68286 3.85181 C-48.42879 3.24593 -45.44156 3.06438 -42.13281 3.1875 C-40.69372 3.1875 -39.57078 2.99143 -38.1875 2.625 C-35.49425 1.96745 -32.99736 2.41298 -30.30298 2.8689 C-27.72276 3.28526 -27.72276 3.28526 -26.625 2.1875 C-25.39746 2.10571 -25.39746 2.10571 -23.85938 2.16016 C-23.29863 2.1724 -22.73789 2.18465 -22.16016 2.19727 C-20.98554 2.23196 -19.81104 2.27091 -18.63672 2.31445 C-15.91151 2.36722 -13.72682 2.38272 -11.24219 1.19531 C-7.68662 -0.42666 -3.82452 -0.0648 0 0 Z " fill="#ECF0F7" transform="translate(195.625,348.8125)"/>
<path d="M0 0 C2.54232 0 2.46348 0.41651 2.91992 2.74805 C3.07817 5.22206 2.46532 7.40053 1.75 9.75 C1.64688 10.2566 1.54375 10.7632 1.4375 11.28516 C0.17183 15.33311 -2.12758 15.3238 -5.88696 15.19629 C-6.13048 15.1919 -6.13048 15.1919 -7.36281 15.16968 C-12.85449 15.03907 -18.32209 14.5971 -23.79297 14.125 C-24.87581 14.03492 -25.95868 13.94525 -27.04158 13.85596 C-29.85135 13.62321 -32.66064 13.3851 -35.46985 13.14575 C-38.35267 12.90113 -41.23592 12.66174 -44.11914 12.42188 C-49.74652 11.95295 -55.37341 11.47835 -61 11 C-61 10.67 -61 10.34 -61 10 C-41.96434 9.80947 -41.96434 9.80947 -35.24268 10.63989 C-32.4894 10.97591 -29.77398 11.11165 -27 11.125 C-26.62537 11.12951 -26.25073 11.13402 -25.86475 11.13867 C-22.35999 11.11916 -22.35999 11.11916 -21 10 C-21 9.34 -21 8.68 -21 8 C-20.17383 7.49756 -20.17383 7.49756 -19.03125 7.14844 C-18.6252 7.01953 -18.21914 6.89062 -17.80078 6.75781 C-17.37152 6.63148 -16.94227 6.50516 -16.5 6.375 C-16.07074 6.24094 -15.64148 6.10688 -15.19922 5.96875 C-14.13504 5.63767 -13.06896 5.31525 -12 5 C-11.835 5.33 -11.835 5.33 -11 7 C-10.61328 6.83242 -10.22656 6.66484 -9.82812 6.49219 C-6.07105 5.02283 -4.36804 4.66828 -1 7 C-0.67 4.69 -0.34 2.38 0 0 Z " fill="#A5A8A2" transform="translate(337,344)"/>
<path d="M0 0 C0.66 0.33 1.32 0.66 2 1 C1.81824 1.52207 1.63648 2.04414 1.44922 2.58203 C0.17767 6.28879 -1.0224 9.98455 -1.98268 13.78539 C-3.6305 20.24716 -5.98017 26.30013 -8.5625 32.4375 C-8.96607 33.41318 -9.36906 34.38909 -9.77148 35.36523 C-10.16096 36.3049 -10.55091 37.24436 -10.94141 38.18359 C-11.11854 38.60966 -11.29567 39.03573 -11.47816 39.47472 C-11.97494 40.65475 -12.48298 41.82871 -13 43 C-13.1658 43.38044 -13.33159 43.76089 -13.50241 44.15286 C-13.66782 44.51113 -13.83324 44.8694 -14.00366 45.23853 C-14.07559 45.39662 -14.07559 45.39662 -14.43956 46.19667 C-15.14735 47.21121 -15.89083 47.48848 -17 48 C-17.63281 48.97266 -17.63281 48.97266 -18.125 50.0625 C-18.41375 50.70187 -18.7025 51.34125 -19 52 C-19.33 49.36 -19.66 46.72 -20 44 C-19.34 44 -18.68 44 -18 44 C-17.94884 43.65679 -17.89768 43.31357 -17.84497 42.95996 C-17.22491 39.0109 -16.41494 35.12313 -15.4353 31.24854 C-15.26873 30.57732 -15.10899 29.90438 -14.95581 29.22998 C-13.44167 22.58183 -13.44167 22.58183 -9.91626 21.38672 C-8.33362 20.71875 -7.98529 19.39705 -7.375 17.875 C-6.20574 15 -6.20574 15 -4 15 C-3.98542 14.70231 -3.97083 14.40461 -3.95581 14.0979 C-3.8814 12.75144 -3.78475 11.40749 -3.6875 10.0625 C-3.66494 9.59393 -3.64238 9.12535 -3.61914 8.64258 C-3.37687 5.58119 -3.20749 4.68244 0 4 C0.29297 3.02734 0.29297 3.02734 0.1875 1.9375 C0.12563 1.29813 0.06375 0.65875 0 0 Z " fill="#1F1C0B" transform="translate(368,310)"/>
<path d="M0 0 C0.39613 -0.0057 0.79227 -0.0114 1.20041 -0.01727 C2.03918 -0.02669 2.87798 -0.03324 3.7168 -0.03711 C4.96816 -0.04669 6.21778 -0.07768 7.46875 -0.10938 C13.44056 -0.18547 18.33346 0.99363 23.86719 3.20312 C21.00982 4.08989 19.70396 4.29789 16.86719 3.20312 C15.40221 2.97559 13.93185 2.87856 12.45312 2.78125 C12.24557 2.7673 12.24557 2.7673 11.19522 2.69672 C10.32301 2.6406 9.45063 2.58695 8.57812 2.53564 C7.23826 2.45288 5.9009 2.34954 4.5625 2.24609 C3.71362 2.19403 2.86466 2.14321 2.01562 2.09375 C1.81511 2.07664 1.81511 2.07664 0.80038 1.99005 C-1.98227 1.86227 -1.98227 1.86227 -2.79834 3.70996 C-2.90872 4.20271 -3.01909 4.69545 -3.13281 5.20312 C-4.13281 5.20312 -5.13281 5.20312 -6.13281 5.20312 C-6.82031 6.70313 -6.82031 6.70313 -7.13281 8.20312 C-7.50406 8.0175 -7.87531 7.83188 -8.25781 7.64062 C-10.99839 7.00116 -13.41184 7.63075 -16.13281 8.20312 C-15.80281 9.52313 -15.47281 10.84313 -15.13281 12.20312 C-16.17448 12.39844 -17.21615 12.59375 -18.25781 12.78906 C-19.13281 13.20312 -19.13281 13.20312 -19.13281 15.20312 C-19.79281 15.20312 -20.45281 15.20312 -21.13281 15.20312 C-21.36704 16.17348 -21.59595 17.14564 -21.78906 18.125 C-22.28062 19.66671 -23.18267 20.41979 -24.36719 21.47656 C-25.53118 22.58117 -26.29082 23.84298 -27.13281 25.20312 C-27.79281 24.87313 -28.45281 24.54313 -29.13281 24.20312 C-29.46281 26.84313 -29.79281 29.48313 -30.13281 32.20312 C-33.27994 30.62956 -32.3667 28.39331 -31.51221 25.26514 C-27.32103 13.53309 -12.74854 0.14569 0 0 Z " fill="#E0E3E3" transform="translate(288.1328125,13.796875)"/>
<path d="M0 0 C2.32206 2.12966 3.77542 4.10339 5.125 6.9375 C5.29387 7.27201 5.46273 7.60652 5.63672 7.95117 C9.57121 15.99054 9.33345 26.16386 5 34 C4.67 34 4.34 34 4 34 C3.97422 33.39672 3.94844 32.79344 3.92188 32.17188 C3.86555 31.36452 3.8082 30.55723 3.75 29.75 C3.73582 29.35426 3.72164 28.95852 3.70703 28.55078 C3.49345 25.94512 3.0457 24.89121 0.97266 23.26953 C-2.26038 20.35616 -1.45561 15.93755 -1.3125 11.9375 C-1.30099 11.11395 -1.29121 10.29038 -1.2832 9.4668 C-1.26978 8.67445 -1.25486 7.88213 -1.23828 7.08984 C-1.23089 6.72415 -1.22351 6.35845 -1.2159 5.98167 C-1.13607 3.82212 -0.78466 2.01279 0 0 Z " fill="#ACABA9" transform="translate(436,124)"/>
<path d="M0 0 C4.53024 0.02304 9.06048 0.03352 13.59076 0.04341 C22.84921 0.06387 32.10755 0.09863 41.36591 0.14405 C41.36591 0.47405 41.36591 0.80405 41.36591 1.14405 C41.18949 1.14571 41.18949 1.14571 40.29669 1.15408 C31.70828 1.23533 23.12006 1.32743 14.5319 1.43158 C10.3787 1.48169 6.22553 1.52813 2.07221 1.56593 C-1.54815 1.59889 -5.16836 1.63874 -8.78855 1.68684 C-10.70516 1.71207 -12.62166 1.73386 -14.53838 1.7474 C-16.34346 1.76025 -18.14819 1.78234 -19.95307 1.81144 C-20.92931 1.82479 -21.90567 1.82843 -22.882 1.83175 C-26.21366 1.89536 -28.02334 2.09056 -30.63409 4.14405 C-32.05975 4.39129 -32.05975 4.39129 -33.55401 4.38697 C-34.11891 4.39005 -34.6838 4.39313 -35.26581 4.3963 C-35.56892 4.3927 -35.56892 4.3927 -37.10284 4.37452 C-37.42062 4.37429 -37.42062 4.37429 -39.02875 4.37313 C-40.37728 4.37011 -41.72514 4.36332 -43.07355 4.34986 C-45.09903 4.32986 -47.12413 4.32935 -49.14972 4.3296 C-56.69658 4.30838 -64.13475 3.99884 -71.63409 3.14405 C-71.63409 2.81405 -71.63409 2.48405 -71.63409 2.14405 C-47.73345 0.36839 -23.96047 -0.12421 0 0 Z " fill="#B2B3AF" transform="translate(226.63409209251404,364.8559467792511)"/>
<path d="M0 0 C2.28138 3.62124 2.31306 6.78662 2.25 11 C2.24623 11.32948 2.24247 11.65895 2.23859 11.99841 C2.05208 25.99571 -1.02689 39.3159 -12 49 C-12.66 49 -13.32 49 -14 49 C-14 49.66 -14 50.32 -14 51 C-15.32 50.67 -16.64 50.34 -18 50 C-17.55089 49.16166 -17.09039 48.32941 -16.625 47.5 C-16.36977 47.03594 -16.11453 46.57188 -15.85156 46.09375 C-15 45 -15 45 -13 45 C-12.30745 43.87303 -11.77949 42.82782 -11.25 41.625 C-9.61474 38.15307 -7.8197 34.80883 -5.875 31.5 C-5.62138 31.05479 -5.36775 30.60958 -5.10645 30.15088 C-4.86249 29.74015 -4.61854 29.32942 -4.36719 28.90625 C-4.15175 28.53822 -3.93632 28.1702 -3.71436 27.79102 C-3 27 -3 27 -1 27 C-1.00222 26.70599 -1.00444 26.41198 -1.00673 26.10905 C-1.02889 23.04301 -1.04395 19.97699 -1.05493 16.91089 C-1.05995 15.76732 -1.06677 14.62377 -1.07544 13.48022 C-1.0876 11.83446 -1.09325 10.18877 -1.09766 8.54297 C-1.10282 8.03348 -1.10798 7.524 -1.1133 6.99907 C-1.1137 4.46265 -1.01649 2.37415 0 0 Z " fill="#252212" transform="translate(348,43)"/>
<path d="M0 0 C-0.33 0.165 -0.33 0.165 -2 1 C-1.28133 3.41992 -0.5515 5.83623 0.1875 8.25 C0.29816 8.61148 0.40882 8.97296 0.52283 9.3454 C2.17667 14.71103 4.04563 19.90423 6.38745 25.0166 C7.85495 28.29852 8.5569 31.43503 9 35 C6.14764 35 6.58454 34.15641 6 31.5625 C5.21868 28.10934 5.21868 28.10934 3.92969 27.46484 C2.38767 26.69384 2.95092 25.57428 3.125 24 C3.24016 21.15494 3.24016 21.15494 2.15234 20.45312 C1.0625 20.25 1.0625 20.25 -0.02734 20.20312 C-2.48241 19.69042 -2.10645 16.89688 -2.0625 14.875 C-2.05348 14.33617 -2.04445 13.79734 -2.03516 13.24219 C-2.02936 13.03723 -2.02936 13.03723 -2 12 C-2.99 12 -3.98 12 -5 12 C-4.9175 11.52563 -4.835 11.05125 -4.75 10.5625 C-5 9 -5 9 -6.9375 8.6875 C-9.78456 8.20117 -9.78905 6.14692 -10.01953 3.57422 C-9.92871 -3.74635 -5.30007 -1.82421 0 0 Z " fill="#B0B1AC" transform="translate(186,85)"/>
<path d="M0 0 C0.15211 0.61488 0.30422 1.22977 0.46094 1.86328 C0.74241 2.99167 1.03204 4.11213 1.35156 5.23047 C2.11111 7.88889 2.11111 7.88889 1 9 C0.84541 10.14222 0.72526 11.28924 0.625 12.4375 C0.20191 15.87078 0.20191 15.87078 -1.5625 17 C-4.12483 18.78249 -3.20804 22.11823 -3 25 C-2.34 25 -1.68 25 -1 25 C-0.58594 25.875 -0.58594 25.875 -0.375 27 C-0.30023 27.37125 -0.22547 27.7425 -0.14844 28.125 C-0.12395 28.26937 -0.12395 28.26937 0 29 C0.81409 28.88585 1.62632 28.75828 2.4375 28.625 C2.88996 28.55539 3.34242 28.48578 3.80859 28.41406 C5.30301 27.89469 5.38888 27.39895 6 26 C6.33595 27.45778 6.66885 28.91613 7 30.375 C7.0477 30.58125 7.0477 30.58125 7.28906 31.625 C7.3793 32.02461 7.46953 32.42422 7.5625 32.83594 C7.64629 33.20251 7.73008 33.56909 7.81641 33.94678 C8 35 8 35 8 37 C8.98207 37.96453 9.91959 38.78792 11 39.625 C11.28617 39.85445 11.57234 40.08391 11.86719 40.32031 C12.57383 40.88562 13.28637 41.44354 14 42 C10.94103 43.73298 9.1473 42.28487 6.94141 39.87109 C5.77056 38.7877 4.49485 38.0663 3.125 37.25 C-10.62379 28.03831 -4.65128 12.95431 0 0 Z " fill="#C6C6C2" transform="translate(73,133)"/>
<path d="M0 0 C2.39406 1.43454 3.8583 0.41847 6 -1.0625 C8.16994 3.59326 3.3834 7.00312 -0.16406 9.55469 C-2.07235 10.86547 -4.02678 12.09308 -6 13.30322 C-7 13.9375 -7 13.9375 -8.375 14.98047 C-12.16905 17.78649 -16.49778 17.20234 -21 16.9375 C-21 16.6075 -21 16.2775 -21 15.9375 C-18.36 15.9375 -15.72 15.9375 -13 15.9375 C-13 15.2775 -13 14.6175 -13 13.9375 C-13.66 13.9375 -14.32 13.9375 -15 13.9375 C-15 13.2775 -15 12.6175 -15 11.9375 C-15.66 11.9375 -16.32 11.9375 -17 11.9375 C-16.34 10.2875 -15.68 8.6375 -15 6.9375 C-13.68 7.2675 -12.36 7.5975 -11 7.9375 C-11.33 9.2575 -11.66 10.5775 -12 11.9375 C-7.6437 10.78386 -5.89925 8.98306 -4 4.9375 C-4.99 4.9375 -5.98 4.9375 -7 4.9375 C-6.58738 -0.65345 -6.58738 -0.65345 -3.10547 -1.15625 C-1.81347 -1.04668 -1.10542 -0.66413 0 0 Z " fill="#B4B3AD" transform="translate(429,165.0625)"/>
<path d="M0 0 C-0.12697 0.11537 -0.12697 0.11537 -0.76953 0.69922 C-3.05566 2.86548 -4.67415 4.9856 -6.22656 7.71484 C-8.5226 11.52997 -11.59289 14.70821 -14.76953 17.79688 C-15.57402 18.58349 -16.36401 19.38528 -17.13672 20.20312 C-17.48348 20.56922 -17.83023 20.93531 -18.1875 21.3125 C-18.49043 21.63863 -18.79336 21.96477 -19.10547 22.30078 C-20 23 -20 23 -22 23 C-22.49219 23.80469 -22.49219 23.80469 -22.875 24.875 C-23.96204 27.34714 -25.54066 28.09267 -28 29 C-29.29101 26.27315 -28.96592 25.46203 -26.90234 23.32812 C-26.67304 23.08493 -26.44374 22.84174 -26.20749 22.59117 C-25.4597 21.80174 -24.69899 21.02621 -23.9375 20.25 C-23.16174 19.43864 -22.38927 18.62423 -21.61681 17.80974 C-21.10782 17.27376 -20.59762 16.73893 -20.0862 16.20528 C-18.23372 14.26877 -16.50133 12.26596 -14.8125 10.1875 C-11.84217 6.59379 -8.32345 3.6251 -4.75269 0.64502 C-2.75619 -1.06589 -2.5514 -0.99837 0 0 Z " fill="#201E10" transform="translate(359,170)"/>
<path d="M0 0 C0 0.66 0 1.32 0 2 C-0.47438 1.93813 -0.94875 1.87625 -1.4375 1.8125 C-3 2 -3 2 -3.4375 3.4375 C-4.29668 5.82411 -5.60307 5.6134 -8 6 C-7.8031 6.29656 -7.60619 6.59313 -7.40332 6.89868 C-6.83098 8.46152 -7.31116 8.60692 -8.54688 9.62109 C-8.72219 9.76901 -8.72219 9.76901 -9.60938 10.51758 C-9.98578 10.82115 -10.36219 11.12473 -10.75 11.4375 C-11.4748 12.03935 -12.19877 12.6422 -12.92188 13.24609 C-13.27701 13.53855 -13.63215 13.83101 -13.99805 14.13232 C-14.92197 14.93243 -15.74658 15.76619 -16.57812 16.66016 C-18 18 -18 18 -19.56641 18.47656 C-21.58006 19.21179 -22.09693 20.52493 -22.9375 22.375 C-23.10226 22.71789 -23.26702 23.06078 -23.43677 23.41406 C-25.10894 27.00666 -26.4235 30.74303 -27.69312 34.49365 C-27.84982 34.9495 -28.00652 35.40534 -28.16797 35.875 C-28.30485 36.28492 -28.44173 36.69484 -28.58276 37.11719 C-29 38 -29 38 -30 38 C-31.64047 27.31872 -21.96565 9.1918 -11.49609 5.63672 C-9.08126 4.609 -6.94409 3.13124 -4.7666 1.67603 C-4.60208 1.56835 -4.60208 1.56835 -3.76953 1.02344 C-3.6231 0.92507 -3.6231 0.92507 -2.88208 0.42725 C-2 0 -2 0 0 0 Z " fill="#2A2516" transform="translate(272,6)"/>
<path d="M0 0 C1.61723 2.85583 2.33613 4.91606 2.25 8.1875 C2.24589 8.38223 2.24589 8.38223 2.2251 9.36768 C1.7964 20.8319 -4.83932 39.72959 -18 42 C-19.6875 41.0625 -19.6875 41.0625 -21 40 C-19.6783 38.6783 -19.2883 39.02126 -17.5 39.25 C-15.14337 39.33103 -15.14337 39.33103 -14.51953 37.89062 C-14.3125 36.5 -14.3125 36.5 -14.23828 35.09375 C-14 34 -14 34 -12 34 C-11.4375 33.125 -11.4375 33.125 -11 32 C-10.22222 30 -10.22222 30 -8 30 C-7.50781 29.22266 -7.50781 29.22266 -7.125 28.0625 C-6.53719 26.37371 -5.91237 24.79255 -5.05469 23.22656 C-1.20431 15.93359 -0.73253 8.08615 0 0 Z " fill="#A4A59F" transform="translate(334,45)"/>
<path d="M0 0 C1.18029 1.79983 0.96337 2.72564 0.29297 4.72266 C0.1183 5.26213 -0.05637 5.8016 -0.23633 6.35742 C-0.42646 6.9201 -0.6166 7.48277 -0.8125 8.0625 C-3.83638 17.13415 -5.30793 25.51577 -5.625 35.0625 C-5.66332 36.03323 -5.70238 37.00394 -5.74219 37.97461 C-5.83665 40.31616 -5.92119 42.65787 -6 45 C-16.81653 35.28983 -5.87086 9.55973 0 0 Z " fill="#3D3724" transform="translate(118,24)"/>
<path d="M0 0 C3.52183 2.84532 3.11657 5.74293 2.42017 9.82593 C1.91453 12.83103 1.91453 12.83103 2.51172 14.01172 C3.34676 15.70184 2.60764 17.43045 2.1875 19.1875 C1.4684 22.40694 0.88846 25.61568 0.48828 28.89062 C0.44705 29.22464 0.40581 29.55865 0.36333 29.90279 C0.15976 31.57057 -0.03269 33.23853 -0.21411 34.90894 C-0.28783 35.52551 -0.36155 36.14208 -0.4375 36.77734 C-0.49809 37.3264 -0.55867 37.87546 -0.62109 38.44116 C-1.06827 40.28086 -1.878 41.4899 -3 43 C-3.35253 9.89484 -3.35253 9.89484 0 0 Z " fill="#D9DEE5" transform="translate(75,405)"/>
<path d="M0 0 C0.02704 1.29181 0.04685 2.58305 0.0625 3.875 C0.07088 4.2398 0.07926 4.60461 0.08789 4.98047 C0.10536 6.90223 0.0875 8.37303 -1 10 C1.33322 10 1.25468 9.98753 2 8 C4.53174 11.45527 5.37052 14.2683 5.59375 18.54688 C6 20 6 20 7.54297 20.48438 C9 21 9 21 9.14453 22.59375 C9.03496 23.22281 8.92539 23.85188 8.8125 24.5 C8.71582 25.12906 8.61914 25.75813 8.51953 26.40625 C7.92282 28.23675 7.67858 28.30536 6 29 C-2.21839 11.12581 -2.21839 11.12581 -4.0625 4.9375 C-4.18279 4.53934 -4.30307 4.14118 -4.427 3.73096 C-5.56269 -0.41229 -3.42999 -0.11064 0 0 Z " fill="#EAEBEC" transform="translate(98,286)"/>
<path d="M0 0 C0.41121 0.05221 0.82242 0.10441 1.24609 0.1582 C2.24826 0.28639 3.24928 0.42351 4.25 0.5625 C4.25 0.8925 4.25 1.2225 4.25 1.5625 C16.79 1.5625 29.33 1.5625 42.25 1.5625 C42.25 1.8925 42.25 2.2225 42.25 2.5625 C36.48519 2.85252 30.71993 3.13107 24.95394 3.39662 C22.27394 3.52036 19.5942 3.64746 16.91479 3.78345 C2.61172 4.50631 -11.45897 4.55631 -25.75 3.5625 C-25.75 1.64912 -22.79476 1.81091 -21.1875 1.5 C-20.73294 1.40985 -20.27839 1.31969 -19.81006 1.22681 C-16.58145 0.62493 -13.60493 0.40003 -10.32031 0.58984 C-8.75 0.5625 -8.75 0.5625 -6.85156 0.03906 C-4.48948 -0.60478 -2.39709 -0.33965 0 0 Z " fill="#D7E2DA" transform="translate(163.75,351.4375)"/>
<path d="M0 0 C2.29865 3.329 1.96337 5.20801 0.625 8.875 C-2.63897 19.18329 -1.10574 30.40724 0 41 C-7.99752 29.38854 -6.53024 12.00996 0 0 Z " fill="#3E3823" transform="translate(6,122)"/>
<path d="M0 0 C-2.2253 1.65164 -3.11393 2.3039 -5.83984 1.28906 C-7.19715 0.95088 -8.4641 0.99048 -9.85571 1.01367 C-11.09148 0.99891 -12.28776 0.88539 -13.51562 0.74609 C-18.70854 0.15756 -23.29937 -0.09555 -28.44141 0.94141 C-30.40623 1.01527 -30.83666 0.52218 -32 -1 C-22.26375 -7.14921 -9.81048 -4.57377 0 0 Z " fill="#D9DAD8" transform="translate(68,110)"/>
</svg>
