<?xml version="1.0" encoding="UTF-8"?>
<!-- Generator: visioncortex VTracer 0.6.12 -->
<svg version="1.1" xmlns="http://www.w3.org/2000/svg" width="340" height="430">
<path d="M0 0 C0.52868 0.06135 1.05735 0.1227 1.60205 0.18591 C3.08919 0.36173 4.57386 0.5511 6.05859 0.74609 C6.28039 0.77216 6.28039 0.77216 7.40282 0.9041 C11.91464 1.53754 11.70509 3.78276 12.02734 7.86938 C12.0649 8.30388 12.10245 8.73838 12.14114 9.18605 C12.26459 10.62504 12.38226 12.06444 12.5 13.50391 C12.58547 14.51085 12.67133 15.51776 12.75757 16.52464 C12.9843 19.1825 13.2063 21.84073 13.42712 24.49908 C13.77927 28.72849 14.13876 32.95728 14.49783 37.18611 C14.62158 38.65086 14.74346 40.11576 14.86499 41.5807 C16.35894 59.44032 16.35894 59.44032 24.80682 60.2229 C30.76695 60.47648 32.53588 57.90874 33.84172 52.37526 C34.73686 47.93646 35.31991 43.43403 35.8636 38.94041 C36.57181 33.10423 37.72586 27.39706 38.97064 21.65479 C39.3092 20.07789 39.63345 18.49869 39.95361 16.91797 C40.15122 15.9557 40.34897 14.99346 40.54688 14.03125 C40.63515 13.59075 40.72342 13.15026 40.81436 12.69641 C41.64911 8.72198 42.60145 8.40699 46.4375 8.39453 C46.63549 8.39235 46.63549 8.39235 47.63744 8.38129 C68.536 8.21612 98.6604 9.6604 114.5625 25.5625 C114.60431 26.88835 114.58349 28.15167 114.51172 29.47266 C114.49285 29.87722 114.47398 30.28177 114.45454 30.69859 C114.41249 31.56718 114.36774 32.43563 114.32056 33.30396 C114.25306 34.56764 114.19702 35.8314 114.14258 37.0957 C113.88437 42.44531 113.31337 47.71911 112.60938 53.02734 C111.81367 59.03986 111.24119 65.04388 110.81641 71.09375 C110.7875 71.5002 110.7586 71.90665 110.72883 72.32542 C110.46284 76.07354 110.20557 79.82222 109.96069 83.57178 C109.38897 92.26749 108.70164 100.86995 107.10156 109.44531 C106.98297 110.08827 106.86439 110.73123 106.7422 111.39368 C104.44666 122.907 97.39959 132.37496 88.875 140.25 C88.56538 140.53682 88.25577 140.82363 87.93677 141.11914 C85.79103 142.93641 83.75565 143.92172 81.09766 144.84375 C71.07185 148.53073 70.35944 152.61275 72.01318 162.39917 C72.24264 163.66651 72.48448 164.93027 72.73676 166.19327 C73.9907 172.50315 74.65918 178.8996 75.41166 185.28445 C75.57195 186.64258 75.73328 188.00057 75.89481 189.35855 C76.72519 196.34217 77.54616 203.32687 78.36462 210.31189 C78.69318 213.11488 79.0224 215.91779 79.35156 218.7207 C79.48129 219.82569 79.61102 220.93067 79.74074 222.03566 C79.9955 224.2057 80.25034 226.37573 80.50523 228.54576 C81.04879 233.17479 81.59127 237.80392 82.1272 242.43384 C83.0893 250.73193 84.12668 259.01683 85.2518 267.29456 C85.68844 270.51472 86.11717 273.73594 86.54688 276.95703 C86.71938 278.24951 86.8919 279.542 87.06445 280.83447 C87.10615 281.14684 87.10615 281.14684 87.31714 282.7276 C87.55101 284.47656 87.78613 286.22536 88.02148 287.97412 C88.37264 290.58962 88.71779 293.20584 89.05682 295.82294 C89.18487 296.81028 89.31413 297.79747 89.44464 298.78448 C90.11127 303.86368 90.63779 308.8878 90.75781 314.01172 C90.7701 314.43988 90.7824 314.86804 90.79506 315.30917 C90.84929 317.30851 90.87192 319.29814 90.83276 321.29785 C90.83976 326.19101 90.83976 326.19101 92.77368 327.18506 C94.37882 327.43744 95.94008 327.49784 97.5625 327.5625 C99.22347 328.01159 100.78802 328.65088 102.375 329.3125 C102.80023 329.48805 103.22546 329.66361 103.66357 329.84448 C144.18297 347.00926 137.5625 388.41608 137.5625 427.5625 C25.3625 427.5625 -86.8375 427.5625 -202.4375 427.5625 C-202.4375 335.58071 -202.4375 335.58071 -160.12109 327.03516 C-158.54932 326.80336 -157.02074 326.65835 -155.4375 326.5625 C-155.4578 326.11221 -155.47811 325.66193 -155.49902 325.198 C-155.72915 317.28361 -154.70092 309.44 -153.82288 301.5899 C-153.68575 300.35933 -153.5506 299.12856 -153.41602 297.89771 C-152.16847 286.49936 -150.76401 275.13237 -149.18961 263.77411 C-148.15101 256.26416 -147.21019 248.75266 -146.40234 241.21484 C-146.35919 240.81239 -146.31603 240.40994 -146.27156 239.99529 C-145.84886 236.04278 -145.43397 232.08953 -145.0318 228.13488 C-144.18742 219.84993 -143.20453 211.60136 -142.00781 203.35938 C-141.94459 202.92395 -141.88137 202.48852 -141.81624 202.03989 C-141.55657 200.25394 -141.29636 198.46808 -141.0358 196.68226 C-139.94115 189.17056 -138.8826 181.65484 -137.92482 174.12434 C-137.61883 171.72402 -137.30022 169.3266 -136.9563 166.9314 C-136.61479 164.55001 -136.303 162.16648 -136.01233 159.77837 C-135.89811 158.88265 -135.77325 157.98821 -135.6374 157.09551 C-134.5991 150.2072 -134.5991 150.2072 -136.65617 148.62538 C-138.24072 148.10107 -138.24072 148.10107 -139.84268 147.83298 C-149.3763 146.2161 -158.08709 135.92066 -163.125 128.3125 C-163.3986 127.90741 -163.67221 127.50232 -163.9541 127.08496 C-170.03809 117.38147 -171.36964 106.7416 -172.4468 95.61418 C-172.60392 94.01627 -172.77206 92.41958 -172.94017 90.82279 C-174.04177 80.35007 -174.96953 69.86517 -175.70825 59.36035 C-176.08473 54.14654 -176.60935 48.98324 -177.32812 43.80469 C-177.36623 43.52591 -177.36623 43.52591 -177.55907 42.11511 C-177.92816 39.43419 -178.31626 36.75833 -178.73657 34.08496 C-178.87308 33.13224 -179.00909 32.17944 -179.14453 31.22656 C-179.21928 30.79657 -179.29402 30.36658 -179.37103 29.92355 C-180.04571 24.91036 -176.38982 23.28572 -172.29688 21.44141 C-171.89753 21.25646 -171.49819 21.07152 -171.08675 20.88097 C-169.791 20.28632 -168.49013 19.70441 -167.1875 19.125 C-166.74397 18.92552 -166.30044 18.72604 -165.84348 18.52051 C-157.87038 14.95321 -149.9909 12.36838 -141.4375 10.5625 C-141.22722 10.5142 -141.22722 10.5142 -140.16309 10.26978 C-136.6553 9.4965 -133.14247 9.22815 -129.5625 9 C-128.91845 8.95827 -128.2744 8.91653 -127.61084 8.87354 C-122.76256 8.57758 -117.9193 8.45543 -113.0625 8.4375 C-112.41426 8.43291 -111.76603 8.42832 -111.09814 8.42358 C-110.50115 8.4256 -109.90415 8.42761 -109.28906 8.42969 C-108.76135 8.43082 -108.23364 8.43194 -107.68994 8.43311 C-105.52155 8.65713 -105.30495 9.75693 -105.02979 11.6897 C-104.96158 12.14022 -104.89337 12.59074 -104.82309 13.05492 C-104.74999 13.55371 -104.67688 14.0525 -104.60156 14.56641 C-103.80133 19.67739 -102.80947 24.72433 -101.71094 29.77734 C-101.55576 30.4946 -101.40059 31.21185 -101.24542 31.92911 C-100.60797 34.86894 -99.96509 37.80756 -99.31836 40.74536 C-98.91616 42.57376 -98.51904 44.40321 -98.1249 46.23337 C-97.97616 46.91907 -97.8255 47.60435 -97.67274 48.28917 C-97.45986 49.24373 -97.25399 50.19986 -97.04834 51.15601 C-96.98918 51.42548 -96.98918 51.42548 -96.68979 52.78917 C-96.37156 55.02599 -96.4375 57.30316 -96.4375 59.5625 C-91.4875 59.5625 -86.5375 59.5625 -81.4375 59.5625 C-81.16169 56.97962 -80.89103 54.39639 -80.625 51.8125 C-80.60341 51.60441 -80.60341 51.60441 -80.49414 50.55133 C-79.84131 44.21199 -79.29174 37.86755 -78.80175 31.51387 C-78.70706 30.28941 -78.6112 29.06504 -78.51494 27.8407 C-78.45046 27.01978 -78.386 26.19885 -78.32153 25.37793 C-78.28951 24.97048 -78.25749 24.56302 -78.22449 24.14322 C-78.03141 21.67494 -77.8469 19.20619 -77.66791 16.73685 C-77.55261 15.17218 -77.4298 13.60817 -77.30511 12.04423 C-77.24799 11.30701 -77.19411 10.56954 -77.14364 9.83184 C-77.07356 8.8129 -76.99117 7.79483 -76.9082 6.77686 C-76.86538 6.20208 -76.82256 5.62731 -76.77844 5.03513 C-75.96628 1.52715 -73.39631 1.16322 -70.21094 0.74609 C-69.79153 0.68489 -69.37213 0.62368 -68.94002 0.56062 C-67.56537 0.36371 -66.18938 0.18067 -64.8125 0 C-64.33809 -0.06409 -63.86369 -0.12818 -63.37491 -0.19421 C-42.07724 -3.06118 -21.32163 -2.56679 0 0 Z " fill="#040403" transform="translate(202.4375,2.4375)"/>
<path d="M0 0 C18.79953 -0.91388 37.33397 0.66433 56.04114 2.39575 C56.33277 2.42253 56.33277 2.42253 57.80859 2.55803 C64.47741 3.17161 71.13384 3.84211 77.78566 4.61911 C80.76814 4.95362 83.72348 5.1617 86.72297 5.25355 C102.38276 5.76191 102.38276 5.76191 103.83542 14.69814 C104.24182 17.95244 104.31274 21.19574 104.3332 24.47171 C104.3674 26.64564 104.50885 28.81211 104.64417 30.98169 C104.82514 34.00898 104.97796 37.03464 105.08787 40.06536 C105.30983 46.14745 105.93356 52.12076 106.77893 58.14981 C106.96901 59.51415 107.14651 60.87937 107.31848 62.24609 C107.85113 66.46373 108.43517 70.67281 109.04448 74.88002 C110.35852 83.95569 111.52907 93.04654 112.66614 102.14575 C112.69237 102.35527 112.69237 102.35527 112.82515 103.41553 C114.63422 117.86644 116.32715 132.3293 117.93997 146.80339 C118.1017 148.25335 118.26417 149.70324 118.42679 151.15311 C119.5801 161.4524 120.68139 171.73928 121.35364 182.08325 C87.40062 179.17855 87.40062 179.17855 73.35364 177.95825 C72.91253 177.92 72.47142 177.88175 72.01694 177.84235 C71.59043 177.80535 71.16392 177.76835 70.72449 177.73022 C70.35899 177.69853 69.9935 177.66684 69.61693 177.63419 C69.15879 177.59417 68.70066 177.55416 68.22864 177.51294 C67.8762 177.48292 67.52377 177.45289 67.16066 177.42196 C65.09432 177.24378 63.03118 177.05238 60.96941 176.82721 C53.36866 176.02186 45.82329 175.93677 38.18567 175.95044 C37.1681 175.95027 36.15054 175.94942 35.13297 175.94849 C31.92551 175.94556 28.71808 175.94749 25.51062 175.95288 C22.65188 175.95763 19.79319 175.95778 16.93445 175.95288 C1.50642 175.92719 -13.91006 176.03279 -29.33197 176.49716 C-30.37239 176.5282 -31.41284 176.55792 -32.4533 176.5874 C-34.38545 176.6428 -36.31729 176.70628 -38.24915 176.77124 C-38.81071 176.78756 -39.37227 176.80388 -39.95085 176.8207 C-43.1292 176.93735 -46.18294 177.27072 -49.31119 177.84956 C-51.43258 178.22086 -53.5631 178.38501 -55.70886 178.5481 C-56.17401 178.5857 -56.63916 178.62329 -57.11841 178.66203 C-58.11307 178.74225 -59.10783 178.82137 -60.10266 178.89948 C-62.75308 179.1077 -65.40282 179.32431 -68.05261 179.54028 C-68.59478 179.58429 -69.13696 179.6283 -69.69556 179.67365 C-78.68522 180.40754 -87.665 181.25522 -96.64636 182.08325 C-95.56254 169.16991 -94.1197 156.30475 -92.55261 143.44263 C-92.50473 143.04962 -92.45686 142.6566 -92.40753 142.25168 C-91.811 137.35855 -91.20984 132.46598 -90.60695 127.57363 C-89.94223 122.17869 -89.28197 116.78321 -88.62145 111.38776 C-88.52181 110.57388 -88.42216 109.75999 -88.32251 108.94611 C-88.27366 108.54714 -88.22482 108.14817 -88.1745 107.73712 C-87.89303 105.4388 -87.61084 103.14058 -87.32794 100.84244 C-86.22029 91.84417 -85.13945 82.84316 -84.08655 73.83832 C-83.51139 68.92069 -82.92014 64.00502 -82.32773 59.08945 C-82.00718 56.42734 -81.68823 53.76505 -81.36902 51.10278 C-80.98503 47.90037 -80.60009 44.69808 -80.21178 41.49619 C-80.0009 39.75456 -79.79201 38.0127 -79.58386 36.27075 C-79.50595 35.61978 -79.42805 34.9688 -79.34778 34.2981 C-78.89235 30.41382 -78.48768 26.52714 -78.11511 22.63403 C-78.07052 22.17168 -78.02594 21.70932 -77.98 21.23296 C-77.76143 18.96117 -77.548 16.6891 -77.34338 14.41602 C-77.26614 13.59675 -77.18875 12.77749 -77.11121 11.95825 C-77.07898 11.57998 -77.04675 11.2017 -77.01355 10.81197 C-76.71467 7.73228 -76.13404 7.03362 -73.10339 6.65356 C-72.5404 6.58202 -71.9774 6.51048 -71.39734 6.43677 C-70.75764 6.36136 -70.11794 6.28595 -69.45886 6.20825 C-69.12157 6.16757 -68.78428 6.12688 -68.43677 6.08496 C-55.53149 4.53132 -42.5899 3.26926 -29.64636 2.08325 C-29.04187 2.02784 -28.43738 1.97243 -27.81458 1.91534 C-18.55147 1.07558 -9.28861 0.4697 0 0 Z " fill="#F4F4F5" transform="translate(157.6463623046875,145.916748046875)"/>
<path d="M0 0 C2.07684 -0.00162 4.15367 -0.00455 6.2305 -0.00871 C19.56795 -0.03516 32.898 -0.04193 46.22401 0.57133 C46.65806 0.59101 47.09212 0.6107 47.53932 0.63097 C55.0796 0.98463 62.56436 1.72199 70.05994 2.59868 C73.4464 2.98985 76.83133 3.28162 80.23182 3.52055 C97.19689 4.74351 114.59234 7.23752 129.89588 15.12211 C130.27487 15.31241 130.65385 15.50271 131.04432 15.69877 C156.30937 28.72327 152.89588 60.04741 152.89588 84.12211 C49.93588 84.12211 -53.02412 84.12211 -159.10412 84.12211 C-159.10412 36.21238 -159.10412 36.21238 -147.10412 23.12211 C-146.84212 22.82353 -146.58011 22.52496 -146.31017 22.21733 C-125.53951 -0.8263 -77.11802 1.40877 -49.16662 0.55961 C-48.83294 0.54927 -48.49926 0.53893 -48.15546 0.52828 C-32.10801 0.03551 -16.05362 0.01226 0 0 Z " fill="#F6F6F6" transform="translate(173.10411792993546,332.8778865933418)"/>
<path d="M0 0 C0.17585 0.00331 0.17585 0.00331 1.06576 0.02005 C2.46537 0.047 3.86493 0.0743 5.2644 0.1081 C9.39032 0.20771 13.3771 0.10954 17.47559 -0.35449 C23.5638 -0.89697 27.5848 -0.29192 29.36517 6.15775 C31.03022 13.45038 31.42461 20.9088 31.85559 28.35461 C32.0366 31.10332 32.32408 33.83732 32.62402 36.5752 C33.53832 45.14043 34.09906 53.5584 33.97559 62.17676 C71.55513 68.08915 71.55513 68.08915 76.48743 55.23506 C79.36991 46.50446 79.99598 37.06896 80.53672 27.94378 C81.3905 13.76184 81.3905 13.76184 84.97559 10.17676 C93.69823 9.29529 102.61759 11.6084 110.91309 13.98926 C111.1339 14.05154 111.1339 14.05154 112.25134 14.36673 C114.79678 15.09313 117.29329 15.90199 119.78589 16.7923 C120.97659 17.17708 122.1533 17.43506 123.37793 17.68799 C131.94323 19.91476 129.68532 29.44666 129.18135 36.48181 C129.04625 38.48067 128.95637 40.48162 128.86011 42.48267 C128.62967 47.05233 128.31609 51.61414 127.97559 56.17676 C127.93311 56.75746 127.89063 57.33816 127.84686 57.93646 C127.446 63.32912 126.91739 68.69518 126.2373 74.05957 C125.96218 76.24135 125.73398 78.42705 125.50684 80.61426 C123.51369 99.39091 116.67036 113.65277 100.01172 123.5542 C99.1156 124.09263 98.24225 124.66863 97.37402 125.25098 C90.80949 128.97088 80.75138 127.37649 73.82178 125.19531 C69.49087 123.92794 65.20432 123.64433 60.71777 123.36035 C59.84289 123.29909 58.96807 123.23707 58.09329 123.17433 C55.81056 123.01221 53.52736 122.85841 51.2439 122.70703 C47.58357 122.46331 43.92403 122.20824 40.26468 121.9503 C38.99703 121.86238 37.72914 121.77897 36.46115 121.69615 C30.08314 121.2645 30.08314 121.2645 27.53101 120.64893 C23.48215 119.74195 19.22398 119.96992 15.09668 119.93848 C14.61126 119.93367 14.12585 119.92887 13.62572 119.92392 C9.88819 119.88751 6.15078 119.87232 2.41309 119.86426 C1.86074 119.86267 1.3084 119.86107 0.73932 119.85943 C-15.86572 119.8188 -32.30599 120.40731 -48.83691 121.98926 C-49.27787 122.03092 -49.71883 122.07258 -50.17315 122.11551 C-58.37333 122.89297 -66.54971 123.7978 -74.70166 124.98291 C-75.17525 125.05171 -75.64884 125.1205 -76.13679 125.19138 C-78.41622 125.52467 -80.69401 125.86617 -82.97017 126.22115 C-96.34539 128.2704 -96.34539 128.2704 -102.33691 124.73926 C-102.80057 124.47411 -103.26423 124.20897 -103.74194 123.93579 C-130.33741 108.02725 -129.64546 80.10644 -131.76161 52.50297 C-131.95698 49.97877 -132.17355 47.45705 -132.40088 44.93555 C-132.69465 41.66844 -132.93829 38.40028 -133.14719 35.12646 C-133.23148 33.91757 -133.3315 32.70966 -133.44778 31.50342 C-134.14647 24.10527 -134.15379 20.03435 -126.44385 17.80615 C-126.03165 17.70111 -125.61945 17.59608 -125.19476 17.48785 C-123.56974 17.0559 -122.05406 16.41164 -120.50488 15.7627 C-115.0128 13.70439 -109.56619 11.85866 -103.77441 10.86426 C-103.34024 10.78804 -102.90607 10.71183 -102.45874 10.6333 C-101.13379 10.43848 -101.13379 10.43848 -99.73145 10.35376 C-98.24787 10.19993 -97.02533 9.90415 -95.59863 9.50562 C-92.22271 8.76121 -89.11414 8.27301 -87.1908 11.63309 C-85.39437 16.52392 -84.58889 21.67906 -83.74585 26.80396 C-83.38259 28.95347 -82.96762 31.09278 -82.55566 33.2334 C-81.88016 36.77001 -81.24663 40.31187 -80.63821 43.86058 C-80.30374 45.76356 -79.92654 47.64593 -79.48071 49.52615 C-79.43459 49.72174 -79.43459 49.72174 -79.20121 50.7115 C-79.02518 51.44456 -78.84352 52.1763 -78.65444 52.9061 C-77.86453 56.18393 -78.02441 58.55625 -78.02441 62.17676 C-64.82441 62.17676 -51.62441 62.17676 -38.02441 62.17676 C-38.02441 57.88676 -38.02441 53.59676 -38.02441 49.17676 C-37.7296 45.39603 -37.39421 41.64432 -36.96582 37.87988 C-36.85563 36.86958 -36.74594 35.85922 -36.6367 34.84882 C-36.40989 32.76458 -36.17842 30.68095 -35.94312 28.59766 C-35.64151 25.92537 -35.35035 23.25207 -35.0623 20.5783 C-34.83836 18.50708 -34.61002 16.43638 -34.3802 14.36581 C-34.271 13.37872 -34.16297 12.3915 -34.05612 11.40415 C-33.90741 10.03778 -33.75301 8.67218 -33.59692 7.30664 C-33.55377 6.90053 -33.51061 6.49441 -33.46614 6.07599 C-32.37837 -3.17893 -7.69839 -0.14563 0 0 Z " fill="#F4F4F4" transform="translate(172.0244140625,14.8232421875)"/>
<path d="M0 0 C0.58406 0.05349 1.16812 0.10697 1.76987 0.16208 C8.43795 0.775 15.09352 1.44646 21.74454 2.22336 C24.72701 2.55787 27.68235 2.76594 30.68183 2.8578 C46.34162 3.36616 46.34162 3.36616 47.79428 12.30239 C48.20068 15.55669 48.2716 18.79999 48.29206 22.07596 C48.32627 24.24989 48.46771 26.41635 48.60303 28.58594 C48.78401 31.61323 48.93682 34.63889 49.04674 37.66961 C49.26869 43.7517 49.89242 49.72501 50.73779 55.75406 C50.92787 57.11839 51.10538 58.48362 51.27734 59.85034 C51.81 64.06798 52.39403 68.27705 53.00334 72.48427 C54.31738 81.55994 55.48794 90.65079 56.625 99.75 C56.65124 99.95951 56.65124 99.95951 56.78401 101.01978 C58.59308 115.47068 60.28601 129.93355 61.89883 144.40763 C62.06056 145.8576 62.22304 147.30749 62.38565 148.75735 C63.53896 159.05664 64.64025 169.34353 65.3125 179.6875 C59.95831 179.22945 54.60414 178.7711 49.25 178.3125 C48.85398 178.27858 48.45797 178.24466 48.04995 178.20971 C34.46986 177.04645 20.89057 175.87422 7.3125 174.6875 C7.3125 174.3575 7.3125 174.0275 7.3125 173.6875 C14.5725 173.6875 21.8325 173.6875 29.3125 173.6875 C29.02375 171.625 28.735 169.5625 28.4375 167.4375 C27.65131 161.66219 27.00043 155.88315 26.43631 150.08234 C26.31141 148.8013 26.18423 147.5205 26.0564 146.23975 C25.35606 139.20803 25.35606 139.20803 25.11084 136.42773 C24.32817 127.57704 22.87864 119.31469 20.34497 110.79102 C18.24411 103.70137 16.63563 96.52941 15.10034 89.2981 C14.12968 84.80443 13.05321 80.5118 11.25839 76.26718 C10.45445 74.32496 10.17385 72.78647 10.3125 70.6875 C9.6525 70.6875 8.9925 70.6875 8.3125 70.6875 C7.56641 69.57349 7.56641 69.57349 6.875 68.01953 C6.61977 67.45557 6.36453 66.8916 6.10156 66.31055 C5.84117 65.71307 5.58078 65.11559 5.3125 64.5 C5.05211 63.92186 4.79172 63.34371 4.52344 62.74805 C3.38901 60.21278 2.29693 57.67385 1.30859 55.07812 C-10.13471 26.20048 -41.95623 11.02339 -69.6875 2.6875 C-70.29819 2.50357 -70.90889 2.31963 -71.53809 2.13013 C-74.12072 1.50217 -76.68418 1.56279 -79.32812 1.58984 C-79.85517 1.59126 -80.38222 1.59267 -80.92523 1.59413 C-82.59605 1.5997 -84.26673 1.61224 -85.9375 1.625 C-87.07552 1.63002 -88.21354 1.63458 -89.35156 1.63867 C-92.13025 1.64965 -94.90887 1.66635 -97.6875 1.6875 C-97.6875 1.3575 -97.6875 1.0275 -97.6875 0.6875 C-64.69558 -2.16627 -33.02515 -3.03936 0 0 Z " fill="#BDBCBB" transform="translate(213.6875,148.3125)"/>
<path d="M0 0 C1.35559 0.43342 2.70932 0.87167 4.0625 1.3125 C4.43311 1.43045 4.80371 1.5484 5.18555 1.66992 C5.98845 1.93306 6.78672 2.21056 7.5807 2.4995 C8.6579 2.87936 9.75214 3.21127 10.85179 3.52016 C16.45414 5.25721 16.95778 7.70912 16.53516 13.24609 C16.50534 13.97203 16.47854 14.6981 16.45459 15.42426 C16.38141 17.36427 16.26409 19.29924 16.1371 21.23639 C16.01252 23.24213 15.92706 25.2496 15.83569 27.25708 C15.3322 37.82416 14.59267 48.38581 13.26172 58.88281 C12.98659 61.06459 12.7584 63.2503 12.53125 65.4375 C10.53811 84.21415 3.69477 98.47601 -12.96387 108.37744 C-13.85999 108.91587 -14.73334 109.49187 -15.60156 110.07422 C-22.07785 113.74412 -32.36821 112.25044 -39.16016 110.01953 C-44.58672 108.35517 -50.30628 108.26479 -55.9375 107.875 C-57.11008 107.78843 -58.2826 107.7012 -59.45508 107.61328 C-62.30287 107.40118 -65.15115 107.1973 -68 107 C-68 106.67 -68 106.34 -68 106 C-67.35152 106.06808 -66.70304 106.13616 -66.03491 106.2063 C-49.89739 107.75033 -40.30795 106.43475 -29.67334 93.7876 C-28.73903 92.69475 -27.74414 91.66332 -26.75 90.625 C-7.3303 69.3062 -4.61871 27.01989 0 0 Z " fill="#BABAB8" transform="translate(285,30)"/>
<path d="M0 0 C2.07684 -0.00162 4.15367 -0.00455 6.2305 -0.00871 C19.5389 -0.0351 32.8409 -0.04391 46.13807 0.56352 C46.56625 0.58267 46.99444 0.60182 47.43559 0.62155 C56.62592 1.04704 65.76435 2.02422 74.89588 3.12211 C74.89588 3.45211 74.89588 3.78211 74.89588 4.12211 C43.70363 4.31763 43.70363 4.31763 30.45838 3.68461 C30.01709 3.66497 29.5758 3.64532 29.12113 3.62507 C27.9011 3.56904 26.68175 3.50568 25.46229 3.43852 C25.28598 3.43016 25.28598 3.43016 24.39375 3.38786 C22.01243 3.23866 22.01243 3.23866 20.89588 2.12211 C19.43651 1.99841 18.02149 1.93652 16.5597 1.91679 C16.11089 1.90689 15.66208 1.89699 15.19967 1.88679 C13.71174 1.85513 12.22378 1.8304 10.73573 1.80571 C9.70582 1.78514 8.67591 1.76415 7.64602 1.74273 C4.93187 1.68747 2.21765 1.63808 -0.49664 1.58989 C-3.26495 1.5397 -6.03316 1.484 -8.80138 1.42875 C-14.23553 1.32112 -19.66978 1.21969 -25.10412 1.12211 C-25.10412 1.78211 -25.10412 2.44211 -25.10412 3.12211 C-25.52298 3.11688 -25.94185 3.11164 -26.37341 3.10624 C-27.92581 3.08921 -29.47816 3.07667 -31.03063 3.06718 C-32.03367 3.05967 -33.03667 3.04697 -34.03966 3.03422 C-34.35387 3.03261 -34.35387 3.03261 -35.94396 3.02446 C-36.52525 3.01922 -37.10653 3.01398 -37.70544 3.00859 C-39.10412 3.12211 -39.10412 3.12211 -40.10412 4.12211 C-41.47045 4.23564 -41.47045 4.23564 -43.23107 4.21977 C-43.88845 4.21647 -44.54583 4.21316 -45.22314 4.20976 C-45.57545 4.20564 -45.92776 4.20152 -46.29075 4.19728 C-47.39168 4.18454 -48.4925 4.17801 -49.5935 4.17314 C-52.32779 4.15975 -55.06197 4.13554 -57.7962 4.11174 C-60.10618 4.09204 -62.41613 4.07639 -64.72617 4.06617 C-65.81256 4.05968 -66.89877 4.04717 -67.9851 4.03447 C-68.64248 4.03116 -69.29986 4.02786 -69.97716 4.02446 C-70.55817 4.01922 -71.13917 4.01398 -71.73778 4.00859 C-73.10412 4.12211 -73.10412 4.12211 -74.10412 5.12211 C-75.53856 5.20977 -76.92408 5.2378 -78.35802 5.21977 C-78.56818 5.21906 -78.56818 5.21906 -79.63169 5.21548 C-80.97674 5.20988 -82.32162 5.19732 -83.66662 5.18461 C-84.57742 5.1796 -85.48823 5.17504 -86.39904 5.17094 C-88.63413 5.1599 -90.8691 5.14264 -93.10412 5.12211 C-93.10412 4.79211 -93.10412 4.46211 -93.10412 4.12211 C-91.08251 3.85011 -89.0602 3.58414 -87.03722 3.32255 C-86.03181 3.19148 -85.02693 3.05632 -84.02209 2.92094 C-72.47251 1.41009 -60.80068 0.91305 -49.16662 0.55961 C-48.83294 0.54927 -48.49926 0.53893 -48.15546 0.52828 C-32.10801 0.03551 -16.05362 0.01226 0 0 Z " fill="#C5C8C6" transform="translate(173.10411792993546,332.8778865933418)"/>
<path d="M0 0 C0 0.33 0 0.66 0 1 C-3.38133 1.02535 -6.76264 1.04287 -10.14404 1.05493 C-11.29444 1.05996 -12.44484 1.06679 -13.59521 1.07544 C-15.24839 1.08756 -16.90148 1.09324 -18.55469 1.09766 C-19.06934 1.10282 -19.58398 1.10798 -20.11423 1.1133 C-20.3544 1.11333 -20.3544 1.11333 -21.56982 1.11353 C-21.99174 1.11575 -22.41366 1.11797 -22.84836 1.12025 C-24 1 -24 1 -24.99625 0.50099 C-26.23249 -0.11604 -27.11245 -0.12687 -28.49023 -0.12939 C-28.73719 -0.13097 -28.73719 -0.13097 -29.98694 -0.13895 C-30.51719 -0.13692 -31.04743 -0.1349 -31.59375 -0.13281 C-32.14108 -0.13377 -32.68841 -0.13473 -33.25232 -0.13571 C-34.40894 -0.13639 -35.56556 -0.13455 -36.72217 -0.13037 C-38.49325 -0.12502 -40.26408 -0.13032 -42.03516 -0.13672 C-43.15885 -0.13606 -44.28255 -0.13478 -45.40625 -0.13281 C-45.9365 -0.13484 -46.46675 -0.13686 -47.01306 -0.13895 C-47.50697 -0.13579 -48.00089 -0.13264 -48.50977 -0.12939 C-48.94341 -0.1286 -49.37706 -0.1278 -49.82385 -0.12698 C-51 0 -51 0 -53 1 C-52.175 1.165 -52.175 1.165 -48 2 C-49 6 -49 6 -50.61719 5.88672 C-54.34755 5.57407 -57.82638 5.14983 -61.36368 3.88191 C-67.77691 1.6125 -73.89493 1.65091 -80.625 1.8125 C-81.73566 1.8276 -82.84634 1.84128 -83.95703 1.85352 C-86.63847 1.88608 -89.31914 1.93587 -92 2 C-92 1.67 -92 1.34 -92 1 C-61.18433 -1.66552 -30.84526 -3.66903 0 0 Z " fill="#B0B4B2" transform="translate(208,148)"/>
<path d="M0 0 C2.1997 0.01044 4.39941 0.01484 6.59912 0.01984 C10.87389 0.03039 15.14861 0.04733 19.42334 0.06866 C19.42334 0.72866 19.42334 1.38866 19.42334 2.06866 C19.00448 2.06343 18.58561 2.05819 18.15405 2.0528 C16.60165 2.03576 15.04929 2.02322 13.49683 2.01373 C12.49378 2.00622 11.49078 1.99352 10.48779 1.98077 C10.17358 1.97916 10.17358 1.97916 8.5835 1.97101 C8.00221 1.96577 7.42092 1.96053 6.82202 1.95514 C5.42334 2.06866 5.42334 2.06866 4.42334 3.06866 C3.05701 3.18219 3.05701 3.18219 1.29639 3.16632 C0.63901 3.16302 -0.01838 3.15971 -0.69568 3.15631 C-1.04799 3.15219 -1.4003 3.14807 -1.76329 3.14383 C-2.86423 3.13109 -3.96504 3.12456 -5.06604 3.11969 C-7.80034 3.1063 -10.53452 3.08209 -13.26874 3.05829 C-15.57872 3.03859 -17.88867 3.02294 -20.19872 3.01273 C-21.2851 3.00623 -22.37131 2.99372 -23.45764 2.98102 C-24.11502 2.97771 -24.7724 2.97441 -25.44971 2.97101 C-26.03071 2.96577 -26.61172 2.96053 -27.21033 2.95514 C-28.57666 3.06866 -28.57666 3.06866 -29.57666 4.06866 C-31.0111 4.15633 -32.39662 4.18435 -33.83057 4.16632 C-34.04072 4.16561 -34.04072 4.16561 -35.10423 4.16203 C-36.44928 4.15643 -37.79416 4.14387 -39.13916 4.13116 C-40.04997 4.12615 -40.96077 4.12159 -41.87158 4.11749 C-44.10667 4.10646 -46.34164 4.08919 -48.57666 4.06866 C-48.57666 3.73866 -48.57666 3.40866 -48.57666 3.06866 C-46.55505 2.79666 -44.53274 2.53069 -42.50977 2.2691 C-41.50435 2.13803 -40.49947 2.00288 -39.49463 1.86749 C-26.33894 0.14245 -13.24211 -0.06981 0 0 Z " fill="#ECF1F8" transform="translate(128.57666015625,333.93133544921875)"/>
<path d="M0 0 C0.47865 15.55228 -0.32272 31.11556 -8 45 C-8.9124 42.53651 -9.24664 41.18539 -8.12109 38.77344 C-6.81433 35.69475 -6.101 32.58367 -5.4375 29.3125 C-5.30747 28.67474 -5.17743 28.03697 -5.04346 27.37988 C-3.86106 21.25988 -3.50665 15.12371 -3.29077 8.90356 C-3.27696 8.53228 -3.26315 8.16099 -3.24892 7.77846 C-3.21333 6.77077 -3.18525 5.76282 -3.15771 4.75488 C-2.73038 0 -2.73038 0 0 0 Z " fill="#9D9C96" transform="translate(298,77)"/>
<path d="M0 0 C-1.6186 1.34126 -3.24587 2.67156 -4.875 4 C-5.3352 4.38156 -5.79539 4.76313 -6.26953 5.15625 C-6.71426 5.51719 -7.15898 5.87813 -7.61719 6.25 C-8.02566 6.58516 -8.43413 6.92031 -8.85498 7.26562 C-10 8 -10 8 -12 8 C-11.67 8.99 -11.34 9.98 -11 11 C-11.31066 11.12891 -11.62133 11.25781 -11.94141 11.39062 C-13.38009 12.2188 -13.75799 13.35987 -14.43359 14.82812 C-15.05083 16.10516 -15.75779 17.29158 -16.5 18.5 C-17.98949 20.94487 -19.39689 23.4374 -20.42969 26.11328 C-21 27 -21 27 -23 27 C-23.625 28 -23.625 28 -24 29 C-23.02972 21.9329 -21.33774 16.68845 -17 11 C-16.76765 10.68934 -16.53529 10.37867 -16.2959 10.05859 C-13.68104 6.62007 -10.81939 3.61718 -7.375 1 C-7.09801 0.77997 -6.82103 0.55995 -6.53564 0.33325 C-4.0797 -1.40365 -2.66216 -0.93001 0 0 Z " fill="#191309" transform="translate(29,338)"/>
<path d="M0 0 C0.96306 2.99618 1.07358 4.99674 0 8 C-0.1339 8.38027 -0.2678 8.76055 -0.40576 9.15234 C-3.36293 16.98806 -7.74079 24.16431 -13.625 30.125 C-13.98481 30.49109 -14.34462 30.85719 -14.71533 31.23438 C-17.22692 33.62832 -19.70276 34.94317 -23 36 C-23.61893 32.6165 -21.65069 31.4495 -19.25 29.5 C-18.90195 29.2048 -18.55391 28.90961 -18.19531 28.60547 C-16.44849 27.13684 -14.66881 25.75904 -12.80859 24.4375 C-11.2524 23.28204 -10.42364 22.38787 -9.8125 20.5 C-9.66426 20.07332 -9.51602 19.64664 -9.36328 19.20703 C-9.06158 18.20461 -8.77838 17.19664 -8.5 16.1875 C-8 15 -8 15 -6 15 C-5.4375 13.75781 -5.4375 13.75781 -5 12.125 C-4.21008 9.20512 -4.21008 9.20512 -3.00781 8.03125 C-1.62866 6.62002 -1.36633 5.27014 -0.875 3.375 C-0.70742 2.74336 -0.53984 2.11172 -0.36719 1.46094 C-0.24602 0.97883 -0.12484 0.49672 0 0 Z " fill="#1D1A09" transform="translate(307,109)"/>
<path d="M0 0 C0.33 0 0.66 0 1 0 C1.165 2.145 1.165 2.145 2 13 C-9.55 12.01 -21.1 11.02 -33 10 C-33 9.67 -33 9.34 -33 9 C-32.85855 9.00222 -32.85855 9.00222 -32.1427 9.01346 C-29.15703 9.05824 -26.17147 9.08809 -23.18555 9.10986 C-22.07613 9.11983 -20.96674 9.1334 -19.85742 9.15088 C-1.96135 9.42546 -1.96135 9.42546 -0.29883 5.23096 C-0.01151 3.44646 0.07716 1.80364 0 0 Z " fill="#959993" transform="translate(277,315)"/>
<path d="M0 0 C1.56641 0 1.20731 0.86938 1.5 2.3125 C2.32993 7.16349 2.07853 12.09616 2 17 C3.65 16.67 5.3 16.34 7 16 C7 16.66 7 17.32 7 18 C7.99 18.66 8.98 19.32 10 20 C6.04 20.33 2.08 20.66 -2 21 C-1.67 17.535 -1.67 17.535 0 0 Z " fill="#D5D7D8" transform="translate(63,307)"/>
<path d="M0 0 C4.54153 -0.06168 9.08312 -0.10212 13.625 -0.125 C13.79374 -0.12586 13.79374 -0.12586 14.64768 -0.13019 C27.18655 -0.18633 39.54267 0.5182 52 2 C52 2.33 52 2.66 52 3 C48.61867 3.02535 45.23736 3.04287 41.85596 3.05493 C40.70556 3.05996 39.55516 3.06679 38.40479 3.07544 C36.75161 3.08756 35.09852 3.09324 33.44531 3.09766 C33.18799 3.10024 33.18799 3.10024 31.88577 3.1133 C31.40543 3.11337 30.92508 3.11345 30.43018 3.11353 C30.00826 3.11575 29.58634 3.11797 29.15164 3.12025 C27.88249 2.98773 27.13206 2.56603 26 2 C24.77243 1.84178 24.77243 1.84178 23.38623 1.79468 C22.86584 1.77473 22.34545 1.75479 21.8093 1.73424 C21.2509 1.71753 20.6925 1.70081 20.11719 1.68359 C19.54292 1.66281 18.96865 1.64203 18.37698 1.62062 C16.54311 1.55525 14.70909 1.4963 12.875 1.4375 C11.6315 1.3943 10.38801 1.35069 9.14453 1.30664 C6.0965 1.19959 3.04834 1.0978 0 1 C0 0.67 0 0.34 0 0 Z " fill="#90928F" transform="translate(156,146)"/>
<path d="M0 0 C0 0.33 0 0.66 0 1 C-0.39792 1.02506 -0.79583 1.05011 -1.20581 1.07593 C-3.03328 1.19298 -4.86037 1.3152 -6.6875 1.4375 C-7.31334 1.47682 -7.93918 1.51613 -8.58398 1.55664 C-11.76251 1.77298 -14.79776 2.10956 -17.90747 2.79712 C-19.53151 3.0987 -21.10414 3.05826 -22.75 3 C-25.89076 2.89076 -25.89076 2.89076 -27 4 C-28.43444 4.08766 -29.81996 4.11569 -31.25391 4.09766 C-31.46406 4.09695 -31.46406 4.09695 -32.52757 4.09337 C-33.87262 4.08776 -35.2175 4.07521 -36.5625 4.0625 C-37.4733 4.05749 -38.38411 4.05292 -39.29492 4.04883 C-41.53001 4.03779 -43.76498 4.02052 -46 4 C-46 3.67 -46 3.34 -46 3 C-30.63664 0.9329 -15.50656 -0.1974 0 0 Z " fill="#BABDB9" transform="translate(126,334)"/>
<path d="M0 0 C0.38092 14.43084 0.38092 14.43084 -1.14355 21.41846 C-2.19742 26.46039 -2.63455 31.56647 -3.125 36.6875 C-3.14715 36.91761 -3.14715 36.91761 -3.25922 38.08212 C-3.51214 40.72088 -3.75871 43.36016 -4 46 C-4.33 46 -4.66 46 -5 46 C-5.19625 44.18833 -5.38051 42.37565 -5.5625 40.5625 C-5.61857 40.04623 -5.67465 39.52996 -5.73242 38.99805 C-5.78076 38.50498 -5.8291 38.01191 -5.87891 37.50391 C-5.92604 37.0483 -5.97317 36.5927 -6.02173 36.12329 C-6 35 -6 35 -5 34 C-4.77258 32.81244 -4.77258 32.81244 -4.62695 31.30371 C-4.57019 30.73932 -4.51344 30.17494 -4.45496 29.59344 C-4.39763 28.97995 -4.34031 28.36646 -4.28125 27.73438 C-4.24985 27.41917 -4.24985 27.41917 -4.09094 25.82404 C-3.92386 24.14279 -3.76035 22.46128 -3.59894 20.77948 C-3.37271 18.42555 -3.14244 16.07204 -2.90906 13.71881 C-2.7851 12.46691 -2.66363 11.21476 -2.54504 9.96234 C-1.56505 0 -1.56505 0 0 0 Z " fill="#352916" transform="translate(129,8)"/>
</svg>
